<svg width="725" height="978" viewBox="0 0 725 978" fill="currentColo" xmlns="http://www.w3.org/2000/svg">
<path d="M724.8 0H0V40H724.8V0Z" fill="currentColor"/>
<path d="M724.8 121H0V161H724.8V121Z" fill="currentColor"/>
<path d="M724.8 241.9H0V281.9H724.8V241.9Z" fill="currentColor"/>
<path d="M724.8 362.9H0V402.9H724.8V362.9Z" fill="currentColor"/>
<path d="M724.8 483.8H0V523.8H724.8V483.8Z" fill="currentColor"/>
<path d="M724.8 604.8H0V644.8H724.8V604.8Z" fill="currentColor"/>
<path d="M137.5 826H0V866H137.5V826Z" fill="currentColor"/>
<path d="M724.8 826H587.3V866H724.8V826Z" fill="currentColor"/>
<path d="M270.6 978C229.4 978 190.6 956.3 189.9 903.4H236.1C236.8 926.1 252.4 936.4 270.6 936.4C290.5 936.4 304.7 924 304.7 901.2C304.7 880.2 291.9 866.4 269.2 866.4H262.4V826.2H269.1C291.5 826.2 301.1 812.3 301.1 794.6C301.1 773.3 286.9 762.3 270.2 762.3C252.8 762.3 240 773.7 238.9 792.9H192.7C193.8 747.8 227.5 720.8 270.2 720.8C315 720.8 347.3 750.6 347.3 793.3C347.3 820.7 334.9 836.3 318.2 845.2C336.3 854.8 350.9 872.2 350.9 902.8C350.9 953.1 313.9 978 270.6 978Z" fill="currentColor"/>
<path d="M451.9 978C410.7 978 374.8 951 374.8 902.7V796.1C374.8 747.8 410.7 720.8 451.9 720.8C493.1 720.8 528.7 747.8 528.7 796.1V902.7C528.7 951 493.1 978 451.9 978ZM482.5 796.8C482.5 775.5 470.1 762.3 451.9 762.3C433.7 762.3 421 775.4 421 796.8V902.3C421 923.6 433.8 936.4 451.9 936.4C470 936.4 482.5 923.6 482.5 902.3V796.8Z" fill="currentColor"/>
</svg>
