<svg width="17" height="17" viewBox="0 0 17 17" fill="none" xmlns="http://www.w3.org/2000/svg">
<path d="M16.0068 16.9283L9.80934 10.7283C9.31595 11.1412 8.74682 11.4596 8.10194 11.6836C7.45707 11.9077 6.79685 12.0197 6.12129 12.0197C4.4471 12.0197 3.03223 11.4417 1.87666 10.2857C0.721094 9.12962 0.143311 7.71712 0.143311 6.04816C0.143311 4.37921 0.720452 2.96588 1.87474 1.80818C3.029 0.650497 4.44149 0.0716553 6.11221 0.0716553C7.78293 0.0716553 9.19713 0.650223 10.3548 1.80736C11.5125 2.96447 12.0913 4.37831 12.0913 6.04886C12.0913 6.74737 11.974 7.42035 11.7394 8.06778C11.5048 8.71521 11.1917 9.27583 10.8 9.74963L17 15.9351L16.0068 16.9283ZM6.11734 10.6207C7.39747 10.6207 8.48 10.1788 9.36494 9.29511C10.2499 8.41141 10.6923 7.32807 10.6923 6.0451C10.6923 4.76214 10.2499 3.67899 9.36494 2.79566C8.48 1.91232 7.39667 1.47066 6.11494 1.47066C4.8332 1.47066 3.75067 1.91251 2.86734 2.79623C1.984 3.67995 1.54234 4.76328 1.54234 6.04623C1.54234 7.3292 1.98414 8.41235 2.86774 9.29568C3.75134 10.179 4.83454 10.6207 6.11734 10.6207Z" fill="#F2F1ED"/>
</svg>
