<svg xmlns="http://www.w3.org/2000/svg" width="17" height="17" viewBox="0 0 17 17" fill="none">
<path d="M15.8634 16.9283L9.66603 10.7283C9.17264 11.1412 8.60351 11.4596 7.95863 11.6836C7.31376 11.9077 6.65354 12.0197 5.97797 12.0197C4.30379 12.0197 2.88892 11.4417 1.73335 10.2857C0.577783 9.12963 0 7.71713 0 6.04816C0 4.37921 0.577142 2.96589 1.73143 1.80819C2.88569 0.650504 4.29818 0.0716619 5.9689 0.0716619C7.63962 0.0716619 9.05382 0.65023 10.2115 1.80736C11.3692 2.96448 11.948 4.37831 11.948 6.04886C11.948 6.74738 11.8307 7.42035 11.5961 8.06779C11.3615 8.71522 11.0484 9.27584 10.6567 9.74964L16.8567 15.9351L15.8634 16.9283ZM5.97403 10.6207C7.25416 10.6207 8.33669 10.1788 9.22163 9.29511C10.1066 8.41141 10.549 7.32808 10.549 6.04511C10.549 4.76215 10.1066 3.679 9.22163 2.79566C8.33669 1.91233 7.25336 1.47066 5.97162 1.47066C4.68989 1.47066 3.60736 1.91252 2.72403 2.79624C1.84069 3.67995 1.39902 4.76329 1.39902 6.04624C1.39902 7.3292 1.84083 8.41235 2.72443 9.29569C3.60803 10.179 4.69123 10.6207 5.97403 10.6207Z" fill="#CBBEA5"/>
</svg>