<?xml version="1.0" encoding="UTF-8"?><svg id="Layer_1" xmlns="http://www.w3.org/2000/svg" viewBox="0 0 1080 1080"><defs><style>.cls-1{fill:#0075e5;stroke-width:0px;}</style></defs><path class="cls-1" d="m560.97,135.73c86.89,5.83,169.25,49.14,220.51,141.06,7.58,13.6,34.88,64.75,37.37,131.89,3.08,82.98-36.34,146.02-90.41,235.03-15.24,25.09-11.31,15.63-52.81,79.22-8.8,13.48-43.95,67.49-89.78,142.6-18.95,31.05-35,57.98-47.53,79.22-24.29-37.24-44.18-68.1-58.09-89.78-39.84-62.07-70.5-110.89-100.35-158.44-34.24-54.55-51.36-81.82-52.81-84.5-28.2-51.92-76.83-141.44-63.95-232.81,18.76-133.01,165.14-252.39,297.86-243.48Z"/></svg>