<?xml version="1.0" encoding="UTF-8"?>
<svg id="Layer_8" data-name="Layer 8" xmlns="http://www.w3.org/2000/svg" xmlns:xlink="http://www.w3.org/1999/xlink" viewBox="0 0 1280 1280">
  <defs>
    <style>
      .cls-1 {
        clip-path: url(#clippath);
      }

      .cls-2, .cls-3 {
        fill: #1d1c1d;
      }

      .cls-4 {
        clip-path: url(#clippath-1);
      }

      .cls-5 {
        stroke-width: 2px;
      }

      .cls-5, .cls-6 {
        fill: none;
        stroke: #f2f1ed;
        stroke-miterlimit: 10;
      }

      .cls-6 {
        stroke-width: 4px;
      }

      .cls-3 {
        stroke-width: 0px;
      }
    </style>
    <clipPath id="clippath">
      <rect class="cls-3" width="1280" height="1280"/>
    </clipPath>
    <clipPath id="clippath-1">
      <rect class="cls-3" x="-3251.52" y="9.42" width="3060.1" height="1260.5"/>
    </clipPath>
  </defs>
  <rect class="cls-3" width="1280" height="1280"/>
  <g>
    <rect class="cls-2" width="1280" height="1280"/>
    <g class="cls-1">
      <g>
        <path class="cls-5" d="m-665.48,877.58l-9,150c-4.1,112.85-6.91,195.97-8.87,227.2-.26,4.21-1.01,15.41,4.87,26.8,7.34,14.22,21.82,22.6,45,30,32.25,10.29,57.69,11.13,104,13,13.08.53,38.08,1.55,71,3l749,32"/>
        <polyline class="cls-5" points="-547.12 882.92 -454.98 882.92 70.96 909.38 1545.52 983.58"/>
        <path class="cls-5" d="m-757.48,1286.58c3.18-7.95,9.26-19.75,21-29,18.61-14.66,40.69-14.45,60-14,60.24,1.41,90.36,2.12,154,7,24.88,1.91,46.82,3.16,65,4l1746.09,83.71"/>
        <polyline class="cls-5" points="-830.48 1168.58 -456.48 1181.58 665.46 1233.18 1172.52 1254.58 1288.61 1261.26"/>
        <polyline class="cls-5" points="-681.17 1208.97 -456.48 1219.58 663.52 1269.91"/>
        <polyline class="cls-5" points="-841.48 1093.58 -457.48 1111.81 -173.66 1111.81 532.52 1150.81 537.16 1150.81"/>
        <line class="cls-5" x1="428.52" y1="933.58" x2="418.88" y2="1144.54"/>
        <polyline class="cls-5" points="309.52 925.58 298.7 1137.9 290.52 1383.07 406.52 1381.58 414.89 1221.66 446.84 1223.13 446.84 1146.08"/>
        <polyline class="cls-5" points="168.42 1354.36 183.11 1131.51 183.11 1066.43 189.78 915.36 -44.63 903.57 -53.48 1055.58 -67.38 1381.58"/>
        <polyline class="cls-5" points="50.36 1381.58 63.52 1124.91 63.52 1060.58 70.96 909.38"/>
        <line class="cls-5" x1="-55.1" y1="1093.58" x2="61.2" y2="1097.23"/>
        <polyline class="cls-5" points="829.57 947.56 829.57 1017.54 811.52 1383.58 792.52 1829.58"/>
        <polyline class="cls-5" points="957.52 851.58 951.95 953.71 932.52 1383.58"/>
        <polyline class="cls-5" points="1068.07 959.56 1050.84 1381.58 1046.49 1444.85"/>
        <path class="cls-5" d="m1206.52,498.58l-49.5,977.94c-1.8,31.22-3.6,62.44-5.4,93.66,11.2,9.96,25.45,24.53,38.9,44.41,15.44,22.83,23.01,42.6,25,48,10.13,27.43,11.24,48.77,13,89,.94,21.53,1.32,50.9-1,86"/>
        <polyline class="cls-5" points="1248.36 1837.58 1248.36 1699.82 1279.52 1607.58 1288.61 1431.44 1288.61 1383.07 1288.61 1118.58 1310.52 867.58 1320.52 652.58"/>
        <line class="cls-5" x1="822.12" y1="1168.58" x2="1288.61" y2="1190.15"/>
        <path class="cls-6" d="m-761.48,617.58c14.42,1.99,33.9,4.52,57,7,51.26,5.51,92.88,7.85,119,9,112.28,4.92,168.42,7.38,220-7,9.45-2.64,27.55-8.1,102-46,102.76-52.31,109.28-66.78,200-111,73.56-35.86,82.32-31.88,109-56,39.99-36.15,35.81-59.1,84-107,25.21-25.06,47.14-39.37,91-68,45.22-29.52,67.83-44.28,102-55,12.69-3.98,40.12-7.99,95-16,41.87-6.11,63.85-8.23,97-19,23.36-7.59,23.18-10.03,42-16,32.57-10.33,57.72-10.83,107-11,128.96-.43,116.48,2.48,135,0,42.6-5.69,62.6-14.93,95-5,20.49,6.28,31.78,15.89,51,30,38.39,28.18,28.62,15.72,113,70,109.66,70.54,94.33,71.1,142,97,72.83,39.56,88.89,27.54,232,86,50.86,20.78,88.06,38.32,100,44,87.16,41.47,148.63,79.12,163,88,61.48,37.98,111.22,74.55,144,100,51.82,40.23,64.21,54.94,102,72,37.19,16.79,56.84,16.85,93,37,34.71,19.35,58.84,42.85,74,60-7.95,14.01-19.62,35.05-33,61-41.52,80.54-54.06,120.36-72,156-35.57,70.64-59.26,59.05-140,156-47.02,56.46-107.54,130.55-141,241-10.96,36.17-29.29,98.67-24,178,2.36,35.3,7.78,49.74,10,86,4.26,69.51-8.88,126.82-21,165"/>
        <path class="cls-6" d="m3126.52,840.58c-20.24,14.82-55.54,35.99-102,40-14,1.21-64.99,3.96-167-56-85.43-50.22-72.01-65.29-131-96-42.08-21.91-49.04-14.31-239-53-119.53-24.35-134.12-30.89-146-37-46.08-23.72-69.67-50.41-125-62-34.47-7.22-60.47-4.22-77-3-81.81,6.05-152.88-15.97-295-60-111.86-34.65-167.79-51.98-227-91-32.91-21.69-58.87-43.84-112-69-42.3-20.03-50.02-17.43-129-45-55.55-19.39-112.67-39.55-179-74-53.22-27.64-79.83-41.46-102-62-53.96-50.01-44.09-81.46-112-170-50-65.19-80.56-81.01-91-86-17.98-8.59-31.25-11.32-108-19-155.17-15.54-169.72-11.28-182-6-44.02,18.94-38.03,42.19-100,71-36.84,17.12-48.94,13.55-83,31-44.23,22.67-69.88,52.31-86,70-75.69,83.07-164.26,147.42-216,185-47.34,34.39-90.23,59.93-176,111-42.94,25.57-78.81,45.81-133,82-57.29,38.26-62.87,46.13-88,62-78.85,49.8-157.1,56.44-258,65-62.02,5.26-148.78,7.02-252-9"/>
        <path class="cls-6" d="m373.52,136.58c3.01-9.6,11.05-15.86,27-28,16.28-12.38,24.42-18.58,25-19,8.41-6.09,19.72-15.14,42-33,88.93-71.26,88.27-73.76,104-80,21.58-8.56,26.17-5.2,76-22,26.54-8.95,27.01-10.5,40-14,38.76-10.45,71.7-6.66,93-4,29.36,3.66,64.88,8.09,101,32,21.73,14.38,34.15,29.92,59,61,26.81,33.53,22.51,37.89,51,80,0,0,8.65,12.79,14,32,3.9,13.99,2.32,18.15,1.29,19.63-.12.17-.19.26-.29.37-4.49,4.86-25.42-7.76-34-13-33.8-20.63-37.77-32.05-58-44-21.38-12.63-42.25-14.09-84-17-23.91-1.67-41.29-.65-68,1-46.85,2.9-55.47,6.63-95,10-75.62,6.45-70.27-4.94-112,4-27.18,5.82-66.94,18.69-97,31-13.36,5.47-27.36,9.27-41,14-26.23,9.1-37.6,13.33-43,8-5.31-5.25-1.73-16.68-1-19Z"/>
        <path class="cls-6" d="m-789.48,1023.78l2656,116.48,73.39-46.18c7.9,8.63,21.88,21.43,42.61,28.5,5.65,1.93,16.06,4.88,50,5,15.28.05,36.49-.46,62-3-.45,11.98-.94,32.54,0,58,2.69,72.68,14.46,114.86,30,230,7.07,52.38,8.62,73.19,1,100-11.15,39.22-34.26,64.27-45,76-49.62,54.19-135.1,151.58-248,278"/>
        <path class="cls-6" d="m3099.52,1504.58c-142.93-78.71-256.4-146.77-336-196-188.26-116.43-282.39-174.64-299-187-17.9-13.32-61.24-46.18-126-78-21.96-10.79-42.08-19.34-123-48-117.66-41.66-176.49-62.5-225-73-47.52-10.29-83.05-13.98-157-20-222.42-18.12-332-22-332-22-160.43-5.68-320.63-16.73-481-24-273.74-12.42-479.29-21.48-491-22-581.02-25.63-599.55-26.8-752-33-131.63-5.35-325.4-12.92-563-21"/>
        <path class="cls-6" d="m572.52,1853.58c-13.33-31.33-26.67-62.67-40-94,.61-63.94,1.44-162.35,2-283,1.17-250.74-.21-297.39,3-424,3.32-131.02,8.77-238.07,13-320,5.79-112.15,11.78-204.04,16-265"/>
        <path class="cls-6" d="m663.52,472.58c1.29,448.33,2.58,896.67,3.87,1345"/>
        <path class="cls-6" d="m-501.48,675.58c40.01,3.1,73.53.45,98-3,18.2-2.57,46.73-6.76,82-20,5.73-2.15,21.56-8.26,42-19,42.29-22.21,70.42-46.39,82-56,20.59-17.1,106.55-88.48,213-115,38.6-9.61,79-11,79-11,30.63-1.53,53.58.47,60,1,200.23,16.39,459,17,459,17,116.65-.03,322.13,7.46,712,40-1.67,48.67-3.33,97.33-5,146-280.72-9.39-561.39-20.06-842-32-210.36-8.95-420.69-18.62-631-29"/>
        <path class="cls-6" d="m-150.48,541.58c63.85-6.7,161.52-14.85,281-16,134.36-1.3,176.11,7.41,413,21,52.35,3,188.57,8.67,461,20,137.28,5.71,248.66,10.19,319,13"/>
        <line class="cls-6" x1="1100.52" y1="-361.3" x2="1081.62" y2="647.28"/>
        <polyline class="cls-6" points="-23.48 -385.42 -23.48 290.92 94.52 451.58 82.96 673.08 74.51 814.43"/>
        <polyline class="cls-6" points="-785.48 949.58 1543.52 1047.58 1550.86 882.92"/>
        <path class="cls-5" d="m189.52,915.58c5.16-154.42,11.82-308.75,20-463,1.61-30.33,3.27-60.67,5-91l239,7"/>
        <line class="cls-5" x1="1191.49" y1="795.61" x2="-154.48" y2="722.58"/>
        <line class="cls-5" x1="1195.18" y1="722.58" x2="198.69" y2="676.95"/>
        <polyline class="cls-5" points="311.91 824.96 330.24 463 330.24 364.97"/>
        <polyline class="cls-5" points="429.63 824.96 446.84 467.58 462.52 252.58 572.52 255.66 667.39 258.32 667.39 331.69 667.39 472.58"/>
        <path class="cls-5" d="m731.01,848.58l5.64-376.8c.36-92.65,1.14-160.28,1.87-171.32.18-2.75.65-6.4,3-9.88,2.48-3.66,5.64-5.04,15-10,7.04-3.73,10.56-5.6,11-6,2.9-2.65,6.03-7.66,5-34-.66-16.98-2.19-20.7,0-30,2.97-12.62,8.39-16.85,10-18,5.03-3.59,10.5-3.87,14-4,22.52-.86,33.79-1.29,59-1,16.52.19,24.78.29,29,0,0,0,12.78-.88,27.45.66,1.84.19,6.08.7,10.55,3.34,1.06.63,2.61,1.52,4,3,3.7,3.93,3.93,9.4,4,12,.82,28.96,1,60,1,60"/>
        <line class="cls-5" x1="957.52" y1="851.58" x2="980.49" y2="267.45"/>
        <polyline class="cls-5" points="212.96 389.32 1085.8 424.26 1211.52 430.58"/>
        <line class="cls-5" x1="566.52" y1="467.58" x2="572.52" y2="255.66"/>
        <polyline class="cls-5" points="457.26 324.79 667.39 331.69 853.53 339.77 1088.52 348.62"/>
        <line class="cls-5" x1="212.96" y1="424.26" x2="566.52" y2="441.18"/>
        <path class="cls-5" d="m1320.52,652.58l458.51,24.37,3.98,221.6-121.91-8.89,16-323.2-588.59-287.88c-11.33-3.33-22.67-6.67-34-10-65.33-1-130.67-2-196-3-6.65,93.3-12.07,189.34-16,288-4.02,100.99-6.27,199.38-7,295"/>
        <line class="cls-5" x1="1216.48" y1="341.17" x2="1206.52" y2="498.58"/>
        <polyline class="cls-5" points="666.53 -113.24 666.53 -259.21 449.52 -262.42 50.95 112.19 -23.48 112.19 -23.48 211.72 56.05 211.72 460.5 -180.22 459.47 -129.35 77.52 228.58 104.63 257.81"/>
        <line class="cls-5" x1="212.81" y1="176.18" x2="153.12" y2="117.65"/>
        <line class="cls-5" x1="298.85" y1="99.57" x2="94.52" y2="-119.01"/>
        <path class="cls-5" d="m387.15,13.41l-208.63-209.83c-52,49.31-90.77,85.15-101,94-8.7,7.54-17,14-17,14h0s-7.84,5.97-14,10c-7.12,4.66-21.84,3.03-40,2-7.09-.4-17.38-.87-30-1"/>
        <polyline class="cls-5" points="102.97 63.3 54.92 13.41 452.52 -359.42"/>
        <line class="cls-5" x1="39.78" y1="304.83" x2="35.52" y2="-351.18"/>
        <line class="cls-5" x1="1.4" y1="324.79" x2="4.77" y2="-359.42"/>
        <line class="cls-5" x1="-23.48" y1="19.03" x2="37.92" y2="19.03"/>
        <line class="cls-5" x1="-22.66" y1="133.46" x2="37.92" y2="133.46"/>
        <line class="cls-5" x1="38.9" y1="169.41" x2="212.81" y2="7.53"/>
        <line class="cls-5" x1="76.36" y1="35.66" x2="457.26" y2="-321.62"/>
        <path class="cls-5" d="m1222.52-365.42c-2,89.67-4,179.33-6,269V35.58c-.67,20.67-1.33,41.33-2,62,1.65,1.89,4.59,4.82,9,7,5.55,2.75,10.65,2.94,13,3,9.41.25,47.25.83,99,1"/>
        <path class="cls-5" d="m1092.52,47.58c8.3-.45,17.35-.25,27,1,46.81,6.09,79.34,33.44,95,49"/>
        <polyline class="cls-5" points="1331.27 -365.42 1335.52 125.48 1425.6 125.48 1425.6 40.39 1216.52 35.58"/>
        <line class="cls-5" x1="1214.52" y1="72.47" x2="1585.23" y2="77.64"/>
      </g>
    </g>
  </g>
  <g>
    <rect class="cls-2" x="-3251.52" y="9.42" width="3060.1" height="1260.5"/>
    <g class="cls-4">
      <g>
        <path class="cls-6" d="m-854,1853c7.44-12.02,17.07-30.33,23-54,12.05-48.13,1.05-87.53-5-115,0,0-18.29-82.99-11-177,8.29-106.92,64.3-185.81,79-206,24.87-34.16,62.91-70.78,139-144,32.23-31.01,40.4-37.38,54-56,17.78-24.34,22.68-39.28,65-146,8.56-21.58,27.99-69.45,62-100,6.96-6.25,17.84-14.75,33-17,22.1-3.27,40.59,8.63,46,12,54.61,33.96,121.71,42.79,179,72,0,0,114.73,58.5,250,98,244.4,71.37,506.44-26.88,574-54"/>
        <path class="cls-6" d="m553,850c-20.24,14.82-55.54,35.99-102,40-14,1.21-64.99,3.96-167-56-85.43-50.22-72.01-65.29-131-96-42.08-21.91-49.04-14.31-239-53-119.53-24.35-134.12-30.89-146-37-46.08-23.72-69.67-50.41-125-62-34.47-7.22-60.47-4.22-77-3-81.81,6.05-152.88-15.97-295-60-111.86-34.65-167.79-51.98-227-91-32.91-21.69-58.87-43.84-112-69-42.3-20.03-50.02-17.43-129-45-55.55-19.39-112.67-39.55-179-74-53.22-27.64-79.83-41.46-102-62-53.96-50.01-44.09-81.46-112-170-50-65.19-80.56-81.01-91-86-17.98-8.59-31.25-11.32-108-19-155.17-15.54-169.72-11.28-182-6-44.02,18.94-38.03,42.19-100,71-36.84,17.12-48.94,13.55-83,31-44.23,22.67-69.88,52.31-86,70-75.69,83.07-164.26,147.42-216,185-47.34,34.39-90.23,59.93-176,111-42.94,25.57-78.81,45.81-133,82-57.29,38.26-62.87,46.13-88,62-78.85,49.8-157.1,56.44-258,65-62.02,5.26-148.78,7.02-252-9"/>
        <path class="cls-6" d="m381,931c-.59-5.64-17.24-4.94-40-13-23.29-8.25-39.19-21.83-71-49-9.48-8.1-27.23-23.36-48-46-22.07-24.06-23.57-30.32-37-41-22.69-18.05-46.83-22.81-64-26-90.63-16.83-135.95-25.24-165-29-81.16-10.5-122.33-15.94-151-25-26.04-8.23-66.69-21.08-112-50-20.23-12.91-21.22-16.16-37-24-11.01-5.47-55.2-26.76-111-21-31.69,3.27-39.68,12.43-71,10-13-1.01-23.51-4.02-44-10-39.56-11.54-87.58-29.17-128-31-7.63-.35-19.81-.35-23,6-2.42,4.81,1.35,11.25,3,14,21.22,35.27,100,56,100,56,32.96,8.67,37.08,5.87,61,15,20.59,7.86,30.12,14.73,56,30,52.85,31.17,79.27,46.75,99,51,35.13,7.56,45.82-2.82,85,10,9.91,3.24,7.4,3.31,43,19,44.02,19.4,66.28,29.12,79,30,29.75,2.06,36.38-10.52,63-4,17.27,4.23,28.23,12.9,40,22,27.53,21.28,57.38,39.59,84,62,66.4,55.9,155.51,72.9,181,77,76.3,12.27,131.15-2.91,164-12,7.25-2.01,44.89-12.42,44-21Z"/>
        <path class="cls-6" d="m-1121-407l53,129V-103.82c15.08,17.33,37.21,42.8,64,73.82,0,0,38.82,44.95,99,125,10.46,13.91,21.61,29.02,29,52,9.55,29.71,7.08,54.75,6,67-3.76,42.71-5.66,100.97-6,182,8.05,2.55,20.02,6.69,34,13,33.89,15.29,52.73,31.16,72,44,0,0,26.74,17.81,87,40,107.83,39.71,150.48-19.66,264,16,34.32,10.78,72.66,29.48,125,55,46.03,22.44,59.44,31.55,90,39,9.69,2.36,32.66,7.38,111,6,72.77-1.28,79.65-6.08,114-5,60.41,1.89,80.18,18.02,140,32,146.22,34.16,288.13-1.45,378-24,15.91-3.99,28.81-7.63,37-10"/>
        <path class="cls-6" d="m-1077.32-300.69l243.32,9.69,38,9c488.95.82,687.58.7,700.89,0,.57-.03,8.32-.46,18.76,0,11.76.51,17.64.77,24.35,3,11.2,3.72,18.41,10.55,23,15,5.22,5.06,5.05,6.34,17,22,8.67,11.36,13.07,17.08,16,19,10.53,6.9,22.6,5.96,35,5,5.78-.45,17.42-1.79,32-7,21.44-7.67,27.99-16.11,45-16,4.77.03,9.4.12,14,3,9.29,5.83,7.65,16.31,15,21,4.72,3.02,11.55,1.05,25-3,61.14-18.42,45.49-12.7,60-19,11.82-5.13,22.03-10.42,34-7,1.37.39,5.8,1.76,10,5,14.67,11.31,14.14,35.85,14,43-2.07,104.02-.9,208.08-2.45,312.11-.12,8.07.85,15.61-.38,29.75-.37,4.21-.95,9.26-.16,16.14.9,7.85,3.07,13.55,4,16,4.32,11.4,17.33,45.7,23,67,3.32,12.46,4.39,21.48,6,35,4.67,39.26.38,61.14-5,130-2.62,33.52-3.62,54.18-8,93-4.37,38.77-7.24,52.44-16,68-5.08,9.02-20.28,36.01-52,47-24.5,8.49-46.11,3.01-58,0-34.4-8.71-59.16-30.54-73-43-24.49-22.04-36.06-41.88-58-43-2.93-.15-10.96-.46-19,4-7.85,4.36-13.31,11.93-18,25C.08,589.45,1.24,627.75,2,642c-7.63,1.56-20.68,3.9-37,5-41.23,2.78-63.78-5-116-9-11.54-.89-29.55-1.97-52-2-3.35,33.14-5.78,58-7,70-.16,1.54-.53,5.22,0,10,1.28,11.51,6.75,19.7,9,23,7.84,11.47,17.87,17.26,31,25,40.54,23.91,24.94,15.98,40,24,0,0,63.88,34.01,106,62,3.39,2.26,10.56,7.15,14,16,4.12,10.6.62,21.03-1,26-8.27,25.29-12.21,51.89-21,77-19.48,55.68-18.81,54.15-20,57-12.16,29.1-24.22,49.38-36,69-68.18,113.63-76.19,125.25-91,156-20.65,42.89-28.78,69.52-31,77-12.18,41.02-15.73,75.23-17,93-.74,10.42-.92,18.31-1,22-2.45,114.92,0,179,0,179,1.85,48.33,3.64,128.65,3,267"/>
        <path class="cls-6" d="m-956.57,28.07v181.01H-76.97v179.5c20.29,14.32,50.03,39.24,74.97,78.42,15.81,24.83,25.23,48.39,31,67"/>
        <path class="cls-6" d="m526,1514c-142.93-78.71-256.4-146.77-336-196C1.74,1201.57-92.39,1143.36-109,1131c-17.9-13.32-61.24-46.18-126-78-21.96-10.79-42.08-19.34-123-48-117.66-41.66-176.49-62.5-225-73-47.52-10.29-83.05-13.98-157-20-222.42-18.12-332-22-332-22-160.43-5.68-320.63-16.73-481-24-273.74-12.42-479.29-21.48-491-22-581.02-25.63-599.55-26.8-752-33-131.63-5.35-325.4-12.92-563-21"/>
        <polyline class="cls-5" points="227.68 1345.22 198 1389 181.29 1389.34 -100 1395 15.26 1209.82 52.48 1148.03 210.89 1096.6 331 1096.6 331 1238.82 331 1385.1 660 1385"/>
        <polyline class="cls-5" points="-280.79 1033.2 -307 1093 -231.02 1140.21 170.33 1389.56"/>
        <polyline class="cls-5" points="87.79 1389.56 146.2 1290.91 185 1231"/>
        <line class="cls-5" x1="-73.34" y1="1069.89" x2="331" y2="1321"/>
        <line class="cls-5" x1="594" y1="1240" x2="331" y2="1238.82"/>
        <line class="cls-5" x1="405.69" y1="1385.07" x2="405.69" y2="1239.41"/>
        <polyline class="cls-5" points="233.3 1260.33 233.3 1146 282.15 1146 331 1146"/>
        <line class="cls-5" x1="282.15" y1="1290.66" x2="282.15" y2="1146"/>
        <polyline class="cls-5" points="-958 100.03 -56.41 100.03 18 161 18 281.04 -786.56 275"/>
        <path class="cls-5" d="m101.36-103.82c-.37,9.26-.44,23.51,1.64,40.82,2.27,18.89,5,24.06,4,36-.35,4.18-2.13,25.49-17,41-21.74,22.68-56.92,17.78-62,17C-15.99,24.21-43.71-18.57-55-36c-18.14-28-19.31-45.96-44-69-12.43-11.6-24.72-18.79-33-23-43.33-16.33-86.67-32.67-130-49"/>
        <path class="cls-5" d="m-255-215c12.55,4.85,30.87,12.03,53,21,41.29,16.75,52.14,22.05,58,25,36.51,18.36,52.78,32.3,57,36,13.06,11.45,21.42,21.75,24,25,9.24,11.65,15.24,22.13,18,27,3.12,5.5,2.65,5.21,10,19,6.66,12.48,10.04,18.8,13,23C-14.74-28.68-7.42-22.1-5-20-1.03-16.55,7.3-9.41,20-4c15.07,6.42,28.96,7.29,38,7"/>
        <path class="cls-5" d="m-238-251c2.92,2.76,7.63,6.87,14,11,10.58,6.86,19.8,9.91,23,11,16.14,5.48,32.01,12.85,56,24,29.33,13.62,49.78,28.49,60,36,23.93,17.58,36.85,31.55,40,35,12.18,13.37,19.31,24.36,21,27,8.17,12.78,9.66,18.59,15,28C1.83-59.92,14.29-51.08,25-41,49.4-18.05,64.17,15.72,70,27c1.31,2.54,4.14,8.13,9,15,7.66,10.83,14.5,16.55,20,22,1.77,1.75,16.26,16.34,25,35,6.54,13.97,7.7,25.98,10,50,2.26,23.51-.35,22.5,2,40,2.34,17.4,6.48,30.05,14,53,4.97,15.16,9.64,27.52,13,36-24.67.67-49.33,1.33-74,2-4.79-16.72-18.37-65.98-23-113-1.52-15.43-1.35-26.96-1-50,.27-17.79,1.06-25.91,5-35,5.62-12.98,14.76-21.31,21-26"/>
        <path class="cls-5" d="m37,32c1.13,4.44,2.06,10.96,0,18-1.97,6.73-5.37,9.43-10,16,0,0-9.07,12.87-13,29-2.21,9.07-1.81,16.05-1,30,.87,14.98,1.42,24.52,6,36,3.52,8.84,7.8,14.72,16,26,10.03,13.8,14.33,16.21,19,27,3.29,7.61,1.73,7.75,6,18,2.44,5.86,5.95,14.13,13,23,4.58,5.76,9.25,10.01,13,13"/>
        <path class="cls-5" d="m124,279c-14.81-29.88-20.03-54.62-22-72-3.08-27.14-4-50-4-50-.84-21-.14-30.01-5-42-5.91-14.59-16.26-24.21-24-30"/>
        <line class="cls-5" x1="66" y1="167" x2="163" y2="164.22"/>
        <path class="cls-5" d="m96,6c5.45,9.22,10.55,17.26,15,24,3.89,5.89,10.36,15.44,19,27,6.22,8.32,7.57,9.67,10,13,4.28,5.88,12.29,18.44,18,45,5.08,23.59.38,21.19,5,58,0,0,4.7,37.39,14,60,5.06,12.3,6,14,6,14,2.46,4.46,4.28,6.67,5,11,.33,2.01,1,6.03-1,10-2.37,4.69-7.04,6.48-11,8-4.85,1.86-9.42,2.19-13,2"/>
      </g>
    </g>
  </g>
</svg>