<?xml version="1.0" encoding="UTF-8"?>
<svg id="Layer_8" data-name="Layer 8" xmlns="http://www.w3.org/2000/svg" xmlns:xlink="http://www.w3.org/1999/xlink" viewBox="0 0 3060.1 1260.5">
  <defs>
    <style>
      .cls-1 {
        clip-path: url(#clippath);
      }

      .cls-2, .cls-3 {
        fill: #1d1c1d;
      }

      .cls-4 {
        fill: #fff;
      }

      .cls-4, .cls-5, .cls-6 {
        stroke: #f2f1ed;
        stroke-miterlimit: 10;
      }

      .cls-4, .cls-6 {
        stroke-width: 4px;
      }

      .cls-7 {
        clip-path: url(#clippath-1);
      }

      .cls-5 {
        stroke-width: 2px;
      }

      .cls-5, .cls-6 {
        fill: none;
      }

      .cls-3 {
        stroke-width: 0px;
      }
    </style>
    <clipPath id="clippath">
      <rect class="cls-3" x="3251.52" y="-9.42" width="1280" height="1280"/>
    </clipPath>
    <clipPath id="clippath-1">
      <rect class="cls-3" width="3060.1" height="1260.5"/>
    </clipPath>
  </defs>
  <g>
    <rect class="cls-2" x="3251.52" y="-9.42" width="1280" height="1280"/>
    <g class="cls-1">
      <g>
        <line class="cls-5" x1="2487.04" y1="976.16" x2="2796.54" y2="989.51"/>
        <path class="cls-5" d="m2586.04,868.16l-9,150c-4.1,112.85-6.91,195.97-8.87,227.2-.26,4.21-1.01,15.41,4.87,26.8,7.34,14.22,21.82,22.6,45,30,32.25,10.29,57.69,11.13,104,13,13.08.53,38.08,1.55,71,3l749,32"/>
        <polyline class="cls-5" points="2487.04 861.69 2704.4 873.5 2698.04 1025.16 2680.52 1372.16"/>
        <polyline class="cls-5" points="2704.4 873.5 2796.54 873.5 3322.48 899.97 4797.04 974.16"/>
        <path class="cls-5" d="m2494.04,1277.16c3.18-7.95,9.26-19.75,21-29,18.61-14.66,40.69-14.45,60-14,60.24,1.41,90.36,2.12,154,7,24.88,1.91,46.82,3.16,65,4l1746.09,83.71"/>
        <polyline class="cls-5" points="2421.04 1159.16 2795.04 1172.16 3916.98 1223.76 4424.04 1245.16 4540.13 1251.84"/>
        <line class="cls-5" x1="2477.04" y1="1121.82" x2="2692.59" y2="1133.16"/>
        <polyline class="cls-5" points="2570.35 1199.55 2795.04 1210.16 3915.04 1260.49"/>
        <polyline class="cls-5" points="2696.22 1061.13 2795.04 1064.16 3080.04 1074.16"/>
        <polyline class="cls-5" points="3068.22 1372.16 3080.04 1041.46 3083.44 887.94 2964.76 881.97 2957.05 1038.16 2946.17 1376.16"/>
        <line class="cls-5" x1="2794.04" y1="1133.16" x2="3074.13" y2="1149.63"/>
        <polyline class="cls-5" points="2410.04 1084.16 2794.04 1102.39 3077.86 1102.39 3784.04 1141.4 3788.68 1141.4"/>
        <line class="cls-5" x1="2840.04" y1="1029.16" x2="2843.55" y2="875.87"/>
        <line class="cls-4" x1="2801.04" y1="-448.84" x2="2792.04" y2="1875.16"/>
        <path class="cls-6" d="m2490.04,608.16c14.42,1.99,33.9,4.52,57,7,51.26,5.51,92.88,7.85,119,9,112.28,4.92,168.42,7.38,220-7,9.45-2.64,27.55-8.1,102-46,102.76-52.31,109.28-66.78,200-111,73.56-35.86,82.32-31.88,109-56,39.99-36.15,35.81-59.1,84-107,25.21-25.06,47.14-39.37,91-68,45.22-29.52,67.83-44.28,102-55,12.69-3.98,40.12-7.99,95-16,41.87-6.11,63.85-8.23,97-19,23.36-7.59,23.18-10.03,42-16,32.57-10.33,57.72-10.83,107-11,128.96-.43,116.48,2.48,135,0,42.6-5.69,62.6-14.93,95-5,20.49,6.28,31.78,15.89,51,30,38.39,28.18,28.62,15.72,113,70,109.66,70.54,94.33,71.1,142,97,72.83,39.56,88.89,27.54,232,86,50.86,20.78,88.06,38.32,100,44,87.16,41.47,148.63,79.12,163,88,61.48,37.98,111.22,74.55,144,100,51.82,40.23,64.21,54.94,102,72,37.19,16.79,56.84,16.85,93,37,34.71,19.35,58.84,42.85,74,60-7.95,14.01-19.62,35.05-33,61-41.52,80.54-54.06,120.36-72,156-35.57,70.64-59.26,59.05-140,156-47.02,56.46-107.54,130.55-141,241-10.96,36.17-29.29,98.67-24,178,2.36,35.3,7.78,49.74,10,86,4.26,69.51-8.88,126.82-21,165"/>
        <path class="cls-6" d="m6378.04,831.16c-20.24,14.82-55.54,35.99-102,40-14,1.21-64.99,3.96-167-56-85.43-50.22-72.01-65.29-131-96-42.08-21.91-49.04-14.31-239-53-119.53-24.35-134.12-30.89-146-37-46.08-23.72-69.67-50.41-125-62-34.47-7.22-60.47-4.22-77-3-81.81,6.05-152.88-15.97-295-60-111.86-34.65-167.79-51.98-227-91-32.91-21.69-58.87-43.84-112-69-42.3-20.03-50.02-17.43-129-45-55.55-19.39-112.67-39.55-179-74-53.22-27.64-79.83-41.46-102-62-53.96-50.01-44.09-81.46-112-170-50-65.19-80.56-81.01-91-86-17.98-8.59-31.25-11.32-108-19-155.17-15.54-169.72-11.28-182-6-44.02,18.94-38.03,42.19-100,71-36.84,17.12-48.94,13.55-83,31-44.23,22.67-69.88,52.31-86,70-75.69,83.07-164.26,147.42-216,185-47.34,34.39-90.23,59.93-176,111-42.94,25.57-78.81,45.81-133,82-57.29,38.26-62.87,46.13-88,62-78.85,49.8-157.1,56.44-258,65-62.02,5.26-148.78,7.02-252-9"/>
        <path class="cls-6" d="m2462.04,1014.36l2656,116.48,73.39-46.18c7.9,8.63,21.88,21.43,42.61,28.5,5.65,1.93,16.06,4.88,50,5,15.28.05,36.49-.46,62-3-.45,11.98-.94,32.54,0,58,2.69,72.68,14.46,114.86,30,230,7.07,52.38,8.62,73.19,1,100-11.15,39.22-34.26,64.27-45,76-49.62,54.19-135.1,151.58-248,278"/>
        <path class="cls-6" d="m6351.04,1495.16c-142.93-78.71-256.4-146.77-336-196-188.26-116.43-282.39-174.64-299-187-17.9-13.32-61.24-46.18-126-78-21.96-10.79-42.08-19.34-123-48-117.66-41.66-176.49-62.5-225-73-47.52-10.29-83.05-13.98-157-20-222.42-18.12-332-22-332-22-160.43-5.68-320.63-16.73-481-24-273.74-12.42-479.29-21.48-491-22-581.02-25.63-599.55-26.8-752-33-131.63-5.35-325.4-12.92-563-21"/>
        <path class="cls-6" d="m2750.04,666.16c40.01,3.1,73.53.45,98-3,18.2-2.57,46.73-6.76,82-20,5.73-2.15,21.56-8.26,42-19,42.29-22.21,70.42-46.39,82-56,20.59-17.1,106.55-88.48,213-115,38.6-9.61,79-11,79-11,30.63-1.53,53.58.47,60,1,200.23,16.39,459,17,459,17,116.65-.03,322.13,7.46,712,40-1.67,48.67-3.33,97.33-5,146-280.72-9.39-561.39-20.06-842-32-210.36-8.95-420.69-18.62-631-29"/>
        <polyline class="cls-6" points="2466.04 940.16 4795.04 1038.16 4802.38 873.5"/>
        <polyline class="cls-5" points="2477.04 92.57 2644.56 92.57 2798.99 80.83"/>
        <polyline class="cls-5" points="2481.04 239.16 2796.54 242.66 3228.04 242.26"/>
        <polyline class="cls-5" points="2487.04 348.16 2797.95 348.16 3090.5 242.66"/>
        <polyline class="cls-5" points="2487.04 531.11 2630.53 514 2797.95 494.05 2854.54 481.36 2937.24 384.62"/>
        <line class="cls-5" x1="2630.36" y1="240.82" x2="2630.53" y2="514"/>
        <line class="cls-5" x1="2797.67" y1="420.55" x2="2472.86" y2="420.55"/>
        <line class="cls-5" x1="2477.04" y1="283.43" x2="2798.21" y2="280.95"/>
        <polyline class="cls-5" points="2652.59 240.82 2652.59 91.96 2646.33 -267.4 2645.54 -312.88"/>
        <polyline class="cls-5" points="2724.24 240.91 2724.24 86.7 2724.24 -308.39 2704.04 -395.84"/>
        <line class="cls-5" x1="2652.59" y1="132.91" x2="2493.04" y2="135.16"/>
        <line class="cls-5" x1="2490.04" y1="173.36" x2="2652.59" y2="173.36"/>
        <line class="cls-5" x1="2687.6" y1="241.45" x2="2684.43" y2="-309.9"/>
        <line class="cls-5" x1="2760.52" y1="242.26" x2="2763.52" y2="-309.9"/>
        <line class="cls-5" x1="2574.98" y1="-147.72" x2="2574.98" y2="92.57"/>
        <line class="cls-5" x1="2610.26" y1="-147.72" x2="2610.26" y2="92.57"/>
        <line class="cls-5" x1="2796.54" y1="457.84" x2="2481.04" y2="457.84"/>
        <polyline class="cls-5" points="2801.04 -300.6 2942.5 -300.6 2948.63 240.91"/>
        <polyline class="cls-5" points="3018.04 50.16 3018.04 -106.26 3086.39 -108.9 3086.39 -5.9"/>
        <path class="cls-5" d="m2798.21,205.08c9.04,1.29,21.1,1.57,33.83-2.92,11.53-4.07,18.98-10.42,22-13,54.52-46.5,110.2-91.67,164-139,31.87-28.04,47.8-42.05,68-56,54.16-37.39,105.83-57.12,142-68v-12.94l-109.06-2.31"/>
        <line class="cls-5" x1="3052.21" y1="205.91" x2="3047.76" y2="-106.83"/>
        <line class="cls-5" x1="2979.87" y1="-104.79" x2="2984.04" y2="209.16"/>
        <line class="cls-5" x1="3018.04" y1="50.16" x2="3018.04" y2="209.16"/>
        <polyline class="cls-5" points="2908.07 143.61 2871.04 100.16 2869.49 -103.44"/>
        <polyline class="cls-5" points="2836.56 -120.01 2837.75 199.83 2948.27 209.16 3192.76 209.37 3228.04 209.4"/>
        <line class="cls-5" x1="2948.63" y1="173.36" x2="2874.84" y2="171.52"/>
        <polyline class="cls-5" points="2837.59 155.93 2911.74 94.47 2908.07 -103.44"/>
        <line class="cls-5" x1="2801.04" y1="432.57" x2="3224.68" y2="283.43"/>
        <polyline class="cls-5" points="3157.04 242.26 3157.04 275.51 2797.78 392.93"/>
        <line class="cls-5" x1="2937.24" y1="242.66" x2="2937.24" y2="297.93"/>
        <polyline class="cls-5" points="2869.49 242.66 2869.49 267.13 2869.49 322.36"/>
        <path class="cls-5" d="m2798.04,266.16c23.82.32,47.63.64,71.45.97"/>
        <polyline class="cls-5" points="2835.27 242.63 2832.05 335.86 2842.17 378.42"/>
        <polyline class="cls-5" points="3003.13 242.66 3003.13 283.43 3103.99 242.66"/>
      </g>
      <line class="cls-6" x1="2870.04" y1="666.16" x2="2652.04" y2="655.16"/>
    </g>
  </g>
  <g>
    <rect class="cls-2" width="3060.1" height="1260.5"/>
    <g class="cls-7">
      <g>
        <line class="cls-5" x1="-86.48" y1="985.58" x2="223.02" y2="998.93"/>
        <path class="cls-5" d="m12.52,877.58l-9,150c-4.1,112.85-6.91,195.97-8.87,227.2-.26,4.21-1.01,15.41,4.87,26.8,7.34,14.22,21.82,22.6,45,30,32.25,10.29,57.69,11.13,104,13,13.08.53,38.08,1.55,71,3l749,32"/>
        <polyline class="cls-5" points="-86.48 871.11 130.88 882.92 124.52 1034.58 107 1381.58"/>
        <polyline class="cls-5" points="130.88 882.92 223.02 882.92 748.96 909.38 2223.52 983.58"/>
        <path class="cls-5" d="m-79.48,1286.58c3.18-7.95,9.26-19.75,21-29,18.61-14.66,40.69-14.45,60-14,60.24,1.41,90.36,2.12,154,7,24.88,1.91,46.82,3.16,65,4l1746.09,83.71"/>
        <polyline class="cls-5" points="-152.48 1168.58 221.52 1181.58 1343.46 1233.18 1850.52 1254.58 1966.61 1261.26"/>
        <line class="cls-5" x1="-96.48" y1="1131.24" x2="119.07" y2="1142.58"/>
        <polyline class="cls-5" points="-3.17 1208.97 221.52 1219.58 1341.52 1269.91"/>
        <polyline class="cls-5" points="122.7 1070.54 221.52 1073.58 506.52 1083.58"/>
        <polyline class="cls-5" points="494.7 1381.58 506.52 1050.88 509.92 897.36 391.24 891.38 383.53 1047.58 372.65 1385.58"/>
        <line class="cls-5" x1="220.52" y1="1142.58" x2="500.61" y2="1159.05"/>
        <polyline class="cls-5" points="-163.48 1093.58 220.52 1111.81 504.34 1111.81 1210.52 1150.81 1215.16 1150.81"/>
        <line class="cls-5" x1="1106.52" y1="933.58" x2="1096.88" y2="1144.54"/>
        <polyline class="cls-5" points="987.52 925.58 976.7 1137.9 968.52 1383.07 1084.52 1381.58 1092.89 1221.66 1124.84 1223.13 1124.84 1146.08"/>
        <polyline class="cls-5" points="846.42 1354.36 861.11 1131.51 861.11 1066.43 867.78 915.36 633.37 903.57 624.52 1055.58 610.62 1381.58"/>
        <polyline class="cls-5" points="728.36 1381.58 741.52 1124.91 741.52 1060.58 748.96 909.38"/>
        <line class="cls-5" x1="266.52" y1="1038.58" x2="270.03" y2="885.29"/>
        <line class="cls-5" x1="622.9" y1="1093.58" x2="739.2" y2="1097.23"/>
        <polyline class="cls-5" points="1507.57 947.56 1507.57 1017.54 1489.52 1383.58 1470.52 1829.58"/>
        <polyline class="cls-5" points="1635.52 851.58 1629.95 953.71 1610.52 1383.58"/>
        <polyline class="cls-5" points="1746.07 959.56 1728.84 1381.58 1724.49 1444.85"/>
        <path class="cls-5" d="m1884.52,498.58l-49.5,977.94c-1.8,31.22-3.6,62.44-5.4,93.66,11.2,9.96,25.45,24.53,38.9,44.41,15.44,22.83,23.01,42.6,25,48,10.13,27.43,11.24,48.77,13,89,.94,21.53,1.32,50.9-1,86"/>
        <polyline class="cls-5" points="1926.36 1837.58 1926.36 1699.82 1957.52 1607.58 1966.61 1431.44 1966.61 1383.07 1966.61 1118.58 1988.52 867.58 1998.52 652.58"/>
        <line class="cls-5" x1="1500.12" y1="1168.58" x2="1966.61" y2="1190.15"/>
        <line class="cls-4" x1="227.52" y1="-439.42" x2="218.52" y2="1884.58"/>
        <path class="cls-6" d="m-83.48,617.58c14.42,1.99,33.9,4.52,57,7,51.26,5.51,92.88,7.85,119,9,112.28,4.92,168.42,7.38,220-7,9.45-2.64,27.55-8.1,102-46,102.76-52.31,109.28-66.78,200-111,73.56-35.86,82.32-31.88,109-56,39.99-36.15,35.81-59.1,84-107,25.21-25.06,47.14-39.37,91-68,45.22-29.52,67.83-44.28,102-55,12.69-3.98,40.12-7.99,95-16,41.87-6.11,63.85-8.23,97-19,23.36-7.59,23.18-10.03,42-16,32.57-10.33,57.72-10.83,107-11,128.96-.43,116.48,2.48,135,0,42.6-5.69,62.6-14.93,95-5,20.49,6.28,31.78,15.89,51,30,38.39,28.18,28.62,15.72,113,70,109.66,70.54,94.33,71.1,142,97,72.83,39.56,88.89,27.54,232,86,50.86,20.78,88.06,38.32,100,44,87.16,41.47,148.63,79.12,163,88,61.48,37.98,111.22,74.55,144,100,51.82,40.23,64.21,54.94,102,72,37.19,16.79,56.84,16.85,93,37,34.71,19.35,58.84,42.85,74,60-7.95,14.01-19.62,35.05-33,61-41.52,80.54-54.06,120.36-72,156-35.57,70.64-59.26,59.05-140,156-47.02,56.46-107.54,130.55-141,241-10.96,36.17-29.29,98.67-24,178,2.36,35.3,7.78,49.74,10,86,4.26,69.51-8.88,126.82-21,165"/>
        <path class="cls-6" d="m2397.52,1843.58c7.44-12.02,17.07-30.33,23-54,12.05-48.13,1.05-87.53-5-115,0,0-18.29-82.99-11-177,8.29-106.92,64.3-185.81,79-206,24.87-34.16,62.91-70.78,139-144,32.23-31.01,40.4-37.38,54-56,17.78-24.34,22.68-39.28,65-146,8.56-21.58,27.99-69.45,62-100,6.96-6.25,17.84-14.75,33-17,22.1-3.27,40.59,8.63,46,12,54.61,33.96,121.71,42.79,179,72,0,0,114.73,58.5,250,98,244.4,71.37,506.44-26.88,574-54"/>
        <path class="cls-6" d="m3804.52,840.58c-20.24,14.82-55.54,35.99-102,40-14,1.21-64.99,3.96-167-56-85.43-50.22-72.01-65.29-131-96-42.08-21.91-49.04-14.31-239-53-119.53-24.35-134.12-30.89-146-37-46.08-23.72-69.67-50.41-125-62-34.47-7.22-60.47-4.22-77-3-81.81,6.05-152.88-15.97-295-60-111.86-34.65-167.79-51.98-227-91-32.91-21.69-58.87-43.84-112-69-42.3-20.03-50.02-17.43-129-45-55.55-19.39-112.67-39.55-179-74-53.22-27.64-79.83-41.46-102-62-53.96-50.01-44.09-81.46-112-170-50-65.19-80.56-81.01-91-86-17.98-8.59-31.25-11.32-108-19-155.17-15.54-169.72-11.28-182-6-44.02,18.94-38.03,42.19-100,71-36.84,17.12-48.94,13.55-83,31-44.23,22.67-69.88,52.31-86,70-75.69,83.07-164.26,147.42-216,185-47.34,34.39-90.23,59.93-176,111-42.94,25.57-78.81,45.81-133,82-57.29,38.26-62.87,46.13-88,62-78.85,49.8-157.1,56.44-258,65-62.02,5.26-148.78,7.02-252-9"/>
        <path class="cls-6" d="m3632.52,921.58c-.59-5.64-17.24-4.94-40-13-23.29-8.25-39.19-21.83-71-49-9.48-8.1-27.23-23.36-48-46-22.07-24.06-23.57-30.32-37-41-22.69-18.05-46.83-22.81-64-26-90.63-16.83-135.95-25.24-165-29-81.16-10.5-122.33-15.94-151-25-26.04-8.23-66.69-21.08-112-50-20.23-12.91-21.22-16.16-37-24-11.01-5.47-55.2-26.76-111-21-31.69,3.27-39.68,12.43-71,10-13-1.01-23.51-4.02-44-10-39.56-11.54-87.58-29.17-128-31-7.63-.35-19.81-.35-23,6-2.42,4.81,1.35,11.25,3,14,21.22,35.27,100,56,100,56,32.96,8.67,37.08,5.87,61,15,20.59,7.86,30.12,14.73,56,30,52.85,31.17,79.27,46.75,99,51,35.13,7.56,45.82-2.82,85,10,9.91,3.24,7.4,3.31,43,19,44.02,19.4,66.28,29.12,79,30,29.75,2.06,36.38-10.52,63-4,17.27,4.23,28.23,12.9,40,22,27.53,21.28,57.38,39.59,84,62,66.4,55.9,155.51,72.9,181,77,76.3,12.27,131.15-2.91,164-12,7.25-2.01,44.89-12.42,44-21Z"/>
        <path class="cls-6" d="m1051.52,136.58c3.01-9.6,11.05-15.86,27-28,16.28-12.38,24.42-18.58,25-19,8.41-6.09,19.72-15.14,42-33,88.93-71.26,88.27-73.76,104-80,21.58-8.56,26.17-5.2,76-22,26.54-8.95,27.01-10.5,40-14,38.76-10.45,71.7-6.66,93-4,29.36,3.66,64.88,8.09,101,32,21.73,14.38,34.15,29.92,59,61,26.81,33.53,22.51,37.89,51,80,0,0,8.65,12.79,14,32,3.9,13.99,2.32,18.15,1.29,19.63-.12.17-.19.26-.29.37-4.49,4.86-25.42-7.76-34-13-33.8-20.63-37.77-32.05-58-44-21.38-12.63-42.25-14.09-84-17-23.91-1.67-41.29-.65-68,1-46.85,2.9-55.47,6.63-95,10-75.62,6.45-70.27-4.94-112,4-27.18,5.82-66.94,18.69-97,31-13.36,5.47-27.36,9.27-41,14-26.23,9.1-37.6,13.33-43,8-5.31-5.25-1.73-16.68-1-19Z"/>
        <path class="cls-6" d="m2130.52-416.42l53,129V-113.24c15.08,17.33,37.21,42.8,64,73.82,0,0,38.82,44.95,99,125,10.46,13.91,21.61,29.02,29,52,9.55,29.71,7.08,54.75,6,67-3.76,42.71-5.66,100.97-6,182,8.05,2.55,20.02,6.69,34,13,33.89,15.29,52.73,31.16,72,44,0,0,26.74,17.81,87,40,107.83,39.71,150.48-19.66,264,16,34.32,10.78,72.66,29.48,125,55,46.03,22.44,59.44,31.55,90,39,9.69,2.36,32.66,7.38,111,6,72.77-1.28,79.65-6.08,114-5,60.41,1.89,80.18,18.02,140,32,146.22,34.16,288.13-1.45,378-24,15.91-3.99,28.81-7.63,37-10"/>
        <path class="cls-6" d="m-111.48,1023.78l2656,116.48,73.39-46.18c7.9,8.63,21.88,21.43,42.61,28.5,5.65,1.93,16.06,4.88,50,5,15.28.05,36.49-.46,62-3-.45,11.98-.94,32.54,0,58,2.69,72.68,14.46,114.86,30,230,7.07,52.38,8.62,73.19,1,100-11.15,39.22-34.26,64.27-45,76-49.62,54.19-135.1,151.58-248,278"/>
        <path class="cls-6" d="m2174.2-310.11l243.32,9.69,38,9c488.95.82,687.58.7,700.89,0,.57-.03,8.32-.46,18.76,0,11.76.51,17.64.77,24.35,3,11.2,3.72,18.41,10.55,23,15,5.22,5.06,5.05,6.34,17,22,8.67,11.36,13.07,17.08,16,19,10.53,6.9,22.6,5.96,35,5,5.78-.45,17.42-1.79,32-7,21.44-7.67,27.99-16.11,45-16,4.77.03,9.4.12,14,3,9.29,5.83,7.65,16.31,15,21,4.72,3.02,11.55,1.05,25-3,61.14-18.42,45.49-12.7,60-19,11.82-5.13,22.03-10.42,34-7,1.37.39,5.8,1.76,10,5,14.67,11.31,14.14,35.85,14,43-2.07,104.02-.9,208.08-2.45,312.11-.12,8.07.85,15.61-.38,29.75-.37,4.21-.95,9.26-.16,16.14.9,7.85,3.07,13.55,4,16,4.32,11.4,17.33,45.7,23,67,3.32,12.46,4.39,21.48,6,35,4.67,39.26.38,61.14-5,130-2.62,33.52-3.62,54.18-8,93-4.37,38.77-7.24,52.44-16,68-5.08,9.02-20.28,36.01-52,47-24.5,8.49-46.11,3.01-58,0-34.4-8.71-59.16-30.54-73-43-24.49-22.04-36.06-41.88-58-43-2.93-.15-10.96-.46-19,4-7.85,4.36-13.31,11.93-18,25-10.92,30.45-9.76,68.75-9,83-7.63,1.56-20.68,3.9-37,5-41.23,2.78-63.78-5-116-9-11.54-.89-29.55-1.97-52-2-3.35,33.14-5.78,58-7,70-.16,1.54-.53,5.22,0,10,1.28,11.51,6.75,19.7,9,23,7.84,11.47,17.87,17.26,31,25,40.54,23.91,24.94,15.98,40,24,0,0,63.88,34.01,106,62,3.39,2.26,10.56,7.15,14,16,4.12,10.6.62,21.03-1,26-8.27,25.29-12.21,51.89-21,77-19.48,55.68-18.81,54.15-20,57-12.16,29.1-24.22,49.38-36,69-68.18,113.63-76.19,125.25-91,156-20.65,42.89-28.78,69.52-31,77-12.18,41.02-15.73,75.23-17,93-.74,10.42-.92,18.31-1,22-2.45,114.92,0,179,0,179,1.85,48.33,3.64,128.65,3,267"/>
        <path class="cls-6" d="m2294.95,18.65v181.01h879.61v179.5c20.29,14.32,50.03,39.24,74.97,78.42,15.81,24.83,25.23,48.39,31,67"/>
        <path class="cls-6" d="m2987.52-370.42l27,9v13.14c-3.49,25.15-2.11,44.22,0,57.43,1.46,9.15,3.64,17.82,0,28.44-3.31,9.66-8.51,12.42-14,25-3.26,7.48-4.37,13.29-6,22-5.59,29.95-8.38,44.93-9,50-3.27,26.82-8.06,169.5-9,365"/>
        <path class="cls-6" d="m3777.52,1504.58c-142.93-78.71-256.4-146.77-336-196-188.26-116.43-282.39-174.64-299-187-17.9-13.32-61.24-46.18-126-78-21.96-10.79-42.08-19.34-123-48-117.66-41.66-176.49-62.5-225-73-47.52-10.29-83.05-13.98-157-20-222.42-18.12-332-22-332-22-160.43-5.68-320.63-16.73-481-24-273.74-12.42-479.29-21.48-491-22-581.02-25.63-599.55-26.8-752-33-131.63-5.35-325.4-12.92-563-21"/>
        <path class="cls-6" d="m1250.52,1853.58c-13.33-31.33-26.67-62.67-40-94,.61-63.94,1.44-162.35,2-283,1.17-250.74-.21-297.39,3-424,3.32-131.02,8.77-238.07,13-320,5.79-112.15,11.78-204.04,16-265"/>
        <path class="cls-6" d="m1341.52,472.58c1.29,448.33,2.58,896.67,3.87,1345"/>
        <path class="cls-6" d="m176.52,675.58c40.01,3.1,73.53.45,98-3,18.2-2.57,46.73-6.76,82-20,5.73-2.15,21.56-8.26,42-19,42.29-22.21,70.42-46.39,82-56,20.59-17.1,106.55-88.48,213-115,38.6-9.61,79-11,79-11,30.63-1.53,53.58.47,60,1,200.23,16.39,459,17,459,17,116.65-.03,322.13,7.46,712,40-1.67,48.67-3.33,97.33-5,146-280.72-9.39-561.39-20.06-842-32-210.36-8.95-420.69-18.62-631-29"/>
        <path class="cls-6" d="m519.52,804.58c2.67-87.67,5.33-175.33,8-263"/>
        <path class="cls-6" d="m527.52,541.58c63.85-6.7,161.52-14.85,281-16,134.36-1.3,176.11,7.41,413,21,52.35,3,188.57,8.67,461,20,137.28,5.71,248.66,10.19,319,13"/>
        <line class="cls-6" x1="1778.52" y1="-361.3" x2="1759.62" y2="647.28"/>
        <polyline class="cls-6" points="654.52 -385.42 654.52 290.92 772.52 451.58 760.96 673.08 752.51 814.43"/>
        <polyline class="cls-6" points="-107.48 949.58 2221.52 1047.58 2228.86 882.92"/>
        <path class="cls-5" d="m2335.52,1053.64l-10,225.94-120-9,5.18-70.41,11.23-152.59,113.59,6.06,130,6.94v143.96c-85-1.32-170-2.64-255-3.96"/>
        <path class="cls-5" d="m867.52,915.58c5.16-154.42,11.82-308.75,20-463,1.61-30.33,3.27-60.67,5-91l239,7"/>
        <line class="cls-5" x1="1869.49" y1="795.61" x2="523.52" y2="722.58"/>
        <line class="cls-5" x1="1873.18" y1="722.58" x2="876.69" y2="676.95"/>
        <polyline class="cls-5" points="989.91 824.96 1008.24 463 1008.24 364.97"/>
        <polyline class="cls-5" points="1107.63 824.96 1124.84 467.58 1140.52 252.58 1250.52 255.66 1345.39 258.32 1345.39 331.69 1345.39 472.58"/>
        <path class="cls-5" d="m1409.01,848.58l5.64-376.8c.36-92.65,1.14-160.28,1.87-171.32.18-2.75.65-6.4,3-9.88,2.48-3.66,5.64-5.04,15-10,7.04-3.73,10.56-5.6,11-6,2.9-2.65,6.03-7.66,5-34-.66-16.98-2.19-20.7,0-30,2.97-12.62,8.39-16.85,10-18,5.03-3.59,10.5-3.87,14-4,22.52-.86,33.79-1.29,59-1,16.52.19,24.78.29,29,0,0,0,12.78-.88,27.45.66,1.84.19,6.08.7,10.55,3.34,1.06.63,2.61,1.52,4,3,3.7,3.93,3.93,9.4,4,12,.82,28.96,1,60,1,60"/>
        <line class="cls-5" x1="1635.52" y1="851.58" x2="1658.49" y2="267.45"/>
        <polyline class="cls-5" points="890.96 389.32 1763.8 424.26 1889.52 430.58"/>
        <line class="cls-5" x1="1244.52" y1="467.58" x2="1250.52" y2="255.66"/>
        <polyline class="cls-5" points="1135.26 324.79 1345.39 331.69 1531.53 339.77 1766.52 348.62"/>
        <line class="cls-5" x1="890.96" y1="424.26" x2="1244.52" y2="441.18"/>
        <polyline class="cls-5" points="2970.73 1023.78 2944.52 1083.58 3020.5 1130.79 3421.85 1380.14"/>
        <polygon class="cls-5" points="3016.52 1043.58 3018.51 1087.18 3020.5 1130.79 3016.52 1043.58"/>
        <line class="cls-5" x1="3123.2" y1="1152.6" x2="3018.51" y2="1087.18"/>
        <path class="cls-5" d="m2720.52,1127.58c-28,82.33-56,164.67-84,247-.27,13.67-1.84,33.34-8,56-9.44,34.68-24.9,58.89-38,78-47.11,68.71-108,136.16-128,158"/>
        <polyline class="cls-5" points="2570.49 1380.14 2797.98 1380.14 2963.42 1380.14 2940.52 1187.58 2773.49 1201.96"/>
        <polyline class="cls-5" points="2877.7 1756.99 2877.95 1693.68 2879.23 1380.14 2861.38 1194.39"/>
        <line class="cls-5" x1="2899.52" y1="1191.11" x2="2921.71" y2="1380.14"/>
        <path class="cls-5" d="m2735.39,1130.79c6.38,83.26,12.75,166.53,19.13,249.79"/>
        <path class="cls-5" d="m1998.52,652.58l458.51,24.37,3.98,221.6-121.91-8.89,16-323.2-588.59-287.88c-11.33-3.33-22.67-6.67-34-10-65.33-1-130.67-2-196-3-6.65,93.3-12.07,189.34-16,288-4.02,100.99-6.27,199.38-7,295"/>
        <line class="cls-5" x1="1894.48" y1="341.17" x2="1884.52" y2="498.58"/>
        <line class="cls-5" x1="2125.05" y1="453.94" x2="2106.92" y2="877.68"/>
        <path class="cls-5" d="m2228.86,882.92c1.43-98.85,3.58-177.49,4.66-229.34.24-11.4.68-33.69,12-59,13.1-29.29,34.17-47.82,48-58"/>
        <polyline class="cls-5" points="2458.31 748.25 2174.2 737.58 2169.52 810.58 2459.63 822.1"/>
        <polyline class="cls-5" points="-96.48 101.99 71.04 101.99 225.47 90.25"/>
        <polyline class="cls-5" points="-92.48 248.58 223.02 252.08 654.52 251.68"/>
        <polyline class="cls-5" points="-86.48 357.58 224.43 357.58 516.98 252.08"/>
        <polyline class="cls-5" points="-86.48 540.53 57.01 523.42 224.43 503.47 281.02 490.78 363.72 394.04"/>
        <line class="cls-5" x1="56.84" y1="250.24" x2="57.01" y2="523.42"/>
        <line class="cls-5" x1="224.15" y1="429.97" x2="-100.66" y2="429.97"/>
        <line class="cls-5" x1="-96.48" y1="292.85" x2="224.69" y2="290.37"/>
        <polyline class="cls-5" points="79.07 250.24 79.07 101.38 72.81 -257.98 72.02 -303.46"/>
        <polyline class="cls-5" points="150.72 250.33 150.72 96.12 150.72 -298.97 130.52 -386.42"/>
        <line class="cls-5" x1="79.07" y1="142.33" x2="-80.48" y2="144.58"/>
        <line class="cls-5" x1="-83.48" y1="182.78" x2="79.07" y2="182.78"/>
        <line class="cls-5" x1="114.08" y1="250.87" x2="110.91" y2="-300.48"/>
        <line class="cls-5" x1="187" y1="251.68" x2="190" y2="-300.48"/>
        <line class="cls-5" x1="1.46" y1="-138.31" x2="1.46" y2="101.99"/>
        <line class="cls-5" x1="36.74" y1="-138.31" x2="36.74" y2="101.99"/>
        <line class="cls-5" x1="223.02" y1="467.26" x2="-92.48" y2="467.26"/>
        <polyline class="cls-5" points="227.52 -291.18 368.97 -291.18 375.11 250.33"/>
        <polyline class="cls-5" points="444.52 59.58 444.52 -96.85 512.87 -99.48 512.87 3.52"/>
        <path class="cls-5" d="m224.69,214.5c9.04,1.29,21.1,1.57,33.83-2.92,11.53-4.07,18.98-10.42,22-13,54.52-46.5,110.2-91.67,164-139,31.87-28.04,47.8-42.05,68-56,54.16-37.39,105.83-57.12,142-68v-12.94l-109.06-2.31"/>
        <polyline class="cls-5" points="512.52 3.58 512.87 34.48 654.52 34.48"/>
        <line class="cls-5" x1="512.52" y1="215.33" x2="512.87" y2="34.48"/>
        <line class="cls-5" x1="478.69" y1="215.33" x2="474.24" y2="-97.41"/>
        <line class="cls-5" x1="406.35" y1="-95.37" x2="410.52" y2="218.58"/>
        <line class="cls-5" x1="444.52" y1="59.58" x2="444.52" y2="218.58"/>
        <line class="cls-5" x1="613.84" y1="34.48" x2="619.24" y2="218.79"/>
        <path class="cls-5" d="m545.52-100.42c-.02,12-.04,24-.06,36V-17.29l2.82,236.11h35.24c-1.91-84.44-3.81-168.88-5.72-253.32"/>
        <polyline class="cls-5" points="334.55 153.03 297.52 109.58 295.97 -94.02"/>
        <polyline class="cls-5" points="263.04 -110.59 264.23 209.25 374.75 218.58 619.24 218.79 654.52 218.82"/>
        <line class="cls-5" x1="375.11" y1="182.78" x2="301.32" y2="180.94"/>
        <polyline class="cls-5" points="264.07 165.35 338.22 103.89 334.55 -94.02"/>
        <line class="cls-5" x1="227.52" y1="441.99" x2="651.16" y2="292.85"/>
        <polyline class="cls-5" points="583.52 251.68 583.52 284.93 224.26 402.34"/>
        <line class="cls-5" x1="595.67" y1="312.38" x2="583.52" y2="284.93"/>
        <line class="cls-5" x1="363.72" y1="252.08" x2="363.72" y2="307.35"/>
        <polyline class="cls-5" points="295.97 252.08 295.97 276.55 295.97 331.78"/>
        <path class="cls-5" d="m224.52,275.58c23.82.32,47.63.64,71.45.97"/>
        <polyline class="cls-5" points="261.74 252.04 258.53 345.28 268.65 387.84"/>
        <polyline class="cls-5" points="429.61 252.08 429.61 292.85 530.47 252.08"/>
        <polyline class="cls-5" points="1344.53 -113.24 1344.53 -259.21 1127.52 -262.42 728.95 112.19 654.52 112.19 654.52 211.72 734.05 211.72 1138.5 -180.22 1137.47 -129.35 755.52 228.58 782.63 257.81"/>
        <line class="cls-5" x1="890.81" y1="176.18" x2="831.12" y2="117.65"/>
        <line class="cls-5" x1="976.85" y1="99.57" x2="772.52" y2="-119.01"/>
        <path class="cls-5" d="m1065.15,13.41l-208.63-209.83c-52,49.31-90.77,85.15-101,94-8.7,7.54-17,14-17,14h0s-7.84,5.97-14,10c-7.12,4.66-21.84,3.03-40,2-7.09-.4-17.38-.87-30-1"/>
        <polyline class="cls-5" points="780.97 63.3 732.92 13.41 1130.52 -359.42"/>
        <line class="cls-5" x1="717.78" y1="304.83" x2="713.52" y2="-351.18"/>
        <line class="cls-5" x1="679.4" y1="324.79" x2="682.77" y2="-359.42"/>
        <line class="cls-5" x1="654.52" y1="19.03" x2="715.92" y2="19.03"/>
        <line class="cls-5" x1="655.34" y1="133.46" x2="715.92" y2="133.46"/>
        <line class="cls-5" x1="716.9" y1="169.41" x2="890.81" y2="7.53"/>
        <line class="cls-5" x1="754.36" y1="35.66" x2="1135.26" y2="-321.62"/>
        <polyline class="cls-5" points="2293.52 90.61 3195.11 90.61 3269.52 151.58 3269.52 271.62 2464.96 265.58"/>
        <polyline class="cls-5" points="2263.23 -20.66 3037.52 -16.71 3095.52 -16.42 3095.52 271.62"/>
        <line class="cls-5" x1="3040.43" y1="269.9" x2="3037.52" y2="-16.71"/>
        <polyline class="cls-5" points="2174.2 -95.94 2174.2 187.33 2294.95 199.66"/>
        <path class="cls-5" d="m1900.52-365.42c-2,89.67-4,179.33-6,269V35.58c-.67,20.67-1.33,41.33-2,62,1.65,1.89,4.59,4.82,9,7,5.55,2.75,10.65,2.94,13,3,9.41.25,47.25.83,99,1"/>
        <path class="cls-5" d="m1770.52,47.58c8.3-.45,17.35-.25,27,1,46.81,6.09,79.34,33.44,95,49"/>
        <polyline class="cls-5" points="2009.27 -365.42 2013.52 125.48 2103.6 125.48 2103.6 40.39 1894.52 35.58"/>
        <line class="cls-5" x1="1892.52" y1="72.47" x2="2263.23" y2="77.64"/>
        <polyline class="cls-5" points="2294.95 41.71 2263.23 41.71 2263.23 181.11 2293.52 181.11"/>
        <polyline class="cls-5" points="2529.73 265.58 2529.73 -95.94 2589.62 -95.94 2981.7 -95.94"/>
        <line class="cls-5" x1="2656.3" y1="265.58" x2="2656.3" y2="-95.94"/>
        <line class="cls-5" x1="2721.31" y1="265.58" x2="2721.31" y2="-95.94"/>
        <line class="cls-5" x1="2781.52" y1="269.9" x2="2777.79" y2="-95.94"/>
        <line class="cls-5" x1="2851.2" y1="265.58" x2="2843.51" y2="-95.94"/>
        <line class="cls-5" x1="2912.75" y1="266.51" x2="2912.75" y2="-95.94"/>
        <line class="cls-5" x1="2981.7" y1="269.46" x2="2976.52" y2="199.58"/>
        <line class="cls-5" x1="2560.13" y1="265.58" x2="2560.13" y2="-95.94"/>
        <line class="cls-5" x1="2624.24" y1="266.51" x2="2624.24" y2="-95.94"/>
        <line class="cls-5" x1="2687.07" y1="199.58" x2="2687.07" y2="-95.94"/>
        <line class="cls-5" x1="2755.72" y1="199.58" x2="2749.9" y2="-95.94"/>
        <line class="cls-5" x1="2816.58" y1="199.58" x2="2816.58" y2="-95.94"/>
        <line class="cls-5" x1="2883.26" y1="199.58" x2="2878.13" y2="-95.94"/>
        <line class="cls-5" x1="2944.8" y1="-95.94" x2="2944.8" y2="269.18"/>
        <line class="cls-5" x1="3010.2" y1="-14.92" x2="3010.2" y2="269.9"/>
        <polyline class="cls-5" points="2529.73 -95.94 2589.62 -95.94 2588.34 266.51"/>
        <polyline class="cls-5" points="2461.01 -20.66 2465.52 373.58 3174.55 376"/>
        <line class="cls-5" x1="2923.24" y1="269.02" x2="2920.78" y2="375.13"/>
        <polyline class="cls-5" points="2662.18 374.25 2662.18 416.02 2662.18 452.97 2747.15 452.97 2755.72 413.61 2755.72 376"/>
        <polyline class="cls-5" points="2851.2 375.13 2851.2 449.89 2749.9 444.96"/>
        <line class="cls-5" x1="2755.72" y1="393.86" x2="2662.18" y2="393.86"/>
        <polyline class="cls-5" points="3024.36 376 3024.36 528.4 3124.34 524.58 3124.34 488.41 3107.68 375.13"/>
        <path class="cls-5" d="m3352.88-113.24c-.37,9.26-.44,23.51,1.64,40.82,2.27,18.89,5,24.06,4,36-.35,4.18-2.13,25.49-17,41-21.74,22.68-56.92,17.78-62,17-43.99-6.79-71.71-49.57-83-67-18.14-28-19.31-45.96-44-69-12.43-11.6-24.72-18.79-33-23-43.33-16.33-86.67-32.67-130-49"/>
        <path class="cls-5" d="m3013.52-260.42c2.92,2.76,7.63,6.87,14,11,10.58,6.86,19.8,9.91,23,11,16.14,5.48,32.01,12.85,56,24,29.33,13.62,49.78,28.49,60,36,23.93,17.58,36.85,31.55,40,35,12.18,13.37,19.31,24.36,21,27,8.17,12.78,9.66,18.59,15,28,10.83,19.08,23.29,27.92,34,38,24.4,22.95,39.17,56.72,45,68,1.31,2.54,4.14,8.13,9,15,7.66,10.83,14.5,16.55,20,22,1.77,1.75,16.26,16.34,25,35,6.54,13.97,7.7,25.98,10,50,2.26,23.51-.35,22.5,2,40,2.34,17.4,6.48,30.05,14,53,4.97,15.16,9.64,27.52,13,36-24.67.67-49.33,1.33-74,2-4.79-16.72-18.37-65.98-23-113-1.52-15.43-1.35-26.96-1-50,.27-17.79,1.06-25.91,5-35,5.62-12.98,14.76-21.31,21-26"/>
        <rect class="cls-5" x="2721.52" y="291.58" width="66" height="52"/>
      </g>
      <line class="cls-6" x1="176.52" y1="675.58" x2="-41.48" y2="664.58"/>
    </g>
  </g>
</svg>