<?xml version="1.0" encoding="utf-8"?>
<!-- Generator: Adobe Illustrator 27.8.0, SVG Export Plug-In . SVG Version: 6.00 Build 0)  -->
<svg version="1.1" xmlns="http://www.w3.org/2000/svg" xmlns:xlink="http://www.w3.org/1999/xlink" x="0px" y="0px"
	 viewBox="0 0 3840 2160" style="enable-background:new 0 0 3840 2160;" xml:space="preserve">
<style type="text/css">
	.st0{fill:#1D1C1D;}
	.st1{fill:none;stroke:#F2F1ED;stroke-width:2;stroke-miterlimit:10;}
	.st2{fill:#FFFFFF;stroke:#F2F1ED;stroke-width:4;stroke-miterlimit:10;}
	.st3{fill:none;stroke:#F2F1ED;stroke-width:4;stroke-miterlimit:10;}
</style>
<g id="Layer_7">
	<rect x="-256" y="-162" class="st0" width="4379" height="2642"/>
</g>
<g id="Layer_1">
	<line class="st1" x1="292" y1="1820" x2="-19.4" y2="1820"/>
	<line class="st1" x1="292" y1="1939.8" x2="-80" y2="1940"/>
	<line class="st1" x1="32" y1="1728" x2="32" y2="1939.8"/>
	<line class="st1" x1="97" y1="1726" x2="97" y2="1939.8"/>
	<line class="st1" x1="159" y1="1724" x2="159" y2="1820"/>
	<line class="st1" x1="211" y1="1726" x2="211" y2="1820"/>
	<line class="st1" x1="167.2" y1="1820" x2="167" y2="1939.8"/>
	<line class="st1" x1="231.2" y1="1820" x2="231.2" y2="1940"/>
	<line class="st1" x1="265.2" y1="1820" x2="265.2" y2="1938.8"/>
	<line class="st1" x1="198.7" y1="1820" x2="198.7" y2="1939.8"/>
	<line class="st1" x1="131.9" y1="1820" x2="131.9" y2="1938.8"/>
	<line class="st1" x1="66.5" y1="1820" x2="66.5" y2="1938.8"/>
	<polyline class="st1" points="66.5,1726 66.5,1795.9 97,1795.9 	"/>
	<polyline class="st1" points="22.1,1940 22,2075 -19.5,2075 	"/>
	<line class="st1" x1="181.2" y1="1940" x2="181.2" y2="1999.1"/>
	<path class="st1" d="M291.9,1999.1c-86.8,0.1-125,0-141.3,0c-3.2,0-6.5,0-9.7,0c-34.9-0.1-39.3-0.9-49.9,0.9
		c-10.3,1.8-17.7,3.1-25,9c-7.6,6.2-11.3,14.2-13,18c-3.6,8.1-4.7,15.3-5,20c-1.3,39-2.7,78-4,117"/>
	<line class="st1" x1="44" y1="2136.9" x2="-15.5" y2="2136.9"/>
	<line class="st1" x1="255" y1="1939.8" x2="255" y2="1998.8"/>
	<line class="st1" x1="-14" y1="1328" x2="295.5" y2="1341.3"/>
	<path class="st1" d="M85,1220l-9,150c-4.1,112.8-6.9,196-8.9,227.2c-0.3,4.2-1,15.4,4.9,26.8c7.3,14.2,21.8,22.6,45,30
		c32.2,10.3,57.7,11.1,104,13c13.1,0.5,38.1,1.5,71,3l749,32"/>
	<polyline class="st1" points="-14,1213.5 203.4,1225.3 197,1377 179.5,1724 	"/>
	<polyline class="st1" points="203.4,1225.3 295.5,1225.3 821.4,1251.8 2296,1326 	"/>
	<path class="st1" d="M-7,1629c3.2-8,9.3-19.7,21-29c18.6-14.7,40.7-14.5,60-14c60.2,1.4,90.4,2.1,154,7c24.9,1.9,46.8,3.2,65,4
		l1746.1,83.7"/>
	<polyline class="st1" points="-80,1511 294,1524 1415.9,1575.6 1923,1597 2039.1,1603.7 	"/>
	<line class="st1" x1="-24" y1="1473.7" x2="191.5" y2="1485"/>
	<polyline class="st1" points="69.3,1551.4 294,1562 1414,1612.3 	"/>
	<polyline class="st1" points="195.2,1413 294,1416 579,1426 	"/>
	<polyline class="st1" points="567.2,1724 579,1393.3 582.4,1239.8 463.7,1233.8 456,1390 445.1,1728 	"/>
	<path class="st1" d="M-14,1655c7.7,3,15.7,6.6,24,11c33.1,17.7,55.6,41.3,70,60"/>
	<line class="st1" x1="294" y1="1635" x2="804" y2="1658"/>
	<line class="st1" x1="293" y1="1485" x2="573.1" y2="1501.5"/>
	<polyline class="st1" points="-91,1436 293,1454.2 576.8,1454.2 1283,1493.2 1287.6,1493.2 	"/>
	<line class="st1" x1="1179" y1="1276" x2="1169.4" y2="1487"/>
	<polyline class="st1" points="1060,1268 1049.2,1480.3 1041,1725.5 1157,1724 1165.4,1564.1 1197.3,1565.5 1197.3,1488.5 	"/>
	<polyline class="st1" points="918.9,1696.8 933.6,1473.9 933.6,1408.8 940.3,1257.8 705.9,1246 697,1398 683.1,1724 	"/>
	<polyline class="st1" points="800.8,1724 814,1467.3 814,1403 821.4,1251.8 	"/>
	<line class="st1" x1="339" y1="1381" x2="342.5" y2="1227.7"/>
	<line class="st1" x1="695.4" y1="1436" x2="811.7" y2="1439.7"/>
	<line class="st1" x1="1285.5" y1="1680.7" x2="1414" y2="1686.2"/>
	<polyline class="st1" points="1580.1,1290 1580.1,1360 1562,1726 1543,2172 	"/>
	<polyline class="st1" points="1708,1194 1702.4,1296.1 1683,1726 	"/>
	<polyline class="st1" points="1818.5,1302 1801.3,1724 1797,1787.3 	"/>
	<line class="st1" x1="1417" y1="1769" x2="1907.5" y2="1792.6"/>
	<polyline class="st1" points="1695.5,1780.8 1695.5,1857.1 1417.9,1847 	"/>
	<line class="st1" x1="1285.5" y1="1787.6" x2="1414" y2="1792.6"/>
	<line class="st1" x1="1285.5" y1="1859.7" x2="1417" y2="1861.7"/>
	<line class="st1" x1="1283" y1="1931.4" x2="1417" y2="1928.9"/>
	<line class="st1" x1="1285.5" y1="1998.1" x2="1417.9" y2="1998.1"/>
	<line class="st1" x1="1417.9" y1="2068.3" x2="1285.5" y2="2065.8"/>
	<line class="st1" x1="1283" y1="2104" x2="1415.9" y2="2124.3"/>
	<polyline class="st1" points="1417,2136 1544.4,2139.1 1547.7,2062.2 1417.9,2062.2 1417.9,1991.5 1550.6,1993.6 1553.8,1917.7 
		1417.9,1912.6 	"/>
	<path class="st1" d="M1957,841l-49.5,977.9c-1.8,31.2-3.6,62.4-5.4,93.7c11.2,10,25.5,24.5,38.9,44.4c15.4,22.8,23,42.6,25,48
		c10.1,27.4,11.2,48.8,13,89c0.9,21.5,1.3,50.9-1,86"/>
	<polyline class="st1" points="1998.8,2180 1998.8,2042.2 2030,1950 2039.1,1773.9 2039.1,1725.5 2039.1,1461 2061,1210 2071,995 	
		"/>
	<line class="st1" x1="1572.6" y1="1511" x2="2039.1" y2="1532.6"/>
</g>
<g id="Layer_2">
	<line class="st2" x1="300" y1="-97" x2="291" y2="2227"/>
	<line class="st2" x1="-24" y1="1725.5" x2="2039.1" y2="1725.5"/>
	<path class="st3" d="M-11,960c14.4,2,33.9,4.5,57,7c51.3,5.5,92.9,7.9,119,9c112.3,4.9,168.4,7.4,220-7c9.5-2.6,27.5-8.1,102-46
		c102.8-52.3,109.3-66.8,200-111c73.6-35.9,82.3-31.9,109-56c40-36.1,35.8-59.1,84-107c25.2-25.1,47.1-39.4,91-68
		c45.2-29.5,67.8-44.3,102-55c12.7-4,40.1-8,95-16c41.9-6.1,63.9-8.2,97-19c23.4-7.6,23.2-10,42-16c32.6-10.3,57.7-10.8,107-11
		c129-0.4,116.5,2.5,135,0c42.6-5.7,62.6-14.9,95-5c20.5,6.3,31.8,15.9,51,30c38.4,28.2,28.6,15.7,113,70
		c109.7,70.5,94.3,71.1,142,97c72.8,39.6,88.9,27.5,232,86c50.9,20.8,88.1,38.3,100,44c87.2,41.5,148.6,79.1,163,88
		c61.5,38,111.2,74.6,144,100c51.8,40.2,64.2,54.9,102,72c37.2,16.8,56.8,16.8,93,37c34.7,19.3,58.8,42.8,74,60
		c-7.9,14-19.6,35.1-33,61c-41.5,80.5-54.1,120.4-72,156c-35.6,70.6-59.3,59.1-140,156c-47,56.5-107.5,130.6-141,241
		c-11,36.2-29.3,98.7-24,178c2.4,35.3,7.8,49.7,10,86c4.3,69.5-8.9,126.8-21,165"/>
	<path class="st3" d="M2470,2186c7.4-12,17.1-30.3,23-54c12.1-48.1,1.1-87.5-5-115c0,0-18.3-83-11-177c8.3-106.9,64.3-185.8,79-206
		c24.9-34.2,62.9-70.8,139-144c32.2-31,40.4-37.4,54-56c17.8-24.3,22.7-39.3,65-146c8.6-21.6,28-69.4,62-100c7-6.2,17.8-14.8,33-17
		c22.1-3.3,40.6,8.6,46,12c54.6,34,121.7,42.8,179,72c0,0,114.7,58.5,250,98c244.4,71.4,506.4-26.9,574-54"/>
	<path class="st3" d="M3877,1183c-20.2,14.8-55.5,36-102,40c-14,1.2-65,4-167-56c-85.4-50.2-72-65.3-131-96
		c-42.1-21.9-49-14.3-239-53c-119.5-24.3-134.1-30.9-146-37c-46.1-23.7-69.7-50.4-125-62c-34.5-7.2-60.5-4.2-77-3
		c-81.8,6-152.9-16-295-60c-111.9-34.7-167.8-52-227-91c-32.9-21.7-58.9-43.8-112-69c-42.3-20-50-17.4-129-45
		c-55.5-19.4-112.7-39.6-179-74c-53.2-27.6-79.8-41.5-102-62c-54-50-44.1-81.5-112-170c-50-65.2-80.6-81-91-86
		c-18-8.6-31.3-11.3-108-19c-155.2-15.5-169.7-11.3-182-6c-44,18.9-38,42.2-100,71c-36.8,17.1-48.9,13.5-83,31
		c-44.2,22.7-69.9,52.3-86,70c-75.7,83.1-164.3,147.4-216,185c-47.3,34.4-90.2,59.9-176,111c-42.9,25.6-78.8,45.8-133,82
		c-57.3,38.3-62.9,46.1-88,62c-78.9,49.8-157.1,56.4-258,65c-62,5.3-148.8,7-252-9"/>
	<path class="st3" d="M3705,1264c-0.6-5.6-17.2-4.9-40-13c-23.3-8.3-39.2-21.8-71-49c-9.5-8.1-27.2-23.4-48-46
		c-22.1-24.1-23.6-30.3-37-41c-22.7-18-46.8-22.8-64-26c-90.6-16.8-135.9-25.2-165-29c-81.2-10.5-122.3-15.9-151-25
		c-26-8.2-66.7-21.1-112-50c-20.2-12.9-21.2-16.2-37-24c-11-5.5-55.2-26.8-111-21c-31.7,3.3-39.7,12.4-71,10c-13-1-23.5-4-44-10
		c-39.6-11.5-87.6-29.2-128-31c-7.6-0.3-19.8-0.3-23,6c-2.4,4.8,1.3,11.3,3,14c21.2,35.3,100,56,100,56c33,8.7,37.1,5.9,61,15
		c20.6,7.9,30.1,14.7,56,30c52.8,31.2,79.3,46.8,99,51c35.1,7.6,45.8-2.8,85,10c9.9,3.2,7.4,3.3,43,19c44,19.4,66.3,29.1,79,30
		c29.8,2.1,36.4-10.5,63-4c17.3,4.2,28.2,12.9,40,22c27.5,21.3,57.4,39.6,84,62c66.4,55.9,155.5,72.9,181,77
		c76.3,12.3,131.1-2.9,164-12C3668.2,1283,3705.9,1272.6,3705,1264z"/>
	<path class="st3" d="M1124,479c3-9.6,11-15.9,27-28c16.3-12.4,24.4-18.6,25-19c8.4-6.1,19.7-15.1,42-33c88.9-71.3,88.3-73.8,104-80
		c21.6-8.6,26.2-5.2,76-22c26.5-8.9,27-10.5,40-14c38.8-10.5,71.7-6.7,93-4c29.4,3.7,64.9,8.1,101,32c21.7,14.4,34.2,29.9,59,61
		c26.8,33.5,22.5,37.9,51,80c0,0,8.6,12.8,14,32c3.9,14,2.3,18.1,1.3,19.6c-0.1,0.2-0.2,0.3-0.3,0.4c-4.5,4.9-25.4-7.8-34-13
		c-33.8-20.6-37.8-32-58-44c-21.4-12.6-42.3-14.1-84-17c-23.9-1.7-41.3-0.7-68,1c-46.8,2.9-55.5,6.6-95,10c-75.6,6.5-70.3-4.9-112,4
		c-27.2,5.8-66.9,18.7-97,31c-13.4,5.5-27.4,9.3-41,14c-26.2,9.1-37.6,13.3-43,8C1119.7,492.8,1123.3,481.3,1124,479z"/>
	<path class="st3" d="M2203-74l53,129v174.2c15.1,17.3,37.2,42.8,64,73.8c0,0,38.8,44.9,99,125c10.5,13.9,21.6,29,29,52
		c9.6,29.7,7.1,54.8,6,67c-3.8,42.7-5.7,101-6,182c8,2.5,20,6.7,34,13c33.9,15.3,52.7,31.2,72,44c0,0,26.7,17.8,87,40
		c107.8,39.7,150.5-19.7,264,16c34.3,10.8,72.7,29.5,125,55c46,22.4,59.4,31.5,90,39c9.7,2.4,32.7,7.4,111,6
		c72.8-1.3,79.7-6.1,114-5c60.4,1.9,80.2,18,140,32c146.2,34.2,288.1-1.4,378-24c15.9-4,28.8-7.6,37-10"/>
	<path class="st3" d="M2617,667"/>
	<path class="st3" d="M-39,1366.2l2656,116.5l73.4-46.2c7.9,8.6,21.9,21.4,42.6,28.5c5.6,1.9,16.1,4.9,50,5c15.3,0.1,36.5-0.5,62-3
		c-0.4,12-0.9,32.5,0,58c2.7,72.7,14.5,114.9,30,230c7.1,52.4,8.6,73.2,1,100c-11.2,39.2-34.3,64.3-45,76
		c-49.6,54.2-135.1,151.6-248,278"/>
	<path class="st3" d="M2246.7,32.3L2490,42l38,9c489,0.8,687.6,0.7,700.9,0c0.6,0,8.3-0.5,18.8,0c11.8,0.5,17.6,0.8,24.3,3
		c11.2,3.7,18.4,10.6,23,15c5.2,5.1,5,6.3,17,22c8.7,11.4,13.1,17.1,16,19c10.5,6.9,22.6,6,35,5c5.8-0.4,17.4-1.8,32-7
		c21.4-7.7,28-16.1,45-16c4.8,0,9.4,0.1,14,3c9.3,5.8,7.7,16.3,15,21c4.7,3,11.5,1.1,25-3c61.1-18.4,45.5-12.7,60-19
		c11.8-5.1,22-10.4,34-7c1.4,0.4,5.8,1.8,10,5c14.7,11.3,14.1,35.9,14,43c-2.1,104-0.9,208.1-2.5,312.1c-0.1,8.1,0.9,15.6-0.4,29.8
		c-0.4,4.2-1,9.3-0.2,16.1c0.9,7.9,3.1,13.5,4,16c4.3,11.4,17.3,45.7,23,67c3.3,12.5,4.4,21.5,6,35c4.7,39.3,0.4,61.1-5,130
		c-2.6,33.5-3.6,54.2-8,93c-4.4,38.8-7.2,52.4-16,68c-5.1,9-20.3,36-52,47c-24.5,8.5-46.1,3-58,0c-34.4-8.7-59.2-30.5-73-43
		c-24.5-22-36.1-41.9-58-43c-2.9-0.2-11-0.5-19,4c-7.9,4.4-13.3,11.9-18,25c-10.9,30.4-9.8,68.8-9,83c-7.6,1.6-20.7,3.9-37,5
		c-41.2,2.8-63.8-5-116-9c-11.5-0.9-29.6-2-52-2c-3.4,33.1-5.8,58-7,70c-0.2,1.5-0.5,5.2,0,10c1.3,11.5,6.7,19.7,9,23
		c7.8,11.5,17.9,17.3,31,25c40.5,23.9,24.9,16,40,24c0,0,63.9,34,106,62c3.4,2.3,10.6,7.2,14,16c4.1,10.6,0.6,21-1,26
		c-8.3,25.3-12.2,51.9-21,77c-19.5,55.7-18.8,54.1-20,57c-12.2,29.1-24.2,49.4-36,69c-68.2,113.6-76.2,125.2-91,156
		c-20.6,42.9-28.8,69.5-31,77c-12.2,41-15.7,75.2-17,93c-0.7,10.4-0.9,18.3-1,22c-2.4,114.9,0,179,0,179c1.8,48.3,3.6,128.7,3,267"
		/>
	<path class="st3" d="M3609,1479"/>
	<path class="st3" d="M2367.4,361.1v181H3247c0,59.8,0,119.7,0,179.5c20.3,14.3,50,39.2,75,78.4c15.8,24.8,25.2,48.4,31,67"/>
	<path class="st3" d="M3060-28c9,3,18,6,27,9v13.1c-3.5,25.1-2.1,44.2,0,57.4c1.5,9.1,3.6,17.8,0,28.4c-3.3,9.7-8.5,12.4-14,25
		c-3.3,7.5-4.4,13.3-6,22c-5.6,30-8.4,44.9-9,50c-3.3,26.8-8.1,169.5-9,365"/>
	<path class="st3" d="M3850,1847c-142.9-78.7-256.4-146.8-336-196c-188.3-116.4-282.4-174.6-299-187c-17.9-13.3-61.2-46.2-126-78
		c-22-10.8-42.1-19.3-123-48c-117.7-41.7-176.5-62.5-225-73c-47.5-10.3-83.1-14-157-20c-222.4-18.1-332-22-332-22
		c-160.4-5.7-320.6-16.7-481-24c-273.7-12.4-479.3-21.5-491-22c-581-25.6-599.6-26.8-752-33c-131.6-5.4-325.4-12.9-563-21"/>
	<path class="st3" d="M1323,2196c-13.3-31.3-26.7-62.7-40-94c0.6-63.9,1.4-162.4,2-283c1.2-250.7-0.2-297.4,3-424
		c3.3-131,8.8-238.1,13-320c5.8-112.1,11.8-204,16-265"/>
	<path class="st3" d="M1414,815c1.3,448.3,2.6,896.7,3.9,1345"/>
	<path class="st3" d="M249,1018c40,3.1,73.5,0.5,98-3c18.2-2.6,46.7-6.8,82-20c5.7-2.2,21.6-8.3,42-19c42.3-22.2,70.4-46.4,82-56
		c20.6-17.1,106.5-88.5,213-115c38.6-9.6,79-11,79-11c30.6-1.5,53.6,0.5,60,1c200.2,16.4,459,17,459,17c116.6,0,322.1,7.5,712,40
		c-1.7,48.7-3.3,97.3-5,146c-280.7-9.4-561.4-20.1-842-32c-210.4-9-420.7-18.6-631-29"/>
	<path class="st3" d="M592,1147c2.7-87.7,5.3-175.3,8-263"/>
	<path class="st3" d="M600,884c63.8-6.7,161.5-14.8,281-16c134.4-1.3,176.1,7.4,413,21c52.3,3,188.6,8.7,461,20
		c137.3,5.7,248.7,10.2,319,13"/>
	<path class="st3" d="M1851-62"/>
	<line class="st3" x1="1851" y1="-18.9" x2="1832.1" y2="989.7"/>
	<polyline class="st3" points="727,-43 727,633.3 845,794 833.4,1015.5 825,1156.8 	"/>
	<polyline class="st3" points="-35,1292 2294,1390 2301.3,1225.3 	"/>
</g>
<g id="Layer_3">
	<path class="st1" d="M2408,1396.1l-10,225.9l-120-9l5.2-70.4l11.2-152.6L2408,1396.1l130,6.9v144c-85-1.3-170-2.6-255-4"/>
	<path class="st1" d="M291.9,1999.1c37-4.5,66.4-2.8,86.9-0.2c20.8,2.6,38.9,6.9,68.2,5.2c7.2-0.4,22.3-1.7,41-6
		c23.7-5.5,41.8-9.7,60-23c13.6-10,14.2-15.5,27-21c9.6-4.1,17.6-4.7,37-5c14.4-0.3,32.3-0.4,53,0c9.5,7,17.5,12.4,23,16
		c12.7,8.4,17.8,10.9,25,18c4.2,4.1,9.2,9.2,13,17c4.7,9.7,4.9,18.7,5,23c0.3,16.5,1,81.3,1,170"/>
	<polyline class="st1" points="665,1949 665,1725.5 593.9,1728 593.9,1948.8 	"/>
	<path class="st1" d="M521.9,1724c-0.6,140.5-0.9,198.2-0.9,210c0,6.1,0.1,6.4,0,10c-0.3,19.8-2.3,23,0,30c1.7,5.2,4.4,8.4,10,15
		c4.9,5.8,6.6,6.2,16,16c6.3,6.7,8.4,9.5,10,13c0.8,1.7,2.5,5.8,3,12c0.9,10.9,1,64.3,0,137"/>
	<path class="st1" d="M376,1725c0.3,138,0.7,276,1,414"/>
	<path class="st1" d="M445,1728c-0.3,159.1-0.6,215.4-1,224c0,0.9-0.2,4.3,0,9c0.2,3.9,0.7,11.6,3,21c3.6,14.8,9.6,25.5,11,28
		c4.3,7.6,6.6,9.3,9,16c2.7,7.5,2.9,13.9,3,17c0.6,22.5,0,68,0,77c0,11.4,0.6,27.9,4,48"/>
	<path class="st1" d="M333,2173c2.7-2.8,20.6-21,36-30c2.5-1.5,6.8-4,13-6c0.3-0.1,7.2-2.3,15-3c10.9-0.9,50.8-1.2,105,0
		c216,0.8,306.6,0.3,323.2-1c1.4-0.1,6.7-0.6,13.8,0c17.4,1.3,29.8,7.2,40,12c12.3,5.7,28.9,13.2,52,23"/>
	<path class="st1" d="M845,2069c-5.1-3.1-12.9-7.2-23-10c-3.9-1.1-22.2-5.9-46-1c-16.1,3.3-15.6,7-32,10c-8.5,1.5-21.9,3.9-36,0
		c-14.8-4.1-17.6-11.6-34-23c-3.6-2.5-25.3-17.3-52-22c-11-2-33.5-4.1-62,7"/>
	<path class="st1" d="M833,2183c-4.9-29.8-2.6-53.6,0-69c4.4-25.4,12.9-45.6,19-60c8.6-20.3,10.5-19.3,19-40
		c12.1-29.4,8.8-32.7,19-54c11.5-24.2,17.9-24.5,25-43c2.8-7.3,4.7-14.9,6-55c1.2-36.8,0.8-69.7,0-103c-0.4-14.4-0.7-26.2-1-34"/>
	<path class="st1" d="M1284,1954c-27.6,5.1-49.4,2.6-66-2c-25.2-6.9-33.2-17.2-59-24c-23.5-6.2-40.2-3.9-65-2
		c-56.7,4.2-43.6-2.5-121,1c-90.2,4-108.4,13.1-134-2c-18.7-11-28.8-15.7-49-25c-5.8-2.7-17.2-7.8-33-10c-7.7-1.1-13.6-1-17-1
		c-30,0.3-55.8,0.7-75,1"/>
	<path class="st1" d="M1037,2166c2.5-11.9,3.6-26.4,0-42c-4-17.2-10-19.7-12-36c-1.5-12.3,0.7-22.2,5-42c4.4-20.3,6.3-18,8-31
		c1.7-12.8,0.2-17.2,1-43c0.3-10.6,0.8-17.5,1-21c1-17.3,1.6-74.2,1-229"/>
	<path class="st1" d="M1101,2163c4.3-19,2.5-33.2,0-43c-3.8-14.4-9.2-18.5-9-32c0.1-3.9,0.3-18.8,10-31c4.3-5.3,8.4-6.4,12-13
		c3.8-6.8,3.9-13.4,4-17c0.2-13.4,0.1-51.6-1-103"/>
	<path class="st1" d="M1231,2179c-4.8-7-11.3-18.2-15-33c-3.4-13.3-3.1-24-3-29c0.6-28-1-56,0-84c0.7-19.7,1.2-47.6,0-82"/>
	<path class="st1" d="M1118,2002c-22.9-0.1-41.3,1-54,2c-31.8,2.5-50.7,6.5-70-2c-2.7-1.2-7.6-3.6-16-7c-14.4-5.8-26.3-9.3-29-10
		c-26.1-6.8-69.3,19.8-76,24"/>
	<line class="st1" x1="866.9" y1="2023.5" x2="962" y2="2196"/>
	<line class="st1" x1="1092" y1="1725.5" x2="1094" y2="1926"/>
	<polyline class="st1" points="1221.8,1725.5 1221.8,1844 1221.8,1953 	"/>
	<line class="st1" x1="1285.5" y1="1841.3" x2="1221.8" y2="1844"/>
	<line class="st1" x1="294" y1="1871.7" x2="376.5" y2="1871.7"/>
	<polyline class="st1" points="294,1759.9 337.5,1759.8 1041,1757.6 	"/>
	<line class="st1" x1="335.2" y1="1870" x2="337.5" y2="1759.8"/>
	<path class="st1" d="M377,1820c39.1,2,57.5,1.3,66.9,0c2.7-0.4,9.4-1.4,18.1,0c4.2,0.7,7,1.6,17,5c11.4,3.8,17.1,5.7,18,6
		c13,3.9,24,2.7,32,2c28.2-2.4,63-2.3,75-2c39,0.9,35.9,8.1,75,8c16,0,27.7-1.2,49,1c16.8,1.8,26.8,2.9,39,8
		c7.4,3.1,37.1,15.5,41,38c0.7,4.1-0.3,3.7-5,28c0,0-2.9,15.2-6,37c-1.7,12.2-2.8,21.9,0,34c0.7,3,1.4,5.4,2,7"/>
	<line class="st1" x1="721.1" y1="1992" x2="878.4" y2="1993.7"/>
	<line class="st1" x1="414.5" y1="1759.9" x2="414.5" y2="1821.2"/>
	<line class="st1" x1="485" y1="1759.9" x2="485" y2="1827"/>
	<line class="st1" x1="557.7" y1="1759.9" x2="557.7" y2="1831.4"/>
	<line class="st1" x1="629.5" y1="1759.9" x2="629.5" y2="1833"/>
	<line class="st1" x1="702.4" y1="1759.9" x2="702.4" y2="1838.7"/>
	<line class="st1" x1="734.7" y1="1725.5" x2="734.7" y2="1840.7"/>
	<line class="st1" x1="799.8" y1="1725.5" x2="800.8" y2="1870.8"/>
	<line class="st1" x1="767.6" y1="1759.9" x2="767" y2="1848"/>
	<line class="st1" x1="1041" y1="1793.3" x2="800.8" y2="1793.3"/>
	<path class="st1" d="M940,1258c5.2-154.4,11.8-308.8,20-463c1.6-30.3,3.3-60.7,5-91l239,7"/>
	<line class="st1" x1="1942" y1="1138" x2="596" y2="1065"/>
	<line class="st1" x1="1945.7" y1="1065" x2="949.2" y2="1019.4"/>
	<polyline class="st1" points="1062.4,1167.4 1080.7,805.4 1080.7,707.4 	"/>
	<polyline class="st1" points="1180.1,1167.4 1197.3,810 1213,595 1323,598.1 1417.9,600.7 1417.9,674.1 1417.9,815 	"/>
	<path class="st1" d="M1481.5,1191l5.6-376.8c0.4-92.6,1.1-160.3,1.9-171.3c0.2-2.8,0.6-6.4,3-9.9c2.5-3.7,5.6-5,15-10
		c7-3.7,10.6-5.6,11-6c2.9-2.7,6-7.7,5-34c-0.7-17-2.2-20.7,0-30c3-12.6,8.4-16.9,10-18c5-3.6,10.5-3.9,14-4c22.5-0.9,33.8-1.3,59-1
		c16.5,0.2,24.8,0.3,29,0c0,0,12.8-0.9,27.5,0.7c1.8,0.2,6.1,0.7,10.5,3.3c1.1,0.6,2.6,1.5,4,3c3.7,3.9,3.9,9.4,4,12
		c0.8,29,1,60,1,60"/>
	<line class="st1" x1="1708" y1="1194" x2="1731" y2="609.9"/>
	<polyline class="st1" points="963.4,731.7 1836.3,766.7 1962,773 	"/>
	<line class="st1" x1="1317" y1="810" x2="1323" y2="598.1"/>
	<polyline class="st1" points="1207.7,667.2 1417.9,674.1 1604,682.2 1839,691 	"/>
	<line class="st1" x1="963.4" y1="766.7" x2="1317" y2="783.6"/>
	<path class="st1" d="M1661,2172c1-26,2-52,3-78c-4.8-2.1-11.1-5.3-18-10c-10.4-7.1-16.8-14.3-21-19c-6.3-7.1-14.7-17.9-22-33
		c-18-0.7-36-1.3-54-2"/>
	<rect x="1805" y="2071" class="st1" width="112" height="101"/>
	<line class="st1" x1="1845" y1="2218" x2="1845" y2="2071"/>
	<polyline class="st1" points="3551.7,1678.2 3522,1722 3505.3,1722.3 3224,1728 3339.3,1542.8 3376.5,1481 3534.9,1429.6 
		3655,1429.6 3655,1571.8 3655,1718.1 3984,1718 	"/>
	<polyline class="st1" points="3043.2,1366.2 3017,1426 3093,1473.2 3494.3,1722.6 	"/>
	<polygon class="st1" points="3089,1386 3091,1429.6 3093,1473.2 	"/>
	<line class="st1" x1="3195.7" y1="1495" x2="3091" y2="1429.6"/>
	<polyline class="st1" points="3411.8,1722.6 3470.2,1623.9 3509,1564 	"/>
	<line class="st1" x1="3250.7" y1="1402.9" x2="3655" y2="1654"/>
	<line class="st1" x1="3918" y1="1573" x2="3655" y2="1571.8"/>
	<line class="st1" x1="3729.7" y1="1718.1" x2="3729.7" y2="1572.4"/>
	<polyline class="st1" points="3557.3,1593.3 3557.3,1479 3606.2,1479 3655,1479 	"/>
	<line class="st1" x1="3606.2" y1="1623.7" x2="3606.2" y2="1479"/>
	<polyline class="st1" points="3655,1736 3655,2151.2 3655,2261.8 	"/>
	<path class="st1" d="M3488,2013l167,160.8L3488,2013z"/>
	<line class="st1" x1="3655" y1="1813" x2="3488" y2="2013"/>
	<polyline class="st1" points="3802.3,1820.5 3802.3,1938.7 3729.7,1938.7 3729.7,2054.4 3800.2,2054.2 3881,2054 	"/>
	<line class="st1" x1="3805.3" y1="2052.9" x2="3805.3" y2="2186"/>
	<line class="st1" x1="3769.6" y1="1938.7" x2="3769.6" y2="2054.3"/>
	<path class="st1" d="M2536,2233c-0.3-107.3-0.7-214.7-1-322c8.7-7.1,20.7-17.9,33-33c11.7-14.4,19.1-27.1,24-36
		c22.3-40.5,38.5-84.1,54-128c6.8-19.2,15.8-45.1,26-76c11.3,0.7,37.3,3.2,60,16c4.8,2.7,9.5,5.3,15,10c13.8,11.6,13.4,19.4,23,24
		c11,5.3,23.3,0.7,28-1c15.5-5.7,23-18.3,25-22"/>
	<path class="st1" d="M2793,1470c-28,82.3-56,164.7-84,247c-0.3,13.7-1.8,33.3-8,56c-9.4,34.7-24.9,58.9-38,78
		c-47.1,68.7-108,136.2-128,158"/>
	<polyline class="st1" points="2643,1722.6 2870.5,1722.6 3035.9,1722.6 3013,1530 2846,1544.4 	"/>
	<line class="st1" x1="3095.8" y1="1787.6" x2="2878.6" y2="1783.2"/>
	<line class="st1" x1="3095" y1="1847" x2="2881.1" y2="1847"/>
	<line class="st1" x1="3095" y1="1909.5" x2="2849" y2="1909.5"/>
	<polyline class="st1" points="3096.7,1974.1 2792.1,1974.1 2658.9,1857 2599.6,1827.6 	"/>
	<line class="st1" x1="2550.7" y1="1897" x2="2594" y2="1939"/>
	<line class="st1" x1="2761.6" y1="1722.6" x2="2761.6" y2="1833"/>
	<polyline class="st1" points="2841.6,1722.6 2841.6,1756.7 2752,1843 	"/>
	<polyline class="st1" points="2694.1,1794.1 2790,1877 2675.6,2009 2723.2,2051.3 	"/>
	<line class="st1" x1="2736.8" y1="2036.1" x2="2884.6" y2="2036.1"/>
	<line class="st1" x1="2884.6" y1="1974.1" x2="2888" y2="2171"/>
	<polyline class="st1" points="2680.6,2099.4 2769.8,2099.4 2950.2,2099.4 3045,1974.1 	"/>
	<line class="st1" x1="2768" y1="2165" x2="2765.7" y2="2099.4"/>
	<polyline class="st1" points="2950.2,2099.4 2950.4,2036.1 2951.7,1722.6 2933.9,1536.8 	"/>
	<line class="st1" x1="2996.9" y1="2037.7" x2="2950.4" y2="2036.1"/>
	<line class="st1" x1="2972" y1="1533.5" x2="2994.2" y2="1722.6"/>
	<path class="st1" d="M2807.9,1473.2c6.4,83.3,12.8,166.5,19.1,249.8"/>
	<polyline class="st1" points="3097.7,2013 3131.5,2013 3246.8,2186 	"/>
	<polyline class="st1" points="3098.9,2099.5 3172.2,2099.5 3181.6,2093.4 3183.9,2091.7 	"/>
	<path class="st1" d="M2071,995l458.5,24.4l4,221.6l-121.9-8.9l16-323.2L1839,621c-11.3-3.3-22.7-6.7-34-10c-65.3-1-130.7-2-196-3
		c-6.7,93.3-12.1,189.3-16,288c-4,101-6.3,199.4-7,295"/>
	<line class="st1" x1="1967" y1="683.6" x2="1957" y2="841"/>
	<line class="st1" x1="2197.5" y1="796.4" x2="2179.4" y2="1220.1"/>
	<path class="st1" d="M2301.3,1225.3c1.4-98.8,3.6-177.5,4.7-229.3c0.2-11.4,0.7-33.7,12-59c13.1-29.3,34.2-47.8,48-58"/>
	<polyline class="st1" points="2530.8,1090.7 2246.7,1080 2242,1153 2532.1,1164.5 	"/>
	<path class="st1" d="M249,1018"/>
	<line class="st1" x1="-11" y1="39" x2="300" y2="44.9"/>
	<line class="st1" x1="-16" y1="201" x2="300" y2="207.2"/>
	<polyline class="st1" points="-24,444.4 143.5,444.4 297.9,432.7 	"/>
	<polyline class="st1" points="-20,591 295.5,594.5 727,594.1 	"/>
	<polyline class="st1" points="-14,700 296.9,700 589.5,594.5 	"/>
	<polyline class="st1" points="-14,882.9 129.5,865.8 296.9,845.9 353.5,833.2 436.2,736.5 	"/>
	<line class="st1" x1="129.3" y1="592.7" x2="129.5" y2="865.8"/>
	<line class="st1" x1="296.6" y1="772.4" x2="-28.2" y2="772.4"/>
	<line class="st1" x1="-24" y1="635.3" x2="297.2" y2="632.8"/>
	<polyline class="st1" points="151.6,592.7 151.6,443.8 145.3,84.4 144.5,39 	"/>
	<polyline class="st1" points="223.2,592.7 223.2,438.5 223.2,43.5 203,-44 	"/>
	<line class="st1" x1="151.6" y1="484.7" x2="-8" y2="487"/>
	<line class="st1" x1="-11" y1="525.2" x2="151.6" y2="525.2"/>
	<line class="st1" x1="186.6" y1="593.3" x2="183.4" y2="41.9"/>
	<line class="st1" x1="259.5" y1="594.1" x2="262.5" y2="41.9"/>
	<line class="st1" x1="-11" y1="82.2" x2="145.3" y2="84.4"/>
	<line class="st1" x1="-19" y1="126" x2="145.3" y2="126"/>
	<line class="st1" x1="-22" y1="163" x2="146.7" y2="163"/>
	<line class="st1" x1="73.9" y1="204.1" x2="73.9" y2="444.4"/>
	<line class="st1" x1="109.2" y1="204.1" x2="109.2" y2="444.4"/>
	<line class="st1" x1="295.5" y1="809.7" x2="-20" y2="809.7"/>
	<polyline class="st1" points="300,51.2 441.5,51.2 447.6,592.7 	"/>
	<line class="st1" x1="299.2" y1="105.1" x2="442" y2="102.4"/>
	<polyline class="st1" points="727,237.5 443.7,248.4 368.4,248.4 297.9,215.3 	"/>
	<polyline class="st1" points="517,402 517,245.6 585.3,242.9 585.3,345.9 	"/>
	<path class="st1" d="M297.2,556.9c9,1.3,21.1,1.6,33.8-2.9c11.5-4.1,19-10.4,22-13c54.5-46.5,110.2-91.7,164-139
		c31.9-28,47.8-42.1,68-56c54.2-37.4,105.8-57.1,142-68v-12.9l-109.1-2.3"/>
	<polyline class="st1" points="585,346 585.3,376.9 727,376.9 	"/>
	<line class="st1" x1="585" y1="557.8" x2="585.3" y2="376.9"/>
	<line class="st1" x1="551.2" y1="557.8" x2="546.7" y2="245"/>
	<line class="st1" x1="478.8" y1="247" x2="483" y2="561"/>
	<line class="st1" x1="517" y1="402" x2="517" y2="561"/>
	<line class="st1" x1="686.3" y1="376.9" x2="691.7" y2="561.2"/>
	<polyline class="st1" points="651,340.6 686.3,340.6 686.3,292.1 	"/>
	<path class="st1" d="M618,242c0,12,0,24-0.1,36v47.1l2.8,236.1H656c-1.9-84.4-3.8-168.9-5.7-253.3"/>
	<polyline class="st1" points="407,495.5 370,452 368.4,248.4 	"/>
	<polyline class="st1" points="335.5,231.8 336.7,551.7 447.2,561 691.7,561.2 727,561.2 	"/>
	<line class="st1" x1="447.6" y1="525.2" x2="373.8" y2="523.4"/>
	<polyline class="st1" points="336.5,507.8 410.7,446.3 407,248.4 	"/>
	<line class="st1" x1="300" y1="152.2" x2="442" y2="152.2"/>
	<line class="st1" x1="443.3" y1="213.1" x2="727" y2="207.2"/>
	<polyline class="st1" points="668.7,-8.8 666,56 441.5,51.2 	"/>
	<line class="st1" x1="300" y1="784.4" x2="723.6" y2="635.3"/>
	<polyline class="st1" points="656,594.1 656,627.4 296.7,744.8 	"/>
	<line class="st1" x1="668.2" y1="654.8" x2="656" y2="627.4"/>
	<line class="st1" x1="436.2" y1="594.5" x2="436.2" y2="649.8"/>
	<polyline class="st1" points="368.4,594.5 368.4,619 368.4,674.2 	"/>
	<path class="st1" d="M297,618c23.8,0.3,47.6,0.6,71.4,1"/>
	<polyline class="st1" points="334.2,594.5 331,687.7 341.1,730.3 	"/>
	<polyline class="st1" points="502.1,594.5 502.1,635.3 603,594.5 	"/>
	<polyline class="st1" points="1207.7,322.5 1215,-36 1277.3,-43 1277.3,292.1 	"/>
	<line class="st1" x1="1344.3" y1="-43" x2="1346.7" y2="236.9"/>
	<polyline class="st1" points="1417,229.2 1417,83.2 1200,80 801.4,454.6 727,454.6 727,554.1 806.5,554.1 1211,162.2 1210,213.1 
		828,571 855.1,600.2 	"/>
	<line class="st1" x1="963.3" y1="518.6" x2="903.6" y2="460.1"/>
	<line class="st1" x1="1049.3" y1="442" x2="845" y2="223.4"/>
	<path class="st1" d="M1137.6,355.8L929,146c-52,49.3-90.8,85.1-101,94c-8.7,7.5-17,14-17,14l0,0c0,0-7.8,6-14,10
		c-7.1,4.7-21.8,3-40,2c-7.1-0.4-17.4-0.9-30-1"/>
	<polyline class="st1" points="853.5,405.7 805.4,355.8 1203,-17 	"/>
	<line class="st1" x1="790.3" y1="647.2" x2="786" y2="-8.8"/>
	<line class="st1" x1="751.9" y1="667.2" x2="755.3" y2="-17"/>
	<line class="st1" x1="727" y1="361.4" x2="788.4" y2="361.4"/>
	<line class="st1" x1="727.8" y1="475.9" x2="788.4" y2="475.9"/>
	<line class="st1" x1="789.4" y1="511.8" x2="963.3" y2="350"/>
	<line class="st1" x1="826.8" y1="378.1" x2="1207.7" y2="20.8"/>
	<line class="st1" x1="788.1" y1="319.2" x2="953.1" y2="170.2"/>
	<line class="st1" x1="1049.3" y1="267" x2="1212" y2="113.6"/>
	<line class="st1" x1="1063.8" y1="113.6" x2="1158.5" y2="213.1"/>
	<line class="st1" x1="1242.5" y1="-39.1" x2="1242.5" y2="309.6"/>
	<line class="st1" x1="1314" y1="-51" x2="1312.8" y2="262.7"/>
	<line class="st1" x1="1380.6" y1="223.4" x2="1380.6" y2="-21.8"/>
	<polyline class="st1" points="1417,163.3 1488,159 1481.5,-25.6 	"/>
	<polyline class="st1" points="2366,433 3267.6,433 3342,494 3342,614 2537.4,608 	"/>
	<polyline class="st1" points="2335.7,321.8 3110,325.7 3168,326 3168,614 	"/>
	<line class="st1" x1="3112.9" y1="612.3" x2="3110" y2="325.7"/>
	<line class="st1" x1="3247" y1="542.1" x2="3247" y2="433"/>
	<line class="st1" x1="2256" y1="105.9" x2="1731" y2="100.8"/>
	<line class="st1" x1="2256" y1="179.1" x2="1967" y2="179.1"/>
	<line class="st1" x1="2271" y1="246.5" x2="1967" y2="246.5"/>
	<line class="st1" x1="1967" y1="314.7" x2="2246.7" y2="321.8"/>
	<polyline class="st1" points="2246.7,246.5 2246.7,529.8 2367.4,542.1 	"/>
	<path class="st1" d="M1973-23c-2,89.7-4,179.3-6,269c0,44,0,88,0,132c-0.7,20.7-1.3,41.3-2,62c1.7,1.9,4.6,4.8,9,7
		c5.5,2.7,10.6,2.9,13,3c9.4,0.3,47.2,0.8,99,1"/>
	<path class="st1" d="M1843,390c8.3-0.4,17.4-0.3,27,1c46.8,6.1,79.3,33.4,95,49"/>
	<polyline class="st1" points="2081.7,-23 2086,467.9 2176.1,467.9 2176.1,382.8 1967,378 	"/>
	<line class="st1" x1="1967" y1="279.9" x2="2246.7" y2="279.9"/>
	<path class="st1" d="M2223.9,257.2"/>
	<line class="st1" x1="2212" y1="43" x2="2212" y2="246.5"/>
	<polyline class="st1" points="2251.1,43 1851,43 1608,37.9 	"/>
	<line class="st1" x1="2212" y1="75.8" x2="1887.1" y2="75.8"/>
	<polyline class="st1" points="1887.1,43 1887.1,140.4 2212,144.7 	"/>
	<line class="st1" x1="2212" y1="211.4" x2="1967.7" y2="214"/>
	<line class="st1" x1="1965" y1="414.9" x2="2335.7" y2="420.1"/>
	<polyline class="st1" points="2367.4,384.1 2335.7,384.1 2335.7,523.5 2366,523.5 	"/>
	<polyline class="st1" points="2256,144.7 2540.3,144.7 2540.3,112.4 2540.3,-32.2 	"/>
	<path class="st1" d="M3020-12c3.3,21.3,6.7,42.7,10,64c-1,10.9-5,36.3-25,52c-9.8,7.7-19.7,10.2-28,12c-39.6,8.4-74.4,6-121,3
		c-49.3-3.1-62.3-3.7-77-4c-26.3-0.6-45.9-0.2-54,0c-32.7,0.7-87.6,1.4-185,2"/>
	<line class="st1" x1="2653.7" y1="51.2" x2="2653.7" y2="116.1"/>
	<polyline class="st1" points="2906.7,121.6 2906.7,-6.4 2793.8,-6.4 2793.8,51.2 2793.8,116.1 	"/>
	<polyline class="st1" points="2540.3,81.5 2970.2,81.5 2970.2,-16 	"/>
	<polyline class="st1" points="2822,-26 2824.8,51.4 2870.8,51.2 2870.8,18.8 2870.8,-26 	"/>
	<polyline class="st1" points="1610,-10 1605.6,93.9 1731,152.3 1731,-10 	"/>
	<line class="st1" x1="1682" y1="129.5" x2="1682" y2="40.5"/>
	<line class="st1" x1="1605.6" y1="68.9" x2="1810.1" y2="71.1"/>
	<polyline class="st1" points="1810.1,42.1 1810.1,100.8 1810.1,269.6 1844.5,325.6 	"/>
	<line class="st1" x1="1731" y1="138.9" x2="1810.1" y2="141.3"/>
	<polyline class="st1" points="2602.2,608 2602.2,246.5 2662.1,246.5 3054.2,246.5 	"/>
	<line class="st1" x1="2728.8" y1="608" x2="2728.8" y2="246.5"/>
	<line class="st1" x1="2793.8" y1="608" x2="2793.8" y2="246.5"/>
	<line class="st1" x1="2854" y1="612.3" x2="2850.3" y2="246.5"/>
	<line class="st1" x1="2923.7" y1="608" x2="2916" y2="246.5"/>
	<line class="st1" x1="2985.2" y1="608.9" x2="2985.2" y2="246.5"/>
	<line class="st1" x1="3054.2" y1="611.9" x2="3049" y2="542"/>
	<line class="st1" x1="2632.6" y1="608" x2="2632.6" y2="246.5"/>
	<line class="st1" x1="2696.7" y1="608.9" x2="2696.7" y2="246.5"/>
	<line class="st1" x1="2759.6" y1="542" x2="2759.6" y2="246.5"/>
	<line class="st1" x1="2828.2" y1="542" x2="2822.4" y2="246.5"/>
	<line class="st1" x1="2889.1" y1="542" x2="2889.1" y2="246.5"/>
	<line class="st1" x1="2955.7" y1="542" x2="2950.6" y2="246.5"/>
	<line class="st1" x1="3017.3" y1="246.5" x2="3017.3" y2="611.6"/>
	<line class="st1" x1="3082.7" y1="327.5" x2="3082.7" y2="612.3"/>
	<line class="st1" x1="3145.5" y1="327.5" x2="3145.5" y2="612.6"/>
	<line class="st1" x1="3203.2" y1="433" x2="3209.6" y2="612.6"/>
	<polyline class="st1" points="2602.2,246.5 2662.1,246.5 2660.8,608.9 	"/>
	<path class="st1" d="M3012,52c0.7,7.8,1.6,29.4-12,50c-11.3,17.1-26.6,24.6-36,29c-20.3,9.6-36.7,9.7-61,11c-20,1.1-49.3,3.2-86,8
		c-18.8,4.4-33.9,9.1-44.2,12.6c-46.3,15.7-86.5,29.9-104,64.7c-4,7.9-5.8,15-6.7,19.2"/>
	<path class="st1" d="M3058,177h-118.5c-21.2-0.1-39,0.4-52.5,1c-60.2,2.6-70.5,10-76,15c-5.2,4.8-18.2,19.2-17,53"/>
	<polyline class="st1" points="2533.5,321.8 2538,716 3247,718.4 	"/>
	<line class="st1" x1="2995.7" y1="611.4" x2="2993.3" y2="717.6"/>
	<polyline class="st1" points="2734.7,716.7 2734.7,758.4 2734.7,795.4 2819.6,795.4 2828.2,756 2828.2,718.4 	"/>
	<polyline class="st1" points="2923.7,717.6 2923.7,792.3 2822.4,787.4 	"/>
	<line class="st1" x1="2828.2" y1="736.3" x2="2734.7" y2="736.3"/>
	<polyline class="st1" points="3096.8,718.4 3096.8,870.8 3196.8,867 3196.8,830.8 3180.2,717.6 	"/>
	<line class="st1" x1="2237.8" y1="10.6" x2="2540" y2="13.4"/>
	<line class="st1" x1="2318.1" y1="-12" x2="2318.1" y2="144.7"/>
	<line class="st1" x1="2388.9" y1="-12" x2="2388.9" y2="144.7"/>
	<line class="st1" x1="2467.7" y1="-16" x2="2470.2" y2="144.7"/>
	<polyline class="st1" points="2301.3,144.7 2301.3,232.5 2363.4,232.5 2433.6,232.5 2433.6,144.7 2362.8,144.7 	"/>
	<polyline class="st1" points="2379.6,322 2377,254 2455.1,251.2 2455.1,322 	"/>
	<path class="st1" d="M3057,190c11.3,4.7,22.7,9.3,34,14c28.6,11.7,57.3,23.4,86,35c3.2-9.6,8.3-22.7,17-37
		c16.9-27.8,37.1-43.7,48-52c32-24.5,64.6-35.1,86-40"/>
	<path class="st1" d="M3425.4,229.2c-0.4,9.3-0.4,23.5,1.6,40.8c2.3,18.9,5,24.1,4,36c-0.3,4.2-2.1,25.5-17,41
		c-21.7,22.7-56.9,17.8-62,17c-44-6.8-71.7-49.6-83-67c-18.1-28-19.3-46-44-69c-12.4-11.6-24.7-18.8-33-23
		c-43.3-16.3-86.7-32.7-130-49"/>
	<path class="st1" d="M3069,118"/>
	<path class="st1" d="M3069,118c12.5,4.9,30.9,12,53,21c41.3,16.7,52.1,22.1,58,25c36.5,18.4,52.8,32.3,57,36
		c13.1,11.4,21.4,21.8,24,25c9.2,11.6,15.2,22.1,18,27c3.1,5.5,2.6,5.2,10,19c6.7,12.5,10,18.8,13,23c7.3,10.3,14.6,16.9,17,19
		c4,3.5,12.3,10.6,25,16c15.1,6.4,29,7.3,38,7"/>
	<path class="st1" d="M3086,82c2.9,2.8,7.6,6.9,14,11c10.6,6.9,19.8,9.9,23,11c16.1,5.5,32,12.9,56,24c29.3,13.6,49.8,28.5,60,36
		c23.9,17.6,36.9,31.5,40,35c12.2,13.4,19.3,24.4,21,27c8.2,12.8,9.7,18.6,15,28c10.8,19.1,23.3,27.9,34,38c24.4,23,39.2,56.7,45,68
		c1.3,2.5,4.1,8.1,9,15c7.7,10.8,14.5,16.5,20,22c1.8,1.8,16.3,16.3,25,35c6.5,14,7.7,26,10,50c2.3,23.5-0.4,22.5,2,40
		c2.3,17.4,6.5,30,14,53c5,15.2,9.6,27.5,13,36c-24.7,0.7-49.3,1.3-74,2c-4.8-16.7-18.4-66-23-113c-1.5-15.4-1.3-27-1-50
		c0.3-17.8,1.1-25.9,5-35c5.6-13,14.8-21.3,21-26"/>
	<line class="st1" x1="3261.1" y1="283.7" x2="3315" y2="254"/>
	<path class="st1" d="M3296,120c0.2,12.4,0.7,47.8-2,59c-0.2,0.8-0.5,1.8-1,3c-3.4,7.6-11.6,11.2-18,13"/>
	<path class="st1" d="M3456,97c1.7,11.8,3.7,26.7,6,44c0,0,3.4,25.7,4,69c0.1,8.1,0.1,22.1-9,31c-1.8,1.7-4.7,4.6-9,5
		c-8.4,0.9-14.6-8.2-23-17c0,0-10.9-11.5-32-25c-15.9-10.2-30.2-13.6-44-17c-12.9-3.1-32.2-6.4-56-5"/>
	<path class="st1" d="M3305,82c-12.4,2.3-29.1,6.7-47,16c-11.9,6.1-21.5,12.9-29,19c-12.3-4.1-25-8.7-38-14
		c-37.9-15.4-70.5-33.3-98-51"/>
	<path class="st1" d="M3262,52c-0.3,4.3-0.7,8.7-1,13c-12,5.3-26.2,12.7-41,23c-18.6,12.9-32.7,26.5-43,38"/>
	<path class="st1" d="M3293-7.9V52h61l9-11v-53c-11.7,1-23.3,2.1-35,3.1c-0.3,20.3-0.7,40.6-1,60.9"/>
</g>
<g id="Layer_4">
	<path class="st1" d="M3361,365c1.1,4.4,2.1,11,0,18c-2,6.7-5.4,9.4-10,16c0,0-9.1,12.9-13,29c-2.2,9.1-1.8,16-1,30
		c0.9,15,1.4,24.5,6,36c3.5,8.8,7.8,14.7,16,26c10,13.8,14.3,16.2,19,27c3.3,7.6,1.7,7.7,6,18c2.4,5.9,6,14.1,13,23
		c4.6,5.8,9.2,10,13,13"/>
	<path class="st1" d="M3448,612c-14.8-29.9-20-54.6-22-72c-3.1-27.1-4-50-4-50c-0.8-21-0.1-30-5-42c-5.9-14.6-16.3-24.2-24-30"/>
	<line class="st1" x1="3390" y1="500" x2="3487" y2="497.2"/>
	<path class="st1" d="M3420,339c5.4,9.2,10.5,17.3,15,24c3.9,5.9,10.4,15.4,19,27c6.2,8.3,7.6,9.7,10,13c4.3,5.9,12.3,18.4,18,45
		c5.1,23.6,0.4,21.2,5,58c0,0,4.7,37.4,14,60c5.1,12.3,6,14,6,14c2.5,4.5,4.3,6.7,5,11c0.3,2,1,6-1,10c-2.4,4.7-7,6.5-11,8
		c-4.9,1.9-9.4,2.2-13,2"/>
	<polyline class="st1" points="3459.2,120 3426,120 3425.4,229.2 	"/>
	<rect x="2794" y="634" class="st1" width="66" height="52"/>
	<path class="st1" d="M3456,97c13.7-11.3,36.6-27,68-35c21.4-5.5,38.7-5.3,52-5c74.7,1.8,133,11,133,11c35.8,5.6,87.9,13.1,154,20"
		/>
</g>
<g id="Layer_5">
</g>
</svg>
