<?xml version="1.0" encoding="UTF-8"?>
<svg id="Layer_5" data-name="Layer 5" xmlns="http://www.w3.org/2000/svg" xmlns:xlink="http://www.w3.org/1999/xlink" viewBox="0 0 3068.09 1268.54">
  <defs>
    <style>
      .cls-1 {
        clip-path: url(#clippath);
      }

      .cls-2, .cls-3, .cls-4 {
        fill: none;
      }

      .cls-2, .cls-5 {
        stroke-width: 0px;
      }

      .cls-6 {
        clip-path: url(#clippath-1);
      }

      .cls-3 {
        stroke-width: 2px;
      }

      .cls-3, .cls-4 {
        stroke: #f2f1ed;
        stroke-miterlimit: 10;
      }

      .cls-4 {
        stroke-width: 4px;
      }

      .cls-5 {
        fill: #1d1c1d;
      }
    </style>
    <clipPath id="clippath">
      <rect class="cls-2" x="4" y="4" width="3060.09" height="1260.54"/>
    </clipPath>
    <clipPath id="clippath-1">
      <rect class="cls-2" x="3220.29" y="-15.46" width="1280" height="1280"/>
    </clipPath>
  </defs>
  <g class="cls-1">
    <g>
      <rect class="cls-5" x="-485.01" y="-864.78" width="4379" height="2642"/>
      <path class="cls-4" d="m-147.01,1433.22c6.97-2.54,17.49-7.22,28-16,7.51-6.27,12.1-12.19,28-35,12.35-17.72,18.85-20.83,22-32,2.62-9.29.02-10.17,2-21,.62-3.41,6.21-32.04,26-42,6.65-3.35,9.61-1.92,36-1,8.18.29,29.28.99,49,0,27.29-1.36,40.93-2.05,52-10,3.15-2.26,8.89-6.98,23-34,9.65-18.48,16.46-34.46,21-46,4.33,2.33,8.67,4.67,13,7,2.99-.34,5.99-.67,9-1,10.09-1.1,20.09-2.09,30-3-7.97-9.66-6.73-14.35-6-16,1.42-3.17,8.3-4.83,22-8,18.54-4.3,19.63-4.49,22-6,9.8-6.24,14.67-17.83,16-21,3.14-7.48,3.43-13.13,9-17,3.34-2.32,5.9-2.14,8-3,5.66-2.31,10.45-13.13,7-50,2.92-1.52,10.87-6.16,16-16,5.06-9.69,4.4-18.72,4-22,7.2-.24,18.8-.32,33,1,34.09,3.17,40.72,10.47,60,7,12.4-2.23,10.42-5.39,39-15,16.32-5.49,16.98-4.46,31-9,26.19-8.48,46.08-14.92,61-32,4.91-5.63,11.68-15.14,16-30,6.67-1.33,13.33-2.67,20-4,6.2,7.1,16.24,18.86,28,34,23.59,30.37,27.26,39.8,43,49,4.36,2.55,28.84,16.87,48,7,3.16-1.63,5.48-3.56,7-5-7.67-10-15.33-20-23-30,1.33-11.33,2.67-22.67,4-34,4.33-.67,8.67-1.33,13-2,6.33,6,12.67,12,19,18,9.61,1.38,25.13,3.61,25.41,3.73h0s.29.13.59.26c.23.1,10.81,10.91,25,26,2.41-1.07,6.21-2.62,11-4,16.29-4.7,29.81-3.33,34-3,19.66,1.56,39.57-3.41,62-9,21.16-5.28,46.54-11.6,70-32,14.43-12.54,23.1-26.03,28-35,4.04-.21,8.39-.24,13,0,12.58.67,23.39,3.19,32,6,5-4.33,10-8.67,15-13-9.55-3.09-21.72-6-36-7-7.68-.54-14.73-.44-21,0-1.26-14.57-2.88-35.92-4-62-1.22-28.58-.59-33.62,1-39,8.31-28.12,35.98-42.83,57-54,33.94-18.04,66.33-21.19,87-23,11.89-1.04,21.88-1.13,29-1,5.87-2.21,13.54-6.24,18-14,4.52-7.87,2.4-13.76,5-22,3.66-11.61,13.39-17.39,25-25,12.37-8.11,29.39-19.93,51-37,.67,3.33,1.33,6.67,2,10-11.33,12-22.67,24-34,36l9,6c19.33-25,38.67-50,58-75,10.46-.78,25.73-3.16,42-11,20.41-9.83,30.39-22.47,42-33,14.48-13.13,38.03-28.91,77-38,4-19.33,8-38.67,12-58,14.33-13.67,28.67-27.33,43-41,16.33-1.33,32.67-2.67,49-4-17.67-24.67-35.33-49.33-53-74-5.33.67-10.67,1.33-16,2-6.33-3.67-12.67-7.33-19-11-1.67-9.33-3.33-18.67-5-28l87-60c-11.67-52-23.33-104-35-156,8.33-16.33,16.67-32.67,25-49,1.33-34.67,2.67-69.33,4-104,13.67-14,27.33-28,41-42h8.91l80.09,87,44,6,28,32,30,24,54,13,95-29,75,13,69-11,81,21,122,109-14,116,48,168,39,49,49,166,86,68,19,54-15,59-23,15h-35l-81,24-75,66-36,81-2,36,47,116,53,73,11,74-28,78-53,67-25,39-35,132-56,84-33,69,2,35-34,29-37,3-34-13-121,55-5,41,22,12,4,28-74,69-230,84-115,120"/>
      <path class="cls-4" d="m1503.99,2299.22l104-132,130-42,127-44,34-79-6-25,54-34,44,13,117-96v-47.02l33-27.98,103-255,77-109,26-97c-4.67-26-9.33-52-14-78-6.32-3.87-15.89-10.35-26-20-16.11-15.38-22.43-28.17-40-56-26.09-41.34-25.45-34.21-31-47-3.84-8.85-17.34-41.2-9-81,6.9-32.9,24.94-52.83,45-75,27.72-30.63,49.8-38.3,55-40,10.6-3.46,16.71-3.48,29-5,14.07-1.74,62.19-7.69,95-27,13.3-7.83,37.23-25.59,55-66l-37-90-115-132-22.82-132-49.18-57,2-204-33-85-65-29-88-80-186-38-94,58-81-18,10-72-63-58-97-26,4-48,59-72,68-8-22-70-24-38-4-46h71.28l16.72-29v-22l38-38-22-95,178-127,37-7,59,25h102l225-93"/>
      <path class="cls-4" d="m-147.01,934.35L2.99,783.22l105-27,9-18,83.82,7.98,27.18,45.02,60,31,34-37,51,1,59-17,31,9,59-11-11-41-60-31,10-9,24,15,50,23,116-6,36.06-32,22.94-13,36-51,15-22,126-54,31-4,4,7-31,34,20,20,35,16,37-12,39,3,153-47,10.99-21-6.99-23,45-13,39-14,61-88-28-68,6-69-3-45,25-101.17-26-21.83-3-52,20-43V-12.78l36-51,27-51-42-52h-88.04l-83.96,56-24-2-43-18-16,21-8-19-60,19,8-44-26-34-22-14-51-6-24,22v16l-50,48-77,16-23-33,10-129,31-21,42,44h8l-12-21,16-29-1-36h31.17l22.83,54-22,26,26,23,97,5,44,28,45,49,44,4,40,2,12-29,64-43,57-16,28-33-45-58v-17l29,6,11,19,41-3,29,10,44-45v-20.26l-29-14.74-35-8-34,15-61-26-7-20,1-34-29-25h-53.03l-84.97,38-69,28-34,30-64,5-70-8-30,1-64-51-11-8-2-64,67-64,76-17,40,15,5,15-1,62,12,23,5,42,13,14,36,2,72-38,22-2,92-36,47,2,31,21,3,13,8,29,30,34,18,2,112-47,32-48,82-21,17-34-114-113c-15.85-17.06-60.56-60.55-133-75-19.27-3.85-93.62-17.5-166,26-32.68,19.64-53.4,43.98-65,60l-6-25-83-2-26-10-43-1-74-114"/>
      <polyline class="cls-4" points="3732.99 -321.78 3469.99 -349.78 3381.51 -321.78 2281.1 206.78"/>
      <polyline class="cls-4" points="2775.99 -438.78 3507.99 1406.22 3805.99 1617.22"/>
      <path class="cls-4" d="m-145.01-653.78c21,21.67,42,43.33,63,65l11,79,189.16,202.16,11.19,224.84,192.65,361,193.98,197h73.85"/>
      <path class="cls-4" d="m-152.01,1.22c13.47-1.02,32.83-1.75,56,0C-43.25,5.21-6.55,19.35,20.99,30.22c25.84,10.2,38.45,17.88,49,29,11.09,11.68,20.04,27.31,21,29,4.89,8.61,7.5,15.07,10,21,18.61,44.18,24.34,44.27,32,70,3.08,10.34,1.01,6.47,9,40,5.8,24.31,8.35,32.5,12,41,6.88,16.03,14.81,26.58,18,31,21.84,30.23,44.95,82.01,56,116,19.06,58.64,4.56,71.44,28,126,7.16,16.67,17.44,36.25,36,55,13.54,13.68,27.14,22.52,37,28"/>
      <path class="cls-4" d="m-149.01,803.22l108-78c52.5-18.76,108.54-36.98,168-54,54.7-15.65,78.01-17.01,131-34,13.73-4.4,42.72-14.01,84-25,6.11-1.63,25.64-6.81,44-11,56.71-12.93,103.42-16.46,131-19,83.76-7.71,66.66-14.45,184-29,101.55-12.59,120.02-8.24,162-22,8.72-2.86,29.35-10.07,58-12,25.34-1.71,31.91,2.4,65,5,60.39,4.74,102.42-3.92,112-6,25.53-5.54,38.29-8.31,53-18,20.74-13.66,36.93-35.33,52-80,14.24-42.22,15.35-68.97,22-132,9.23-87.43,11.12-73.24,22-176,4.6-43.49,6.64-68.62,13-116,4.54-33.82,8.93-61.53,12-80-33-.33-66-.67-99-1"/>
      <path class="cls-4" d="m2890.99-604.78c-5.02,10.71-11.52,27.15-15,48-7.02,42.03,2.53,76.33,12,109,4.87,16.79,12.79,39.8,26,66,8.48,12.71,22.5,30.92,44,48,18.21,14.46,25.76,15.38,47,31,5.28,3.88,31.8,23.67,54,52,20.85,26.61,29.95,50.61,39,74,48.31,124.79,3.29-6.14,73,181,11.21,30.09,25.51,68.75,42,114,16.33,25,32.67,50,49,75,34.33,30.33,68.67,60.67,103,91,22,35.33,44,70.67,66,106"/>
      <path class="cls-4" d="m2263.99,1653.22c2.27-53.42,12.03-96.67,21-127,12.19-41.2,24.02-79.58,58-115,10.97-11.43,21.43-19.62,29-25,4.45-19.68,10.29-41.18,18-64,8.16-24.13,17.09-45.84,26-65,.33-40,.67-80,1-120,10.33-20,20.67-40,31-60,33.99-8.97,67.98-17.94,101.97-26.92,1-.67,2.01-1.36,3.03-2.08,2.12-1.5,4.13-3.01,6.03-4.5,10.99-11.83,21.98-23.66,32.97-35.5,17-65.33,34-130.67,51-196,5.31-18.92,12.4-55.85-2-96-16.8-46.84-54.31-74.25-61-79-22.85-16.22-36.6-16.87-54-37-14.85-17.18-20.71-35.09-25-50-19.5-67.83-30.05-155.94-33-182-11-52.33-22-104.67-33-157-15.33-27-30.67-54-46-81l-105-75c-68.67-19-137.33-38-206-57"/>
      <path class="cls-4" d="m3712.99,1017.22c-72.34,51.55-126.26,85.3-163,107-43.83,25.88-51.28,27.57-81,48-38.45,26.43-48.57,39.13-76,46-9.25,2.31-48.28,12.08-79-8-21.58-14.11-19.68-30.27-41-55-19.23-22.3-41.04-32.66-73-46-97.96-40.89-235.71-86.61-249-91-66-.67-132-1.33-198-2-52.67-6.67-105.33-13.33-158-20"/>
      <path class="cls-4" d="m2594.81,649.25l36.19-21.97h47.44l77.57,26.96,277.25-27.08-6.7-82c46.81.02,93.62.04,140.43.05"/>
      <path class="cls-4" d="m2877.99,642.22c8.29,38.71,13.61,70.03,17,92,.18,1.2,4.49,31.54,13,71,5.22,24.2,7.9,36.39,11,41,11.63,17.26,28.15,19.8,81,39,24.7,8.97,37.04,13.45,47,18,48.3,22.06,49.43,38.65,97,65,17.03,9.43,39.69,17.96,85,35,27.72,10.43,51.15,18.44,68,24h60.63"/>
      <path class="cls-4" d="m2490.99,1591.22c12.87-48.53,13.12-86.96,11-113-2.52-31-8.08-40.56-7-66,1.51-35.41,14.92-54.95,36-101,.02-.03-5.62,12.27,42-105,41.18-101.42,52.05-127.02,76-161,11.98-17,22.93-29.99,30-38"/>
      <path class="cls-4" d="m691.99,1626.22c33.76-35.12,86.58-84.99,159-134,117.07-79.23,225.41-115.65,330-150,155.24-50.99,168.68-34.97,281-81,29.56-12.11,45.84-20.28,246-138,128.91-75.82,266.98-137.77,387-227,14.53-10.8,54.3-40.88,114-65,66.8-26.98,120.62-31.18,133-32,67.97-4.53,69.29,13.73,138,14,77.18.31,138.59-22.48,202-46,41.46-15.38,74.55-31.32,97-43,76.09-8.34,138.5-13.16,181-16,172.25-11.53,266.12-7.26,396-38,37.45-8.86,61.63-14.58,95-27,81.11-30.17,102.01-57.29,156-66,26.67-4.3,66.98-5.02,120,16"/>
      <path class="cls-4" d="m1425.19,338.94l43.1,15.78,84.7,8.5,25-29,239-137,21-72,46-37,141-12,43-62c3.22-5.41,6.44-10.83,9.66-16.24,11.45-19.25,22.89-38.5,34.34-57.76,25.89-20.09,48.27-34.51,64-44,37.13-22.4,50.04-25.09,66-44,16.98-20.11,23.4-41.97,29-61,9.55-32.49,3.57-38.28,11-65,12.32-44.3,40.97-72.33,49-80,22.59-21.58,47.67-33.49,84-45,21.94-6.95,60.63-17.76,206-30,56.02-4.72,110.45-8.18,171-10,18.11-.54,33.26-.83,44-1,16.69-6.49,34.07-13.79,52-22,15.09-6.91,29.43-13.95,43-21-5.78-11.02-14.15-30.43-16-56-2.19-30.36,5.93-54.03,11-66"/>
      <polyline class="cls-4" points="1510.99 272.22 1503.99 151.8 1686.99 -244.78 1728.83 -244.78 1787.99 -299.51 1787.99 -392.32 1857.99 -415.78 1857.99 -470.58 1797.99 -544.78 1827.49 -629.1"/>
      <path class="cls-4" d="m66.99,1614.22l831-487,324-203,37-60,103-73-49-92-81.96,46.98h-63.15l-71.9,76.02-127,106-38,62-73,43-118,13-79,24c-18.4-11.72-52.81-30.16-99.5-35.24-27.88-3.03-69.74-7.59-106.5,15.24-36.65,22.75-27.32,47.33-70,82-19.26,15.65-40.84,24.1-84,41-80.36,31.47-84.14,19.82-117,40-43.84,26.92-69.84,67.76-91,101-25.56,40.14-25.03,54.3-51,80-9.8,9.7-34.79,33.91-74,47-40.24,13.43-59.02,2.99-100,20-20.28,8.42-35.34,19.14-45,27"/>
      <polyline class="cls-4" points="1439.66 -708.53 1297.99 -503.78 1185.7 -411.45 1127.14 -178.44 1204.99 -21.78 1552.99 103.22 1661.99 59.22 1857.99 354.72 2204.69 160.93"/>
      <path class="cls-4" d="m982.99,607.22c-2.92-4.06-7.37-10.58-12-19-27.29-49.64-24.75-99.69-24-117,2.56-59.4-4.96-170.27-20-392-4.04-59.54-7.28-83.89-26-108-48.5-62.47-150.26-58.13-193-54-186.33,12-372.67,24-559,36"/>
      <polyline class="cls-4" points="589.83 571.69 589.83 261.17 797.86 354.72 874.57 527.55"/>
      <line class="cls-4" x1="1254.54" y1="40.15" x2="925.44" y2="58.01"/>
      <polyline class="cls-4" points="874.57 -53.57 906.14 475.22 946.99 471.22"/>
      <polyline class="cls-4" points="367.54 -653.78 593.99 -356.78 589.83 261.17"/>
      <polyline class="cls-4" points="-132.01 151.75 -17.01 146.22 45.99 174.22 141.99 219.22 732.2 227.34"/>
      <polyline class="cls-4" points="717.99 318.81 744.49 272.22 724.99 197.22 797.84 -53.57 812.72 -78.78"/>
      <polyline class="cls-3" points="310.33 12.9 589.83 7.61 591.7 -17.17 312.76 -14.1 314.77 -36.56 591.86 -41.36"/>
      <polyline class="cls-3" points="298.61 143.34 350.99 150.07 350.99 184.22 295.32 179.93 279.99 166.22 283.66 141.37 291.6 87.59 291.6 -55.96"/>
      <polyline class="cls-3" points="376.99 149.22 350.99 150.07 455.72 146.22 589.83 150.07 649.45 150.07 649.45 224.04"/>
      <polyline class="cls-3" points="487.16 -68.56 492.41 86.45 492.41 112.81"/>
      <polyline class="cls-3" points="546.29 -72.37 543.99 86.45 538.83 224.68 542.06 322.22"/>
      <polyline class="cls-3" points="448.27 146.22 451.1 111.6 523.48 112.56 542.56 112.81"/>
      <polyline class="cls-3" points="523.48 112.56 514.99 223.22 514.99 261.17 519.24 301.44 378.34 294.22 373.18 281.1 373.18 221.28 380.66 91.72 383.49 -14.23 383.49 -64.32 375.46 -191.6"/>
      <line class="cls-3" x1="500.9" y1="112.81" x2="492.41" y2="224.04"/>
      <line class="cls-3" x1="477.07" y1="111.94" x2="473.3" y2="146.22"/>
      <polyline class="cls-3" points="458.88 146.22 455.49 184.22 452.99 212.22 493.31 212.22"/>
      <line class="cls-3" x1="455.74" y1="181.39" x2="495.41" y2="181.39"/>
      <line class="cls-3" x1="494.29" y1="199.38" x2="589.83" y2="197.53"/>
      <line class="cls-3" x1="542.06" y1="128.91" x2="589.83" y2="128.91"/>
      <polyline class="cls-3" points="256.99 -742.78 290.49 -318.94 331.32 -57.58 316.66 117.1 450.22 122.27"/>
      <polyline class="cls-3" points="208.3 -316.94 216.5 -182.29 231.59 -50.28 242.99 98.22 589.83 81.85"/>
      <polyline class="cls-3" points="591.86 -127.28 323.02 -110.7 225.39 -104.49 231.59 -50.28 245.77 -53.01 240.64 -89.28 306.99 -92.78 316.66 -57.58 291.6 221.28"/>
      <polyline class="cls-3" points="431.35 -196.3 435.63 -65.24 435.63 10.53 431.07 148.14 427.06 221.28"/>
      <polyline class="cls-3" points="717.99 318.81 717.99 351.08 765.35 434.34 783.68 544.54"/>
      <polyline class="cls-3" points="774.97 492.17 710.99 495.22 716.48 551.35"/>
      <polyline class="cls-3" points="761.98 546.53 759.99 536.22 733.99 518.22 677.47 518.22 658.99 535.22 653.97 559.65"/>
      <polyline class="cls-3" points="209.68 650.83 195.96 491.62 192.99 457.22 213.99 453.22 233.13 644.71"/>
      <path class="cls-3" d="m54.23,693.14l-13.24-152.92,40-25,114.96-23.6,2.72,31.56-85.68,15.04-32,22.01-13,23.99,4.34,66.61c-6.11,11.46-12.23,22.93-18.34,34.39"/>
      <polyline class="cls-3" points="199.56 653.24 201.99 679.22 358.99 638.22"/>
      <polyline class="cls-3" points="358.99 607.78 358.99 668.33 117.88 693.14 82.99 697.22 -43.01 758.22 -161.01 869.22"/>
      <line class="cls-3" x1="269.32" y1="633.57" x2="269.32" y2="661.64"/>
      <line class="cls-3" x1="317.54" y1="618.95" x2="317.54" y2="647.6"/>
      <polyline class="cls-3" points="363.4 607.78 355.99 587.22 306.99 576.22 291.99 526.22 290.22 503.96 282.99 413.22 246.73 308.19 304.13 244.76"/>
      <polyline class="cls-3" points="531.9 580.75 465.99 498.22 345.99 525.22 317.54 510.25 290.92 512.74"/>
      <line class="cls-3" x1="399.87" y1="513.1" x2="404.99" y2="595.22"/>
      <line class="cls-3" x1="424.71" y1="507.51" x2="427.36" y2="593.01"/>
      <line class="cls-3" x1="452.67" y1="501.22" x2="459.55" y2="588.19"/>
      <polyline class="cls-3" points="487.05 585.02 484.99 557.22 455.83 541.1"/>
      <polyline class="cls-3" points="780.64 5.64 687.99 9.22 687.99 36.73 589.83 37.25 222.41 47.83 203.34 24.55 203.34 -50.28"/>
      <line class="cls-3" x1="645.99" y1="-78.79" x2="645.99" y2="36.95"/>
      <line class="cls-3" x1="629.59" y1="36.95" x2="623.43" y2="224.04"/>
      <polyline class="cls-3" points="645.99 16.47 618.93 16.47 591.86 16.47"/>
      <line class="cls-3" x1="618.93" y1="37.1" x2="618.93" y2="16.47"/>
      <polyline class="cls-3" points="771.82 343.01 786.73 308.19 799.99 303.22 941.46 299.14 1025.99 294.22 1037.99 314.22 1220.38 332.98"/>
      <polyline class="cls-3" points="888.82 185.13 1032.33 185.13 1032.33 235.62 940.69 235.62"/>
      <polyline class="cls-3" points="1032.33 52.21 1038.99 174.22 1081.99 171.22 1149.99 178.22 1238.02 187.62"/>
      <polyline class="cls-3" points="1086.86 49.25 1081.99 171.22 1063.14 316.81 1050.99 429.22 903.91 437.86 878.23 437.86 771.82 473.25"/>
      <polyline class="cls-3" points="1109.6 47.83 1114.99 92.22 1105.56 173.65 1127.14 175.87 1137.99 91.22 1132.67 46.76"/>
      <polyline class="cls-3" points="1035.24 105.55 1063.99 99.22 1137.99 91.22"/>
      <line class="cls-3" x1="1083.78" y1="126.35" x2="1243.47" y2="144.25"/>
      <polyline class="cls-3" points="1176.58 44.38 1163.62 105.55 1211.57 105.55 1223.7 44.38"/>
      <line class="cls-3" x1="963.58" y1="297.86" x2="976.79" y2="521.76"/>
      <line class="cls-3" x1="986.28" y1="296.53" x2="996.1" y2="431.68"/>
      <polyline class="cls-3" points="1017.7 294.7 1022.99 406.22 1053.09 409.81 1112.17 409.81"/>
      <line class="cls-3" x1="945.44" y1="409.81" x2="1022.99" y2="406.22"/>
      <line class="cls-3" x1="944.99" y1="384.22" x2="1056.26" y2="380.45"/>
      <line class="cls-3" x1="945.44" y1="359.22" x2="1059.31" y2="352.26"/>
      <polyline class="cls-3" points="1201.62 424.22 1112.17 409.81 1002.37 505.82 976.79 505.82"/>
      <line class="cls-3" x1="448.27" y1="224.04" x2="448.27" y2="356.46"/>
      <polyline class="cls-3" points="399.03 356.46 616.99 363.22 616.99 324.76 616.99 273.39"/>
      <polyline class="cls-3" points="519.24 301.44 513.99 322.22 616.99 324.76"/>
      <line class="cls-3" x1="511.5" y1="359.22" x2="513.99" y2="322.22"/>
      <line class="cls-3" x1="561.49" y1="224.99" x2="565.49" y2="361.62"/>
      <line class="cls-3" x1="448.27" y1="324.76" x2="513.54" y2="328.96"/>
      <line class="cls-3" x1="373.18" y1="273.39" x2="516.02" y2="270.96"/>
      <polyline class="cls-3" points="523.48 360.32 526.99 386.22 552.26 426.27 523.48 488.46 561.49 574.78"/>
      <line class="cls-3" x1="540.67" y1="527.49" x2="589.83" y2="527.49"/>
      <line class="cls-3" x1="542.49" y1="444.55" x2="589.83" y2="444.55"/>
      <polyline class="cls-3" points="589.83 388.45 487.05 384.79 487.05 473.25 508.01 498.22 587.02 498.22"/>
      <polyline class="cls-3" points="1312.99 699.22 1862.4 352.26 2088.99 730.22 2218.99 777.22 2275.99 748.72 2297.99 767.22 2297.99 834.37 1903.99 1041.22 1916.99 1083.22 1941.03 1100.5 1966.99 1325.22 2025.86 1444.72 1980.48 1591.22"/>
      <polyline class="cls-3" points="1352.91 774.17 1910.01 431.68 2161.95 285.93"/>
      <polyline class="cls-3" points="1361.99 791.22 1925.68 457.82 2178.09 307.24"/>
      <polyline class="cls-3" points="1266.1 859.18 1285.94 910.38 1425.19 1269.79 1561.7 1582.22"/>
      <line class="cls-3" x1="1688.99" y1="682.22" x2="1285.94" y2="910.38"/>
      <polyline class="cls-3" points="1309.71 971.74 1711.99 734.22 1704.27 708.2"/>
      <polyline class="cls-3" points="1319.74 997.61 1722.99 758.22 1754.99 812.22"/>
      <polyline class="cls-3" points="1673.2 655.07 1704.27 708.2 1295.22 934.35"/>
      <line class="cls-3" x1="1711.99" y1="734.22" x2="1722.99" y2="758.22"/>
      <polyline class="cls-3" points="1395.37 820.8 1594.81 1156.72 1602.38 1185.12"/>
      <path class="cls-3" d="m1967.8,734.22l-81.18-35,81.18,35Z"/>
      <polyline class="cls-3" points="1921.85 1005.32 1910.01 971.74 1985.99 791.22 1985.99 762.22 1967.8 734.22"/>
      <line class="cls-3" x1="1350.39" y1="1076.74" x2="1770.06" y2="835.62"/>
      <line class="cls-3" x1="1785.24" y1="859.18" x2="1361.99" y2="1102.22"/>
      <line class="cls-3" x1="1802.36" y1="885.77" x2="1371.74" y2="1131.82"/>
      <line class="cls-3" x1="1383.33" y1="1161.75" x2="1818.21" y2="910.38"/>
      <line class="cls-3" x1="1392.39" y1="1185.12" x2="1830.19" y2="928.97"/>
      <line class="cls-3" x1="1403.36" y1="1213.44" x2="1842.99" y2="948.85"/>
      <line class="cls-3" x1="1451.22" y1="787.48" x2="1663.79" y2="1149.19"/>
      <polyline class="cls-3" points="1474.82 699.22 1658.04 1002.96 1707.99 1123.22 1765.98 1268.74"/>
      <polyline class="cls-3" points="1528.75 666.06 1762.99 1048.22 1777.87 1083.64"/>
      <line class="cls-3" x1="1592.18" y1="655.07" x2="1776.01" y2="960.67"/>
      <polyline class="cls-3" points="1815.61 937.5 1835.49 968.34 1850.61 960.67 1890.5 1022.6 1754.99 812.22 1345.65 1054.36"/>
      <polyline class="cls-3" points="1835.49 968.34 1798.99 993.22 1836.76 1054.36 1890.5 1140.33"/>
      <polyline class="cls-3" points="1312.99 869.94 1519.15 1232.86 1600.77 1366.77"/>
      <line class="cls-3" x1="1352.91" y1="846.13" x2="1528.75" y2="1137.97"/>
      <line class="cls-3" x1="1580.03" y1="1131.82" x2="1410.88" y2="1232.86"/>
      <polyline class="cls-3" points="366.99 1564.22 422.99 1534.22 657.99 1458.22 766.99 1396.22 876.99 1239.22 1107.16 1149.19 1330.4 1025.15 1739.99 784.22 1886.62 699.22 1800.99 636.22 1760.62 602.92"/>
      <line class="cls-3" x1="1053.95" y1="1029.5" x2="1293.99" y2="1582.22"/>
      <path class="cls-3" d="m1053.95,754.91c106.35,248.77,212.69,497.54,319.04,746.31"/>
      <line class="cls-3" x1="1203.99" y1="1602.22" x2="1946.28" y2="1161.75"/>
      <polyline class="cls-3" points="2283.99 214.22 2312.99 291.22 3035.07 214.22"/>
      <polyline class="cls-3" points="2584.99 1176.73 2523.99 1146.22 2475.99 1256.22 2539.5 1289.16 2926.78 1252.69 3013.84 1280.37 3077.05 1281.06 3098.99 1318.22 3058.99 1354.22 3017.99 1323.22 3017.99 1397.22"/>
      <polyline class="cls-3" points="2550.37 1262.1 2623.84 1262.1 2633.99 1233.22 2746.38 1222.63 2757.99 1231.22 2762.25 1242.37 2819.99 1237.22 2828.44 1222.63 2870.99 1211.22 2943.99 1203.22 2940.99 1170.22 3068.99 1154.22 3077.99 1133.22 3105.99 1141.22 3199.99 1138.75"/>
      <polyline class="cls-3" points="2594.99 1156.25 2635.99 1169.22 2649.5 1143.12 2684.99 1136.22 2722.99 1116.22 2756.99 1075.22 2789.05 1060.22 2919.99 1060.22 2989.99 1071.22 3118.99 1104.22 3199.99 1123.97"/>
      <path class="cls-3" d="m2664.32,1169.22h-28.33,28.33Z"/>
      <polyline class="cls-3" points="2670.41 1229.79 2670.41 1193.45 2664.32 1169.22"/>
      <polyline class="cls-3" points="2592.11 1262.1 2597.58 1229.79 2613.99 1214.22 2635.99 1199.5 2670.41 1193.45"/>
      <polyline class="cls-3" points="2722.99 1116.22 2735.44 1146.22 2706.99 1165.22 2699.99 1188.22 2700.5 1193.45 2703.75 1226.65"/>
      <polyline class="cls-3" points="2117.44 209.7 2195.99 344.22 1946.28 492.17 1221.99 924.22"/>
      <line class="cls-3" x1="1883.27" y1="387.08" x2="2133.91" y2="237.92"/>
      <line class="cls-3" x1="1896.62" y1="409.34" x2="2147.08" y2="260.46"/>
      <line class="cls-3" x1="1910.01" y1="325.64" x2="1990.21" y2="466.15"/>
      <line class="cls-3" x1="1950.11" y1="303.23" x2="2029.22" y2="443.03"/>
      <line class="cls-3" x1="1992.33" y1="279.63" x2="2219.49" y2="666.06"/>
      <line class="cls-3" x1="2251.99" y1="643.22" x2="2029.22" y2="259.01"/>
      <line class="cls-3" x1="2290.99" y1="622.22" x2="2092.96" y2="262.29"/>
      <polyline class="cls-3" points="2171.26 358.88 2312.99 611.22 2105.91 734.22"/>
      <line class="cls-3" x1="1983.46" y1="554.19" x2="2204.69" y2="422.93"/>
      <line class="cls-3" x1="2021.85" y1="618.23" x2="2244.1" y2="488.56"/>
      <line class="cls-3" x1="2055.38" y1="674.16" x2="2275.89" y2="545.17"/>
      <line class="cls-3" x1="1967.8" y1="479.42" x2="2072.83" y2="663.95"/>
      <line class="cls-3" x1="2015.57" y1="451.12" x2="2120.01" y2="636.35"/>
      <polyline class="cls-3" points="2312.99 291.22 2425.12 618.23 2525.99 600.22 2765.06 571.69 3035.07 530.05 3028.99 501.22 3112 488.56 3035.07 307.24 2952.52 312.5 2946.92 262.29 2930.99 104.19 2846.2 104.19 2780.89 -33.28"/>
      <line class="cls-3" x1="2387.38" y1="285.93" x2="2400.99" y2="428.22"/>
      <polyline class="cls-3" points="2361.09 431.48 2475.11 422.93 3058.82 363.22"/>
      <polyline class="cls-3" points="2351.1 402.37 2398.52 402.37 2464.99 399.22 2459.99 371.15 2395.89 374.94"/>
      <polyline class="cls-3" points="2393.96 354.72 2336.19 358.88 2327.97 334.9 2391.7 331.14 2389.42 307.24 2320.29 312.5"/>
      <line class="cls-3" x1="2308.71" y1="193.52" x2="2438.49" y2="277.84"/>
      <polyline class="cls-3" points="2298.49 252.72 2387.38 244.63 2383.02 214.22 2361.09 171.43"/>
      <polyline class="cls-3" points="2698.95 250.06 2698.95 89.36 2664.73 22.51 2637.22 -115.37 2643.99 -244.78 2618.33 -244.78 2615.12 -176.83 2613.51 -142.55 2613.51 -113.55"/>
      <polyline class="cls-3" points="2451.04 125.15 2493.3 196.76 2497.23 271.57"/>
      <path class="cls-3" d="m2577.99,99.22l-91.06,47.49,91.06-47.49Z"/>
      <polyline class="cls-3" points="2613.51 47.12 2641.57 94.29 2641.57 116.84"/>
      <path class="cls-3" d="m2594.22,56.38l24.11,39.55v20.91l80.61-1.67,59.18-4.78,26.86-2.17c1.67,3.67,3.33,7.33,5,11"/>
      <line class="cls-3" x1="2542.88" y1="81.98" x2="2557.26" y2="110.03"/>
      <polyline class="cls-3" points="2698.95 137.5 2592.99 144.22 2577.99 99.22"/>
      <line class="cls-3" x1="2618.33" y1="116.84" x2="2588.41" y2="130.49"/>
      <path class="cls-3" d="m2519.08,129.94c9.3,19.76,18.6,39.52,27.91,59.28"/>
      <line class="cls-3" x1="2537.28" y1="190.49" x2="2541.02" y2="266.9"/>
      <line class="cls-3" x1="2537.28" y1="216.32" x2="2494.56" y2="220.85"/>
      <line class="cls-3" x1="2539.7" y1="239.88" x2="2494.56" y2="245.23"/>
      <line class="cls-3" x1="2649.5" y1="174.51" x2="2656.05" y2="252.72"/>
      <polyline class="cls-3" points="2490.1 272.33 2502.99 344.22 2539.7 339.21 2568.99 335.22 2558.97 264.99"/>
      <path class="cls-3" d="m2533.99,303.22l5.71,35.99-5.71-35.99Z"/>
      <line class="cls-3" x1="2564.23" y1="301.86" x2="2533.99" y2="303.22"/>
      <line class="cls-3" x1="2505.99" y1="270.64" x2="2520.28" y2="341.86"/>
      <polyline class="cls-3" points="2631.1 257.3 2637.22 291.22 2642.99 323.22 2673.05 319.71 2698.95 316.69 2687.88 251.24"/>
      <polyline class="cls-3" points="2670.42 320.02 2666.99 289.22 2637.22 291.22"/>
      <polyline class="cls-3" points="2678.52 320.02 2689.13 401.03 2659.53 404.06 2647.78 322.66"/>
      <polyline class="cls-3" points="2807.1 238.53 2819.99 348.22 2953.99 348.22 2952.52 312.5"/>
      <line class="cls-3" x1="2681.38" y1="341.86" x2="2817.83" y2="329.86"/>
      <polyline class="cls-3" points="2685.03 369.75 2745.99 366.22 2756.99 478.22 2893.99 465.22 2884.59 381.04"/>
      <polyline class="cls-3" points="2775.99 392.15 2782.99 451.22 2845.99 440.22 2841.71 385.43"/>
      <line class="cls-3" x1="2825.16" y1="471.75" x2="2823.49" y2="444.15"/>
      <line class="cls-3" x1="2479.93" y1="453.53" x2="2751.49" y2="422.22"/>
      <line class="cls-3" x1="2484.34" y1="478.22" x2="2754.34" y2="451.22"/>
      <line class="cls-3" x1="2490.1" y1="506.56" x2="2756.99" y2="478.22"/>
      <line class="cls-3" x1="2494.56" y1="525.93" x2="3102.8" y2="466.89"/>
      <polyline class="cls-3" points="2539.15 416.38 2552.84 545.17 3028.99 501.22"/>
      <line class="cls-3" x1="2615.71" y1="408.54" x2="2623.54" y2="538.64"/>
      <line class="cls-3" x1="2681.38" y1="402.37" x2="2692.5" y2="532.28"/>
      <line class="cls-3" x1="2662.25" y1="535.07" x2="2665.02" y2="583.63"/>
      <polyline class="cls-3" points="2890.94 437.88 2939.99 435.22 2950.81 543.04"/>
      <polyline class="cls-3" points="2761.31 525.93 2761.31 543.04 2775.99 568.73 2798.68 608.44 2798.68 650.08"/>
      <polyline class="cls-3" points="3070.27 390.22 2971.79 397.35 2976.99 427.22 3083.85 422.22"/>
      <polyline class="cls-3" points="2744.99 1089.7 2786.99 1154.22 2819.99 1237.22"/>
      <polyline class="cls-3" points="2699.99 1188.22 2738.58 1188.22 2785.43 1217.69 2792.74 1237.22"/>
      <polyline class="cls-3" points="2926.78 1061.29 2926.78 1109.43 2926.78 1137.3 2870.99 1140.22"/>
      <polyline class="cls-3" points="2883.51 1209.85 2875.18 1180.48 2870.99 1116.22 2926.78 1109.43"/>
      <polyline class="cls-3" points="3214.81 1171.43 3028.41 1188.22 3013.84 1244.17 3007.49 1268.53 3257.17 1251.26"/>
      <line class="cls-3" x1="3241.98" y1="1222.63" x2="3013.84" y2="1244.17"/>
      <line class="cls-3" x1="3055.64" y1="1185.77" x2="3038.58" y2="1241.83"/>
      <polyline class="cls-3" points="3169.08 980.07 3136.99 1036.22 3091.99 1013.22 3068.54 1058.88"/>
      <polyline class="cls-3" points="3009.59 888.71 2989.99 932.22 2945.99 972.22 2936.18 1016.22"/>
      <line class="cls-3" x1="2668.74" y1="1005.56" x2="2661.99" y2="915.22"/>
      <polyline class="cls-3" points="2614.73 920.81 2953.99 885.22 2993.72 923.94"/>
      <polyline class="cls-3" points="2970.81 52.25 3026.99 27.22 3063.99 -8.78 3152.28 -47.85"/>
      <line class="cls-3" x1="3068.27" y1="-171.32" x2="3353.99" y2="569.22"/>
      <polyline class="cls-3" points="3047.32 -161.26 3181.99 189.22 3203.96 180.36"/>
      <polyline class="cls-3" points="3211.13 198.95 3240.42 189.22 3225.78 153.36 3147.99 180.22 3114.99 185.22 3047.32 7.44"/>
      <polyline class="cls-3" points="3102.89 153.44 3047.32 179.01 3025.15 189.22 2866.7 206.78"/>
      <path class="cls-3" d="m3060.24,206.78l-12.91-27.77,12.91,27.77Z"/>
      <polyline class="cls-3" points="3117.09 190.72 3098.99 187.22 3060.24 206.78"/>
      <polyline class="cls-3" points="2923.9 -65.98 2895.35 -51.34 2952.9 84.5 2952.9 103.19"/>
      <path class="cls-3" d="m2731.71-9.66l33.28,68.88h42.11c6.96,18.67,13.93,37.33,20.89,56"/>
      <path class="cls-3" d="m2775.99,155.78l-17.86-45.39,17.86,45.39Z"/>
      <line class="cls-3" x1="2935.02" y1="144.22" x2="2775.99" y2="155.78"/>
      <polyline class="cls-3" points="2762.59 121.72 2930.99 104.19 2991.02 103.19"/>
      <polyline class="cls-3" points="2803.65 116.84 2786.99 80.22 2813.6 77.46"/>
      <line class="cls-3" x1="2685.79" y1="63.66" x2="2753.84" y2="36.14"/>
      <polyline class="cls-3" points="2744.29 16.38 2767.06 5.51 2794.13 59.22"/>
      <polyline class="cls-3" points="2868.72 231.96 2866.7 206.78 2864.46 179.01 3013.05 158.72"/>
      <polyline class="cls-3" points="2946.92 262.29 2965.59 262.29 2961.51 222.06"/>
      <line class="cls-3" x1="1372.99" y1="661.33" x2="1425.19" y2="753.84"/>
      <line class="cls-3" x1="1487.46" y1="589.04" x2="1537.36" y2="680.11"/>
      <line class="cls-3" x1="1425.19" y1="622.22" x2="1480.23" y2="708.2"/>
      <line class="cls-3" x1="1561.7" y1="545.17" x2="1717.49" y2="622.22"/>
      <polyline class="cls-3" points="1777.87 405.64 1822.9 479.42 1827.49 563.03"/>
      <line class="cls-3" x1="1798.99" y1="748.72" x2="1919.65" y2="948.85"/>
      <line class="cls-3" x1="1850.34" y1="720.25" x2="1910.01" y2="825.72"/>
      <polyline class="cls-3" points="1802.36 885.77 1948 807.87 1985.99 791.22"/>
      <polyline class="cls-3" points="1611.29 1182.34 1688.18 1314.9 1805.49 1582.22 1674.69 1591.22 1600.77 1366.77"/>
      <line class="cls-3" x1="1230.63" y1="1081.14" x2="1403.36" y2="1482.28"/>
      <line class="cls-3" x1="1266.1" y1="1060.88" x2="1436.87" y2="1464.03"/>
      <polyline class="cls-3" points="1456.88 1448.75 1285.81 1049.93 1254.81 980.7"/>
      <polyline class="cls-3" points="764.94 1564.22 572.19 1118.35 358.99 1206.59 439.25 1396.06 491.95 1511.92"/>
      <polyline class="cls-3" points="159.99 1290.22 294.99 1232.22 380.12 1430.71"/>
      <line class="cls-3" x1="213.62" y1="1267.18" x2="294.47" y2="1480.91"/>
      <line class="cls-3" x1="241.54" y1="1255.19" x2="323.08" y2="1460.62"/>
      <line class="cls-3" x1="270.06" y1="1242.93" x2="351.49" y2="1447.49"/>
      <polyline class="cls-3" points="748.23 1525.58 803.99 1498.22 786.99 1457.22 1220.97 1259.58"/>
      <line class="cls-3" x1="869.38" y1="1250.08" x2="946.45" y2="1435.33"/>
      <line class="cls-3" x1="899.6" y1="1230.37" x2="963.85" y2="1376.68"/>
      <line class="cls-3" x1="969.62" y1="1202.99" x2="1030.12" y2="1346.5"/>
      <polyline class="cls-3" points="1064.45 1330.86 1034.03 1259.58 898.13 1319.17"/>
      <polyline class="cls-3" points="585.35 1148.81 704.35 1100.5 780.99 1121.22 863.99 1175.22 921.99 1181.22 934.42 1216.76 1014.77 1402.92 1105.25 1614.22"/>
      <polyline class="cls-3" points="534.69 1032.69 556.96 1083.57 572.19 1118.35"/>
      <path class="cls-3" d="m585.35,1075.52l-28.39,8.05,28.39-8.05Z"/>
      <polyline class="cls-3" points="638.1 1127.4 691.99 1247.94 728.99 1340.22"/>
      <polyline class="cls-3" points="716.77 1233.42 708.44 1214.36 665.04 1115.02 717.99 1065.37 971.53 1081.14"/>
      <polyline class="cls-3" points="708.44 1214.36 728.99 1202.22 687.55 1107.32"/>
      <line class="cls-3" x1="609.86" y1="1205.49" x2="711.6" y2="1162.39"/>
      <line class="cls-3" x1="585.35" y1="1075.52" x2="636.12" y2="1194.36"/>
      <line class="cls-3" x1="665.04" y1="1263.74" x2="702.07" y2="1351.7"/>
      <polyline class="cls-3" points="711.6 1236.46 778.83 1379.33 809.17 1447.12"/>
      <polyline class="cls-3" points="731.79 1224.62 797.9 1352.11 835.06 1435.33"/>
      <polyline class="cls-3" points="756.28 1210.27 813.51 1329.82 855.48 1426.03"/>
      <polyline class="cls-3" points="787.14 1274.74 841.29 1220.59 868.46 1247.75 841.29 1220.59 802.93 1182.22"/>
      <line class="cls-3" x1="1069.53" y1="1065.37" x2="1168.72" y2="1023.38"/>
      <line class="cls-3" x1="1081.75" y1="1093.5" x2="1181.24" y2="1052.66"/>
      <polyline class="cls-3" points="1131.49 1039.14 1162.65 1118.35 1247.91 1321.71 1298.79 1436.33 1337.3 1523.11"/>
      <polyline class="cls-3" points="1255.49 1066.77 1226.57 997.61 1303.68 956.18"/>
      <polyline class="cls-3" points="1765.98 1268.74 1809.32 1387.22 1965.8 1314.9"/>
      <polyline class="cls-3" points="1505.2 1452.91 1774.52 1292.1 1951.55 1191.57"/>
      <polyline class="cls-3" points="1526.25 1501.1 1795.98 1350.75 1959.87 1263.58"/>
      <polyline class="cls-3" points="1785.24 1079.6 1859.17 1213.44 1870.34 1237.69 1922.44 1334.94"/>
      <line class="cls-3" x1="1941.89" y1="1107.97" x2="1836.4" y2="1172.23"/>
      <line class="cls-3" x1="1720.17" y1="1153.79" x2="1906.46" y2="1049.19"/>
      <line class="cls-3" x1="1848.64" y1="1194.39" x2="1945.27" y2="1137.2"/>
      <polyline class="cls-3" points="1842.99 1184.16 1818.21 1198.33 1776.01 1122.43"/>
      <polyline class="cls-3" points="2051.31 1060.22 2119.99 1029.22 2148.99 1023.22 2195.99 992.01 2160.56 906.52"/>
      <line class="cls-3" x1="2029.19" y1="1005.32" x2="2169.33" y2="927.67"/>
      <line class="cls-3" x1="2039.23" y1="1030.24" x2="2179.38" y2="951.92"/>
      <line class="cls-3" x1="2089.79" y1="971.74" x2="2113.06" y2="1032.35"/>
      <line class="cls-3" x1="2113.06" y1="958.85" x2="2138.86" y2="1025.32"/>
      <line class="cls-3" x1="2135.2" y1="946.58" x2="2162.47" y2="1014.27"/>
      <line class="cls-3" x1="2156.45" y1="934.81" x2="2184.18" y2="999.86"/>
      <polyline class="cls-3" points="1505.35 175.14 1656.99 98.22 1665.91 119.92"/>
      <line class="cls-3" x1="1692.75" y1="105.59" x2="1552.99" y2="184.22"/>
      <polyline class="cls-3" points="1538.76 158.19 1567.21 209.7 1676.59 148.28 1708.99 130.08"/>
      <polyline class="cls-3" points="1732.99 241.22 1705.88 196.54 1676.59 148.28"/>
      <polyline class="cls-3" points="1571.48 341.77 1543.99 299.22 1705.88 196.54"/>
      <polyline class="cls-3" points="1577.4 334.9 1629.99 420.22 1777.87 329.51 1814.5 382.5 1896.62 521.8"/>
      <polyline class="cls-3" points="1609.56 387.08 1770.04 298.81 1805.49 275.57"/>
      <line class="cls-3" x1="1787.99" y1="249.18" x2="1596.67" y2="366.16"/>
      <polyline class="cls-3" points="1653.31 479.42 1688.99 537.95 1883.27 634.57 2191.98 835.62 2258.99 946.58"/>
      <polyline class="cls-3" points="1671.64 -211.52 2102.83 -44.37 2146.99 11.22 2363.74 -18.5 2367.26 2.2 2388.99 130.22"/>
      <polyline class="cls-3" points="1985.6 -89.82 2018.99 -195.78 2059.99 -185.78 2062.99 -162.78 2081.99 -151.78 2162.99 -148.78 2188 -158.4 2243.97 -150.2 2400.03 -58.5 2442.95 -33.28 2525.1 87.8"/>
      <polyline class="cls-3" points="2127.16 -150.11 2142.03 -81.81 2204.69 3.31"/>
      <line class="cls-3" x1="2142.26" y1="5.27" x2="2281.29" y2="-128.27"/>
      <polyline class="cls-3" points="2272.82 185.45 2355.08 146.71 2278.27 73.04 2190.19 99.22"/>
      <polyline class="cls-3" points="2737.48 -12.43 2707.93 -65.98 2707.93 -120.78 2438.49 -100.15 2468.34 -40.65 2577.99 -50.96 2582.28 -6.78 2638.47 35.13 2667.69 91.91 2669.89 116.84"/>
      <polyline class="cls-3" points="2677.37 -111.26 2679.65 -50.96 2709.58 .97"/>
      <polyline class="cls-3" points="2511.55 -18.45 2565.03 73.04 2577.99 99.22 2698.95 89.36 2769.95 81.98 2784.99 108.22"/>
      <line class="cls-3" x1="2308.93" y1="73.04" x2="2500.97" y2="52.24"/>
      <line class="cls-3" x1="2374.16" y1="42.83" x2="2486.93" y2="31.54"/>
      <line class="cls-3" x1="2369.82" y1="17.28" x2="2471.4" y2="8.65"/>
      <polyline class="cls-3" points="2357.22 -18.45 2353.29 -40.65 2422.4 -45.36 2432.99 61.22 2468.34 116.84 2486.93 146.71 2516.06 193.52"/>
      <polyline class="cls-3" points="2388.99 64.37 2431.12 134.72 2468.99 200.22 2698.95 167.47"/>
      <polyline class="cls-3" points="2459.99 56.68 2495.89 103.61 2511.55 134.72"/>
      <polyline class="cls-3" points="2170.31 1355.58 2061.5 1573.22 2012.99 1573.22 2065.79 1437.22 1985.99 1176.05 2008.68 1165.8 2080.72 1133.22"/>
      <polyline class="cls-3" points="2118.33 1213.44 2138.86 1203.93 2244.01 1469.65 2209.49 1452.81 2019.27 980.7"/>
      <polyline class="cls-3" points="2160.28 1258.06 2221.69 1225.18 2252.72 1263.58 2269.14 1311.73 2197.94 1353.22"/>
      <line class="cls-3" x1="2179.23" y1="1305.95" x2="2252.72" y2="1263.58"/>
      <line class="cls-3" x1="2170.31" y1="1280.57" x2="2236.46" y2="1243.45"/>
      <path class="cls-3" d="m2057.46,1143.74l36.53,91.48,18,45-52.7,31.51-9.3-19.51,7.47-11.65-48.78-114.78"/>
      <polyline class="cls-3" points="2117.77 1225.18 2069.99 1251.22 2033.07 1154.77"/>
      <line class="cls-3" x1="2126.2" y1="1246.09" x2="2057.46" y2="1280.57"/>
      <line class="cls-3" x1="1998.98" y1="1218.56" x2="2099.26" y2="1179.23"/>
      <line class="cls-3" x1="2017.93" y1="1280.57" x2="2069.99" y2="1251.22"/>
    </g>
  </g>
  <g class="cls-6">
    <g>
      <rect class="cls-5" x="1992.31" y="-880.24" width="4379" height="2642"/>
      <path class="cls-4" d="m2330.31,1417.76c6.97-2.54,17.49-7.22,28-16,7.51-6.27,12.1-12.19,28-35,12.35-17.72,18.85-20.83,22-32,2.62-9.29.02-10.17,2-21,.62-3.41,6.21-32.04,26-42,6.65-3.35,9.61-1.92,36-1,8.18.29,29.28.99,49,0,27.29-1.36,40.93-2.05,52-10,3.15-2.26,8.89-6.98,23-34,9.65-18.48,16.46-34.46,21-46,4.33,2.33,8.67,4.67,13,7,2.99-.34,5.99-.67,9-1,10.09-1.1,20.09-2.09,30-3-7.97-9.66-6.73-14.35-6-16,1.42-3.17,8.3-4.83,22-8,18.54-4.3,19.63-4.49,22-6,9.8-6.24,14.67-17.83,16-21,3.14-7.48,3.43-13.13,9-17,3.34-2.32,5.9-2.14,8-3,5.66-2.31,10.45-13.13,7-50,2.92-1.52,10.87-6.16,16-16,5.06-9.69,4.4-18.72,4-22,7.2-.24,18.8-.32,33,1,34.09,3.17,40.72,10.47,60,7,12.4-2.23,10.42-5.39,39-15,16.32-5.49,16.98-4.46,31-9,26.19-8.48,46.08-14.92,61-32,4.91-5.63,11.68-15.14,16-30,6.67-1.33,13.33-2.67,20-4,6.2,7.1,16.24,18.86,28,34,23.59,30.37,27.26,39.8,43,49,4.36,2.55,28.84,16.87,48,7,3.16-1.63,5.48-3.56,7-5-7.67-10-15.33-20-23-30,1.33-11.33,2.67-22.67,4-34,4.33-.67,8.67-1.33,13-2,6.33,6,12.67,12,19,18,9.61,1.38,25.13,3.61,25.41,3.73h0s.29.13.59.26c.23.1,10.81,10.91,25,26,2.41-1.07,6.21-2.62,11-4,16.29-4.7,29.81-3.33,34-3,19.66,1.56,39.57-3.41,62-9,21.16-5.28,46.54-11.6,70-32,14.43-12.54,23.1-26.03,28-35,4.04-.21,8.39-.24,13,0,12.58.67,23.39,3.19,32,6,5-4.33,10-8.67,15-13-9.55-3.09-21.72-6-36-7-7.68-.54-14.73-.44-21,0-1.26-14.57-2.88-35.92-4-62-1.22-28.58-.59-33.62,1-39,8.31-28.12,35.98-42.83,57-54,33.94-18.04,66.33-21.19,87-23,11.89-1.04,21.88-1.13,29-1,5.87-2.21,13.54-6.24,18-14,4.52-7.87,2.4-13.76,5-22,3.66-11.61,13.39-17.39,25-25,12.37-8.11,29.39-19.93,51-37,.67,3.33,1.33,6.67,2,10-11.33,12-22.67,24-34,36l9,6c19.33-25,38.67-50,58-75,10.46-.78,25.73-3.16,42-11,20.41-9.83,30.39-22.47,42-33,14.48-13.13,38.03-28.91,77-38,4-19.33,8-38.67,12-58,14.33-13.67,28.67-27.33,43-41,16.33-1.33,32.67-2.67,49-4-17.67-24.67-35.33-49.33-53-74-5.33.67-10.67,1.33-16,2-6.33-3.67-12.67-7.33-19-11-1.67-9.33-3.33-18.67-5-28l87-60c-11.67-52-23.33-104-35-156,8.33-16.33,16.67-32.67,25-49,1.33-34.67,2.67-69.33,4-104,13.67-14,27.33-28,41-42h8.91l80.09,87,44,6,28,32,30,24,54,13,95-29,75,13,69-11,81,21,122,109-14,116,48,168,39,49,49,166,86,68,19,54-15,59-23,15h-35l-81,24-75,66-36,81-2,36,47,116,53,73,11,74-28,78-53,67-25,39-35,132-56,84-33,69,2,35-34,29-37,3-34-13-121,55-5,41,22,12,4,28-74,69-230,84-115,120"/>
      <path class="cls-4" d="m2330.31,918.89l150-151.13,105-27,9-18,83.82,7.98,27.18,45.02,60,31,34-37,51,1,59-17,31,9,59-11-11-41-60-31,10-9,24,15,50,23,116-6,36.06-32,22.94-13,36-51,15-22,126-54,31-4,4,7-31,34,20,20,35,16,37-12,39,3,153-47,10.99-21-6.99-23,45-13,39-14,61-88-28-68,6-69-3-45,25-101.17-26-21.83-3-52,20-43v-17l36-51,27-51-42-52h-88.04l-83.96,56-24-2-43-18-16,21-8-19-60,19,8-44-26-34-22-14-51-6-24,22v16l-50,48-77,16-23-33,10-129,31-21,42,44h8l-12-21,16-29-1-36h31.17l22.83,54-22,26,26,23,97,5,44,28,45,49,44,4,40,2,12-29,64-43,57-16,28-33-45-58v-17l29,6,11,19,41-3,29,10,44-45v-20.26l-29-14.74-35-8-34,15-61-26-7-20,1-34-29-25h-53.03l-84.97,38-69,28-34,30-64,5-70-8-30,1-64-51-11-8-2-64,67-64,76-17,40,15,5,15-1,62,12,23,5,42,13,14,36,2,72-38,22-2,92-36,47,2,31,21,3,13,8,29,30,34,18,2,112-47,32-48,82-21,17-34-114-113c-15.85-17.06-60.56-60.55-133-75-19.27-3.85-93.62-17.5-166,26-32.68,19.64-53.4,43.98-65,60l-6-25-83-2-26-10-43-1-74-114"/>
      <path class="cls-4" d="m2332.31-669.24c21,21.67,42,43.33,63,65l11,79,189.16,202.16,11.19,224.84,192.65,361,193.98,197h73.85"/>
      <path class="cls-4" d="m2325.31-14.24c13.47-1.02,32.83-1.75,56,0,52.76,3.99,89.46,18.13,117,29,25.84,10.2,38.45,17.88,49,29,11.09,11.68,20.04,27.31,21,29,4.89,8.61,7.5,15.07,10,21,18.61,44.18,24.34,44.27,32,70,3.08,10.34,1.01,6.47,9,40,5.8,24.31,8.35,32.5,12,41,6.88,16.03,14.81,26.58,18,31,21.84,30.23,44.95,82.01,56,116,19.06,58.64,4.56,71.44,28,126,7.16,16.67,17.44,36.25,36,55,13.54,13.68,27.14,22.52,37,28"/>
      <path class="cls-4" d="m2328.31,787.76l108-78c52.5-18.76,108.54-36.98,168-54,54.7-15.65,78.01-17.01,131-34,13.73-4.4,42.72-14.01,84-25,6.11-1.63,25.64-6.81,44-11,56.71-12.93,103.42-16.46,131-19,83.76-7.71,66.66-14.45,184-29,101.55-12.59,120.02-8.24,162-22,8.72-2.86,29.35-10.07,58-12,25.34-1.71,31.91,2.4,65,5,60.39,4.74,102.42-3.92,112-6,25.53-5.54,38.29-8.31,53-18,20.74-13.66,36.93-35.33,52-80,14.24-42.22,15.35-68.97,22-132,9.23-87.43,11.12-73.24,22-176,4.6-43.49,6.64-68.62,13-116,4.54-33.82,8.93-61.53,12-80-33-.33-66-.67-99-1"/>
      <path class="cls-4" d="m2544.31,1598.76l831-487,324-203,37-60,103-73-49-92-81.96,46.98h-63.15l-71.9,76.02-127,106-38,62-73,43-118,13-79,24c-18.4-11.72-52.81-30.16-99.5-35.24-27.88-3.03-69.74-7.59-106.5,15.24-36.65,22.75-27.32,47.33-70,82-19.26,15.65-40.84,24.1-84,41-80.36,31.47-84.14,19.82-117,40-43.84,26.92-69.84,67.76-91,101-25.56,40.14-25.03,54.3-51,80-9.8,9.7-34.79,33.91-74,47-40.24,13.43-59.02,2.99-100,20-20.28,8.42-35.34,19.14-45,27"/>
      <path class="cls-4" d="m3460.31,591.76c-2.92-4.06-7.37-10.58-12-19-27.29-49.64-24.75-99.69-24-117,2.56-59.4-4.96-170.27-20-392-4.04-59.54-7.28-83.89-26-108-48.5-62.47-150.26-58.13-193-54-186.33,12-372.67,24-559,36"/>
      <polyline class="cls-4" points="3067.15 556.23 3067.15 245.71 3275.18 339.26 3351.89 512.09"/>
      <polyline class="cls-4" points="2844.86 -669.24 3071.31 -372.24 3067.15 245.71"/>
      <polyline class="cls-4" points="2345.31 136.29 2460.31 130.76 2523.31 158.76 2619.31 203.76 3209.52 211.88"/>
      <polyline class="cls-3" points="2775.93 127.88 2828.31 134.61 2828.31 168.76 2772.64 164.47 2757.31 150.76 2760.98 125.91 2768.92 72.13 2768.92 -71.42"/>
      <polyline class="cls-3" points="2854.31 133.76 2828.31 134.61 2933.04 130.76 3067.15 134.61 3126.77 134.61 3126.77 208.58"/>
      <polyline class="cls-3" points="2964.48 -84.02 2969.73 70.99 2969.73 97.35"/>
      <polyline class="cls-3" points="3023.61 -87.83 3021.31 70.99 3016.15 209.22 3019.38 306.76"/>
      <polyline class="cls-3" points="2925.59 130.76 2928.42 96.14 3000.8 97.1 3019.88 97.35"/>
      <polyline class="cls-3" points="3000.8 97.1 2992.31 207.76 2992.31 245.71 2996.56 285.98 2855.66 278.76 2850.5 265.64 2850.5 205.82 2857.98 76.26 2860.81 -29.69 2860.81 -79.78 2852.78 -207.06"/>
      <line class="cls-3" x1="2978.22" y1="97.35" x2="2969.73" y2="208.58"/>
      <line class="cls-3" x1="2954.39" y1="96.48" x2="2950.62" y2="130.76"/>
      <polyline class="cls-3" points="2936.2 130.76 2932.81 168.76 2930.31 196.76 2970.63 196.76"/>
      <line class="cls-3" x1="2933.06" y1="165.93" x2="2972.73" y2="165.93"/>
      <line class="cls-3" x1="2971.61" y1="183.92" x2="3067.15" y2="182.07"/>
      <line class="cls-3" x1="3019.38" y1="113.45" x2="3067.15" y2="113.45"/>
      <polyline class="cls-3" points="2734.31 -758.24 2767.81 -334.4 2808.64 -73.04 2793.98 101.64 2927.54 106.81"/>
      <polyline class="cls-3" points="2685.62 -332.4 2693.82 -197.75 2708.91 -65.74 2720.31 82.76 3067.15 66.39"/>
      <polyline class="cls-3" points="3069.18 -142.74 2800.34 -126.16 2702.71 -119.95 2708.91 -65.74 2723.09 -68.47 2717.96 -104.74 2784.31 -108.24 2793.98 -73.04 2768.92 205.82"/>
      <polyline class="cls-3" points="2908.67 -211.76 2912.95 -80.7 2912.95 -4.93 2908.39 132.68 2904.38 205.82"/>
      <polyline class="cls-3" points="2687 635.37 2673.28 476.16 2670.31 441.76 2691.31 437.76 2710.45 629.25"/>
      <path class="cls-3" d="m2531.55,677.68l-13.24-152.92,40-25,114.96-23.6,2.72,31.56-85.68,15.04-32,22.01-13,23.99,4.34,66.61c-6.11,11.46-12.23,22.93-18.34,34.39"/>
      <polyline class="cls-3" points="2676.88 637.78 2679.31 663.76 2836.31 622.76"/>
      <polyline class="cls-3" points="2836.31 592.32 2836.31 652.87 2595.2 677.68 2560.31 681.76 2434.31 742.76 2316.31 853.76"/>
      <line class="cls-3" x1="2746.64" y1="618.11" x2="2746.64" y2="646.18"/>
      <line class="cls-3" x1="2794.86" y1="603.49" x2="2794.86" y2="632.14"/>
      <polyline class="cls-3" points="2840.72 592.32 2833.31 571.76 2784.31 560.76 2769.31 510.76 2767.54 488.5 2760.31 397.76 2724.05 292.73 2781.45 229.3"/>
      <polyline class="cls-3" points="3009.22 565.29 2943.31 482.76 2823.31 509.76 2794.86 494.79 2768.24 497.28"/>
      <line class="cls-3" x1="2877.19" y1="497.64" x2="2882.31" y2="579.76"/>
      <line class="cls-3" x1="2902.03" y1="492.05" x2="2904.68" y2="577.55"/>
      <line class="cls-3" x1="2929.99" y1="485.76" x2="2936.87" y2="572.73"/>
      <polyline class="cls-3" points="2964.37 569.56 2962.31 541.76 2933.15 525.64"/>
      <polyline class="cls-3" points="3257.96 -9.82 3165.31 -6.24 3165.31 21.27 3067.15 21.79 2699.73 32.37 2680.66 9.09 2680.66 -65.74"/>
      <line class="cls-3" x1="2925.59" y1="208.58" x2="2925.59" y2="341"/>
      <polyline class="cls-3" points="2876.35 341 3094.31 347.76 3094.31 309.3 3094.31 257.93"/>
      <polyline class="cls-3" points="2996.56 285.98 2991.31 306.76 3094.31 309.3"/>
      <line class="cls-3" x1="2988.82" y1="343.76" x2="2991.31" y2="306.76"/>
      <line class="cls-3" x1="3038.81" y1="209.53" x2="3042.81" y2="346.16"/>
      <line class="cls-3" x1="2925.59" y1="309.3" x2="2990.86" y2="313.5"/>
      <line class="cls-3" x1="2850.5" y1="257.93" x2="2993.34" y2="255.5"/>
      <polyline class="cls-3" points="3000.8 344.86 3004.31 370.76 3029.58 410.81 3000.8 473 3038.81 559.32"/>
      <line class="cls-3" x1="3017.99" y1="512.03" x2="3067.15" y2="512.03"/>
      <line class="cls-3" x1="3019.81" y1="429.09" x2="3067.15" y2="429.09"/>
      <polyline class="cls-3" points="3067.15 372.99 2964.37 369.33 2964.37 457.79 2985.33 482.76 3064.34 482.76"/>
      <polyline class="cls-3" points="2844.31 1548.76 2900.31 1518.76 3135.31 1442.76 3244.31 1380.76 3354.31 1223.76 3584.48 1133.73 3807.72 1009.69 4217.31 768.76 4363.94 683.76 4278.31 620.76 4237.94 587.46"/>
      <polyline class="cls-3" points="3242.26 1548.76 3049.51 1102.89 2836.31 1191.13 2916.57 1380.6 2969.27 1496.46"/>
      <polyline class="cls-3" points="2637.31 1274.76 2772.31 1216.76 2857.44 1415.25"/>
      <line class="cls-3" x1="2690.94" y1="1251.72" x2="2771.79" y2="1465.45"/>
      <line class="cls-3" x1="2718.86" y1="1239.73" x2="2800.4" y2="1445.16"/>
      <line class="cls-3" x1="2747.38" y1="1227.47" x2="2828.81" y2="1432.03"/>
      <polyline class="cls-3" points="3062.67 1133.35 3181.67 1085.04 3258.31 1105.76 3341.31 1159.76 3399.31 1165.76 3411.74 1201.3 3492.09 1387.46 3582.57 1598.76"/>
      <polyline class="cls-3" points="3012.01 1017.23 3034.28 1068.11 3049.51 1102.89"/>
      <path class="cls-3" d="m3062.67,1060.06l-28.39,8.05,28.39-8.05Z"/>
      <line class="cls-3" x1="3062.67" y1="1060.06" x2="3113.44" y2="1178.9"/>
    </g>
  </g>
</svg>