<?xml version="1.0" encoding="UTF-8"?>
<svg id="Layer_5" data-name="Layer 5" xmlns="http://www.w3.org/2000/svg" xmlns:xlink="http://www.w3.org/1999/xlink" viewBox="0 0 1280 1280">
  <defs>
    <style>
      .cls-1 {
        clip-path: url(#clippath);
      }

      .cls-2, .cls-3, .cls-4 {
        fill: none;
      }

      .cls-2, .cls-5 {
        stroke-width: 0px;
      }

      .cls-6 {
        clip-path: url(#clippath-1);
      }

      .cls-3 {
        stroke-width: 2px;
      }

      .cls-3, .cls-4 {
        stroke: #f2f1ed;
        stroke-miterlimit: 10;
      }

      .cls-4 {
        stroke-width: 4px;
      }

      .cls-5 {
        fill: #1d1c1d;
      }
    </style>
    <clipPath id="clippath">
      <rect class="cls-2" x="-3216.29" y="19.46" width="3060.09" height="1260.54"/>
    </clipPath>
    <clipPath id="clippath-1">
      <rect class="cls-2" width="1280" height="1280"/>
    </clipPath>
  </defs>
  <g class="cls-1">
    <g>
      <rect class="cls-5" x="-3705.3" y="-849.32" width="4379" height="2642"/>
      <polyline class="cls-4" points="512.7 -306.32 249.7 -334.32 161.22 -306.32 -939.19 222.24"/>
      <polyline class="cls-4" points="-444.3 -423.32 287.7 1421.68 585.7 1632.68"/>
      <path class="cls-4" d="m-329.3-589.32c-5.02,10.71-11.52,27.15-15,48-7.02,42.03,2.53,76.33,12,109,4.87,16.79,12.79,39.8,26,66,8.48,12.71,22.5,30.92,44,48,18.21,14.46,25.76,15.38,47,31,5.28,3.88,31.8,23.67,54,52,20.85,26.61,29.95,50.61,39,74,48.31,124.79,3.29-6.14,73,181,11.21,30.09,25.51,68.75,42,114,16.33,25,32.67,50,49,75,34.33,30.33,68.67,60.67,103,91,22,35.33,44,70.67,66,106"/>
      <path class="cls-4" d="m492.7,1032.68c-72.34,51.55-126.26,85.3-163,107-43.83,25.88-51.28,27.57-81,48-38.45,26.43-48.57,39.13-76,46-9.25,2.31-48.28,12.08-79-8-21.58-14.11-19.68-30.27-41-55-19.23-22.3-41.04-32.66-73-46-97.96-40.89-235.71-86.61-249-91-66-.67-132-1.33-198-2-52.67-6.67-105.33-13.33-158-20"/>
      <path class="cls-4" d="m-342.3,657.68c8.29,38.71,13.61,70.03,17,92,.18,1.2,4.49,31.54,13,71,5.22,24.2,7.9,36.39,11,41,11.63,17.26,28.15,19.8,81,39,24.7,8.97,37.04,13.45,47,18,48.3,22.06,49.43,38.65,97,65,17.03,9.43,39.69,17.96,85,35,27.72,10.43,51.15,18.44,68,24h60.63"/>
      <path class="cls-4" d="m-2528.3,1641.68c33.76-35.12,86.58-84.99,159-134,117.07-79.23,225.41-115.65,330-150,155.24-50.99,168.68-34.97,281-81,29.56-12.11,45.84-20.28,246-138,128.91-75.82,266.98-137.77,387-227,14.53-10.8,54.3-40.88,114-65,66.8-26.98,120.62-31.18,133-32,67.97-4.53,69.29,13.73,138,14,77.18.31,138.59-22.48,202-46,41.46-15.38,74.55-31.32,97-43,76.09-8.34,138.5-13.16,181-16,172.25-11.53,266.12-7.26,396-38,37.45-8.86,61.63-14.58,95-27,81.11-30.17,102.01-57.29,156-66,26.67-4.3,66.98-5.02,120,16"/>
      <polyline class="cls-3" points="-5.48 1186.89 -191.88 1203.68 -206.45 1259.63 -212.8 1283.99 36.88 1266.72"/>
      <line class="cls-3" x1="21.69" y1="1238.09" x2="-206.45" y2="1259.63"/>
      <line class="cls-3" x1="-152.02" y1="-155.86" x2="133.7" y2="584.68"/>
      <polyline class="cls-3" points="-9.16 214.41 20.13 204.68 5.49 168.82 -72.3 195.68 -105.3 200.68 -172.97 22.9"/>
    </g>
  </g>
  <g class="cls-6">
    <g>
      <rect class="cls-5" x="-1227.97" y="-864.78" width="4379" height="2642"/>
      <path class="cls-4" d="m-889.97,1433.22c6.97-2.54,17.49-7.22,28-16,7.51-6.27,12.1-12.19,28-35,12.35-17.72,18.85-20.83,22-32,2.62-9.29.02-10.17,2-21,.62-3.41,6.21-32.04,26-42,6.65-3.35,9.61-1.92,36-1,8.18.29,29.28.99,49,0,27.29-1.36,40.93-2.05,52-10,3.15-2.26,8.89-6.98,23-34,9.65-18.48,16.46-34.46,21-46,4.33,2.33,8.67,4.67,13,7,2.99-.34,5.99-.67,9-1,10.09-1.1,20.09-2.09,30-3-7.97-9.66-6.73-14.35-6-16,1.42-3.17,8.3-4.83,22-8,18.54-4.3,19.63-4.49,22-6,9.8-6.24,14.67-17.83,16-21,3.14-7.48,3.43-13.13,9-17,3.34-2.32,5.9-2.14,8-3,5.66-2.31,10.45-13.13,7-50,2.92-1.52,10.87-6.16,16-16,5.06-9.69,4.4-18.72,4-22,7.2-.24,18.8-.32,33,1,34.09,3.17,40.72,10.47,60,7,12.4-2.23,10.42-5.39,39-15,16.32-5.49,16.98-4.46,31-9,26.19-8.48,46.08-14.92,61-32,4.91-5.63,11.68-15.14,16-30,6.67-1.33,13.33-2.67,20-4,6.2,7.1,16.24,18.86,28,34,23.59,30.37,27.26,39.8,43,49,4.36,2.55,28.84,16.87,48,7,3.16-1.63,5.48-3.56,7-5-7.67-10-15.33-20-23-30,1.33-11.33,2.67-22.67,4-34,4.33-.67,8.67-1.33,13-2,6.33,6,12.67,12,19,18,9.61,1.38,25.13,3.61,25.41,3.73h0s.29.13.59.26c.23.1,10.81,10.91,25,26,2.41-1.07,6.21-2.62,11-4,16.29-4.7,29.81-3.33,34-3,19.66,1.56,39.57-3.41,62-9,21.16-5.28,46.54-11.6,70-32,14.43-12.54,23.1-26.03,28-35,4.04-.21,8.39-.24,13,0,12.58.67,23.39,3.19,32,6,5-4.33,10-8.67,15-13-9.55-3.09-21.72-6-36-7-7.68-.54-14.73-.44-21,0-1.26-14.57-2.88-35.92-4-62-1.22-28.58-.59-33.62,1-39,8.31-28.12,35.98-42.83,57-54,33.94-18.04,66.33-21.19,87-23,11.89-1.04,21.88-1.13,29-1,5.87-2.21,13.54-6.24,18-14,4.52-7.87,2.4-13.76,5-22,3.66-11.61,13.39-17.39,25-25,12.37-8.11,29.39-19.93,51-37,.67,3.33,1.33,6.67,2,10-11.33,12-22.67,24-34,36l9,6c19.33-25,38.67-50,58-75,10.46-.78,25.73-3.16,42-11,20.41-9.83,30.39-22.47,42-33,14.48-13.13,38.03-28.91,77-38,4-19.33,8-38.67,12-58,14.33-13.67,28.67-27.33,43-41,16.33-1.33,32.67-2.67,49-4-17.67-24.67-35.33-49.33-53-74-5.33.67-10.67,1.33-16,2-6.33-3.67-12.67-7.33-19-11-1.67-9.33-3.33-18.67-5-28l87-60c-11.67-52-23.33-104-35-156,8.33-16.33,16.67-32.67,25-49,1.33-34.67,2.67-69.33,4-104,13.67-14,27.33-28,41-42h8.91l80.09,87,44,6,28,32,30,24,54,13,95-29,75,13,69-11,81,21,122,109-14,116,48,168,39,49,49,166,86,68,19,54-15,59-23,15h-35l-81,24-75,66-36,81-2,36,47,116,53,73,11,74-28,78-53,67-25,39-35,132-56,84-33,69,2,35-34,29-37,3-34-13-121,55-5,41,22,12,4,28-74,69-230,84-115,120"/>
      <path class="cls-4" d="m761.03,2299.22l104-132,130-42,127-44,34-79-6-25,54-34,44,13,117-96v-47.02l33-27.98,103-255,77-109,26-97c-4.67-26-9.33-52-14-78-6.32-3.87-15.89-10.35-26-20-16.11-15.38-22.43-28.17-40-56-26.09-41.34-25.45-34.21-31-47-3.84-8.85-17.34-41.2-9-81,6.9-32.9,24.94-52.83,45-75,27.72-30.63,49.8-38.3,55-40,10.6-3.46,16.71-3.48,29-5,14.07-1.74,62.19-7.69,95-27,13.3-7.83,37.23-25.59,55-66l-37-90-115-132-22.82-132-49.18-57,2-204-33-85-65-29-88-80-186-38-94,58-81-18,10-72-63-58-97-26,4-48,59-72,68-8-22-70-24-38-4-46h71.28l16.72-29v-22l38-38-22-95,178-127,37-7,59,25h102l225-93"/>
      <path class="cls-4" d="m-889.97,934.35l150-151.13,105-27,9-18,83.82,7.98,27.18,45.02,60,31,34-37,51,1,59-17,31,9,59-11-11-41-60-31,10-9,24,15,50,23,116-6,36.06-32,22.94-13,36-51,15-22,126-54,31-4,4,7-31,34,20,20,35,16,37-12,39,3,153-47,10.99-21-6.99-23,45-13,39-14,61-88-28-68,6-69-3-45,25-101.17-26-21.83-3-52,20-43V-12.78l36-51,27-51-42-52h-88.04l-83.96,56-24-2-43-18-16,21-8-19-60,19,8-44-26-34-22-14-51-6-24,22v16l-50,48-77,16-23-33,10-129,31-21,42,44h8l-12-21,16-29-1-36h31.17l22.83,54-22,26,26,23,97,5,44,28,45,49,44,4,40,2,12-29,64-43,57-16,28-33-45-58v-17l29,6,11,19,41-3,29,10,44-45v-20.26l-29-14.74-35-8-34,15-61-26-7-20,1-34-29-25h-53.03l-84.97,38-69,28-34,30-64,5-70-8-30,1-64-51-11-8-2-64,67-64,76-17,40,15,5,15-1,62,12,23,5,42,13,14,36,2,72-38,22-2,92-36,47,2,31,21,3,13,8,29,30,34,18,2,112-47,32-48,82-21,17-34-114-113c-15.85-17.06-60.56-60.55-133-75-19.27-3.85-93.62-17.5-166,26-32.68,19.64-53.4,43.98-65,60l-6-25-83-2-26-10-43-1-74-114"/>
      <path class="cls-4" d="m-891.97,803.22l108-78c52.5-18.76,108.54-36.98,168-54,54.7-15.65,78.01-17.01,131-34,13.73-4.4,42.72-14.01,84-25,6.11-1.63,25.64-6.81,44-11,56.71-12.93,103.42-16.46,131-19,83.76-7.71,66.66-14.45,184-29,101.55-12.59,120.02-8.24,162-22,8.72-2.86,29.35-10.07,58-12,25.34-1.71,31.91,2.4,65,5,60.39,4.74,102.42-3.92,112-6,25.53-5.54,38.29-8.31,53-18,20.74-13.66,36.93-35.33,52-80,14.24-42.22,15.35-68.97,22-132,9.23-87.43,11.12-73.24,22-176,4.6-43.49,6.64-68.62,13-116,4.54-33.82,8.93-61.53,12-80-33-.33-66-.67-99-1"/>
      <path class="cls-4" d="m-50.97,1626.22c33.76-35.12,86.58-84.99,159-134,117.07-79.23,225.41-115.65,330-150,155.24-50.99,168.68-34.97,281-81,29.56-12.11,45.84-20.28,246-138,128.91-75.82,266.98-137.77,387-227,14.53-10.8,54.3-40.88,114-65,66.8-26.98,120.62-31.18,133-32,67.97-4.53,69.29,13.73,138,14,77.18.31,138.59-22.48,202-46,41.46-15.38,74.55-31.32,97-43,76.09-8.34,138.5-13.16,181-16,172.25-11.53,266.12-7.26,396-38,37.45-8.86,61.63-14.58,95-27,81.11-30.17,102.01-57.29,156-66,26.67-4.3,66.98-5.02,120,16"/>
      <path class="cls-4" d="m682.23,338.94l43.1,15.78,84.7,8.5,25-29,239-137,21-72,46-37,141-12,43-62c3.22-5.41,6.44-10.83,9.66-16.24,11.45-19.25,22.89-38.5,34.34-57.76,25.89-20.09,48.27-34.51,64-44,37.13-22.4,50.04-25.09,66-44,16.98-20.11,23.4-41.97,29-61,9.55-32.49,3.57-38.28,11-65,12.32-44.3,40.97-72.33,49-80,22.59-21.58,47.67-33.49,84-45,21.94-6.95,60.63-17.76,206-30,56.02-4.72,110.45-8.18,171-10,18.11-.54,33.26-.83,44-1,16.69-6.49,34.07-13.79,52-22,15.09-6.91,29.43-13.95,43-21-5.78-11.02-14.15-30.43-16-56-2.19-30.36,5.93-54.03,11-66"/>
      <polyline class="cls-4" points="768.03 272.22 761.03 151.8 944.03 -244.78 985.87 -244.78 1045.03 -299.51 1045.03 -392.32 1115.03 -415.78 1115.03 -470.58 1055.03 -544.78 1084.53 -629.1"/>
      <path class="cls-4" d="m-675.97,1614.22l831-487,324-203,37-60,103-73-49-92-81.96,46.98h-63.15l-71.9,76.02-127,106-38,62-73,43-118,13-79,24c-18.4-11.72-52.81-30.16-99.5-35.24-27.88-3.03-69.74-7.59-106.5,15.24-36.65,22.75-27.32,47.33-70,82-19.26,15.65-40.84,24.1-84,41-80.36,31.47-84.14,19.82-117,40-43.84,26.92-69.84,67.76-91,101-25.56,40.14-25.03,54.3-51,80-9.8,9.7-34.79,33.91-74,47-40.24,13.43-59.02,2.99-100,20-20.28,8.42-35.34,19.14-45,27"/>
      <polyline class="cls-4" points="696.7 -708.53 555.03 -503.78 442.74 -411.45 384.18 -178.44 462.03 -21.78 810.03 103.22 919.03 59.22 1115.03 354.72 1461.73 160.93"/>
      <path class="cls-4" d="m240.03,607.22c-2.92-4.06-7.37-10.58-12-19-27.29-49.64-24.75-99.69-24-117,2.56-59.4-4.96-170.27-20-392-4.04-59.54-7.28-83.89-26-108C109.53-91.25,7.77-86.91-34.97-82.78c-186.33,12-372.67,24-559,36"/>
      <polyline class="cls-4" points="-153.13 571.69 -153.13 261.17 54.9 354.72 131.61 527.55"/>
      <line class="cls-4" x1="511.58" y1="40.15" x2="182.48" y2="58.01"/>
      <polyline class="cls-4" points="131.61 -53.57 163.18 475.22 204.03 471.22"/>
      <polyline class="cls-4" points="-24.97 318.81 1.53 272.22 -17.97 197.22 54.88 -53.57 69.76 -78.78"/>
      <polyline class="cls-3" points="-24.97 318.81 -24.97 351.08 22.39 434.34 40.72 544.54"/>
      <polyline class="cls-3" points="32.01 492.17 -31.97 495.22 -26.48 551.35"/>
      <polyline class="cls-3" points="19.02 546.53 17.03 536.22 -8.97 518.22 -65.49 518.22 -83.97 535.22 -88.99 559.65"/>
      <polyline class="cls-3" points="37.68 5.64 -54.97 9.22 -54.97 36.73 -153.13 37.25 -520.55 47.83 -539.62 24.55 -539.62 -50.28"/>
      <polyline class="cls-3" points="28.86 343.01 43.77 308.19 57.03 303.22 198.5 299.14 283.03 294.22 295.03 314.22 477.42 332.98"/>
      <polyline class="cls-3" points="145.86 185.13 289.37 185.13 289.37 235.62 197.73 235.62"/>
      <polyline class="cls-3" points="289.37 52.21 296.03 174.22 339.03 171.22 407.03 178.22 495.06 187.62"/>
      <polyline class="cls-3" points="343.9 49.25 339.03 171.22 320.18 316.81 308.03 429.22 160.95 437.86 135.27 437.86 28.86 473.25"/>
      <polyline class="cls-3" points="366.64 47.83 372.03 92.22 362.6 173.65 384.18 175.87 395.03 91.22 389.71 46.76"/>
      <polyline class="cls-3" points="292.28 105.55 321.03 99.22 395.03 91.22"/>
      <line class="cls-3" x1="340.82" y1="126.35" x2="500.51" y2="144.25"/>
      <polyline class="cls-3" points="433.62 44.38 420.66 105.55 468.61 105.55 480.74 44.38"/>
      <line class="cls-3" x1="220.62" y1="297.86" x2="233.83" y2="521.76"/>
      <line class="cls-3" x1="243.32" y1="296.53" x2="253.14" y2="431.68"/>
      <polyline class="cls-3" points="274.74 294.7 280.03 406.22 310.13 409.81 369.21 409.81"/>
      <line class="cls-3" x1="202.48" y1="409.81" x2="280.03" y2="406.22"/>
      <line class="cls-3" x1="202.03" y1="384.22" x2="313.3" y2="380.45"/>
      <line class="cls-3" x1="202.48" y1="359.22" x2="316.35" y2="352.26"/>
      <polyline class="cls-3" points="458.66 424.22 369.21 409.81 259.41 505.82 233.83 505.82"/>
      <polyline class="cls-3" points="570.03 699.22 1119.44 352.26 1346.03 730.22 1476.03 777.22 1533.03 748.72 1555.03 767.22 1555.03 834.37 1161.03 1041.22 1174.03 1083.22 1198.07 1100.5 1224.03 1325.22 1282.9 1444.72 1237.52 1591.22"/>
      <polyline class="cls-3" points="609.95 774.17 1167.05 431.68 1418.99 285.93"/>
      <polyline class="cls-3" points="619.03 791.22 1182.72 457.82 1435.13 307.24"/>
      <polyline class="cls-3" points="523.14 859.18 542.98 910.38 682.23 1269.79 818.74 1582.22"/>
      <line class="cls-3" x1="946.03" y1="682.22" x2="542.98" y2="910.38"/>
      <polyline class="cls-3" points="566.75 971.74 969.03 734.22 961.31 708.2"/>
      <polyline class="cls-3" points="576.78 997.61 980.03 758.22 1012.03 812.22"/>
      <polyline class="cls-3" points="930.24 655.07 961.31 708.2 552.26 934.35"/>
      <line class="cls-3" x1="969.03" y1="734.22" x2="980.03" y2="758.22"/>
      <polyline class="cls-3" points="652.41 820.8 851.85 1156.72 859.42 1185.12"/>
      <path class="cls-3" d="m1224.84,734.22l-81.18-35,81.18,35Z"/>
      <polyline class="cls-3" points="1178.89 1005.32 1167.05 971.74 1243.03 791.22 1243.03 762.22 1224.84 734.22"/>
      <line class="cls-3" x1="607.43" y1="1076.74" x2="1027.1" y2="835.62"/>
      <line class="cls-3" x1="1042.28" y1="859.18" x2="619.03" y2="1102.22"/>
      <line class="cls-3" x1="1059.4" y1="885.77" x2="628.78" y2="1131.82"/>
      <line class="cls-3" x1="640.37" y1="1161.75" x2="1075.25" y2="910.38"/>
      <line class="cls-3" x1="649.43" y1="1185.12" x2="1087.23" y2="928.97"/>
      <line class="cls-3" x1="660.4" y1="1213.44" x2="1100.03" y2="948.85"/>
      <line class="cls-3" x1="708.26" y1="787.48" x2="920.83" y2="1149.19"/>
      <polyline class="cls-3" points="731.86 699.22 915.08 1002.96 965.03 1123.22 1023.02 1268.74"/>
      <polyline class="cls-3" points="785.79 666.06 1020.03 1048.22 1034.91 1083.64"/>
      <line class="cls-3" x1="849.22" y1="655.07" x2="1033.05" y2="960.67"/>
      <polyline class="cls-3" points="1072.65 937.5 1092.53 968.34 1107.65 960.67 1147.54 1022.6 1012.03 812.22 602.69 1054.36"/>
      <polyline class="cls-3" points="1092.53 968.34 1056.03 993.22 1093.8 1054.36 1147.54 1140.33"/>
      <polyline class="cls-3" points="570.03 869.94 776.19 1232.86 857.81 1366.77"/>
      <line class="cls-3" x1="609.95" y1="846.13" x2="785.79" y2="1137.97"/>
      <line class="cls-3" x1="837.07" y1="1131.82" x2="667.92" y2="1232.86"/>
      <polyline class="cls-3" points="-375.97 1564.22 -319.97 1534.22 -84.97 1458.22 24.03 1396.22 134.03 1239.22 364.2 1149.19 587.44 1025.15 997.03 784.22 1143.66 699.22 1058.03 636.22 1017.66 602.92"/>
      <line class="cls-3" x1="310.99" y1="1029.5" x2="551.03" y2="1582.22"/>
      <path class="cls-3" d="m310.99,754.91c106.35,248.77,212.69,497.54,319.04,746.31"/>
      <line class="cls-3" x1="461.03" y1="1602.22" x2="1203.32" y2="1161.75"/>
      <polyline class="cls-3" points="1374.48 209.7 1453.03 344.22 1203.32 492.17 479.03 924.22"/>
      <line class="cls-3" x1="1140.31" y1="387.08" x2="1390.95" y2="237.92"/>
      <line class="cls-3" x1="1153.66" y1="409.34" x2="1404.12" y2="260.46"/>
      <line class="cls-3" x1="1167.05" y1="325.64" x2="1247.25" y2="466.15"/>
      <line class="cls-3" x1="1207.15" y1="303.23" x2="1286.26" y2="443.03"/>
      <line class="cls-3" x1="1249.37" y1="279.63" x2="1476.53" y2="666.06"/>
      <line class="cls-3" x1="1240.5" y1="554.19" x2="1461.73" y2="422.93"/>
      <line class="cls-3" x1="1278.89" y1="618.23" x2="1501.14" y2="488.56"/>
      <line class="cls-3" x1="1224.84" y1="479.42" x2="1329.87" y2="663.95"/>
      <line class="cls-3" x1="1272.61" y1="451.12" x2="1377.05" y2="636.35"/>
      <line class="cls-3" x1="630.03" y1="661.33" x2="682.23" y2="753.84"/>
      <line class="cls-3" x1="744.5" y1="589.04" x2="794.4" y2="680.11"/>
      <line class="cls-3" x1="682.23" y1="622.22" x2="737.27" y2="708.2"/>
      <line class="cls-3" x1="818.74" y1="545.17" x2="974.53" y2="622.22"/>
      <polyline class="cls-3" points="1034.91 405.64 1079.94 479.42 1084.53 563.03"/>
      <line class="cls-3" x1="1056.03" y1="748.72" x2="1176.69" y2="948.85"/>
      <line class="cls-3" x1="1107.38" y1="720.25" x2="1167.05" y2="825.72"/>
      <polyline class="cls-3" points="1059.4 885.77 1205.04 807.87 1243.03 791.22"/>
      <polyline class="cls-3" points="868.33 1182.34 945.22 1314.9 1062.53 1582.22 931.73 1591.22 857.81 1366.77"/>
      <line class="cls-3" x1="487.67" y1="1081.14" x2="660.4" y2="1482.28"/>
      <line class="cls-3" x1="523.14" y1="1060.88" x2="693.91" y2="1464.03"/>
      <polyline class="cls-3" points="713.92 1448.75 542.85 1049.93 511.85 980.7"/>
      <polyline class="cls-3" points="21.98 1564.22 -170.77 1118.35 -383.97 1206.59 -303.71 1396.06 -251.01 1511.92"/>
      <polyline class="cls-3" points="5.27 1525.58 61.03 1498.22 44.03 1457.22 478.01 1259.58"/>
      <line class="cls-3" x1="126.42" y1="1250.08" x2="203.49" y2="1435.33"/>
      <line class="cls-3" x1="156.64" y1="1230.37" x2="220.89" y2="1376.68"/>
      <line class="cls-3" x1="226.66" y1="1202.99" x2="287.16" y2="1346.5"/>
      <polyline class="cls-3" points="321.49 1330.86 291.07 1259.58 155.17 1319.17"/>
      <polyline class="cls-3" points="-157.61 1148.81 -38.61 1100.5 38.03 1121.22 121.03 1175.22 179.03 1181.22 191.46 1216.76 271.81 1402.92 362.29 1614.22"/>
      <polyline class="cls-3" points="-26.19 1233.42 -34.52 1214.36 -77.92 1115.02 -24.97 1065.37 228.57 1081.14"/>
      <polyline class="cls-3" points="-31.36 1236.46 35.87 1379.33 66.21 1447.12"/>
      <polyline class="cls-3" points="-11.17 1224.62 54.94 1352.11 92.1 1435.33"/>
      <polyline class="cls-3" points="13.32 1210.27 70.55 1329.82 112.52 1426.03"/>
      <polyline class="cls-3" points="44.18 1274.74 98.33 1220.59 125.5 1247.75 98.33 1220.59 59.97 1182.22"/>
      <line class="cls-3" x1="326.57" y1="1065.37" x2="425.76" y2="1023.38"/>
      <line class="cls-3" x1="338.79" y1="1093.5" x2="438.28" y2="1052.66"/>
      <polyline class="cls-3" points="388.53 1039.14 419.69 1118.35 504.95 1321.71 555.83 1436.33 594.34 1523.11"/>
      <polyline class="cls-3" points="512.53 1066.77 483.61 997.61 560.72 956.18"/>
      <polyline class="cls-3" points="1023.02 1268.74 1066.36 1387.22 1222.84 1314.9"/>
      <polyline class="cls-3" points="762.24 1452.91 1031.56 1292.1 1208.59 1191.57"/>
      <polyline class="cls-3" points="783.29 1501.1 1053.02 1350.75 1216.91 1263.58"/>
      <polyline class="cls-3" points="1042.28 1079.6 1116.21 1213.44 1127.38 1237.69 1179.48 1334.94"/>
      <line class="cls-3" x1="1198.93" y1="1107.97" x2="1093.44" y2="1172.23"/>
      <line class="cls-3" x1="977.21" y1="1153.79" x2="1163.5" y2="1049.19"/>
      <line class="cls-3" x1="1105.68" y1="1194.39" x2="1202.31" y2="1137.2"/>
      <polyline class="cls-3" points="1100.03 1184.16 1075.25 1198.33 1033.05 1122.43"/>
      <polyline class="cls-3" points="762.39 175.14 914.03 98.22 922.95 119.92"/>
      <line class="cls-3" x1="949.79" y1="105.59" x2="810.03" y2="184.22"/>
      <polyline class="cls-3" points="795.8 158.19 824.25 209.7 933.63 148.28 966.03 130.08"/>
      <polyline class="cls-3" points="990.03 241.22 962.92 196.54 933.63 148.28"/>
      <polyline class="cls-3" points="828.52 341.77 801.03 299.22 962.92 196.54"/>
      <polyline class="cls-3" points="834.44 334.9 887.03 420.22 1034.91 329.51 1071.54 382.5 1153.66 521.8"/>
      <polyline class="cls-3" points="866.6 387.08 1027.08 298.81 1062.53 275.57"/>
      <line class="cls-3" x1="1045.03" y1="249.18" x2="853.71" y2="366.16"/>
      <polyline class="cls-3" points="910.35 479.42 946.03 537.95 1140.31 634.57 1449.02 835.62 1516.03 946.58"/>
      <polyline class="cls-3" points="928.68 -211.52 1359.87 -44.37 1404.03 11.22 1620.78 -18.5 1624.3 2.2 1646.03 130.22"/>
      <polyline class="cls-3" points="1242.64 -89.82 1276.03 -195.78 1317.03 -185.78 1320.03 -162.78 1339.03 -151.78 1420.03 -148.78 1445.04 -158.4 1501.01 -150.2 1657.07 -58.5 1699.99 -33.28 1782.14 87.8"/>
      <polyline class="cls-3" points="1427.35 1355.58 1318.54 1573.22 1270.03 1573.22 1322.83 1437.22 1243.03 1176.05 1265.72 1165.8 1337.76 1133.22"/>
      <polyline class="cls-3" points="1375.37 1213.44 1395.9 1203.93 1501.05 1469.65 1466.53 1452.81 1276.31 980.7"/>
      <path class="cls-3" d="m1314.5,1143.74l36.53,91.48,18,45-52.7,31.51-9.3-19.51,7.47-11.65-48.78-114.78"/>
      <line class="cls-3" x1="1256.02" y1="1218.56" x2="1356.3" y2="1179.23"/>
      <line class="cls-3" x1="1274.97" y1="1280.57" x2="1327.03" y2="1251.22"/>
    </g>
  </g>
</svg>