<?xml version="1.0" encoding="UTF-8"?>
<svg id="Layer_1" data-name="Layer 1" xmlns="http://www.w3.org/2000/svg" xmlns:xlink="http://www.w3.org/1999/xlink" viewBox="0 0 1280 1280">
  <defs>
    <style>
      .cls-1 {
        clip-path: url(#clippath);
      }

      .cls-2, .cls-3, .cls-4 {
        fill: none;
      }

      .cls-2, .cls-5 {
        stroke-width: 0px;
      }

      .cls-6 {
        clip-path: url(#clippath-1);
      }

      .cls-7 {
        clip-path: url(#clippath-2);
      }

      .cls-3 {
        stroke-width: 2px;
      }

      .cls-3, .cls-4 {
        stroke: #f2f1ed;
        stroke-miterlimit: 10;
      }

      .cls-4 {
        stroke-width: 4px;
      }

      .cls-5 {
        fill: #1d1c1d;
      }
    </style>
    <clipPath id="clippath">
      <rect class="cls-2" x="-3192.31" y="9.75" width="3060.1" height="1260.5"/>
    </clipPath>
    <clipPath id="clippath-1">
      <rect class="cls-2" x="-3192.31" y="9.75" width="3060.1" height="1260.5"/>
    </clipPath>
    <clipPath id="clippath-2">
      <rect class="cls-2" width="1280" height="1280"/>
    </clipPath>
  </defs>
  <g>
    <g class="cls-1">
      <g id="Layer_3" data-name="Layer 3">
        <rect class="cls-5" x="-3344.51" y="-971.45" width="3940" height="2403"/>
      </g>
    </g>
    <g class="cls-6">
      <g id="Layer_4" data-name="Layer 4">
        <path class="cls-4" d="m-3332.31,863.95c17.3-5.4,28.3-3,35,0,9.3,4.1,10.4,9.4,30,24,9.4,7,14.2,10.5,20,12,5.2,1.3,13.1.9,29,0,11.5-.7,14.3-1.2,20,0,6.7,1.4,12.4,4.2,16,6,9.7,4.8,9.3,6.7,14,8,8.4,2.3,12.1-3.1,26-6,4.5-1,15.7-3.3,27,0,10.9,3.2,13.4,9,24,16,13,8.5,23.1,8.8,36,12,39.1,9.8,36.6,30.1,73,40,30.6,8.3,42.5-3.2,59,10,13.4,10.8,9.6,21.7,23,40,6.9,9.4,16.7,18.4,52,35,34.9,16.4,62.5,24.9,88,33,80.8,25.7,66.5,23.7,88,29,72.2,17.7,108.3,26.6,149,13,23.6-7.9,52.5-24.6,73-13,3.3,1.9,12.5,7.9,27,14,9,3.8,14.9,6.3,22,7,12.4,1.3,19.2-3.7,35-10,5.7-2.3,31.2-12.1,61-15,12-1.1,17.5-.5,32-3,7.2-1.3,16.5-2.9,28-7,0,0,7-2.5,34-16,4.3-1.7,8.7-3.3,13-5,.5,5.1.9,16.2-5,28-6.4,12.8-16.5,19.2-21,22-7.7,4.7-10.7,5.9-13,6-7.1.3-11.9-4.4-16-7-6.7-4.3-18.2-7.6-39.5-1.5-.5,4.8-1,9.7-1.5,14.5-6.5,1.2-13,2.3-19.5,3.5-17.8,8.7-31.3,12.1-40.5,13.5-7,1.1-12.6,2-23,4-10.2,1.9-10,3.9-17,4-9.1.2-16.5-2.9-19-4-.8-.3-4.5-2-9-5-9.6-6.5-9.5-10.5-15-13-5.4-2.5-7.1.7-22,2-11,1-21.9.3-26,0-11.3-.7-14.7-2-16,0-3,4.4,12.4,13.4,12,27-.3,13-14.7,21.2-12,25,1.3,1.9,5-.1,15,0,3.3,0,9.5.1,16,2,7.5,2.2,12.5,6,19,11,10.2,7.9,8.6,9.6,15,13,9.7,5.1,19.2,4.4,23,4,4.2-.4,8.7-.9,13-4,2.7-2,2.9-3.2,6-6,5-4.4,8.8-5.1,12-7,4-2.4,8.4-7.8,10-21-10.8-3.6-15.6-2.1-18,0-2.6,2.3-2.3,5-7,12-2.7,4-4.1,6-6,7-6.7,3.3-17.7.3-20-6-.8-2.3-.7-5.5,1-7,1.5-1.3,3.3-.6,9,0,5.8.6,9.6,1,10,0,.5-1.3-5.2-4.1-11-9-6-5.1-9.8-10.4-12-14,5.2.4,12.4.8,21,1,5.8.1,12.9.3,20,0,8.1-.4,19.8-1.5,34-5,6.1,6.6,10.3,12.6,13,17,1.4,2.3,2.9,5.2,6,11,4.2,7.9,4.7,9.5,5,11,.5,2.7.9,7.5-2,14,2.9-1.3,6.6-2.8,11-4,2.5-.7,6.7-1.8,12-2,5-.2,5.1.6,19,2,4.8.5,7.9.7,12,0,1.2-.2,3.7-.7,7-2,10.8-4.2,12.2-9.8,20-12,2.8-.8,2.2,0,12,0,12.4,0,18.6,0,23-2,6.1-2.7,3.8-5.1,17-18,5.9-5.7,6.8-5.8,14-13,6.4-6.5,10.4-7.6,10-10-.3-2.2-3.4-3.3-15-7-5.1-1.6-10.4-3.3-16-5,5.6-1.1,12.5-2.9,20-6,6.8-2.8,12.5-6.1,17-9-2.3-16.7-4.7-33.3-7-50,.4-3.2,1.6-10.2,7-17,3.9-4.9,8.3-7.6,11-9-.3-15-.7-30-1-45,5.6,1.4,13.5,3,23,4,10.9,1.1,22.8,1.2,42-1,25-2.9,40.4-4.7,60-12,12.8-4.8,31.8-13.5,52-30,10.3,14.7,20.7,29.3,31,44-20.7,16-41.3,32-62,48-.9,1.3-2.8,4.2-2,7,1.3,4.8,9.1,6.2,14,6,6.9-.3,11.9-4.2,13-5,10.3-7.9,72.2-54.6,157-119-11.7-19-23.3-38-35-57,8.7-1.3,17.3-2.7,26-4,7.3,12,14.7,24,22,36h12l-21-42c29.3-3.3,58.7-6.7,88-10l-3-18c7.7-1,15.3-2,23-3v17c12.7-1.7,25.3-3.3,38-5l-3-27,13-3,2,27,46-1-8-35,11-5,12,38,25-4-4-19,13-1,4,16h18l-14-42,17-5,14,46,101-10-15-58,19,5,19,39,8-6-7-14,32-17,7,12,42.8-19v-16l20.2-10-15-42,15-7,27,51,129-68-20-42,20-11,23,43,178-97-18-37,8-23,28,51,185-106,127-71-13,16,1,7-110,64-6-7-68,46,5,18-50,30,8,9,48-25,8,17-99,61,37,62,104-62,4,18-96,60,50,86,507-394-32-57,89-50,32,50,123-43,6,12-199,121-506,398,64,109,13-12,56,68,20,2,9-51,31-7,57-76,47-32-2-16,30-24h82l8,3,21-4,32-41-43,35-14-2-16.5-25.9,138.5-177.1,19-13,18-31,46-28-32-50,10-5,21,32,32-20-21-47L-17.31,357.95l12,19,21-11,139-136-17-44,14-12,62,8,17-14-102-108,3-23,47-9,19,11h25l-27,21,48,51v12.1l9-.1,14,51-26,15,1,17,29-3,26,4v-9.7l-19-9.3,2-23,17-18.5,16,15.5,19-2,20,1,24,18,14,13-29,12-25.1,32.5-40.9-8.5-17,3v22l30-3,14,14,17,29,10-3-2-36,22-33,27-13,26,6,7-11-24-43-3-25,27-38.7-24-15.3-10-24,40-74,19-21,40-14h13.5"/>
        <path class="cls-4" d="m219.19-866.55c49.6,172,99.2,344.1,148.8,516.1,29.2,93.6,51.7,167.4,67.2,214.9,2.4,7.3,7.7,23.5,2,41-10.7,33-52.5,46.9-75,54C265.99-10.05,171.79,29.95,72.19,46.45-7.11,59.65-116.31,117.25-334.81,232.45c-63.5,33.5-59.4,33.4-329,183-63.3,35.1-115.4,63.9-150,83,12,20.7,24,41.3,36,62,7.2,12.4,14.8,25.6,22,38,12.4-7.3,32.9-19.2,58-34,105.4-61.9,274.3-161.1,470-280,28.7-17.4,72.4-44,126-77-18-30.3-36-60.7-54-91-14-44.7-28-89.3-42-134,16.9-6.5,42.5-16.2,74-27C-33.51-75.55,18.99-86.65,89.19-105.55c99.8-26.9,94.1-31.6,259-82,80.2-24.5,146.1-43.2,189-55"/>
        <path class="cls-4" d="m512.19-876.55c-53.6,14.3-135.9,36.8-236,67-151.8,45.8-183.5,60.7-352,112-124.3,37.9-226.4,66.2-280,81-48.3,13.4-105.6,28.6-220,59-228.1,60.6-230.4,59.8-286,77-29.9,9.2-73.9,23.3-138,40-48.2,12.6-88,21.4-114,27-22.9,16.8-49.9,40.4-75,73-9.8,12.7-18,25.2-25,37,6.4,22.4,16.5,57.3,29,100C-1127.41-7.15-1123.01.05-1092.81,106.45c38.4,135.1,40.6,156.4,72,255,20.2,63.4,38.5,115,51,149-6.7,16-13.3,32-20,48-64.9,37.2-118.8,64.5-157,83-48.9,23.7-71.8,32.7-136,65-47.9,24.1-52.3,27.7-78,39-20.1,8.8-48.7,20.3-130,44-71.8,20.9-107.7,31.4-157,42-41.3,8.9-74.5,16.9-141,33-16.6,4-45.7,11.3-76,33-15.6,11.1-26.8,22.6-34,31l-35.7-31.1"/>
        <path class="cls-4" d="m-833.81-866.55c-27.7,128.7-55.3,257.3-83,386,30,47.4,60.1,96.4,90,147,20.3,34.3,40,68.3,59,102-4.3,21.3-8.7,42.7-13,64,3.5,10.4,8.8,26,15,45,22.6,69.2,37.6,120.8,45,146,12.6,42.9,31.2,105.4,57,187,16-1.1,39.7-3.4,68-9,57.2-11.3,97.9-28.9,110-34,43.5-18.3,120.8-43.7,269-76,8.3-16.3,16.7-32.7,25-49C-143.81,30.75-95.81,19.15-47.81,7.45L72.19-30.55l35-52,119-34,15.1-17.5-3.1-27.5,68-163,121-139,49-54,49,6"/>
        <line class="cls-4" x1="-85.61" y1="-866.55" x2="187.29" y2="18.15"/>
        <polyline class="cls-3" points="-1092.81 106.45 -910.21 59.45 -846.81 34.45 -780.81 30.45 -708.01 -.55 -572.81 -39.55 -534.81 -39.55 -485.01 -74.25 -425.21 -91.45 -298.61 -119.25 -236.71 -140.15 -131.41 -171.55 24.99 -184.95 133.19 -213.55 275.29 -250.35 298.19 -240.55 394.19 -266.25"/>
        <polyline class="cls-3" points="-190.81 -2.55 62.99 -79.85 72.19 -56.55 -183.01 29.75"/>
        <polyline class="cls-3" points="219.09 7.95 258.19 35.45 227.19 68.45 296.69 146.45"/>
      </g>
    </g>
  </g>
  <rect class="cls-5" width="1280" height="1280"/>
  <g class="cls-7">
    <g id="Layer_4-2" data-name="Layer 4">
      <path class="cls-4" d="m-847.86,854.2c17.3-5.4,28.3-3,35,0,9.3,4.1,10.4,9.4,30,24,9.4,7,14.2,10.5,20,12,5.2,1.3,13.1.9,29,0,11.5-.7,14.3-1.2,20,0,6.7,1.4,12.4,4.2,16,6,9.7,4.8,9.3,6.7,14,8,8.4,2.3,12.1-3.1,26-6,4.5-1,15.7-3.3,27,0,10.9,3.2,13.4,9,24,16,13,8.5,23.1,8.8,36,12,39.1,9.8,36.6,30.1,73,40,30.6,8.3,42.5-3.2,59,10,13.4,10.8,9.6,21.7,23,40,6.9,9.4,16.7,18.4,52,35,34.9,16.4,62.5,24.9,88,33,80.8,25.7,66.5,23.7,88,29,72.2,17.7,108.3,26.6,149,13,23.6-7.9,52.5-24.6,73-13,3.3,1.9,12.5,7.9,27,14,9,3.8,14.9,6.3,22,7,12.4,1.3,19.2-3.7,35-10,5.7-2.3,31.2-12.1,61-15,12-1.1,17.5-.5,32-3,7.2-1.3,16.5-2.9,28-7,0,0,7-2.5,34-16,4.3-1.7,8.7-3.3,13-5,.5,5.1.9,16.2-5,28-6.4,12.8-16.5,19.2-21,22-7.7,4.7-10.7,5.9-13,6-7.1.3-11.9-4.4-16-7-6.7-4.3-18.2-7.6-39.5-1.5-.5,4.8-1,9.7-1.5,14.5-6.5,1.2-13,2.3-19.5,3.5-17.8,8.7-31.3,12.1-40.5,13.5-7,1.1-12.6,2-23,4-10.2,1.9-10,3.9-17,4-9.1.2-16.5-2.9-19-4-.8-.3-4.5-2-9-5-9.6-6.5-9.5-10.5-15-13-5.4-2.5-7.1.7-22,2-11,1-21.9.3-26,0-11.3-.7-14.7-2-16,0-3,4.4,12.4,13.4,12,27-.3,13-14.7,21.2-12,25,1.3,1.9,5-.1,15,0,3.3,0,9.5.1,16,2,7.5,2.2,12.5,6,19,11,10.2,7.9,8.6,9.6,15,13,9.7,5.1,19.2,4.4,23,4,4.2-.4,8.7-.9,13-4,2.7-2,2.9-3.2,6-6,5-4.4,8.8-5.1,12-7,4-2.4,8.4-7.8,10-21-10.8-3.6-15.6-2.1-18,0-2.6,2.3-2.3,5-7,12-2.7,4-4.1,6-6,7-6.7,3.3-17.7.3-20-6-.8-2.3-.7-5.5,1-7,1.5-1.3,3.3-.6,9,0,5.8.6,9.6,1,10,0,.5-1.3-5.2-4.1-11-9-6-5.1-9.8-10.4-12-14,5.2.4,12.4.8,21,1,5.8.1,12.9.3,20,0,8.1-.4,19.8-1.5,34-5,6.1,6.6,10.3,12.6,13,17,1.4,2.3,2.9,5.2,6,11,4.2,7.9,4.7,9.5,5,11,.5,2.7.9,7.5-2,14,2.9-1.3,6.6-2.8,11-4,2.5-.7,6.7-1.8,12-2,5-.2,5.1.6,19,2,4.8.5,7.9.7,12,0,1.2-.2,3.7-.7,7-2,10.8-4.2,12.2-9.8,20-12,2.8-.8,2.2,0,12,0,12.4,0,18.6,0,23-2,6.1-2.7,3.8-5.1,17-18,5.9-5.7,6.8-5.8,14-13,6.4-6.5,10.4-7.6,10-10-.3-2.2-3.4-3.3-15-7-5.1-1.6-10.4-3.3-16-5,5.6-1.1,12.5-2.9,20-6,6.8-2.8,12.5-6.1,17-9-2.3-16.7-4.7-33.3-7-50,.4-3.2,1.6-10.2,7-17,3.9-4.9,8.3-7.6,11-9-.3-15-.7-30-1-45,5.6,1.4,13.5,3,23,4,10.9,1.1,22.8,1.2,42-1,25-2.9,40.4-4.7,60-12,12.8-4.8,31.8-13.5,52-30,10.3,14.7,20.7,29.3,31,44-20.7,16-41.3,32-62,48-.9,1.3-2.8,4.2-2,7,1.3,4.8,9.1,6.2,14,6,6.9-.3,11.9-4.2,13-5,10.3-7.9,72.2-54.6,157-119-11.7-19-23.3-38-35-57,8.7-1.3,17.3-2.7,26-4,7.3,12,14.7,24,22,36h12l-21-42c29.3-3.3,58.7-6.7,88-10l-3-18c7.7-1,15.3-2,23-3v17c12.7-1.7,25.3-3.3,38-5l-3-27,13-3,2,27,46-1-8-35,11-5,12,38,25-4-4-19,13-1,4,16h18l-14-42,17-5,14,46,101-10-15-58,19,5,19,39,8-6-7-14,32-17,7,12,42.8-19v-16l20.2-10-15-42,15-7,27,51,129-68-20-42,20-11,23,43,178-97-18-37,8-23,28,51,185-106,127-71-13,16,1,7-110,64-6-7-68,46,5,18-50,30,8,9,48-25,8,17-99,61,37,62,104-62,4,18-96,60,50,86,507-394-32-57,89-50,32,50,123-43,6,12-199,121-506,398,64,109,13-12,56,68,20,2,9-51,31-7,57-76,47-32-2-16,30-24h82l8,3,21-4,32-41-43,35-14-2-16.5-25.9,138.5-177.1,19-13,18-31,46-28-32-50,10-5,21,32,32-20-21-47,132-76,12,19,21-11,139-136-17-44,14-12,62,8,17-14-102-108,3-23,47-9,19,11h25l-27,21,48,51v12.1l9-.1,14,51-26,15,1,17,29-3,26,4v-9.7l-19-9.3,2-23,17-18.5,16,15.5,19-2,20,1,24,18,14,13-29,12-25.1,32.5-40.9-8.5-17,3v22l30-3,14,14,17,29,10-3-2-36,22-33,27-13,26,6,7-11-24-43-3-25,27-38.7-24-15.3-10-24,40-74,19-21,40-14h13.5"/>
      <path class="cls-4" d="m-858.36,781.7c32.7-5.8,58-3.3,75,0,18,3.5,18.2,6.3,90,30,27.7,9.1,39.5,12.6,55,12,3.5-.1,15.2-.8,31,0,14.7.8,20.1,2.1,23,3,13.3,3.9,21.9,11.4,25,14,26.1,21.8,58.1,35.5,86,55,111.6,78.3,263.9,137.1,330,190,5.7,4.5,20.8,17.1,44,23,10.3,2.6,22.3,3.9,54,1,29.6-2.7,51.3-6.7,64-9,56.6-10.1,54.8-6.4,87-13,22.9-4.7,58.3-17.8,129-44,53.1-19.7,64.4-24.9,73-39,13.3-21.9,5-40.7,22-60,8.4-9.5,19.2-15,49-22,61.2-14.5,83.8-7.7,127-18,14.5-3.5,34.7-12.7,75-31,79.3-36.1,82.6-44.2,122-60,17.4-7,23-7.9,149-34,65.1-13.5,94.7-19.7,136-30,76.6-19.1,112-32,142-63,15-15.4,24.3-31,30-42-12.7-32.7-25.3-65.3-38-98-17.3-62.1-35-124.1-53-186-10-34.4-18.9-59.9-23.7-74.5-18.5-56-133.2-398.2-411.3-1226.5"/>
      <path class="cls-4" d="m2996.64-886.3c-53.6,14.3-135.9,36.8-236,67-151.8,45.8-183.5,60.7-352,112-124.3,37.9-226.4,66.2-280,81-48.3,13.4-105.6,28.6-220,59-228.1,60.6-230.4,59.8-286,77-29.9,9.2-73.9,23.3-138,40-48.2,12.6-88,21.4-114,27-22.9,16.8-49.9,40.4-75,73-9.8,12.7-18,25.2-25,37,6.4,22.4,16.5,57.3,29,100,57.4,196.4,61.8,203.6,92,310,38.4,135.1,40.6,156.4,72,255,20.2,63.4,38.5,115,51,149-6.7,16-13.3,32-20,48-64.9,37.2-118.8,64.5-157,83-48.9,23.7-71.8,32.7-136,65-47.9,24.1-52.3,27.7-78,39-20.1,8.8-48.7,20.3-130,44-71.8,20.9-107.7,31.4-157,42-41.3,8.9-74.5,16.9-141,33-16.6,4-45.7,11.3-76,33-15.6,11.1-26.8,22.6-34,31l-35.7-31.1"/>
      <path class="cls-4" d="m1036.24,767l-57.1-184.1-27.5-13.1-85-212-94-290-33-22c-1.8-4.7-30.1-77.9-39-119-1.7-8-3.8-19.7.9-32.6,4.1-11.2,11.5-18.6,16.1-22.4-38.3-126.7-76.7-253.3-115-380"/>
      <path class="cls-4" d="m772.64,67.7c10.2-8.6,23.4-22.7,26-42,2.1-16-5.1-20.3-16-56-7.9-25.7-9.2-40.1-21-68-4.2-9.9-9.1-20.1-20-26-9.1-4.9-18.5-4.7-24-4"/>
      <path class="cls-4" d="m1441.64-869.3c7.4,8.8,18,23.2,25,43,29.6,83.3-34.8,170.5-50,191-12.1,16.3-31.8,39.4-62,62,3.3,12.5,9.5,31.8,22,53,13.3,22.6,20.1,24.2,31,45,14.1,27.1,9,36.6,21,62,8.4,17.7,13.7,19.2,39,50,43.9,53.5,36.2,59.3,65,87,26.9,25.8,37.8,24.8,52,48,12.5,20.4,15.4,39.7,18,58,2.8,19.5,4.8,52.4-6,93-10.4-5.5-21.9-5.6-30,0-8.8,6-10.3,16.6-11,21-2.4,16,5.1,29.5,7,33,14,25.7,32,81.8,68,194,5,15.6,12.6,40.8,20,73-14.1.2-34.5.8-59,3-36.3,3.3-56.3,5.1-76,12-16.9,5.9-49.5,21.1-80,65-32.9,5.3-58.3,13.1-75,19-46.7,16.6-72,35.1-120,36-12.6.2-11-1-24-1-59.7.1-105.5,27-120,35-39.2,21.7-31.1,5.7-244,67-99.8,28.7-104.8,33.1-202,61-79.6,22.9-144.6,39.7-186,50,15,52.3,30,104.7,45,157"/>
      <polyline class="cls-4" points="42.04 -886.3 183.64 -370.1 332.24 129.4 421.94 451.7 468.14 602.9"/>
      <path class="cls-4" d="m-716.96-481.3l37.4,124,16.2,13,53,200,39,136,20,23,32,127,80,291,12,111,59,208-249.5,71.6-53.5-240.5-65-240.1-50-251-72-112.3,10-250.7c2.2-.4,31.3-7.1,72.1-16.7,97.7-23.1,262.8-63.2,288.9-74.3,13.9-5.9,51.9-22.8,106-37,12.1-3.2,56.3-14.5,145-24,90.5-9.7,94.1,2,146-11,33.4-8.4,73.1-23,103-34,24.6-9.1,44.9-17.2,59-23,55-2.3,99.5-1.9,131-1,52.8,1.5,64.7,4.3,87-4,19-7,39.2-19.7,78-32,8.4-2.7,21.1-6.4,36-3,11.8,2.7,20.4,8.7,29,15,14.8,10.7,24.1,21.5,28,26,48,56,54.9,67.6,73,74,10.3,3.7,18.6,3.5,35,3,52.3-1.5,61.2-25.6,101-24,33.3,1.3,58.9,19.5,65,24,23.8,17.4,19.2,27.8,39,39,28.5,16.1,42.5-3,82,12,21.3,8.1,23.9,16.2,48,23,18.1,5.1,34,5.5,45,5,8.4,25.7,20.8,63.8,36,110,29.2,88.7,29,86.9,39,118,24.3,75.4,41.2,134.5,61,204,23.4,82.2,18.1,67.6,37,133,25.4,87.7,44.3,145.7,64,201,6.1,17,11.3,31.1,15,41-9.4,3-23.5,7.4-41,12-25.6,6.8-32.1,7.2-38,14-11.4,13.2-.9,28.1-9,44-10.2,20-40.2,22.6-63,26-42,6.3-80.7,26.8-122,37-127.9,31.5-249.9,77.2-324,105-41.3,15.5-74.4,28.9-94,37,13.3,46.7,26.7,93.3,40,140"/>
      <polyline class="cls-4" points="-858.36 234.3 -735.36 200.7 -611.36 169.7 -488.36 130.7 -430.36 116.7 -278.36 70.7 -159.36 34.7 -21.36 -2.3 118.64 -45.3 320.64 -111.3 549.94 -173.7"/>
      <polyline class="cls-4" points="233.14 -888.3 374.64 -421.3 431.64 -207.3 459.64 -122.3 522.64 73.7"/>
      <path class="cls-4" d="m534.64,117.7c11,43.9,28.5,111.2,53,193,40.7,136.1,49.2,140.5,77,245,18,67.4,26.4,110.6,54,202,10.8,35.9,20.4,65.2,27,85"/>
      <path class="cls-4" d="m507.64,99.7c-.6-1.9-4.1-12.1,2-20,5.9-7.6,16-7.1,18-7,6.4.3,15.3,3.5,19,11,.9,1.9,1.2,3.6,1.4,4.6,1.6,9-3.6,16.8-7.4,22.4-2.8,4.1-4.2,6.2-6,7-8.2,3.7-22.7-5.5-27-18Z"/>
      <polyline class="cls-4" points="454.94 -459.3 464.64 -407.3 497.34 -357.3 567.64 -111.3 621.84 73.7 680.64 239.7 741.64 438.7"/>
      <polyline class="cls-4" points="-236.36 -423.3 -127.86 -97.7 -38.36 212.7 28.64 451.7 74.64 626.7"/>
      <path class="cls-4" d="m-848.36,312.7c23.3-10.3,46.7-20.7,70-31,19.2,10.1,48.5,25.6,84,45,84,45.9,101.8,58.6,135,72,32.3,13,80.9,27.5,147,29l441,24,376-106,50.3,24.7,147.7-48.5,188-52.2,222-53,77-8,120-27,23-39h35.2"/>
      <path class="cls-4" d="m954.64-876.3c-6.1,6.8-13.9,17.4-18,32-5.2,18.3-1.6,32.7,3,54,10.9,50.1,16.3,75.2,18,93,2.7,29,.8,47.5,15,66,3.1,4,3.5,3.5,16,17,9.4,10.1,26.1,28.2,33,38,11.9,17.1,8.7,30.6,11,72,.2,3.7,3.3,56.9,15,113,7.4,35.9,12.8,46.1,12,71-.8,25.4-7.3,46.1-13,60,5.6,23.7,11.6,47.7,18,72,24.2,91.8,51.6,178.2,81,259"/>
      <polyline class="cls-4" points="1111.64 -369.1 1287.64 210.7 1371.64 500.7 1408.54 596"/>
      <polyline class="cls-4" points="-368.36 751.7 46.64 631.7 106.84 626.7 233.24 582.9 598.24 480.2 882.04 396.3 1124.64 326.7 1354.64 257.7 1670.64 163 2011.64 55.7 2037.64 49.7"/>
      <polyline class="cls-4" points="805.74 170 1187.64 57.7 1334.24 16.2 1370.04 22.7 1509.64 -23.3 1727.44 -105.1"/>
      <path class="cls-4" d="m1044.64,286.7c59.5-18.8,108.3-32.3,141-41,176.2-46.7,264.4-70.1,280-73,13.4-2.5,45-8.2,81-28,28.7-15.8,48.8-34.3,61-47"/>
      <polyline class="cls-4" points="-473.36 895.7 42.04 751.7 397.64 659.7 923.64 500 1431.64 352.7 1505.74 286.7 1670.64 163"/>
      <path class="cls-3" d="m-636.46-440.3l236.1-76,32.9-13.4,191.1-49.6,158-43,15,56c-84.7,27.3-169.3,54.7-254,82,7,22.3,14,44.5,21,66.8l-62-192.9,25.1-7.1,65.1,191.6,47.3-1.7,45,143.3L-32.96.8,42.04,266.3"/>
      <polyline class="cls-3" points="-61.36 133 59.94 97.2 303.64 33.4 491.64 -22.6 565.34 -41.6 583.14 -58.3 657.64 -82.3"/>
      <line class="cls-3" x1="-61.36" y1="8.5" x2="10.84" y2="274.6"/>
      <line class="cls-3" x1="-2.46" y1="-9.9" x2="55.64" y2="183.7"/>
      <line class="cls-3" x1="26.64" y1="-17" x2="74.64" y2="151.8"/>
      <line class="cls-3" x1="91.14" y1="89.1" x2="140.04" y2="252.9"/>
      <path class="cls-3" d="m89.64,150.7c-3.7-.8-9.4-1.4-15,1-10.2,4.4-14,16-19,32-2.1,6.8-4.7,16.7-6,29,8,15,16,30,24,45,10.3-2.7,20.7-5.3,31-8,3.7.3,7.3.7,11,1-8.7-33.3-17.3-66.6-26-100Z"/>
      <polyline class="cls-3" points="140.04 -52.3 233.14 238.3 275.84 382.1 333.64 554.7 296.04 565.2 351.94 671.6 397.64 715.7 504.84 730.9 568.64 703.7 615.14 857.5"/>
      <path class="cls-3" d="m976.64,43.7c-28.7-89.3-57.3-178.7-86-268-63.6-209.7-127.1-419.3-190.7-629"/>
      <polyline class="cls-3" points="779.24 -42.2 1105.84 -141.7 1145.64 -141.7 1184.64 -167.3 1303.74 -199.1 1442.64 -238.3 1509.54 -10.3 1567.64 193.9 1583.64 236.7 1576.84 297.2 1607.64 375.6 1634.34 451.7 1670.64 488.7"/>
      <polyline class="cls-3" points="1200.64 241.8 1266.64 459.8 1320.84 639.8"/>
      <polyline class="cls-3" points="510.54 504.9 517.64 534.7 640.14 500.8 673.54 500.8 906.34 421.3 1111.64 355.9 1206.64 326.7 1230.34 339.8 1320.84 311.6 1473.64 262.7 1527.54 241.8 1637.64 262.7 1735.34 473.4"/>
      <path class="cls-3" d="m202.64,59.7c51,163,102,326,153,489"/>
      <line class="cls-3" x1="241.14" y1="49.7" x2="382.14" y2="541"/>
      <polyline class="cls-3" points="196.44 123.8 321.14 92.1 442.64 55.2"/>
      <line class="cls-3" x1="415.04" y1="531.8" x2="272.34" y2="41.6"/>
      <line class="cls-3" x1="387.94" y1="-129.6" x2="476.84" y2="170.6"/>
      <path class="cls-3" d="m415.04-137c29.9,100.2,59.7,200.5,89.6,300.7"/>
      <line class="cls-3" x1="470.64" y1="49.7" x2="510.64" y2="36.4"/>
      <polyline class="cls-3" points="448.64 177.6 360.04 -122 337.54 -193.1 393.64 -208.3 400.44 -220.4 526.54 -255.3"/>
      <polyline class="cls-3" points="247.24 -390.4 328.04 -113.3 418.34 186.1"/>
      <polyline class="cls-3" points="426.14 -453.3 545.14 -35.1 590.14 142.7 671.64 410.7 694.64 405.7 709.44 447.3"/>
      <polyline class="cls-3" points="491.34 358.5 500.44 391.6 530.34 499.4"/>
      <path class="cls-3" d="m522.34,388.3l-21.9,3.3,21.9-3.3Z"/>
      <path class="cls-3" d="m552.84,493c-13.7-46.8-27.5-93.5-41.2-140.3"/>
      <polyline class="cls-3" points="513.54 438.7 475.64 448.7 261.64 518.7 279.14 570"/>
      <line class="cls-3" x1="209.74" y1="402.6" x2="257.44" y2="576.1"/>
      <polyline class="cls-3" points="120.84 425.8 171.14 602.9 217.14 810.2 276.54 797.7"/>
      <polyline class="cls-3" points="90.64 434.3 142.84 614.3 163.04 720.4"/>
      <polyline class="cls-3" points="-10.26 313 109.64 282.7 165.84 286.7 192.64 376.7 21.34 425.8"/>
      <line class="cls-3" x1="175.04" y1="317.5" x2="250.64" y2="297.2"/>
      <polyline class="cls-3" points="200.14 310.8 226.34 396 257.44 387.3 233.54 301.8 215.54 306.7 149.54 73.7 118.64 -45.3 85.54 -35.1 7.14 -319.5"/>
      <polyline class="cls-3" points="122.54 80.8 137.64 136.7 165.24 129.1"/>
      <line class="cls-3" x1="156.34" y1="254.4" x2="74.64" y2="-31.7"/>
      <path class="cls-3" d="m167.64-59.9l31,78.6L266.64-3c-8.6-26.2-17.1-52.6-25.5-79.3-11.5-36.3-22.6-72.3-33.5-108,9-2.7,18-5.3,27-8"/>
      <polyline class="cls-3" points="-856.36 -547.8 -817.96 -449.8 -803.36 -405.8 -726.56 -299.8 -670.36 -135.4 -581.86 160.4 -479.76 421.3 -450.36 392.6 -260.06 336.8 -174.36 323.7 104.64 249.7 171.14 255.8 448.64 177.6 781.64 95.6 934.04 49.7 995.54 40.7 1086.64 7.7 1342.64 -67.9"/>
      <polyline class="cls-3" points="3.54 362.2 -45.16 370 -20.76 449.1"/>
      <polyline class="cls-3" points="49.64 531.8 -111.06 582.9 -154.86 593.3"/>
      <line class="cls-3" x1="42.44" y1="504.4" x2="-48.56" y2="529.4"/>
      <polyline class="cls-3" points="-39.36 447.7 -25.56 474.1 18.64 639.9"/>
      <line class="cls-3" x1="217.14" y1="588.5" x2="321.84" y2="957"/>
      <polygon class="cls-3" points="56.64 1045.7 303.94 957 289.64 906.7 105.44 735.3 -71.86 783.6 56.64 1045.7"/>
      <polyline class="cls-3" points="527.54 810.2 745.64 747.7 870.64 742.7 1149.54 618.7 1514.64 500.7 1610.64 462.7 1727.74 457.2"/>
      <line class="cls-3" x1="1002.64" y1="361.7" x2="1123.64" y2="735.7"/>
      <polyline class="cls-3" points="736.84 556.7 771.64 671.7 771.64 710.8 585.64 759.9"/>
      <line class="cls-3" x1="799.04" y1="534.7" x2="870.64" y2="742.7"/>
      <line class="cls-3" x1="198.64" y1="594.9" x2="252.34" y2="802.8"/>
      <polyline class="cls-3" points="-72.56 1023.1 4.64 1040.7 56.64 1045.7"/>
      <polyline class="cls-3" points="-99.46 791.3 -7.96 1037.9 42.04 1096.8"/>
      <line class="cls-3" x1="-218.96" y1="1038.2" x2="236.74" y2="857.5"/>
      <polyline class="cls-3" points="1237.74 -181.5 1263.04 -99.6 1278.64 -49 1302.14 25.3"/>
      <polyline class="cls-3" points="1254.74 -42 1277.04 32.4 1326.14 208.5 1375.44 195.6 1345.64 100.7 1389.04 90.9 1370.04 22.7 1334.24 16.2 1308.34 -57.8"/>
      <polyline class="cls-3" points="1097.34 142.8 1136.64 136.7 1156.14 192.2"/>
      <line class="cls-3" x1="1173.64" y1="64.7" x2="1209.64" y2="181.7"/>
      <polyline class="cls-3" points="1262.14 445.1 1514.04 361.7 1576.84 297.2 1727.74 208.5 1820.64 200.7"/>
      <line class="cls-3" x1="560.84" y1="217.5" x2="663.84" y2="192.2"/>
      <polyline class="cls-3" points="677.44 121.3 709.44 223.3 737.64 217.5 707.54 113.5"/>
      <line class="cls-3" x1="761.64" y1="277.8" x2="802.54" y2="419.8"/>
      <line class="cls-3" x1="786.34" y1="270.9" x2="830.84" y2="411.4"/>
      <line class="cls-3" x1="728.34" y1="395.4" x2="817.34" y2="368.9"/>
      <line class="cls-3" x1="779.24" y1="-371.5" x2="1002.64" y2="361.7"/>
    </g>
  </g>
</svg>