<?xml version="1.0" encoding="utf-8"?>
<!-- Generator: Adobe Illustrator 27.8.0, SVG Export Plug-In . SVG Version: 6.00 Build 0)  -->
<svg version="1.1" xmlns="http://www.w3.org/2000/svg" xmlns:xlink="http://www.w3.org/1999/xlink" x="0px" y="0px"
	 viewBox="0 0 3840 2160" style="enable-background:new 0 0 3840 2160;" xml:space="preserve">
<style type="text/css">
	.st0{fill:#1D1C1D;}
	.st1{fill:none;stroke:#F2F1ED;stroke-width:2;stroke-miterlimit:10;}
	.st2{fill:none;stroke:#F2F1ED;stroke-width:4;stroke-miterlimit:10;}
</style>
<g id="Layer_2">
</g>
<g id="Layer_3">
	<rect x="-9.5" y="-168.5" class="st0" width="3940" height="2403"/>
</g>
<g id="Layer_4">
	<path class="st1" d="M-18,1190c10.9,27,18.9,52,25,74c8.2,29.6,13,54.9,16,73c3.7,22.5,6.6,47.3,8,74c6.7,8.2,14.2,18.8,21,32
		c8.6,16.6,13.3,32,16,44"/>
	<path class="st2" d="M2.7,1666.9c17.3-5.4,28.3-3,35,0c9.3,4.1,10.4,9.4,30,24c9.4,7,14.2,10.5,20,12c5.2,1.3,13.1,0.9,29,0
		c11.5-0.7,14.3-1.2,20,0c6.7,1.4,12.4,4.2,16,6c9.7,4.8,9.3,6.7,14,8c8.4,2.3,12.1-3.1,26-6c4.5-1,15.7-3.3,27,0
		c10.9,3.2,13.4,9,24,16c13,8.5,23.1,8.8,36,12c39.1,9.8,36.6,30.1,73,40c30.6,8.3,42.5-3.2,59,10c13.4,10.8,9.6,21.7,23,40
		c6.9,9.4,16.7,18.4,52,35c34.9,16.4,62.5,24.9,88,33c80.8,25.7,66.5,23.7,88,29c72.2,17.7,108.3,26.6,149,13
		c23.6-7.9,52.5-24.6,73-13c3.3,1.9,12.5,7.9,27,14c9,3.8,14.9,6.3,22,7c12.4,1.3,19.2-3.7,35-10c5.7-2.3,31.2-12.1,61-15
		c12-1.1,17.5-0.5,32-3c7.2-1.3,16.5-2.9,28-7c0,0,7-2.5,34-16c4.3-1.7,8.7-3.3,13-5c0.5,5.1,0.9,16.2-5,28
		c-6.4,12.8-16.5,19.2-21,22c-7.7,4.7-10.7,5.9-13,6c-7.1,0.3-11.9-4.4-16-7c-6.7-4.3-18.2-7.6-39.5-1.5c-0.5,4.8-1,9.7-1.5,14.5
		c-6.5,1.2-13,2.3-19.5,3.5c-17.8,8.7-31.3,12.1-40.5,13.5c-7,1.1-12.6,2-23,4c-10.2,1.9-10,3.9-17,4c-9.1,0.2-16.5-2.9-19-4
		c-0.8-0.3-4.5-2-9-5c-9.6-6.5-9.5-10.5-15-13c-5.4-2.5-7.1,0.7-22,2c-11,1-21.9,0.3-26,0c-11.3-0.7-14.7-2-16,0
		c-3,4.4,12.4,13.4,12,27c-0.3,13-14.7,21.2-12,25c1.3,1.9,5-0.1,15,0c3.3,0,9.5,0.1,16,2c7.5,2.2,12.5,6,19,11
		c10.2,7.9,8.6,9.6,15,13c9.7,5.1,19.2,4.4,23,4c4.2-0.4,8.7-0.9,13-4c2.7-2,2.9-3.2,6-6c5-4.4,8.8-5.1,12-7c4-2.4,8.4-7.8,10-21
		c-10.8-3.6-15.6-2.1-18,0c-2.6,2.3-2.3,5-7,12c-2.7,4-4.1,6-6,7c-6.7,3.3-17.7,0.3-20-6c-0.8-2.3-0.7-5.5,1-7c1.5-1.3,3.3-0.6,9,0
		c5.8,0.6,9.6,1,10,0c0.5-1.3-5.2-4.1-11-9c-6-5.1-9.8-10.4-12-14c5.2,0.4,12.4,0.8,21,1c5.8,0.1,12.9,0.3,20,0
		c8.1-0.4,19.8-1.5,34-5c6.1,6.6,10.3,12.6,13,17c1.4,2.3,2.9,5.2,6,11c4.2,7.9,4.7,9.5,5,11c0.5,2.7,0.9,7.5-2,14
		c2.9-1.3,6.6-2.8,11-4c2.5-0.7,6.7-1.8,12-2c5-0.2,5.1,0.6,19,2c4.8,0.5,7.9,0.7,12,0c1.2-0.2,3.7-0.7,7-2c10.8-4.2,12.2-9.8,20-12
		c2.8-0.8,2.2,0,12,0c12.4,0,18.6,0,23-2c6.1-2.7,3.8-5.1,17-18c5.9-5.7,6.8-5.8,14-13c6.4-6.5,10.4-7.6,10-10
		c-0.3-2.2-3.4-3.3-15-7c-5.1-1.6-10.4-3.3-16-5c5.6-1.1,12.5-2.9,20-6c6.8-2.8,12.5-6.1,17-9c-2.3-16.7-4.7-33.3-7-50
		c0.4-3.2,1.6-10.2,7-17c3.9-4.9,8.3-7.6,11-9c-0.3-15-0.7-30-1-45c5.6,1.4,13.5,3,23,4c10.9,1.1,22.8,1.2,42-1
		c25-2.9,40.4-4.7,60-12c12.8-4.8,31.8-13.5,52-30c10.3,14.7,20.7,29.3,31,44c-20.7,16-41.3,32-62,48c-0.9,1.3-2.8,4.2-2,7
		c1.3,4.8,9.1,6.2,14,6c6.9-0.3,11.9-4.2,13-5c10.3-7.9,72.2-54.6,157-119c-11.7-19-23.3-38-35-57c8.7-1.3,17.3-2.7,26-4
		c7.3,12,14.7,24,22,36c4,0,8,0,12,0c-7-14-14-28-21-42c29.3-3.3,58.7-6.7,88-10c-1-6-2-12-3-18c7.7-1,15.3-2,23-3
		c0,5.7,0,11.3,0,17c12.7-1.7,25.3-3.3,38-5c-1-9-2-18-3-27l13-3l2,27l46-1l-8-35l11-5l12,38l25-4l-4-19l13-1l4,16h18l-14-42l17-5
		l14,46l101-10l-15-58l19,5l19,39l8-6l-7-14l32-17l7,12l42.8-19v-16l20.2-10l-15-42l15-7l27,51l129-68l-20-42l20-11l23,43l178-97
		l-18-37l8-23l28,51l185-106l127-71l-13,16l1,7l-110,64l-6-7l-68,46l5,18l-50,30l8,9l48-25l8,17l-99,61l37,62l104-62l4,18l-96,60
		l50,86l507-394l-32-57l89-50l32,50l123-43l6,12l-199,121l-506,398l64,109l13-12l56,68l20,2l9-51l31-7l57-76l47-32l-2-16l30-24h82
		l8,3l21-4l32-41l-43,35l-14-2l-16.5-25.9l138.5-177.1l19-13l18-31l46-28l-32-50l10-5l21,32l32-20l-21-47l132-76l12,19l21-11
		l139-136l-17-44l14-12l62,8l17-14l-102-108l3-23l47-9l19,11h25l-27,21l48,51v12.1l9-0.1l14,51l-26,15l1,17l29-3l26,4v-9.7l-19-9.3
		l2-23l17-18.5l16,15.5l19-2l20,1l24,18l14,13l-29,12l-25.1,32.5l-40.9-8.5l-17,3v22l30-3l14,14l17,29l10-3l-2-36l22-33l27-13l26,6
		l7-11l-24-43l-3-25l27-38.7l-24-15.3l-10-24l40-74l19-21l40-14c4.5,0,9,0,13.5,0"/>
	<polyline class="st2" points="2.2,372.4 502.2,216.4 882.2,109.4 1182.2,17.4 1567.2,-75.6 	"/>
	<path class="st2" d="M223.3-63.6l154.9,513l49,157l55,170l38,136l31,95l31,108l40,164l79,284c25.9,105,41.4,154.9,51,181
		c0.2,0.4,5.1,16.9,15,50c9.9,33.1,14.7,49.8,9,59c-5.2,8.3-14.2,10.3-43,16c-30.6,6.1-55.4,10.9-72,14l-108-20l-79-44l-103-77
		l-118-55h-39l-220-47"/>
	<path class="st2" d="M3554.2-63.6c49.6,172,99.2,344.1,148.8,516.1c29.2,93.6,51.7,167.4,67.2,214.9c2.4,7.3,7.7,23.5,2,41
		c-10.7,33-52.5,46.9-75,54c-96.2,30.5-190.4,70.5-290,87c-79.3,13.2-188.5,70.8-407,186c-63.5,33.5-59.4,33.4-329,183
		c-63.3,35.1-115.4,63.9-150,83c12,20.7,24,41.3,36,62c7.2,12.4,14.8,25.6,22,38c12.4-7.3,32.9-19.2,58-34
		c105.4-61.9,274.3-161.1,470-280c28.7-17.4,72.4-44,126-77c-18-30.3-36-60.7-54-91c-14-44.7-28-89.3-42-134
		c16.9-6.5,42.5-16.2,74-27c90.3-31,142.8-42.1,213-61c99.8-26.9,94.1-31.6,259-82c80.2-24.5,146.1-43.2,189-55"/>
	<path class="st2" d="M-7.8,1594.4c32.7-5.8,58-3.3,75,0c18,3.5,18.2,6.3,90,30c27.7,9.1,39.5,12.6,55,12c3.5-0.1,15.2-0.8,31,0
		c14.7,0.8,20.1,2.1,23,3c13.3,3.9,21.9,11.4,25,14c26.1,21.8,58.1,35.5,86,55c111.6,78.3,263.9,137.1,330,190
		c5.7,4.5,20.8,17.1,44,23c10.3,2.6,22.3,3.9,54,1c29.6-2.7,51.3-6.7,64-9c56.6-10.1,54.8-6.4,87-13c22.9-4.7,58.3-17.8,129-44
		c53.1-19.7,64.4-24.9,73-39c13.3-21.9,5-40.7,22-60c8.4-9.5,19.2-15,49-22c61.2-14.5,83.8-7.7,127-18c14.5-3.5,34.7-12.7,75-31
		c79.3-36.1,82.6-44.2,122-60c17.4-7,23-7.9,149-34c65.1-13.5,94.7-19.7,136-30c76.6-19.1,112-32,142-63c15-15.4,24.3-31,30-42
		c-12.7-32.7-25.3-65.3-38-98c-17.3-62.1-35-124.1-53-186c-10-34.4-18.9-59.9-23.7-74.5c-18.5-56-133.2-398.2-411.3-1226.5"/>
	<path class="st2" d="M3847.2-73.6c-53.6,14.3-135.9,36.8-236,67c-151.8,45.8-183.5,60.7-352,112c-124.3,37.9-226.4,66.2-280,81
		c-48.3,13.4-105.6,28.6-220,59c-228.1,60.6-230.4,59.8-286,77c-29.9,9.2-73.9,23.3-138,40c-48.2,12.6-88,21.4-114,27
		c-22.9,16.8-49.9,40.4-75,73c-9.8,12.7-18,25.2-25,37c6.4,22.4,16.5,57.3,29,100c57.4,196.4,61.8,203.6,92,310
		c38.4,135.1,40.6,156.4,72,255c20.2,63.4,38.5,115,51,149c-6.7,16-13.3,32-20,48c-64.9,37.2-118.8,64.5-157,83
		c-48.9,23.7-71.8,32.7-136,65c-47.9,24.1-52.3,27.7-78,39c-20.1,8.8-48.7,20.3-130,44c-71.8,20.9-107.7,31.4-157,42
		c-41.3,8.9-74.5,16.9-141,33c-16.6,4-45.7,11.3-76,33c-15.6,11.1-26.8,22.6-34,31l-35.7-31.1"/>
	<path class="st2" d="M2501.2-63.6c-27.7,128.7-55.3,257.3-83,386c30,47.4,60.1,96.4,90,147c20.3,34.3,40,68.3,59,102
		c-4.3,21.3-8.7,42.7-13,64c3.5,10.4,8.8,26,15,45c22.6,69.2,37.6,120.8,45,146c12.6,42.9,31.2,105.4,57,187c16-1.1,39.7-3.4,68-9
		c57.2-11.3,97.9-28.9,110-34c43.5-18.3,120.8-43.7,269-76c8.3-16.3,16.7-32.7,25-49c48-11.7,96-23.3,144-35l120-38l35-52l119-34
		l15.1-17.5l-3.1-27.5l68-163l121-139l49-54l49,6"/>
	<polyline class="st2" points="-7.8,734.6 242.2,658.4 292.2,650.4 322.2,622.4 645.2,543.4 682.4,543.4 1052.2,437.4 1453.2,304.4 
		1320.2,-168.6 	"/>
	<path class="st2" d="M1886.8,1579.7l-57.1-184.1l-27.5-13.1l-85-212l-94-290l-33-22c-1.8-4.7-30.1-77.9-39-119
		c-1.7-8-3.8-19.7,0.9-32.6c4.1-11.2,11.5-18.6,16.1-22.4c-38.3-126.7-76.7-253.3-115-380"/>
	<path class="st2" d="M1623.2,880.4c10.2-8.6,23.4-22.7,26-42c2.1-16-5.1-20.3-16-56c-7.9-25.7-9.2-40.1-21-68
		c-4.2-9.9-9.1-20.1-20-26c-9.1-4.9-18.5-4.7-24-4"/>
	<path class="st2" d="M2292.2-56.6c7.4,8.8,18,23.2,25,43c29.6,83.3-34.8,170.5-50,191c-12.1,16.3-31.8,39.4-62,62
		c3.3,12.5,9.5,31.8,22,53c13.3,22.6,20.1,24.2,31,45c14.1,27.1,9,36.6,21,62c8.4,17.7,13.7,19.2,39,50c43.9,53.5,36.2,59.3,65,87
		c26.9,25.8,37.8,24.8,52,48c12.5,20.4,15.4,39.7,18,58c2.8,19.5,4.8,52.4-6,93c-10.4-5.5-21.9-5.6-30,0c-8.8,6-10.3,16.6-11,21
		c-2.4,16,5.1,29.5,7,33c14,25.7,32,81.8,68,194c5,15.6,12.6,40.8,20,73c-14.1,0.2-34.5,0.8-59,3c-36.3,3.3-56.3,5.1-76,12
		c-16.9,5.9-49.5,21.1-80,65c-32.9,5.3-58.3,13.1-75,19c-46.7,16.6-72,35.1-120,36c-12.6,0.2-11-1-24-1c-59.7,0.1-105.5,27-120,35
		c-39.2,21.7-31.1,5.7-244,67c-99.8,28.7-104.8,33.1-202,61c-79.6,22.9-144.6,39.7-186,50c15,52.3,30,104.7,45,157"/>
	<path class="st2" d="M1565.2,387.4c45.3-11.3,90.7-22.7,136-34c5.5,8.2,8.3,15.5,10,21c3.5,11.7,1.4,15,6,24
		c4.8,9.3,11.8,15.2,14,17c0,0,4.2,3.4,9,6c49.7,26.7,190,23,190,23c50.9-1.3,76.3-2,94-1c52.2,3,94.4,11.9,122,19
		c16.7,10,33.3,20,50,30c14-1,28-2,42-3c16.3,8,33,16,50,24c27.1,12.7,53.8,24.7,80,36c13.7,2.7,27.3,5.3,41,8"/>
	<line class="st2" x1="3249.4" y1="-63.6" x2="3522.3" y2="821.1"/>
	<path class="st2" d="M3382.3,367.4c6-5.1,15.6-12.2,28.9-16.9c17.4-6.2,27-3.2,43-9c6.4-2.3,15.9-6.8,32-22
		c29.3-27.7,38.9-51.7,57-77c0,0,16.9-23.7,61-60c82.6-68,237.5-78.7,259-80"/>
	<polyline class="st2" points="2660.3,-73.6 2847.2,514.4 2794.2,533.4 2888.2,862.4 2945.7,1039.4 3007.1,1148 	"/>
	<polyline class="st2" points="892.6,-73.6 1034.2,442.6 1182.8,942.1 1272.5,1264.4 1318.7,1415.6 	"/>
	<path class="st2" d="M761.2-75.6c41.9,6.6,58.6,21.9,66,35c6.8,11.9,3.9,18.5,11,72c5.3,39.3,8.7,46,12,51
		c12.1,18.2,27.8,20.2,51,34c16.1,9.6,37.9,26.1,59,56"/>
	<path class="st2" d="M133.6,331.4l37.4,124l16.2,13l53,200l39,136l20,23l32,127l80,291l12,111l59,208l-249.5,71.6l-53.5-240.5
		l-65-240.1l-50-251l-72-112.3l10-250.7c2.2-0.4,31.3-7.1,72.1-16.7c97.7-23.1,262.8-63.2,288.9-74.3c13.9-5.9,51.9-22.8,106-37
		c12.1-3.2,56.3-14.5,145-24c90.5-9.7,94.1,2,146-11c33.4-8.4,73.1-23,103-34c24.6-9.1,44.9-17.2,59-23c55-2.3,99.5-1.9,131-1
		c52.8,1.5,64.7,4.3,87-4c19-7,39.2-19.7,78-32c8.4-2.7,21.1-6.4,36-3c11.8,2.7,20.4,8.7,29,15c14.8,10.7,24.1,21.5,28,26
		c48,56,54.9,67.6,73,74c10.3,3.7,18.6,3.5,35,3c52.3-1.5,61.2-25.6,101-24c33.3,1.3,58.9,19.5,65,24c23.8,17.4,19.2,27.8,39,39
		c28.5,16.1,42.5-3,82,12c21.3,8.1,23.9,16.2,48,23c18.1,5.1,34,5.5,45,5c8.4,25.7,20.8,63.8,36,110c29.2,88.7,29,86.9,39,118
		c24.3,75.4,41.2,134.5,61,204c23.4,82.2,18.1,67.6,37,133c25.4,87.7,44.3,145.7,64,201c6.1,17,11.3,31.1,15,41
		c-9.4,3-23.5,7.4-41,12c-25.6,6.8-32.1,7.2-38,14c-11.4,13.2-0.9,28.1-9,44c-10.2,20-40.2,22.6-63,26c-42,6.3-80.7,26.8-122,37
		c-127.9,31.5-249.9,77.2-324,105c-41.3,15.5-74.4,28.9-94,37c13.3,46.7,26.7,93.3,40,140"/>
	<path class="st2" d="M69.2,528.4c4,37,15,56,15,56l15,47l48,159l49,164l12.2,35.8"/>
	<polyline class="st2" points="-7.8,1047 115.2,1013.4 239.2,982.4 362.2,943.4 420.2,929.4 572.2,883.4 691.2,847.4 829.2,810.4 
		969.2,767.4 1171.2,701.4 1400.5,639 	"/>
	<polyline class="st2" points="1083.7,-75.6 1225.2,391.4 1282.2,605.4 1310.2,690.4 1373.2,886.4 	"/>
	<path class="st2" d="M1385.2,930.4c11,43.9,28.5,111.2,53,193c40.7,136.1,49.2,140.5,77,245c18,67.4,26.4,110.6,54,202
		c10.8,35.9,20.4,65.2,27,85"/>
	<path class="st2" d="M1358.2,912.4c-0.6-1.9-4.1-12.1,2-20c5.9-7.6,16-7.1,18-7c6.4,0.3,15.3,3.5,19,11c0.9,1.9,1.2,3.6,1.4,4.6
		c1.6,9-3.6,16.8-7.4,22.4c-2.8,4.1-4.2,6.2-6,7C1377,934.1,1362.5,924.9,1358.2,912.4z"/>
	<polyline class="st2" points="1305.5,353.4 1315.2,405.4 1347.9,455.4 1418.2,701.4 1472.4,886.4 1531.2,1052.4 1592.2,1251.4 	"/>
	<polyline class="st2" points="614.2,389.4 722.7,715 812.2,1025.4 879.2,1264.4 925.2,1439.4 	"/>
	<path class="st2" d="M2.2,1125.4c23.3-10.3,46.7-20.7,70-31c19.2,10.1,48.5,25.6,84,45c84,45.9,101.8,58.6,135,72
		c32.3,13,80.9,27.5,147,29l441,24l376-106l50.3,24.7l147.7-48.5l188-52.2l222-53l77-8l120-27l23-39h35.2"/>
	<path class="st2" d="M1805.2-63.6c-6.1,6.8-13.9,17.4-18,32c-5.2,18.3-1.6,32.7,3,54c10.9,50.1,16.3,75.2,18,93
		c2.7,29,0.8,47.5,15,66c3.1,4,3.5,3.5,16,17c9.4,10.1,26.1,28.2,33,38c11.9,17.1,8.7,30.6,11,72c0.2,3.7,3.3,56.9,15,113
		c7.4,35.9,12.8,46.1,12,71c-0.8,25.4-7.3,46.1-13,60c5.6,23.7,11.6,47.7,18,72c24.2,91.8,51.6,178.2,81,259"/>
	<polyline class="st2" points="1962.2,443.6 2138.2,1023.4 2222.2,1313.4 2259.1,1408.7 	"/>
	<polyline class="st2" points="482.2,1564.4 897.2,1444.4 957.4,1439.4 1083.8,1395.6 1448.8,1292.9 1732.6,1209 1975.2,1139.4 
		2205.2,1070.4 2521.2,975.7 2862.2,868.4 2888.2,862.4 	"/>
	<polyline class="st2" points="1656.3,982.7 2038.2,870.4 2184.8,828.9 2220.6,835.4 2360.2,789.4 2578,707.6 	"/>
	<path class="st2" d="M1895.2,1099.4c59.5-18.8,108.3-32.3,141-41c176.2-46.7,264.4-70.1,280-73c13.4-2.5,45-8.2,81-28
		c28.7-15.8,48.8-34.3,61-47"/>
	<polyline class="st2" points="377.2,1708.4 892.6,1564.4 1248.2,1472.4 1774.2,1312.7 2282.2,1165.4 2356.3,1099.4 2521.2,975.7 	
		"/>
	<path class="st2" d="M3176.6,100.5"/>
	<polyline class="st1" points="196.2,311.9 237.2,450.4 256.2,455.4 263.4,478.6 	"/>
	<path class="st1" d="M214.1,372.4l236.1-76l32.9-13.4l191.1-49.6l158-43l15,56c-84.7,27.3-169.3,54.7-254,82
		c7,22.3,14,44.5,21,66.8l-62-192.9l25.1-7.1l65.1,191.6l47.3-1.7l45,143.3l82.9,285.1l75,265.5"/>
	<line class="st1" x1="205.9" y1="344.8" x2="438.2" y2="272.4"/>
	<polyline class="st1" points="47.2,-28.6 152.6,325.5 178,317.6 78.2,-34.6 61.5,-73.6 106,-75.6 206.6,308.6 244.3,296.9 
		154.6,-18.9 136.2,-83.6 185.2,-94.6 205.9,-35.7 249.2,134.4 270.2,128.4 291.2,203.4 245.2,220.4 268.1,289.5 	"/>
	<polyline class="st1" points="250.3,-63.6 347,264.9 374.9,256.1 282.2,-70.6 312.6,-63.6 402.5,247.6 433,238 345,-63.6 
		433,-63.6 433,-35.9 371.2,-21.6 398.2,76.4 464.2,55.4 486.3,141.2 505.5,215.5 	"/>
	<polyline class="st1" points="577.3,195.3 556.2,120.4 486.3,141.2 	"/>
	<path class="st1" d="M510.2,134.4c-12.3-44.3-24.7-88.7-37-133"/>
	<line class="st1" x1="531.8" y1="127.7" x2="494.2" y2="-4.6"/>
	<polyline class="st1" points="433,-35.9 443.2,-7.6 449.2,9.4 503.2,-6.6 537.2,-18.6 523.2,-59.6 	"/>
	<line class="st1" x1="560.2" y1="-52.6" x2="629.1" y2="180.7"/>
	<line class="st1" x1="616.2" y1="-43.6" x2="677.2" y2="167.2"/>
	<line class="st1" x1="648.5" y1="-59.6" x2="706.2" y2="157.9"/>
	<polyline class="st1" points="600.3,83.4 555.8,97.2 583.7,190.4 	"/>
	<line class="st1" x1="765.8" y1="-63.6" x2="822.3" y2="126.3"/>
	<path class="st1" d="M531.2,400.4c42.3,140,84.7,280,127,420V843l56.7,204l63.7,212l57,203.3"/>
	<line class="st1" x1="438.2" y1="422.4" x2="577.8" y2="881.8"/>
	<polyline class="st1" points="450.8,591 518.2,783.4 548.8,890.5 621.6,1144.8 652.2,1252.4 721,1495.4 	"/>
	<polyline class="st1" points="486.6,792.3 636,746.4 663.7,738.5 	"/>
	<polyline class="st1" points="608.7,552.4 685.2,811.4 696.4,846.1 769.7,1111.6 802.1,1103.1 727,837.8 638.8,545 	"/>
	<polyline class="st1" points="604.8,647.5 670.2,628.4 692.3,623.7 	"/>
	<line class="st1" x1="658.2" y1="820.4" x2="716.5" y2="802.8"/>
	<line class="st1" x1="3259.5" y1="742.6" x2="3007.1" y2="-73.6"/>
	<polyline class="st1" points="3090.2,-48.6 3126.2,65.4 3149.1,138.3 3210.3,120.2 3150.3,-85.8 	"/>
	<polyline class="st1" points="3324.8,-63.6 3369,71.1 3452.4,43.8 3406.2,-79.6 3484.2,-85.6 3515.2,23.3 	"/>
	<path class="st1" d="M2822.2,631.4"/>
	<path class="st1" d="M3858.2,224.4c-15,8.2-32.8,19.5-51,35c-14.2,12.1-25.8,24.1-35,35c-10.8,2.6-21.8,5.6-33,9
		c-62.1,18.7-115.1,44.8-159,72c0.3,4.3,0.7,8.7,1,13c-57.7,20.7-115.6,40.9-173.6,60.7c-193.4,65.9-388.5,126.7-585.4,182.3"/>
	<path class="st1" d="M821.7,359.4"/>
	<polyline class="st1" points="789.2,945.7 910.5,909.9 1154.2,846.1 1342.2,790.1 1415.9,771.1 1433.7,754.4 1508.2,730.4 	"/>
	<line class="st1" x1="789.2" y1="821.2" x2="861.4" y2="1087.3"/>
	<line class="st1" x1="848.1" y1="802.8" x2="906.2" y2="996.4"/>
	<line class="st1" x1="877.2" y1="795.7" x2="925.2" y2="964.5"/>
	<line class="st1" x1="941.7" y1="901.8" x2="990.6" y2="1065.6"/>
	<path class="st1" d="M940.2,963.4c-3.7-0.8-9.4-1.4-15,1c-10.2,4.4-14,16-19,32c-2.1,6.8-4.7,16.7-6,29c8,15,16,30,24,45
		c10.3-2.7,20.7-5.3,31-8c3.7,0.3,7.3,0.7,11,1C957.5,1030.1,948.9,996.8,940.2,963.4z"/>
	<polyline class="st1" points="990.6,760.4 1083.7,1051 1126.4,1194.8 1184.2,1367.4 1146.6,1377.9 1202.5,1484.3 1248.2,1528.4 
		1355.4,1543.6 1419.2,1516.4 1465.7,1670.2 	"/>
	<polyline class="st1" points="1448.8,293.9 1656.3,230.8 1724.2,199.4 1859.2,173.4 1939.3,173.4 1971.2,136.4 1917,-56.6 	"/>
	<path class="st1" d="M1827.2,856.4c-28.7-89.3-57.3-178.7-86-268c-63.6-209.7-127.1-419.3-190.7-629"/>
	<polyline class="st1" points="1629.8,770.5 1956.4,671 1996.2,671 2035.2,645.4 2154.3,613.6 2293.2,574.4 2360.1,802.4 
		2418.2,1006.6 2434.2,1049.4 2427.4,1109.9 2458.2,1188.3 2484.9,1264.4 2521.2,1301.4 	"/>
	<polyline class="st1" points="1657.8,313.5 1731.2,290.4 1748.9,293.9 1768.5,283 1805.2,276.4 1818.2,265.4 1942.6,280.1 
		1987.2,349.3 2115.2,307.4 2138.4,307.4 2168.2,332.4 2188.6,416.2 	"/>
	<polyline class="st1" points="3434.5,49.6 3474.2,172.4 3249.4,234.9 3385.9,707.5 	"/>
	<line class="st1" x1="3408.9" y1="701.5" x2="3324.8" y2="392.5"/>
	<line class="st1" x1="3350.2" y1="387.4" x2="3429.7" y2="696"/>
	<line class="st1" x1="2848.9" y1="221.6" x2="2767.1" y2="-63.6"/>
	<line class="st1" x1="2960.7" y1="191.5" x2="2881.2" y2="-102.6"/>
	<path class="st1" d="M3382.2,366.4c-10.7,7-21.3,14-32,21c-8.3,1.7-16.7,3.3-25,5c-9,3.7-18,7.3-27,11"/>
	<line class="st1" x1="3156.3" y1="409.1" x2="3288.6" y2="370.6"/>
	<line class="st1" x1="3183.2" y1="401.2" x2="3217" y2="512.2"/>
	<line class="st1" x1="3208.4" y1="393.9" x2="3240.8" y2="504.6"/>
	<line class="st1" x1="3230.6" y1="387.4" x2="3265.7" y2="496.5"/>
	<line class="st1" x1="3259.5" y1="379" x2="3291.9" y2="487.9"/>
	<polyline class="st1" points="3163.9,433.5 3036.2,466.4 3065.6,559.8 3137.2,785.4 3072.2,802.4 2969.2,460.4 2911.2,477.2 
		2911.2,489.4 2847.2,514.4 2856.2,545.4 2801.9,560.5 2807.8,581 2560.6,654.6 	"/>
	<polyline class="st1" points="3100,450 3126.6,540.9 3199,762.7 	"/>
	<line class="st1" x1="3108.4" y1="478.7" x2="3172.2" y2="460.4"/>
	<line class="st1" x1="3116.5" y1="506.4" x2="3181.2" y2="486.4"/>
	<polyline class="st1" points="2543.5,529.9 2826.9,450.4 2835.8,478.7 2560.6,559.9 	"/>
	<line class="st1" x1="2560.6" y1="593.4" x2="2845" y2="507.4"/>
	<path class="st1" d="M2554.2,635.4c82-27.3,164-54.7,246-82"/>
	<polyline class="st1" points="2647.9,274.9 2833.7,877.4 2904.6,1088.2 	"/>
	<polyline class="st1" points="2796.3,540.9 2707.7,259.1 2670.2,116.4 2715.7,100.5 	"/>
	<line class="st1" x1="2488.7" y1="436.7" x2="2680.8" y2="381.6"/>
	<line class="st1" x1="2571.6" y1="295" x2="2606.9" y2="402.8"/>
	<line class="st1" x1="2668.4" y1="341.3" x2="2727.9" y2="323.4"/>
	<path class="st1" d="M476.1,1240.8L391,936.5l-49-136.3l23-7l44,136.3l29.2-5.4l-51.8-137.3l30.6-9.3L460,917.4l32.3-9.8
		c-15.7-46.4-31.4-92.8-47.1-139.2"/>
	<polyline class="st1" points="420.2,929.4 511.2,1244.4 590.5,1533.1 	"/>
	<line class="st1" x1="88" y1="705.4" x2="180.2" y2="997.2"/>
	<line class="st1" x1="137.6" y1="862.4" x2="476.1" y2="759.4"/>
	<polyline class="st1" points="313.7,808.8 359.7,946.3 444.3,1240.8 	"/>
	<line class="st1" x1="892.6" y1="619.6" x2="1072" y2="569.7"/>
	<polyline class="st1" points="2051.2,1054.5 2117.2,1272.5 2171.4,1452.5 	"/>
	<polyline class="st1" points="1361.1,1317.6 1368.2,1347.4 1490.7,1313.5 1524.1,1313.5 1756.9,1234 1962.2,1168.6 2057.2,1139.4 
		2080.9,1152.5 2171.4,1124.3 2324.2,1075.4 2378.1,1054.5 2488.2,1075.4 2585.9,1286.1 	"/>
	<line class="st1" x1="2881.2" y1="614.6" x2="2974.2" y2="929.3"/>
	<path class="st1" d="M-7.8,1379.7l300-77.3l85,287.5l-144.5,46.1c-15.8-71.5-31.7-143.1-47.5-214.6c69.7-16.3,139.3-32.7,209-49
		c19.4,66.9,38.7,133.7,58.1,200.6"/>
	<polyline class="st1" points="-25.8,1542.4 101.2,1521.4 146.8,1469.3 192.6,1455.8 	"/>
	<polyline class="st1" points="192.6,1634.8 67.2,1200.4 2.2,1226.6 	"/>
	<path class="st1" d="M-3.8,1126.4c10.9,27,18.9,52,25,74c8.2,29.6,13,54.9,16,73c3.7,22.5,6.6,47.3,8,74c6.7,8.2,14.2,18.8,21,32
		c8.6,16.6,13.3,32,16,44"/>
	<line class="st1" x1="-15.6" y1="1455.8" x2="177.8" y2="1390.4"/>
	<line class="st1" x1="154.9" y1="1504.2" x2="199.4" y2="1492.7"/>
	<line class="st1" x1="163.7" y1="1534.7" x2="206.2" y2="1524.6"/>
	<polyline class="st1" points="429.2,1377.6 541.6,1355.2 570.6,1460.6 461.4,1491 	"/>
	<line class="st1" x1="2891.9" y1="210.1" x2="2960.7" y2="462.9"/>
	<line class="st1" x1="2794.6" y1="348.9" x2="2921" y2="313.7"/>
	<line class="st1" x1="2891.9" y1="321.8" x2="2937.6" y2="469.6"/>
	<path class="st1" d="M1053.2,872.4c51,163,102,326,153,489"/>
	<line class="st1" x1="1091.7" y1="862.4" x2="1232.7" y2="1353.7"/>
	<polyline class="st1" points="1047,936.5 1171.7,904.8 1293.2,867.9 	"/>
	<line class="st1" x1="1265.6" y1="1344.5" x2="1122.9" y2="854.3"/>
	<line class="st1" x1="635.5" y1="1327.3" x2="670.8" y2="1317.9"/>
	<polyline class="st1" points="755.7,1182.7 670.8,1208.2 675.2,1221.4 696,1234 763.2,1483.2 	"/>
	<polyline class="st1" points="2242.2,909.4 2424.8,862.4 2488.2,837.4 2554.2,833.4 2627,802.4 2762.2,763.4 2800.2,763.4 
		2850,728.7 2909.8,711.5 3036.4,683.7 3098.3,662.8 3203.6,631.4 3360,618 3468.2,589.4 3610.3,552.6 3633.2,562.4 3729.2,536.7 	
		"/>
	<polyline class="st1" points="2955.5,701.5 3023.3,916.5 3043.5,911.6 3012.2,816.4 3044.1,809 3072.2,802.4 3100,898.5 
		3070.5,905.2 3001.3,691.5 	"/>
	<line class="st1" x1="2230" y1="592.3" x2="2344.2" y2="979.1"/>
	<polyline class="st1" points="2163.2,643.7 2197.2,636.4 2254.9,824.1 	"/>
	<line class="st1" x1="2211.3" y1="682.4" x2="2316.2" y2="652.8"/>
	<line class="st1" x1="2219.1" y1="707.6" x2="2323.8" y2="678.7"/>
	<line class="st1" x1="2226" y1="730.3" x2="2330.6" y2="701.7"/>
	<line class="st1" x1="2239.6" y1="774.3" x2="2344.2" y2="744.4"/>
	<line class="st1" x1="1981.5" y1="507.2" x2="2121.2" y2="499.4"/>
	<polyline class="st1" points="1540.3,592.3 1910.2,492.4 1941.9,589.1 2001.9,574.4 	"/>
	<path class="st1" d="M1453.2,322.1"/>
	<polyline class="st1" points="1458.5,322.1 1619.7,276 1648.6,283 1834.2,226.4 1864.4,226.4 	"/>
	<polyline class="st1" points="1549.2,723.6 1508.2,730.4 1379.7,328.8 	"/>
	<path class="st1" d="M1178.6,699.4"/>
	<line class="st1" x1="1238.5" y1="683.1" x2="1327.4" y2="983.3"/>
	<path class="st1" d="M1265.6,675.7c29.9,100.2,59.7,200.5,89.6,300.7"/>
	<line class="st1" x1="1200.2" y1="771.1" x2="1324.4" y2="734.6"/>
	<line class="st1" x1="1321.2" y1="862.4" x2="1361.2" y2="849.1"/>
	<polyline class="st1" points="1299.2,990.3 1210.6,690.7 1188.1,619.6 1244.2,604.4 1251,592.3 1377.1,557.4 	"/>
	<polyline class="st1" points="1400.5,639 1439.2,626.4 1471,742.4 	"/>
	<polyline class="st1" points="1262.3,542.4 1206.2,557.4 1162.2,400.4 	"/>
	<polyline class="st1" points="1097.8,422.3 1178.6,699.4 1268.9,998.8 	"/>
	<line class="st1" x1="1062.3" y1="434.1" x2="1143.3" y2="710.6"/>
	<line class="st1" x1="1066.8" y1="552.4" x2="1194.3" y2="509.9"/>
	<path class="st1" d="M1276.7,585"/>
	<polyline class="st1" points="1276.7,359.4 1395.7,777.6 1440.7,955.4 1522.2,1223.4 1545.2,1218.4 1560,1260 	"/>
	<polyline class="st1" points="2013.2,340.8 2010.2,280.1 2030.2,246.4 2075.5,78.9 2062.2,-19.6 	"/>
	<line class="st1" x1="1797.6" y1="56.5" x2="2162.2" y2="-49.6"/>
	<polyline class="st1" points="1732.7,257.4 1774.2,384.4 1796.2,388.4 1903.4,444.6 	"/>
	<polyline class="st1" points="1784.6,526.3 1769.2,463.4 1883.2,308.4 	"/>
	<polyline class="st1" points="1341.9,1171.2 1351,1204.3 1380.9,1312.1 	"/>
	<path class="st1" d="M1372.9,1201l-21.9,3.3L1372.9,1201z"/>
	<path class="st1" d="M1403.4,1305.7c-13.7-46.8-27.5-93.5-41.2-140.3"/>
	<polyline class="st1" points="1364.1,1251.4 1326.2,1261.4 1112.2,1331.4 1129.7,1382.7 	"/>
	<line class="st1" x1="1060.3" y1="1215.3" x2="1108" y2="1388.8"/>
	<polyline class="st1" points="971.4,1238.5 1021.7,1415.6 1067.7,1622.9 1127.1,1610.4 	"/>
	<polyline class="st1" points="941.2,1247 993.4,1427 1013.6,1533.1 	"/>
	<polyline class="st1" points="840.3,1125.7 960.2,1095.4 1016.4,1099.4 1043.2,1189.4 871.9,1238.5 	"/>
	<line class="st1" x1="1025.6" y1="1130.2" x2="1101.2" y2="1109.9"/>
	<polyline class="st1" points="1050.7,1123.5 1076.9,1208.7 1108,1200 1084.1,1114.5 1066.1,1119.4 1000.1,886.4 969.2,767.4 
		936.1,777.6 857.7,493.2 	"/>
	<polyline class="st1" points="973.1,893.5 988.2,949.4 1015.8,941.8 	"/>
	<line class="st1" x1="1006.9" y1="1067.1" x2="925.2" y2="781"/>
	<path class="st1" d="M1018.2,752.8l31,78.6l68-21.7c-8.6-26.2-17.1-52.6-25.5-79.3c-11.5-36.3-22.6-72.3-33.5-108
		c9-2.7,18-5.3,27-8"/>
	<polyline class="st1" points="916.8,476.3 966.1,652.1 1029.1,635.6 978.1,458.7 	"/>
	<line class="st1" x1="676.6" y1="576.6" x2="866.7" y2="525.7"/>
	<path class="st1" d="M768,643.1"/>
	<line class="st1" x1="889.5" y1="608.6" x2="768" y2="643.1"/>
	<polyline class="st1" points="433,238 443.4,298.6 476.7,411.5 	"/>
	<polyline class="st1" points="150,506.7 164.2,552.4 184.2,604.4 404.9,535 	"/>
	<line class="st1" x1="88" y1="604.4" x2="-7.8" y2="634.8"/>
	<polyline class="st1" points="2715.2,1194 2778.4,1284.3 2907,1207.9 2858.6,1114 2904.6,1088.2 2961.8,1175.2 	"/>
	<polyline class="st1" points="3673,442 3739.9,682.4 3735.3,707.5 3673,738.1 3631.7,631.4 3601.3,641.2 3637,751.4 3512.3,788.8 	
		"/>
	<polyline class="st1" points="3719.8,126.7 3772.2,294.4 3842.2,367.4 3847.2,255.7 3847.2,176.7 3852.5,-23.1 3601.5,100.5 	"/>
	<polyline class="st1" points="3236,112.5 3252,166.2 3156.3,195.5 3139.2,191.5 3093.3,205.3 2906.1,262.3 2778.8,299.2 	"/>
	<polyline class="st1" points="1377.1,48.4 1528.2,3.5 1565.2,113.7 1793.9,39.5 2089.6,-49.6 	"/>
	<polyline class="st1" points="1784.6,-10.8 1577.5,48.4 1559.5,-10.8 1672.1,-40.6 1747.6,194.9 1784.6,241.6 1827.2,384.6 
		1886.8,389.4 1947.2,380.4 2026,372.4 2057.1,372.4 2089.6,372.4 2100.1,400.4 2179.3,378 	"/>
	<polyline class="st1" points="982.9,-49.6 1047,195.3 973.1,220.1 	"/>
	<polyline class="st1" points="1183.4,-40.6 1238.5,148.4 1305.5,160.6 1324.4,190.4 1315.2,283 1341.2,340.8 	"/>
	<line class="st1" x1="2.2" y1="118.7" x2="63" y2="353.4"/>
	<polyline class="st1" points="-5.8,264.9 32.6,362.9 47.2,406.9 124,512.9 180.2,677.3 268.7,973.1 370.8,1234 400.2,1205.3 
		590.5,1149.5 676.2,1136.4 955.2,1062.4 1021.7,1068.5 1299.2,990.3 1632.2,908.3 1784.6,862.4 1846.1,853.4 1937.2,820.4 
		2193.2,744.8 	"/>
	<polyline class="st1" points="614.2,1529.6 640.7,1634.8 721,1871.9 	"/>
	<polyline class="st1" points="645.9,1517.1 670.8,1626.4 751.1,1865.8 	"/>
	<line class="st1" x1="698.5" y1="1564.4" x2="590.5" y2="1596.4"/>
	<path class="st1" d="M559.2,1618.4"/>
	<polyline class="st1" points="570.6,1542.4 607.9,1644 692.7,1877.4 	"/>
	<polyline class="st1" points="276.9,1643.7 499.9,1585.6 542.2,1591.4 559.2,1634.8 350.2,1691.4 	"/>
	<line class="st1" x1="494.6" y1="1675.7" x2="531" y2="1798.3"/>
	<line class="st1" x1="531" y1="1665.5" x2="570.6" y2="1818.8"/>
	<line class="st1" x1="565.1" y1="1655.9" x2="614.2" y2="1841.5"/>
	<line class="st1" x1="589.7" y1="1649.1" x2="653.1" y2="1862.9"/>
	<line class="st1" x1="2.2" y1="909.9" x2="40.1" y2="1033.9"/>
	<polyline class="st1" points="755.9,830.1 777.9,906.4 608.7,954.2 639.2,1056.4 805.4,1002 	"/>
	<polyline class="st1" points="854.1,1174.9 805.4,1182.7 829.8,1261.8 	"/>
	<polyline class="st1" points="900.2,1344.5 739.5,1395.6 695.7,1406 	"/>
	<line class="st1" x1="893" y1="1317.1" x2="802" y2="1342.1"/>
	<polyline class="st1" points="811.2,1260.4 825,1286.8 869.2,1452.6 	"/>
	<line class="st1" x1="1067.7" y1="1401.2" x2="1172.4" y2="1769.7"/>
	<polygon class="st1" points="907.2,1858.4 1154.5,1769.7 1140.2,1719.4 956,1548 778.7,1596.3 	"/>
	<polyline class="st1" points="1378.1,1622.9 1596.2,1560.4 1721.2,1555.4 2000.1,1431.4 2365.2,1313.4 2461.2,1275.4 
		2578.3,1269.9 	"/>
	<line class="st1" x1="1853.2" y1="1174.4" x2="1974.2" y2="1548.4"/>
	<polyline class="st1" points="1587.4,1369.4 1622.2,1484.4 1622.2,1523.5 1436.2,1572.6 	"/>
	<line class="st1" x1="1649.6" y1="1347.4" x2="1721.2" y2="1555.4"/>
	<line class="st1" x1="1049.2" y1="1407.6" x2="1102.9" y2="1615.5"/>
	<polyline class="st1" points="778,1835.8 855.2,1853.4 907.2,1858.4 	"/>
	<polyline class="st1" points="751.1,1604 842.6,1850.6 892.6,1909.5 	"/>
	<line class="st1" x1="631.6" y1="1850.9" x2="1087.3" y2="1670.2"/>
	<polyline class="st1" points="2370.7,-75.6 2370.7,56.5 2323.8,137.7 2347.2,359.3 	"/>
	<polyline class="st1" points="1971.2,136.4 2042.8,173.2 2055.8,151.6 	"/>
	<polyline class="st1" points="2578,707.6 2653.6,682.4 2722.5,909.4 	"/>
	<polyline class="st1" points="2749.8,903.8 2670.2,652.8 2569.2,680.4 	"/>
	<line class="st1" x1="2693" y1="589.1" x2="2858.6" y2="1114"/>
	<polyline class="st1" points="2869.2,1108 2801.1,887.7 2789.4,845.1 2875.9,819.2 	"/>
	<line class="st1" x1="3534.3" y1="255.6" x2="3580.2" y2="375.4"/>
	<line class="st1" x1="3516.9" y1="283.1" x2="3554.4" y2="397.8"/>
	<line class="st1" x1="3411.2" y1="350.4" x2="3441" y2="436.7"/>
	<polyline class="st1" points="3710,474.9 3767.5,456.7 3739.9,393.6 3817.9,342 	"/>
	<polyline class="st1" points="3199,547 3275.7,524 3311.2,652.4 3240.8,682.2 	"/>
	<line class="st1" x1="3011.2" y1="600.1" x2="3072.9" y2="582.7"/>
	<polyline class="st1" points="3018.5,624.3 3051.6,615.1 3080.6,607.1 	"/>
	<line class="st1" x1="3105.3" y1="793.8" x2="3051.6" y2="615.1"/>
	<line class="st1" x1="3091.5" y1="551.8" x2="3163.9" y2="775.4"/>
	<line class="st1" x1="3203.6" y1="631.4" x2="3241" y2="748.5"/>
	<polyline class="st1" points="3144.2,800.4 3398,723.1 3407.2,746.4 3152,832.7 	"/>
	<polyline class="st1" points="2579.2,1401.4 2551.2,1418.4 2563.2,1437.4 2623.9,1467.1 2654.2,1520.4 	"/>
	<polyline class="st1" points="2681.2,1557.4 2730.2,1619.4 2986.2,1415.4 3025.6,1415.4 3165.7,1311.3 	"/>
	<line class="st1" x1="3233.2" y1="1010.4" x2="3317.7" y2="1160.9"/>
	<polyline class="st1" points="3554.1,810.9 3593.2,838.4 3562.2,871.4 3631.7,949.4 	"/>
	<polyline class="st1" points="2893.6,656.6 2967.2,635.4 2953.9,593.4 	"/>
	<line class="st1" x1="2051.2" y1="641.2" x2="2091.7" y2="774.3"/>
	<polyline class="st1" points="2088.3,631.2 2113.6,713.1 2129.2,763.7 2152.7,838 	"/>
	<line class="st1" x1="2176.7" y1="693.2" x2="2113.6" y2="713.1"/>
	<polyline class="st1" points="2105.3,770.7 2127.6,845.1 2176.7,1021.2 2226,1008.3 2196.2,913.4 2239.6,903.6 2220.6,835.4 
		2184.8,828.9 2158.9,754.9 	"/>
	<line class="st1" x1="2163.2" y1="835.1" x2="2196.2" y2="913.4"/>
	<line class="st1" x1="2219.1" y1="908.2" x2="2247.1" y2="1002.7"/>
	<polyline class="st1" points="1947.9,955.5 1987.2,949.4 2006.7,1004.9 	"/>
	<line class="st1" x1="2024.2" y1="877.4" x2="2060.2" y2="994.4"/>
	<polyline class="st1" points="1256.2,-49.6 1305.5,77.6 1348,126.3 1324.4,190.4 	"/>
	<polyline class="st1" points="2085.9,317 2118.2,407.4 2183.4,394.7 	"/>
	<polyline class="st1" points="2115.2,307.4 2124.2,319.4 2147.6,401.7 	"/>
	<polyline class="st1" points="1998.9,375.2 2017.2,429.4 2100.1,400.4 	"/>
	<polyline class="st1" points="2057.1,372.4 2068.9,409.9 2118.2,407.4 	"/>
	<line class="st1" x1="1932.2" y1="323.4" x2="1962.2" y2="443.6"/>
	<polyline class="st1" points="1885.4,335.7 1943.2,320.4 1953.8,297.6 	"/>
	<polyline class="st1" points="1838.1,226.4 1852.1,269.4 1831.4,267 1834.2,292.4 1864.4,334.1 1869.4,385.9 1879.3,431.9 	"/>
	<line class="st1" x1="1617.3" y1="727.4" x2="1758.8" y2="690.5"/>
	<polyline class="st1" points="1719.9,574.4 1821.3,546.2 1829.3,570.5 1725.2,600.8 1556.9,647 	"/>
	<polyline class="st1" points="1738.9,631.2 1838.9,599.8 1854.6,647 1754.4,684.1 1765,708.9 1865,678.5 	"/>
	<line class="st1" x1="2898.7" y1="234.9" x2="3089" y2="191.5"/>
	<line class="st1" x1="3176.6" y1="100.5" x2="3429.7" y2="-14.9"/>
	<line class="st1" x1="2492.5" y1="-23.1" x2="2560.6" y2="295"/>
	<line class="st1" x1="1854.6" y1="647" x2="1915.2" y2="624.4"/>
	<line class="st1" x1="1821.3" y1="546.2" x2="1907.3" y2="518.3"/>
	<polyline class="st1" points="2008.6,596.6 2100.1,569.2 2105.3,550.4 2133.2,540.9 	"/>
	<polyline class="st1" points="2112.7,1257.8 2364.6,1174.4 2427.4,1109.9 2578.3,1021.2 2671.2,1013.4 	"/>
	<line class="st1" x1="2532.7" y1="724.6" x2="2564.7" y2="828.9"/>
	<line class="st1" x1="2881.2" y1="723.1" x2="2943.7" y2="937.9"/>
	<line class="st1" x1="1411.4" y1="1030.2" x2="1514.4" y2="1004.9"/>
	<polyline class="st1" points="1528,934 1560,1036 1588.2,1030.2 1558.1,926.2 	"/>
	<line class="st1" x1="1612.2" y1="1090.5" x2="1653.1" y2="1232.5"/>
	<line class="st1" x1="1636.9" y1="1083.6" x2="1681.4" y2="1224.1"/>
	<line class="st1" x1="1578.9" y1="1208.1" x2="1667.9" y2="1181.6"/>
	<line class="st1" x1="1629.8" y1="441.2" x2="1853.2" y2="1174.4"/>
	<line class="st1" x1="1919.6" y1="521.2" x2="1979.1" y2="499.4"/>
	<line class="st1" x1="1926.6" y1="542.4" x2="1987.2" y2="526"/>
	<line class="st1" x1="1024" y1="405.4" x2="1212.3" y2="348.7"/>
	<line class="st1" x1="417.2" y1="574.3" x2="653.3" y2="506.7"/>
	<polyline class="st1" points="11.2,728.8 26.9,795.7 47.2,821.2 120.7,808.8 	"/>
	<line class="st1" x1="40.1" y1="720" x2="69.2" y2="817.5"/>
	<line class="st1" x1="295.7" y1="964.5" x2="370.8" y2="1234"/>
	<polyline class="st1" points="206.1,983.7 262.8,1087.3 313.4,1087.3 	"/>
	<polyline class="st1" points="536,1165.5 599.7,1390.4 645.9,1384.2 	"/>
	<polyline class="st1" points="534.6,1329.6 575.8,1317.1 628.6,1302.4 	"/>
	<polyline class="st1" points="574.6,1475.1 635.5,1455.8 655.8,1514.2 	"/>
	<line class="st1" x1="523.8" y1="1473.6" x2="545" y2="1542.4"/>
</g>
<g id="Layer_5">
</g>
</svg>
