<?xml version="1.0" encoding="UTF-8"?>
<svg id="Layer_1" data-name="Layer 1" xmlns="http://www.w3.org/2000/svg" xmlns:xlink="http://www.w3.org/1999/xlink" viewBox="0 0 3060.1 1260.5">
  <defs>
    <style>
      .cls-1 {
        clip-path: url(#clippath);
      }

      .cls-2, .cls-3, .cls-4 {
        fill: none;
      }

      .cls-2, .cls-5 {
        stroke-width: 0px;
      }

      .cls-6 {
        clip-path: url(#clippath-1);
      }

      .cls-7 {
        clip-path: url(#clippath-2);
      }

      .cls-3 {
        stroke-width: 2px;
      }

      .cls-3, .cls-4 {
        stroke: #f2f1ed;
        stroke-miterlimit: 10;
      }

      .cls-4 {
        stroke-width: 4px;
      }

      .cls-5 {
        fill: #1d1c1d;
      }
    </style>
    <clipPath id="clippath">
      <rect class="cls-2" width="3060.1" height="1260.5"/>
    </clipPath>
    <clipPath id="clippath-1">
      <rect class="cls-2" width="3060.1" height="1260.5"/>
    </clipPath>
    <clipPath id="clippath-2">
      <rect class="cls-2" x="3192.31" y="-9.75" width="1280" height="1280"/>
    </clipPath>
  </defs>
  <g>
    <g class="cls-1">
      <g id="Layer_3" data-name="Layer 3">
        <rect class="cls-5" x="-152.2" y="-981.2" width="3940" height="2403"/>
      </g>
    </g>
    <g class="cls-6">
      <g id="Layer_4" data-name="Layer 4">
        <path class="cls-4" d="m-140,854.2c17.3-5.4,28.3-3,35,0,9.3,4.1,10.4,9.4,30,24,9.4,7,14.2,10.5,20,12,5.2,1.3,13.1.9,29,0,11.5-.7,14.3-1.2,20,0,6.7,1.4,12.4,4.2,16,6,9.7,4.8,9.3,6.7,14,8,8.4,2.3,12.1-3.1,26-6,4.5-1,15.7-3.3,27,0,10.9,3.2,13.4,9,24,16,13,8.5,23.1,8.8,36,12,39.1,9.8,36.6,30.1,73,40,30.6,8.3,42.5-3.2,59,10,13.4,10.8,9.6,21.7,23,40,6.9,9.4,16.7,18.4,52,35,34.9,16.4,62.5,24.9,88,33,80.8,25.7,66.5,23.7,88,29,72.2,17.7,108.3,26.6,149,13,23.6-7.9,52.5-24.6,73-13,3.3,1.9,12.5,7.9,27,14,9,3.8,14.9,6.3,22,7,12.4,1.3,19.2-3.7,35-10,5.7-2.3,31.2-12.1,61-15,12-1.1,17.5-.5,32-3,7.2-1.3,16.5-2.9,28-7,0,0,7-2.5,34-16,4.3-1.7,8.7-3.3,13-5,.5,5.1.9,16.2-5,28-6.4,12.8-16.5,19.2-21,22-7.7,4.7-10.7,5.9-13,6-7.1.3-11.9-4.4-16-7-6.7-4.3-18.2-7.6-39.5-1.5-.5,4.8-1,9.7-1.5,14.5-6.5,1.2-13,2.3-19.5,3.5-17.8,8.7-31.3,12.1-40.5,13.5-7,1.1-12.6,2-23,4-10.2,1.9-10,3.9-17,4-9.1.2-16.5-2.9-19-4-.8-.3-4.5-2-9-5-9.6-6.5-9.5-10.5-15-13-5.4-2.5-7.1.7-22,2-11,1-21.9.3-26,0-11.3-.7-14.7-2-16,0-3,4.4,12.4,13.4,12,27-.3,13-14.7,21.2-12,25,1.3,1.9,5-.1,15,0,3.3,0,9.5.1,16,2,7.5,2.2,12.5,6,19,11,10.2,7.9,8.6,9.6,15,13,9.7,5.1,19.2,4.4,23,4,4.2-.4,8.7-.9,13-4,2.7-2,2.9-3.2,6-6,5-4.4,8.8-5.1,12-7,4-2.4,8.4-7.8,10-21-10.8-3.6-15.6-2.1-18,0-2.6,2.3-2.3,5-7,12-2.7,4-4.1,6-6,7-6.7,3.3-17.7.3-20-6-.8-2.3-.7-5.5,1-7,1.5-1.3,3.3-.6,9,0,5.8.6,9.6,1,10,0,.5-1.3-5.2-4.1-11-9-6-5.1-9.8-10.4-12-14,5.2.4,12.4.8,21,1,5.8.1,12.9.3,20,0,8.1-.4,19.8-1.5,34-5,6.1,6.6,10.3,12.6,13,17,1.4,2.3,2.9,5.2,6,11,4.2,7.9,4.7,9.5,5,11,.5,2.7.9,7.5-2,14,2.9-1.3,6.6-2.8,11-4,2.5-.7,6.7-1.8,12-2,5-.2,5.1.6,19,2,4.8.5,7.9.7,12,0,1.2-.2,3.7-.7,7-2,10.8-4.2,12.2-9.8,20-12,2.8-.8,2.2,0,12,0,12.4,0,18.6,0,23-2,6.1-2.7,3.8-5.1,17-18,5.9-5.7,6.8-5.8,14-13,6.4-6.5,10.4-7.6,10-10-.3-2.2-3.4-3.3-15-7-5.1-1.6-10.4-3.3-16-5,5.6-1.1,12.5-2.9,20-6,6.8-2.8,12.5-6.1,17-9-2.3-16.7-4.7-33.3-7-50,.4-3.2,1.6-10.2,7-17,3.9-4.9,8.3-7.6,11-9-.3-15-.7-30-1-45,5.6,1.4,13.5,3,23,4,10.9,1.1,22.8,1.2,42-1,25-2.9,40.4-4.7,60-12,12.8-4.8,31.8-13.5,52-30,10.3,14.7,20.7,29.3,31,44-20.7,16-41.3,32-62,48-.9,1.3-2.8,4.2-2,7,1.3,4.8,9.1,6.2,14,6,6.9-.3,11.9-4.2,13-5,10.3-7.9,72.2-54.6,157-119-11.7-19-23.3-38-35-57,8.7-1.3,17.3-2.7,26-4,7.3,12,14.7,24,22,36h12l-21-42c29.3-3.3,58.7-6.7,88-10l-3-18c7.7-1,15.3-2,23-3v17c12.7-1.7,25.3-3.3,38-5l-3-27,13-3,2,27,46-1-8-35,11-5,12,38,25-4-4-19,13-1,4,16h18l-14-42,17-5,14,46,101-10-15-58,19,5,19,39,8-6-7-14,32-17,7,12,42.8-19v-16l20.2-10-15-42,15-7,27,51,129-68-20-42,20-11,23,43,178-97-18-37,8-23,28,51,185-106,127-71-13,16,1,7-110,64-6-7-68,46,5,18-50,30,8,9,48-25,8,17-99,61,37,62,104-62,4,18-96,60,50,86,507-394-32-57,89-50,32,50,123-43,6,12-199,121-506,398,64,109,13-12,56,68,20,2,9-51,31-7,57-76,47-32-2-16,30-24h82l8,3,21-4,32-41-43,35-14-2-16.5-25.9,138.5-177.1,19-13,18-31,46-28-32-50,10-5,21,32,32-20-21-47,132-76,12,19,21-11,139-136-17-44,14-12,62,8,17-14-102-108,3-23,47-9,19,11h25l-27,21,48,51v12.1l9-.1,14,51-26,15,1,17,29-3,26,4v-9.7l-19-9.3,2-23,17-18.5,16,15.5,19-2,20,1,24,18,14,13-29,12-25.1,32.5-40.9-8.5-17,3v22l30-3,14,14,17,29,10-3-2-36,22-33,27-13,26,6,7-11-24-43-3-25,27-38.7-24-15.3-10-24,40-74,19-21,40-14h13.5"/>
        <path class="cls-4" d="m80.6-876.3L235.5-363.3l49,157,55,170,38,136,31,95,31,108,40,164,79,284c25.9,105,41.4,154.9,51,181,.2.4,5.1,16.9,15,50s14.7,49.8,9,59c-5.2,8.3-14.2,10.3-43,16-30.6,6.1-55.4,10.9-72,14l-108-20-79-44-103-77-118-55h-39l-220-47"/>
        <path class="cls-4" d="m3411.5-876.3c49.6,172,99.2,344.1,148.8,516.1,29.2,93.6,51.7,167.4,67.2,214.9,2.4,7.3,7.7,23.5,2,41-10.7,33-52.5,46.9-75,54-96.2,30.5-190.4,70.5-290,87-79.3,13.2-188.5,70.8-407,186-63.5,33.5-59.4,33.4-329,183-63.3,35.1-115.4,63.9-150,83,12,20.7,24,41.3,36,62,7.2,12.4,14.8,25.6,22,38,12.4-7.3,32.9-19.2,58-34,105.4-61.9,274.3-161.1,470-280,28.7-17.4,72.4-44,126-77-18-30.3-36-60.7-54-91-14-44.7-28-89.3-42-134,16.9-6.5,42.5-16.2,74-27,90.3-31,142.8-42.1,213-61,99.8-26.9,94.1-31.6,259-82,80.2-24.5,146.1-43.2,189-55"/>
        <path class="cls-4" d="m-150.5,781.7c32.7-5.8,58-3.3,75,0,18,3.5,18.2,6.3,90,30,27.7,9.1,39.5,12.6,55,12,3.5-.1,15.2-.8,31,0,14.7.8,20.1,2.1,23,3,13.3,3.9,21.9,11.4,25,14,26.1,21.8,58.1,35.5,86,55,111.6,78.3,263.9,137.1,330,190,5.7,4.5,20.8,17.1,44,23,10.3,2.6,22.3,3.9,54,1,29.6-2.7,51.3-6.7,64-9,56.6-10.1,54.8-6.4,87-13,22.9-4.7,58.3-17.8,129-44,53.1-19.7,64.4-24.9,73-39,13.3-21.9,5-40.7,22-60,8.4-9.5,19.2-15,49-22,61.2-14.5,83.8-7.7,127-18,14.5-3.5,34.7-12.7,75-31,79.3-36.1,82.6-44.2,122-60,17.4-7,23-7.9,149-34,65.1-13.5,94.7-19.7,136-30,76.6-19.1,112-32,142-63,15-15.4,24.3-31,30-42-12.7-32.7-25.3-65.3-38-98-17.3-62.1-35-124.1-53-186-10-34.4-18.9-59.9-23.7-74.5-18.5-56-133.2-398.2-411.3-1226.5"/>
        <path class="cls-4" d="m3704.5-886.3c-53.6,14.3-135.9,36.8-236,67-151.8,45.8-183.5,60.7-352,112-124.3,37.9-226.4,66.2-280,81-48.3,13.4-105.6,28.6-220,59-228.1,60.6-230.4,59.8-286,77-29.9,9.2-73.9,23.3-138,40-48.2,12.6-88,21.4-114,27-22.9,16.8-49.9,40.4-75,73-9.8,12.7-18,25.2-25,37,6.4,22.4,16.5,57.3,29,100,57.4,196.4,61.8,203.6,92,310,38.4,135.1,40.6,156.4,72,255,20.2,63.4,38.5,115,51,149-6.7,16-13.3,32-20,48-64.9,37.2-118.8,64.5-157,83-48.9,23.7-71.8,32.7-136,65-47.9,24.1-52.3,27.7-78,39-20.1,8.8-48.7,20.3-130,44-71.8,20.9-107.7,31.4-157,42-41.3,8.9-74.5,16.9-141,33-16.6,4-45.7,11.3-76,33-15.6,11.1-26.8,22.6-34,31l-35.7-31.1"/>
        <path class="cls-4" d="m2358.5-876.3c-27.7,128.7-55.3,257.3-83,386,30,47.4,60.1,96.4,90,147,20.3,34.3,40,68.3,59,102-4.3,21.3-8.7,42.7-13,64,3.5,10.4,8.8,26,15,45,22.6,69.2,37.6,120.8,45,146,12.6,42.9,31.2,105.4,57,187,16-1.1,39.7-3.4,68-9,57.2-11.3,97.9-28.9,110-34,43.5-18.3,120.8-43.7,269-76,8.3-16.3,16.7-32.7,25-49,48-11.7,96-23.3,144-35l120-38,35-52,119-34,15.1-17.5-3.1-27.5,68-163,121-139,49-54,49,6"/>
        <path class="cls-4" d="m1744.1,767l-57.1-184.1-27.5-13.1-85-212-94-290-33-22c-1.8-4.7-30.1-77.9-39-119-1.7-8-3.8-19.7.9-32.6,4.1-11.2,11.5-18.6,16.1-22.4-38.3-126.7-76.7-253.3-115-380"/>
        <path class="cls-4" d="m1480.5,67.7c10.2-8.6,23.4-22.7,26-42,2.1-16-5.1-20.3-16-56-7.9-25.7-9.2-40.1-21-68-4.2-9.9-9.1-20.1-20-26-9.1-4.9-18.5-4.7-24-4"/>
        <path class="cls-4" d="m2149.5-869.3c7.4,8.8,18,23.2,25,43,29.6,83.3-34.8,170.5-50,191-12.1,16.3-31.8,39.4-62,62,3.3,12.5,9.5,31.8,22,53,13.3,22.6,20.1,24.2,31,45,14.1,27.1,9,36.6,21,62,8.4,17.7,13.7,19.2,39,50,43.9,53.5,36.2,59.3,65,87,26.9,25.8,37.8,24.8,52,48,12.5,20.4,15.4,39.7,18,58,2.8,19.5,4.8,52.4-6,93-10.4-5.5-21.9-5.6-30,0-8.8,6-10.3,16.6-11,21-2.4,16,5.1,29.5,7,33,14,25.7,32,81.8,68,194,5,15.6,12.6,40.8,20,73-14.1.2-34.5.8-59,3-36.3,3.3-56.3,5.1-76,12-16.9,5.9-49.5,21.1-80,65-32.9,5.3-58.3,13.1-75,19-46.7,16.6-72,35.1-120,36-12.6.2-11-1-24-1-59.7.1-105.5,27-120,35-39.2,21.7-31.1,5.7-244,67-99.8,28.7-104.8,33.1-202,61-79.6,22.9-144.6,39.7-186,50,15,52.3,30,104.7,45,157"/>
        <polyline class="cls-4" points="2517.6 -886.3 2704.5 -298.3 2651.5 -279.3 2745.5 49.7 2803 226.7 2864.4 335.3"/>
        <polyline class="cls-4" points="749.9 -886.3 891.5 -370.1 1040.1 129.4 1129.8 451.7 1176 602.9"/>
        <path class="cls-4" d="m-9.1-481.3l37.4,124,16.2,13,53,200L136.5-8.3l20,23,32,127,80,291,12,111,59,208-249.5,71.6-53.5-240.5L-28.5,342.7l-50-251L-150.5-20.6l10-250.7c2.2-.4,31.3-7.1,72.1-16.7,97.7-23.1,262.8-63.2,288.9-74.3,13.9-5.9,51.9-22.8,106-37,12.1-3.2,56.3-14.5,145-24,90.5-9.7,94.1,2,146-11,33.4-8.4,73.1-23,103-34,24.6-9.1,44.9-17.2,59-23,55-2.3,99.5-1.9,131-1,52.8,1.5,64.7,4.3,87-4,19-7,39.2-19.7,78-32,8.4-2.7,21.1-6.4,36-3,11.8,2.7,20.4,8.7,29,15,14.8,10.7,24.1,21.5,28,26,48,56,54.9,67.6,73,74,10.3,3.7,18.6,3.5,35,3,52.3-1.5,61.2-25.6,101-24,33.3,1.3,58.9,19.5,65,24,23.8,17.4,19.2,27.8,39,39,28.5,16.1,42.5-3,82,12,21.3,8.1,23.9,16.2,48,23,18.1,5.1,34,5.5,45,5,8.4,25.7,20.8,63.8,36,110,29.2,88.7,29,86.9,39,118,24.3,75.4,41.2,134.5,61,204,23.4,82.2,18.1,67.6,37,133,25.4,87.7,44.3,145.7,64,201,6.1,17,11.3,31.1,15,41-9.4,3-23.5,7.4-41,12-25.6,6.8-32.1,7.2-38,14-11.4,13.2-.9,28.1-9,44-10.2,20-40.2,22.6-63,26-42,6.3-80.7,26.8-122,37-127.9,31.5-249.9,77.2-324,105-41.3,15.5-74.4,28.9-94,37,13.3,46.7,26.7,93.3,40,140"/>
        <path class="cls-4" d="m-73.5-284.3c4,37,15,56,15,56l15,47L4.5-22.3l49,164,12.2,35.8"/>
        <polyline class="cls-4" points="-150.5 234.3 -27.5 200.7 96.5 169.7 219.5 130.7 277.5 116.7 429.5 70.7 548.5 34.7 686.5 -2.3 826.5 -45.3 1028.5 -111.3 1257.8 -173.7"/>
        <polyline class="cls-4" points="941 -888.3 1082.5 -421.3 1139.5 -207.3 1167.5 -122.3 1230.5 73.7"/>
        <path class="cls-4" d="m1242.5,117.7c11,43.9,28.5,111.2,53,193,40.7,136.1,49.2,140.5,77,245,18,67.4,26.4,110.6,54,202,10.8,35.9,20.4,65.2,27,85"/>
        <path class="cls-4" d="m1215.5,99.7c-.6-1.9-4.1-12.1,2-20,5.9-7.6,16-7.1,18-7,6.4.3,15.3,3.5,19,11,.9,1.9,1.2,3.6,1.4,4.6,1.6,9-3.6,16.8-7.4,22.4-2.8,4.1-4.2,6.2-6,7-8.2,3.7-22.7-5.5-27-18Z"/>
        <polyline class="cls-4" points="1162.8 -459.3 1172.5 -407.3 1205.2 -357.3 1275.5 -111.3 1329.7 73.7 1388.5 239.7 1449.5 438.7"/>
        <polyline class="cls-4" points="471.5 -423.3 580 -97.7 669.5 212.7 736.5 451.7 782.5 626.7"/>
        <path class="cls-4" d="m-140.5,312.7c23.3-10.3,46.7-20.7,70-31,19.2,10.1,48.5,25.6,84,45,84,45.9,101.8,58.6,135,72,32.3,13,80.9,27.5,147,29l441,24,376-106,50.3,24.7,147.7-48.5,188-52.2,222-53,77-8,120-27,23-39h35.2"/>
        <path class="cls-4" d="m1662.5-876.3c-6.1,6.8-13.9,17.4-18,32-5.2,18.3-1.6,32.7,3,54,10.9,50.1,16.3,75.2,18,93,2.7,29,.8,47.5,15,66,3.1,4,3.5,3.5,16,17,9.4,10.1,26.1,28.2,33,38,11.9,17.1,8.7,30.6,11,72,.2,3.7,3.3,56.9,15,113,7.4,35.9,12.8,46.1,12,71-.8,25.4-7.3,46.1-13,60,5.6,23.7,11.6,47.7,18,72,24.2,91.8,51.6,178.2,81,259"/>
        <polyline class="cls-4" points="1819.5 -369.1 1995.5 210.7 2079.5 500.7 2116.4 596"/>
        <polyline class="cls-4" points="339.5 751.7 754.5 631.7 814.7 626.7 941.1 582.9 1306.1 480.2 1589.9 396.3 1832.5 326.7 2062.5 257.7 2378.5 163 2719.5 55.7 2745.5 49.7"/>
        <polyline class="cls-4" points="1513.6 170 1895.5 57.7 2042.1 16.2 2077.9 22.7 2217.5 -23.3 2435.3 -105.1"/>
        <path class="cls-4" d="m1752.5,286.7c59.5-18.8,108.3-32.3,141-41,176.2-46.7,264.4-70.1,280-73,13.4-2.5,45-8.2,81-28,28.7-15.8,48.8-34.3,61-47"/>
        <polyline class="cls-4" points="234.5 895.7 749.9 751.7 1105.5 659.7 1631.5 500 2139.5 352.7 2213.6 286.7 2378.5 163"/>
        <path class="cls-3" d="m71.4-440.3l236.1-76,32.9-13.4,191.1-49.6,158-43,15,56c-84.7,27.3-169.3,54.7-254,82,7,22.3,14,44.5,21,66.8l-62-192.9,25.1-7.1,65.1,191.6,47.3-1.7,45,143.3L674.9.8l75,265.5"/>
        <path class="cls-3" d="m388.5-412.3c42.3,140,84.7,280,127,420v22.6l56.7,204,63.7,212,57,203.3"/>
        <line class="cls-3" x1="295.5" y1="-390.3" x2="435.1" y2="69.1"/>
        <polyline class="cls-3" points="308.1 -221.7 375.5 -29.3 406.1 77.8 478.9 332.1 509.5 439.7 578.3 682.7"/>
        <polyline class="cls-3" points="466 -260.3 542.5 -1.3 553.7 33.4 627 298.9 659.4 290.4 584.3 25.1 496.1 -267.7"/>
        <line class="cls-3" x1="515.5" y1="7.7" x2="573.8" y2="-9.9"/>
        <polyline class="cls-3" points="646.5 133 767.8 97.2 1011.5 33.4 1199.5 -22.6 1273.2 -41.6 1291 -58.3 1365.5 -82.3"/>
        <line class="cls-3" x1="646.5" y1="8.5" x2="718.7" y2="274.6"/>
        <line class="cls-3" x1="705.4" y1="-9.9" x2="763.5" y2="183.7"/>
        <line class="cls-3" x1="734.5" y1="-17" x2="782.5" y2="151.8"/>
        <line class="cls-3" x1="799" y1="89.1" x2="847.9" y2="252.9"/>
        <path class="cls-3" d="m797.5,150.7c-3.7-.8-9.4-1.4-15,1-10.2,4.4-14,16-19,32-2.1,6.8-4.7,16.7-6,29,8,15,16,30,24,45,10.3-2.7,20.7-5.3,31-8,3.7.3,7.3.7,11,1-8.7-33.3-17.3-66.6-26-100Z"/>
        <polyline class="cls-3" points="847.9 -52.3 941 238.3 983.7 382.1 1041.5 554.7 1003.9 565.2 1059.8 671.6 1105.5 715.7 1212.7 730.9 1276.5 703.7 1323 857.5"/>
        <path class="cls-3" d="m1684.5,43.7c-28.7-89.3-57.3-178.7-86-268-63.6-209.7-127.1-419.3-190.7-629"/>
        <polyline class="cls-3" points="1487.1 -42.2 1813.7 -141.7 1853.5 -141.7 1892.5 -167.3 2011.6 -199.1 2150.5 -238.3 2217.4 -10.3 2275.5 193.9 2291.5 236.7 2284.7 297.2 2315.5 375.6 2342.2 451.7 2378.5 488.7"/>
        <polyline class="cls-3" points="2505.2 -537.8 2691 64.7 2761.9 275.5"/>
        <path class="cls-3" d="m333.4,428.1L248.3,123.8,199.3-12.5l23-7,44,136.3,29.2-5.4L243.7-25.9l30.6-9.3,43,139.9,32.3-9.8c-15.7-46.4-31.4-92.8-47.1-139.2"/>
        <polyline class="cls-3" points="277.5 116.7 368.5 431.7 447.8 720.4"/>
        <line class="cls-3" x1="-54.7" y1="-107.3" x2="37.5" y2="184.5"/>
        <line class="cls-3" x1="-5.1" y1="49.7" x2="333.4" y2="-53.3"/>
        <polyline class="cls-3" points="171 -3.9 217 133.6 301.6 428.1"/>
        <polyline class="cls-3" points="1908.5 241.8 1974.5 459.8 2028.7 639.8"/>
        <polyline class="cls-3" points="1218.4 504.9 1225.5 534.7 1348 500.8 1381.4 500.8 1614.2 421.3 1819.5 355.9 1914.5 326.7 1938.2 339.8 2028.7 311.6 2181.5 262.7 2235.4 241.8 2345.5 262.7 2443.2 473.4"/>
        <line class="cls-3" x1="2738.5" y1="-198.1" x2="2831.5" y2="116.6"/>
        <path class="cls-3" d="m-150.5,567l300-77.3,85,287.5-144.5,46.1c-15.8-71.5-31.7-143.1-47.5-214.6,69.7-16.3,139.3-32.7,209-49,19.4,66.9,38.7,133.7,58.1,200.6"/>
        <polyline class="cls-3" points="-168.5 729.7 -41.5 708.7 4.1 656.6 49.9 643.1"/>
        <polyline class="cls-3" points="49.9 822.1 -75.5 387.7 -140.5 413.9"/>
        <line class="cls-3" x1="-158.3" y1="643.1" x2="35.1" y2="577.7"/>
        <line class="cls-3" x1="12.2" y1="691.5" x2="56.7" y2="680"/>
        <line class="cls-3" x1="21" y1="722" x2="63.5" y2="711.9"/>
        <polyline class="cls-3" points="286.5 564.9 398.9 542.5 427.9 647.9 318.7 678.3"/>
        <path class="cls-3" d="m910.5,59.7c51,163,102,326,153,489"/>
        <line class="cls-3" x1="949" y1="49.7" x2="1090" y2="541"/>
        <polyline class="cls-3" points="904.3 123.8 1029 92.1 1150.5 55.2"/>
        <line class="cls-3" x1="1122.9" y1="531.8" x2="980.2" y2="41.6"/>
        <line class="cls-3" x1="492.8" y1="514.6" x2="528.1" y2="505.2"/>
        <polyline class="cls-3" points="613 370 528.1 395.5 532.5 408.7 553.3 421.3 620.5 670.5"/>
        <polyline class="cls-3" points="2099.5 96.7 2282.1 49.7 2345.5 24.7 2411.5 20.7 2484.3 -10.3 2619.5 -49.3 2657.5 -49.3 2707.3 -84 2767.1 -101.2 2893.7 -129 2955.6 -149.9 3060.9 -181.3 3217.3 -194.7 3325.5 -223.3 3467.6 -260.1 3490.5 -250.3 3586.5 -276"/>
        <polyline class="cls-3" points="2812.8 -111.2 2880.6 103.8 2900.8 98.9 2869.5 3.7 2901.4 -3.7 2929.5 -10.3 2957.3 85.8 2927.8 92.5 2858.6 -121.2"/>
        <line class="cls-3" x1="2087.3" y1="-220.4" x2="2201.5" y2="166.4"/>
        <polyline class="cls-3" points="2020.5 -169 2054.5 -176.3 2112.2 11.4"/>
        <line class="cls-3" x1="1095.8" y1="-129.6" x2="1184.7" y2="170.6"/>
        <path class="cls-3" d="m1122.9-137c29.9,100.2,59.7,200.5,89.6,300.7"/>
        <line class="cls-3" x1="1178.5" y1="49.7" x2="1218.5" y2="36.4"/>
        <polyline class="cls-3" points="1156.5 177.6 1067.9 -122 1045.4 -193.1 1101.5 -208.3 1108.3 -220.4 1234.4 -255.3"/>
        <polyline class="cls-3" points="955.1 -390.4 1035.9 -113.3 1126.2 186.1"/>
        <polyline class="cls-3" points="1134 -453.3 1253 -35.1 1298 142.7 1379.5 410.7 1402.5 405.7 1417.3 447.3"/>
        <polyline class="cls-3" points="1199.2 358.5 1208.3 391.6 1238.2 499.4"/>
        <path class="cls-3" d="m1230.2,388.3l-21.9,3.3,21.9-3.3Z"/>
        <path class="cls-3" d="m1260.7,493c-13.7-46.8-27.5-93.5-41.2-140.3"/>
        <polyline class="cls-3" points="1221.4 438.7 1183.5 448.7 969.5 518.7 987 570"/>
        <line class="cls-3" x1="917.6" y1="402.6" x2="965.3" y2="576.1"/>
        <polyline class="cls-3" points="828.7 425.8 879 602.9 925 810.2 984.4 797.7"/>
        <polyline class="cls-3" points="798.5 434.3 850.7 614.3 870.9 720.4"/>
        <polyline class="cls-3" points="697.6 313 817.5 282.7 873.7 286.7 900.5 376.7 729.2 425.8"/>
        <line class="cls-3" x1="882.9" y1="317.5" x2="958.5" y2="297.2"/>
        <polyline class="cls-3" points="908 310.8 934.2 396 965.3 387.3 941.4 301.8 923.4 306.7 857.4 73.7 826.5 -45.3 793.4 -35.1 715 -319.5"/>
        <polyline class="cls-3" points="830.4 80.8 845.5 136.7 873.1 129.1"/>
        <line class="cls-3" x1="864.2" y1="254.4" x2="782.5" y2="-31.7"/>
        <path class="cls-3" d="m875.5-59.9l31,78.6,68-21.7c-8.6-26.2-17.1-52.6-25.5-79.3-11.5-36.3-22.6-72.3-33.5-108,9-2.7,18-5.3,27-8"/>
        <polyline class="cls-3" points="2572.5 381.3 2635.7 471.6 2764.3 395.2 2715.9 301.3 2761.9 275.5 2819.1 362.5"/>
        <polyline class="cls-3" points="-148.5 -547.8 -110.1 -449.8 -95.5 -405.8 -18.7 -299.8 37.5 -135.4 126 160.4 228.1 421.3 257.5 392.6 447.8 336.8 533.5 323.7 812.5 249.7 879 255.8 1156.5 177.6 1489.5 95.6 1641.9 49.7 1703.4 40.7 1794.5 7.7 2050.5 -67.9"/>
        <polyline class="cls-3" points="471.5 716.9 498 822.1 578.3 1059.2"/>
        <polyline class="cls-3" points="503.2 704.4 528.1 813.7 608.4 1053.1"/>
        <line class="cls-3" x1="555.8" y1="751.7" x2="447.8" y2="783.7"/>
        <polyline class="cls-3" points="427.9 729.7 465.2 831.3 550 1064.7"/>
        <polyline class="cls-3" points="134.2 831 357.2 772.9 399.5 778.7 416.5 822.1 207.5 878.7"/>
        <line class="cls-3" x1="351.9" y1="863" x2="388.3" y2="985.6"/>
        <line class="cls-3" x1="388.3" y1="852.8" x2="427.9" y2="1006.1"/>
        <line class="cls-3" x1="422.4" y1="843.2" x2="471.5" y2="1028.8"/>
        <line class="cls-3" x1="447" y1="836.4" x2="510.4" y2="1050.2"/>
        <polyline class="cls-3" points="613.2 17.4 635.2 93.7 466 141.5 496.5 243.7 662.7 189.3"/>
        <polyline class="cls-3" points="711.4 362.2 662.7 370 687.1 449.1"/>
        <polyline class="cls-3" points="757.5 531.8 596.8 582.9 553 593.3"/>
        <line class="cls-3" x1="750.3" y1="504.4" x2="659.3" y2="529.4"/>
        <polyline class="cls-3" points="668.5 447.7 682.3 474.1 726.5 639.9"/>
        <line class="cls-3" x1="925" y1="588.5" x2="1029.7" y2="957"/>
        <polygon class="cls-3" points="764.5 1045.7 1011.8 957 997.5 906.7 813.3 735.3 636 783.6 764.5 1045.7"/>
        <polyline class="cls-3" points="1235.4 810.2 1453.5 747.7 1578.5 742.7 1857.4 618.7 2222.5 500.7 2318.5 462.7 2435.6 457.2"/>
        <line class="cls-3" x1="1710.5" y1="361.7" x2="1831.5" y2="735.7"/>
        <polyline class="cls-3" points="1444.7 556.7 1479.5 671.7 1479.5 710.8 1293.5 759.9"/>
        <line class="cls-3" x1="1506.9" y1="534.7" x2="1578.5" y2="742.7"/>
        <line class="cls-3" x1="906.5" y1="594.9" x2="960.2" y2="802.8"/>
        <polyline class="cls-3" points="635.3 1023.1 712.5 1040.7 764.5 1045.7"/>
        <polyline class="cls-3" points="608.4 791.3 699.9 1037.9 749.9 1096.8"/>
        <line class="cls-3" x1="488.9" y1="1038.2" x2="944.6" y2="857.5"/>
        <polyline class="cls-3" points="2435.3 -105.1 2510.9 -130.3 2579.8 96.7"/>
        <polyline class="cls-3" points="2607.1 91.1 2527.5 -159.9 2426.5 -132.3"/>
        <line class="cls-3" x1="2550.3" y1="-223.6" x2="2715.9" y2="301.3"/>
        <polyline class="cls-3" points="2726.5 295.3 2658.4 75 2646.7 32.4 2733.2 6.5"/>
        <polyline class="cls-3" points="3001.5 -12.3 3255.3 -89.6 3264.5 -66.3 3009.3 20"/>
        <polyline class="cls-3" points="2436.5 588.7 2408.5 605.7 2420.5 624.7 2481.2 654.4 2511.5 707.7"/>
        <polyline class="cls-3" points="2538.5 744.7 2587.5 806.7 2843.5 602.7 2882.9 602.7 3023 498.6"/>
        <polyline class="cls-3" points="1945.6 -181.5 1970.9 -99.6 1986.5 -49 2010 25.3"/>
        <polyline class="cls-3" points="1962.6 -42 1984.9 32.4 2034 208.5 2083.3 195.6 2053.5 100.7 2096.9 90.9 2077.9 22.7 2042.1 16.2 2016.2 -57.8"/>
        <line class="cls-3" x1="2020.5" y1="22.4" x2="2053.5" y2="100.7"/>
        <line class="cls-3" x1="2076.4" y1="95.5" x2="2104.4" y2="190"/>
        <polyline class="cls-3" points="1805.2 142.8 1844.5 136.7 1864 192.2"/>
        <line class="cls-3" x1="1881.5" y1="64.7" x2="1917.5" y2="181.7"/>
        <polyline class="cls-3" points="1970 445.1 2221.9 361.7 2284.7 297.2 2435.6 208.5 2528.5 200.7"/>
        <line class="cls-3" x1="2390" y1="-88.1" x2="2422" y2="16.2"/>
        <line class="cls-3" x1="2738.5" y1="-89.6" x2="2801" y2="125.2"/>
        <line class="cls-3" x1="1268.7" y1="217.5" x2="1371.7" y2="192.2"/>
        <polyline class="cls-3" points="1385.3 121.3 1417.3 223.3 1445.5 217.5 1415.4 113.5"/>
        <line class="cls-3" x1="1469.5" y1="277.8" x2="1510.4" y2="419.8"/>
        <line class="cls-3" x1="1494.2" y1="270.9" x2="1538.7" y2="411.4"/>
        <line class="cls-3" x1="1436.2" y1="395.4" x2="1525.2" y2="368.9"/>
        <line class="cls-3" x1="1487.1" y1="-371.5" x2="1710.5" y2="361.7"/>
        <line class="cls-3" x1="153" y1="151.8" x2="228.1" y2="421.3"/>
        <polyline class="cls-3" points="63.4 171 120.1 274.6 170.7 274.6"/>
        <polyline class="cls-3" points="393.3 352.8 457 577.7 503.2 571.5"/>
        <polyline class="cls-3" points="391.9 516.9 433.1 504.4 485.9 489.7"/>
        <polyline class="cls-3" points="431.9 662.4 492.8 643.1 513.1 701.5"/>
        <line class="cls-3" x1="381.1" y1="660.9" x2="402.3" y2="729.7"/>
      </g>
    </g>
  </g>
  <g class="cls-7">
    <g id="Layer_4-2" data-name="Layer 4">
      <path class="cls-3" d="m2323.75,367.55c10.9,27,18.9,52,25,74,8.2,29.6,13,54.9,16,73,3.7,22.5,6.6,47.3,8,74,6.7,8.2,14.2,18.8,21,32,8.6,16.6,13.3,32,16,44"/>
      <path class="cls-4" d="m2344.45,844.45c17.3-5.4,28.3-3,35,0,9.3,4.1,10.4,9.4,30,24,9.4,7,14.2,10.5,20,12,5.2,1.3,13.1.9,29,0,11.5-.7,14.3-1.2,20,0,6.7,1.4,12.4,4.2,16,6,9.7,4.8,9.3,6.7,14,8,8.4,2.3,12.1-3.1,26-6,4.5-1,15.7-3.3,27,0,10.9,3.2,13.4,9,24,16,13,8.5,23.1,8.8,36,12,39.1,9.8,36.6,30.1,73,40,30.6,8.3,42.5-3.2,59,10,13.4,10.8,9.6,21.7,23,40,6.9,9.4,16.7,18.4,52,35,34.9,16.4,62.5,24.9,88,33,80.8,25.7,66.5,23.7,88,29,72.2,17.7,108.3,26.6,149,13,23.6-7.9,52.5-24.6,73-13,3.3,1.9,12.5,7.9,27,14,9,3.8,14.9,6.3,22,7,12.4,1.3,19.2-3.7,35-10,5.7-2.3,31.2-12.1,61-15,12-1.1,17.5-.5,32-3,7.2-1.3,16.5-2.9,28-7,0,0,7-2.5,34-16,4.3-1.7,8.7-3.3,13-5,.5,5.1.9,16.2-5,28-6.4,12.8-16.5,19.2-21,22-7.7,4.7-10.7,5.9-13,6-7.1.3-11.9-4.4-16-7-6.7-4.3-18.2-7.6-39.5-1.5-.5,4.8-1,9.7-1.5,14.5-6.5,1.2-13,2.3-19.5,3.5-17.8,8.7-31.3,12.1-40.5,13.5-7,1.1-12.6,2-23,4-10.2,1.9-10,3.9-17,4-9.1.2-16.5-2.9-19-4-.8-.3-4.5-2-9-5-9.6-6.5-9.5-10.5-15-13-5.4-2.5-7.1.7-22,2-11,1-21.9.3-26,0-11.3-.7-14.7-2-16,0-3,4.4,12.4,13.4,12,27-.3,13-14.7,21.2-12,25,1.3,1.9,5-.1,15,0,3.3,0,9.5.1,16,2,7.5,2.2,12.5,6,19,11,10.2,7.9,8.6,9.6,15,13,9.7,5.1,19.2,4.4,23,4,4.2-.4,8.7-.9,13-4,2.7-2,2.9-3.2,6-6,5-4.4,8.8-5.1,12-7,4-2.4,8.4-7.8,10-21-10.8-3.6-15.6-2.1-18,0-2.6,2.3-2.3,5-7,12-2.7,4-4.1,6-6,7-6.7,3.3-17.7.3-20-6-.8-2.3-.7-5.5,1-7,1.5-1.3,3.3-.6,9,0,5.8.6,9.6,1,10,0,.5-1.3-5.2-4.1-11-9-6-5.1-9.8-10.4-12-14,5.2.4,12.4.8,21,1,5.8.1,12.9.3,20,0,8.1-.4,19.8-1.5,34-5,6.1,6.6,10.3,12.6,13,17,1.4,2.3,2.9,5.2,6,11,4.2,7.9,4.7,9.5,5,11,.5,2.7.9,7.5-2,14,2.9-1.3,6.6-2.8,11-4,2.5-.7,6.7-1.8,12-2,5-.2,5.1.6,19,2,4.8.5,7.9.7,12,0,1.2-.2,3.7-.7,7-2,10.8-4.2,12.2-9.8,20-12,2.8-.8,2.2,0,12,0,12.4,0,18.6,0,23-2,6.1-2.7,3.8-5.1,17-18,5.9-5.7,6.8-5.8,14-13,6.4-6.5,10.4-7.6,10-10-.3-2.2-3.4-3.3-15-7-5.1-1.6-10.4-3.3-16-5,5.6-1.1,12.5-2.9,20-6,6.8-2.8,12.5-6.1,17-9-2.3-16.7-4.7-33.3-7-50,.4-3.2,1.6-10.2,7-17,3.9-4.9,8.3-7.6,11-9-.3-15-.7-30-1-45,5.6,1.4,13.5,3,23,4,10.9,1.1,22.8,1.2,42-1,25-2.9,40.4-4.7,60-12,12.8-4.8,31.8-13.5,52-30,10.3,14.7,20.7,29.3,31,44-20.7,16-41.3,32-62,48-.9,1.3-2.8,4.2-2,7,1.3,4.8,9.1,6.2,14,6,6.9-.3,11.9-4.2,13-5,10.3-7.9,72.2-54.6,157-119-11.7-19-23.3-38-35-57,8.7-1.3,17.3-2.7,26-4,7.3,12,14.7,24,22,36h12l-21-42c29.3-3.3,58.7-6.7,88-10l-3-18c7.7-1,15.3-2,23-3v17c12.7-1.7,25.3-3.3,38-5l-3-27,13-3,2,27,46-1-8-35,11-5,12,38,25-4-4-19,13-1,4,16h18l-14-42,17-5,14,46,101-10-15-58,19,5,19,39,8-6-7-14,32-17,7,12,42.8-19v-16l20.2-10-15-42,15-7,27,51,129-68-20-42,20-11,23,43,178-97-18-37,8-23,28,51,185-106,127-71-13,16,1,7-110,64-6-7-68,46,5,18-50,30,8,9,48-25,8,17-99,61,37,62,104-62,4,18-96,60,50,86,507-394-32-57,89-50,32,50,123-43,6,12-199,121-506,398,64,109,13-12,56,68,20,2,9-51,31-7,57-76,47-32-2-16,30-24h82l8,3,21-4,32-41-43,35-14-2-16.5-25.9,138.5-177.1,19-13,18-31,46-28-32-50,10-5,21,32,32-20-21-47,132-76,12,19,21-11,139-136-17-44,14-12,62,8,17-14-102-108,3-23,47-9,19,11h25l-27,21,48,51v12.1l9-.1,14,51-26,15,1,17,29-3,26,4v-9.7l-19-9.3,2-23,17-18.5,16,15.5,19-2,20,1,24,18,14,13-29,12-25.1,32.5-40.9-8.5-17,3v22l30-3,14,14,17,29,10-3-2-36,22-33,27-13,26,6,7-11-24-43-3-25,27-38.7-24-15.3-10-24,40-74,19-21,40-14h13.5"/>
      <path class="cls-4" d="m2565.05-886.05l154.9,513,49,157,55,170,38,136,31,95,31,108,40,164,79,284c25.9,105,41.4,154.9,51,181,.2.4,5.1,16.9,15,50s14.7,49.8,9,59c-5.2,8.3-14.2,10.3-43,16-30.6,6.1-55.4,10.9-72,14l-108-20-79-44-103-77-118-55h-39l-220-47"/>
      <path class="cls-4" d="m2333.95,771.95c32.7-5.8,58-3.3,75,0,18,3.5,18.2,6.3,90,30,27.7,9.1,39.5,12.6,55,12,3.5-.1,15.2-.8,31,0,14.7.8,20.1,2.1,23,3,13.3,3.9,21.9,11.4,25,14,26.1,21.8,58.1,35.5,86,55,111.6,78.3,263.9,137.1,330,190,5.7,4.5,20.8,17.1,44,23,10.3,2.6,22.3,3.9,54,1,29.6-2.7,51.3-6.7,64-9,56.6-10.1,54.8-6.4,87-13,22.9-4.7,58.3-17.8,129-44,53.1-19.7,64.4-24.9,73-39,13.3-21.9,5-40.7,22-60,8.4-9.5,19.2-15,49-22,61.2-14.5,83.8-7.7,127-18,14.5-3.5,34.7-12.7,75-31,79.3-36.1,82.6-44.2,122-60,17.4-7,23-7.9,149-34,65.1-13.5,94.7-19.7,136-30,76.6-19.1,112-32,142-63,15-15.4,24.3-31,30-42-12.7-32.7-25.3-65.3-38-98-17.3-62.1-35-124.1-53-186-10-34.4-18.9-59.9-23.7-74.5-18.5-56-133.2-398.2-411.3-1226.5"/>
      <path class="cls-4" d="m2475.35-491.05l37.4,124,16.2,13,53,200,39,136,20,23,32,127,80,291,12,111,59,208-249.5,71.6-53.5-240.5-65-240.1-50-251-72-112.3,10-250.7c2.2-.4,31.3-7.1,72.1-16.7,97.7-23.1,262.8-63.2,288.9-74.3,13.9-5.9,51.9-22.8,106-37,12.1-3.2,56.3-14.5,145-24,90.5-9.7,94.1,2,146-11,33.4-8.4,73.1-23,103-34,24.6-9.1,44.9-17.2,59-23,55-2.3,99.5-1.9,131-1,52.8,1.5,64.7,4.3,87-4,19-7,39.2-19.7,78-32,8.4-2.7,21.1-6.4,36-3,11.8,2.7,20.4,8.7,29,15,14.8,10.7,24.1,21.5,28,26,48,56,54.9,67.6,73,74,10.3,3.7,18.6,3.5,35,3,52.3-1.5,61.2-25.6,101-24,33.3,1.3,58.9,19.5,65,24,23.8,17.4,19.2,27.8,39,39,28.5,16.1,42.5-3,82,12,21.3,8.1,23.9,16.2,48,23,18.1,5.1,34,5.5,45,5,8.4,25.7,20.8,63.8,36,110,29.2,88.7,29,86.9,39,118,24.3,75.4,41.2,134.5,61,204,23.4,82.2,18.1,67.6,37,133,25.4,87.7,44.3,145.7,64,201,6.1,17,11.3,31.1,15,41-9.4,3-23.5,7.4-41,12-25.6,6.8-32.1,7.2-38,14-11.4,13.2-.9,28.1-9,44-10.2,20-40.2,22.6-63,26-42,6.3-80.7,26.8-122,37-127.9,31.5-249.9,77.2-324,105-41.3,15.5-74.4,28.9-94,37,13.3,46.7,26.7,93.3,40,140"/>
      <path class="cls-4" d="m2410.95-294.05c4,37,15,56,15,56l15,47,48,159,49,164,12.2,35.8"/>
      <polyline class="cls-4" points="2333.95 224.55 2456.95 190.95 2580.95 159.95 2703.95 120.95 2761.95 106.95 2913.95 60.95 3032.95 24.95 3170.95 -12.05 3310.95 -55.05 3512.95 -121.05 3742.25 -183.45"/>
      <polyline class="cls-4" points="2955.95 -433.05 3064.45 -107.45 3153.95 202.95 3220.95 441.95 3266.95 616.95"/>
      <path class="cls-4" d="m2343.95,302.95c23.3-10.3,46.7-20.7,70-31,19.2,10.1,48.5,25.6,84,45,84,45.9,101.8,58.6,135,72,32.3,13,80.9,27.5,147,29l441,24,376-106,50.3,24.7,147.7-48.5,188-52.2,222-53,77-8,120-27,23-39h35.2"/>
      <polyline class="cls-4" points="2823.95 741.95 3238.95 621.95 3299.15 616.95 3425.55 573.15 3790.55 470.45 4074.35 386.55 4316.95 316.95 4546.95 247.95 4862.95 153.25 5203.95 45.95 5229.95 39.95"/>
      <polyline class="cls-4" points="2718.95 885.95 3234.35 741.95 3589.95 649.95 4115.95 490.25 4623.95 342.95 4698.05 276.95 4862.95 153.25"/>
      <path class="cls-3" d="m2555.85-450.05l236.1-76,32.9-13.4,191.1-49.6,158-43,15,56c-84.7,27.3-169.3,54.7-254,82,7,22.3,14,44.5,21,66.8l-62-192.9,25.1-7.1,65.1,191.6,47.3-1.7,45,143.3,82.9,285.1,75,265.5"/>
      <path class="cls-3" d="m2872.95-422.05c42.3,140,84.7,280,127,420v22.6l56.7,204,63.7,212,57,203.3"/>
      <line class="cls-3" x1="2779.95" y1="-400.05" x2="2919.55" y2="59.35"/>
      <polyline class="cls-3" points="2792.55 -231.45 2859.95 -39.05 2890.55 68.05 2963.35 322.35 2993.95 429.95 3062.75 672.95"/>
      <polyline class="cls-3" points="2950.45 -270.05 3026.95 -11.05 3038.15 23.65 3111.45 289.15 3143.85 280.65 3068.75 15.35 2980.55 -277.45"/>
      <path class="cls-3" d="m2817.85,418.35l-85.1-304.3-49-136.3,23-7,44,136.3,29.2-5.4-51.8-137.3,30.6-9.3,43,139.9,32.3-9.8c-15.7-46.4-31.4-92.8-47.1-139.2"/>
      <polyline class="cls-3" points="2761.95 106.95 2852.95 421.95 2932.25 710.65"/>
      <line class="cls-3" x1="2429.75" y1="-117.05" x2="2521.95" y2="174.75"/>
      <line class="cls-3" x1="2479.35" y1="39.95" x2="2817.85" y2="-63.05"/>
      <polyline class="cls-3" points="2655.45 -13.65 2701.45 123.85 2786.05 418.35"/>
      <path class="cls-3" d="m2333.95,557.25l300-77.3,85,287.5-144.5,46.1c-15.8-71.5-31.7-143.1-47.5-214.6,69.7-16.3,139.3-32.7,209-49,19.4,66.9,38.7,133.7,58.1,200.6"/>
      <polyline class="cls-3" points="2315.95 719.95 2442.95 698.95 2488.55 646.85 2534.35 633.35"/>
      <polyline class="cls-3" points="2534.35 812.35 2408.95 377.95 2343.95 404.15"/>
      <path class="cls-3" d="m2337.95,303.95c10.9,27,18.9,52,25,74,8.2,29.6,13,54.9,16,73,3.7,22.5,6.6,47.3,8,74,6.7,8.2,14.2,18.8,21,32,8.6,16.6,13.3,32,16,44"/>
      <line class="cls-3" x1="2326.15" y1="633.35" x2="2519.55" y2="567.95"/>
      <line class="cls-3" x1="2496.65" y1="681.75" x2="2541.15" y2="670.25"/>
      <line class="cls-3" x1="2505.45" y1="712.25" x2="2547.95" y2="702.15"/>
      <polyline class="cls-3" points="2770.95 555.15 2883.35 532.75 2912.35 638.15 2803.15 668.55"/>
      <line class="cls-3" x1="2977.25" y1="504.85" x2="3012.55" y2="495.45"/>
      <polyline class="cls-3" points="3097.45 360.25 3012.55 385.75 3016.95 398.95 3037.75 411.55 3104.95 660.75"/>
      <polyline class="cls-3" points="2335.95 -557.55 2374.35 -459.55 2388.95 -415.55 2465.75 -309.55 2521.95 -145.15 2610.45 150.65 2712.55 411.55 2741.95 382.85 2932.25 327.05 3017.95 313.95 3296.95 239.95 3363.45 246.05 3640.95 167.85 3973.95 85.85 4126.35 39.95 4187.85 30.95 4278.95 -2.05 4534.95 -77.65"/>
      <polyline class="cls-3" points="2955.95 707.15 2982.45 812.35 3062.75 1049.45"/>
      <polyline class="cls-3" points="2987.65 694.65 3012.55 803.95 3092.85 1043.35"/>
      <line class="cls-3" x1="3040.25" y1="741.95" x2="2932.25" y2="773.95"/>
      <polyline class="cls-3" points="2912.35 719.95 2949.65 821.55 3034.45 1054.95"/>
      <polyline class="cls-3" points="2618.65 821.25 2841.65 763.15 2883.95 768.95 2900.95 812.35 2691.95 868.95"/>
      <line class="cls-3" x1="2836.35" y1="853.25" x2="2872.75" y2="975.85"/>
      <line class="cls-3" x1="2872.75" y1="843.05" x2="2912.35" y2="996.35"/>
      <line class="cls-3" x1="2906.85" y1="833.45" x2="2955.95" y2="1019.05"/>
      <line class="cls-3" x1="2931.45" y1="826.65" x2="2994.85" y2="1040.45"/>
      <line class="cls-3" x1="2343.95" y1="87.45" x2="2381.85" y2="211.45"/>
      <polyline class="cls-3" points="3097.65 7.65 3119.65 83.95 2950.45 131.75 2980.95 233.95 3147.15 179.55"/>
      <polyline class="cls-3" points="3241.95 522.05 3081.25 573.15 3037.45 583.55"/>
      <line class="cls-3" x1="2973.35" y1="1028.45" x2="3429.05" y2="847.75"/>
      <line class="cls-3" x1="2637.45" y1="142.05" x2="2712.55" y2="411.55"/>
      <polyline class="cls-3" points="2547.85 161.25 2604.55 264.85 2655.15 264.85"/>
      <polyline class="cls-3" points="2877.75 343.05 2941.45 567.95 2987.65 561.75"/>
      <polyline class="cls-3" points="2876.35 507.15 2917.55 494.65 2970.35 479.95"/>
      <polyline class="cls-3" points="2916.35 652.65 2977.25 633.35 2997.55 691.75"/>
      <line class="cls-3" x1="2865.55" y1="651.15" x2="2886.75" y2="719.95"/>
    </g>
  </g>
</svg>