<?xml version="1.0" encoding="UTF-8"?>
<svg id="Layer_1" data-name="Layer 1" xmlns="http://www.w3.org/2000/svg" xmlns:xlink="http://www.w3.org/1999/xlink" viewBox="0 0 3060.1 1260.5">
  <defs>
    <style>
      .cls-1 {
        stroke-width: 0px;
      }

      .cls-1, .cls-2, .cls-3 {
        fill: none;
      }

      .cls-4 {
        fill: #1d1c1d;
      }

      .cls-5 {
        clip-path: url(#clippath-1);
      }

      .cls-6 {
        clip-path: url(#clippath-2);
      }

      .cls-2 {
        stroke-width: 2px;
      }

      .cls-2, .cls-3 {
        stroke: #f2f1ed;
        stroke-miterlimit: 10;
      }

      .cls-3 {
        stroke-width: 4px;
      }
    </style>
    <clipPath id="clippath-1">
      <rect class="cls-1" width="3060.1" height="1260.5"/>
    </clipPath>
    <clipPath id="clippath-2">
      <rect class="cls-1" x="3186.23" y="-19.5" width="1280" height="1280"/>
    </clipPath>
  </defs>
  <rect class="cls-4" width="3060.1" height="1260.5"/>
  <g class="cls-5">
    <g>
      <g id="Layer_2" data-name="Layer 2">
        <path class="cls-3" d="m352.09-152.76l82.15,67.45,111.55-96.85,26.12,48.43,137.32,69.18c-27.07,33.12-54.22,66.33-81.29,99.44,35.19,37.96,66.5,68.31,90.8,90.8,37.18,34.42,53.09,46,76.1,52.75,36.58,10.81,68.4,2.77,78.69,0,39-10.38,64.16-33.98,93.39-61.4,15.91-14.87,27.67-28.54,35.45-38.05,10.2,8.04,25.51,20.06,44.1,34.59,70.13,54.82,105.24,82.24,114.15,88.2,51.45,34.07,116.13,76.96,181.6,58.8,16-4.41,54.56-18.76,88.2-73.5,18.42,12.11,34.07,21.36,44.97,27.67,93.82,54.13,169.4,75.75,189.38,81.29,16.52,4.58,30.18,7.61,38.91,9.51-9.69,19.72-20.84,40.64-33.72,62.26-11.5,19.37-23.18,37.27-34.59,53.61.17,5.27,1.21,13.66,6.92,20.75,10.81,13.49,30.78,12.63,42.37,12.11,41.25-1.82,72.55-31.3,84.74-44.1,55.95-35.71,111.81-71.51,167.76-107.23,62.52-2.59,116.22-7.26,159.11-12.11,61.48-6.92,92.27-10.38,117.6-16.43,20.58-4.93,41.85-11.16,43.24-7.78,1.9,4.67-34.5,23.87-44.97,29.4-55.95,29.57-181.85,98.32-402.1,219.64-2.85,7.18-5.79,14.44-8.65,21.62,41.25,26.2,82.41,52.49,123.66,78.69,27.67-13.23,55.34-26.55,83.01-39.78l3.46,4.32,20.75-8.65,2.59,3.46,27.67-15.57,6.05,10.38-25.08,18.16,3.46,4.32,25.08-11.24h12.97l17.29-10.38,6.92,11.24-38.91,37.18,3.46,5.19,22.48-8.65,5.19,6.05-48.43,35.45,4.32,6.92-6.92,7.78c2.68,1.9,6.75,4.41,12.11,6.05,10.46,3.11,20.67,1.21,32.86-3.46,19.02-7.26,31.39-16.78,37.18-20.75,26.63-18.42,56.99-19.28,78.69-19.89,40.47-1.12,72.98,12.71,91.66,20.75,17.12,7.35,35.45,17.47,60.53,25.08,5.02,1.56,13.49,3.89,30.27,8.65,12.19,3.46,16.86,4.67,23.35,6.05,15.57,3.29,24.39,3.46,26.81,3.46,11.85.17,18.33.09,23.35-4.32,4.76-4.15,2.94-7.52,8.65-13.84,1.82-1.99,7.35-7.87,16.43-9.51,12.28-2.16,21.53,5.27,22.48,6.05,7.26,6.05,9.08,14.1,10.38,19.89,1.82,8.22.17,10.55,0,25.08-.17,14.01-.26,21.45,2.59,29.4,4.5,12.54,13.84,19.89,17.29,22.48,8.47,6.4,25.6,8.73,59.67,12.97,11.07,1.38,17.64,1.99,25.94,0,7-1.64,9.86-3.89,21.62-8.65,0,0,8.82-3.55,22.48-7.78,47.3-14.7,89.07-6.05,89.07-6.05,5.88,1.21,13.49,3.2,19.89-.86,7.87-5.02,9.77-16.34,10.12-25.25-.17-.26-.35-.43-.61-.69-3.8-4.06-10.29-3.89-13.84-3.46.86-7.18,1.73-14.35,2.59-21.62,5.36-46.7,8.99-92.27,11.24-136.63l25.94-.86v13.4c9.6,4.15,17.64,6.66,23.35,8.22,8.13,2.16,11.76,2.51,16.43,6.05,6.66,5.02,9.34,12.02,10.38,14.7,2.51,6.66,1.38,9.43,2.59,16.43,1.64,9.43,4.84,10.72,10.38,23.35,4.76,10.9,6.75,19.8,9.51,32,.86,3.72.69,3.55,4.32,23.35,2.68,14.61,3.98,21.96,4.32,23.35,2.33,10.46,9.34,25.25,31.13,42.37,1.99.26,4.06.61,6.05.86-2.85-33.98-5.79-68.05-8.65-102.04,37.44-3.72,74.97-7.52,112.42-11.24-1.99-4.76-5.36-11.76-11.24-19.02-7.96-9.77-12.19-10.03-20.75-19.89-7.35-8.47-5.36-9.77-15.57-24.21-5.53-7.78-10.55-14.96-18.16-21.62-10.12-8.82-20.06-12.71-25.08-14.7-77.05-30.35-133.69-59.75-166.03-69.18-1.56-.43-6.49-1.82-12.11-5.19,0,0-10.12-5.97-17.29-16.43-10.46-15.31-7.44-38.31-5.19-63.99,1.73-19.8,1.64-39.86,3.46-59.67,2.08-22.14,5.02-55.6,8.65-98.58-2.85-3.46-5.79-6.92-8.65-10.38,3.46-8.65,6.92-17.29,10.38-25.94,9.51,4.32,19.02,8.65,28.54,12.97,187.13,84.66,374.09,160.84,560.35,229.16"/>
        <path class="cls-3" d="m95.27-164c1271.77,1259.41,1780.15,1761.39,1813.79,1792.43,33.55,30.96,72.21,54.65,72.21,54.65,10.72,6.57,28.36,17.29,51.02,26.81,23.69,9.94,62.95,22.83,115.87,24.21"/>
        <path class="cls-3" d="m433.29,170.74l848.39,382.13,108.96,47.56c9.77,8.65,19.63,17.29,29.4,25.94,18.16-17.9,36.32-35.71,54.48-53.61,15.31,5.45,30.53,10.98,45.83,16.43l528.36,517.98,386.54,119.33c309.32,8.65,618.55,17.29,927.86,25.94"/>
        <path class="cls-3" d="m755.06,315.67c95.38,94.08,190.76,188.08,286.23,282.16,20.32,21.1,35.54,38.65,45.83,51.02,11.16,13.4,18.25,22.66,32,32,2.85,1.9,12.19,8.04,36.32,16.43,31.74,10.98,37.96,8.13,68.31,18.16,15.91,5.27,29.75,9.94,45.83,19.89,17.99,11.16,28.88,22.92,39.78,34.59,84.57,90.88,50.24,51.97,62.26,66.58,87.34,106.19,626.5,610.07,712.46,705.71,4.15,4.58,18.59,20.84,40.73,39.69,5.71,4.84,30.7,25.77,71.77,49.29,7.87,4.5,52.4,29.75,103.77,46.7,58.28,19.28,111.9,23.52,214.46,23.35,68.14-.09,155.83-2.16,258.56-9.51.26,32.6.61,65.11.86,97.72"/>
        <path class="cls-3" d="m614.11,1749.66L1645.22,711.54c46.87-51.19,93.74-102.39,140.61-153.49"/>
        <polyline class="cls-3" points="908.12 1760.9 1796.29 859.67 1868.67 785.05"/>
        <path class="cls-3" d="m7.06,1760.9L1369.89,386.83h42.11l211.26,88.2,306.98,157.38,358.09,160.84,201.4,85.61c73.76,2.33,147.61,4.58,221.37,6.92-1.47-6.83-3.03-18.68,0-32.86,2.42-11.41,6.92-19.46,8.65-22.48,3.03-5.1,10.38-17.73,24.21-25.08,18.94-10.12,43.76-7.09,61.4,5.19,2.77,1.99,23,16.43,25.08,39.78,1.38,15.65-5.79,30.01-12.11,42.37-5.19,10.29-8.65,13.32-12.11,23.35-4.5,13.06-4.32,23.95-4.32,29.4.17,21.27-.43,65.2-.86,123.66l-14.7,542.19-5.19,274.12"/>
        <line class="cls-3" x1="-26.66" y1="-43.81" x2="1113.93" y2="1098.51"/>
        <line class="cls-3" x1="487.94" y1="1734.1" x2="1645.22" y2="569.64"/>
        <line class="cls-3" x1="1794.39" y1="711.54" x2="712.69" y2="1807.6"/>
        <path class="cls-3" d="m1011.63,1789.44c310.79-309.32,621.66-618.55,932.45-927.86"/>
        <path class="cls-3" d="m1612.62,1337.27c134.12-133.52,268.24-266.94,402.36-400.46"/>
        <path class="cls-3" d="m310.59,1749.66c425.19-430.03,850.3-860.16,1275.49-1290.19"/>
        <path class="cls-3" d="m3357.06,1142.62c-303.26-7.78-606.44-15.57-909.7-23.35-184.79-51.97-317.96-89.33-332.92-93.39-1.47-.35-5.02-1.56-9.51-3.46-21.45-9.17-33.9-24.3-39.78-31.13-15.13-17.81-40.73-45.05-73.5-80.42l-298.51-304.13-63.82-50.41-148.91-64.16-152.11-63.47"/>
        <polyline class="cls-3" points="2793.08 1360.96 2432.65 1350.15 2006.34 1223.9 1420.05 626.37"/>
        <line class="cls-3" x1="641.35" y1="1121.43" x2="1388.4" y2="1847.72"/>
        <line class="cls-3" x1="910.71" y1="1142.62" x2="1728.76" y2="1945.96"/>
        <line class="cls-3" x1="-11.96" y1="949.69" x2="932.77" y2="1885.43"/>
        <polyline class="cls-3" points="1944.08 861.58 2441.3 1002.53 2471.57 1025.88 3391.74 1052.51"/>
        <line class="cls-3" x1="-6.77" y1="165.46" x2="338.34" y2="-182.16"/>
      </g>
      <g id="Layer_3" data-name="Layer 3">
        <path class="cls-2" d="m-6.77,138.22c2.16,2.16,797.89,799.97,797.89,800.06,13.84,13.92,20.75,20.84,20.75,20.84,7,7,7.35,7.26,8.82,8.91,1.56,1.64,12.97,13.84,20.75,26.81,6.74,11.24,8.99,19.98,12.97,33.72,4.06,13.84,12.54,43.06,19.89,60.53,5.88,14.01,16.34,33.21,36.32,53.61"/>
        <path class="cls-2" d="m-26.66,661.82C361.61,262.14,517.52,101.64,529.88,88.85c4.58-4.67,9.17-9.34,13.75-14.1,7-7.35,16.26-17.21,27.24-27.76,0,0,2.68-2.59,7.78-6.92,8.82-7.52,11.67-8.82,13.84-9.51.26-.09,5.36-1.73,10.38-.86,4.41.78,7.35,3.29,8.65,4.32,0,0,59.06,48.51,71.77,71.77,2.33,4.32,2.59,8.65,2.59,8.65.09,1.21.26,6.49-5.19,15.57-3.72,6.23-7.61,10.2-7.78,10.38-4.41,4.5-12.11,12.37-22.57,23-12.02,12.28-29.4,29.92-71.77,72.81-27.41,27.67-186.01,187.04-599.18,602.03"/>
        <path class="cls-2" d="m513.63,1544.29L.14,1039.71v81.72l471.54,465.32-41.33,41.85L-11.96,1187.76l19.02,97.46,383.77,383.25-41.68,42.11L-8.5,1349.29l3.46,90.8,322.46,302.66-56.99,59.67-201.48-147.87-99.44-160.84c80.42-85.61,160.84-171.22,241.26-256.83"/>
        <line class="cls-2" x1="1189.42" y1="1170.37" x2="1702.81" y2="1687.4"/>
        <polyline class="cls-2" points="2294.3 900.49 2188.28 1277.77 2185.43 1734.1"/>
        <polyline class="cls-2" points="2014.99 1074.13 1440.19 1662.58 1429.73 1687.4 1343.08 1776.47"/>
        <line class="cls-2" x1="1145.58" y1="1734.1" x2="1789.29" y2="1085.54"/>
        <polyline class="cls-2" points="1898.25 1193.64 1632.77 929.03 1459.65 756.34 1375.34 672.63"/>
        <line class="cls-2" x1="1238.45" y1="1037.98" x2="1493.63" y2="793.26"/>
        <line class="cls-2" x1="1279.09" y1="1080.18" x2="1209.14" y2="1008.41"/>
        <path class="cls-2" d="m3363.11,506.17c-365.87-148.13-510.28-206.85-522.13-211.86-5.19-2.25-8.47-3.55-14.87-6.05,0,0-8.56-3.37-25.08-8.65-10.38-3.29-12.88-3.8-15.57-2.59-5.36,2.42-7.09,9.69-7.78,12.97-8.65,40.38-12.02,116.13-12.97,132.3-.09,1.21-.52,11.5.86,25.08.95,8.91,1.47,13.49,3.46,18.16,5.1,11.93,16.86,17.73,23.35,20.75,19.46,9.17,77.74,34.07,157.38,65.72,130.58,54.22,261.15,108.35,391.73,162.57"/>
        <line class="cls-2" x1="3363.11" y1="556.15" x2="2773.36" y2="315.67"/>
        <line class="cls-2" x1="3338.9" y1="590.05" x2="2768.86" y2="358.13"/>
        <line class="cls-2" x1="3347.55" y1="632.85" x2="2766.36" y2="393.75"/>
        <line class="cls-2" x1="3338.9" y1="668.48" x2="2764.54" y2="432.15"/>
        <path class="cls-2" d="m3000.79,1758.31c-27.07-302.05-54.22-604.19-81.29-906.25,10.98-4.58,25.68-10.55,43.24-17.29,16.78-6.4,42.98-16.43,76.1-26.81,17.9-5.62,36.84-11.59,57.94-16.43,26.12-6.05,63.82-12.28,111.55-12.11"/>
        <polyline class="cls-2" points="2830.61 1677.28 2842.45 1307.44 2848.16 1129.56"/>
        <path class="cls-2" d="m2598.68,1723.55c2.16-92.35,3.63-159.72,5.19-187.04.52-9.08,1.73-25.34-3.46-45.4-2.94-11.5-5.62-14.87-8.65-25.94-2.94-10.81-5.62-26.72-3.46-47.56.78-38.31,1.64-76.7,2.59-115.01,2.77-112.42,6.23-224.83,10.38-337.25"/>
        <polyline class="cls-2" points="2462.66 1019.04 2473.3 1001.66 2648.84 952.37 2737.04 926.43 3359.65 948.91"/>
        <path class="cls-2" d="m3338.04,871.95c-16.17-7.61-39.35-17.21-68.31-25.08-21.88-5.97-57.25-15.22-99.44-13.84-28.02.95-48.77,6.31-94.26,20.75-39.09,12.45-90.62,29.75-151.33,52.75"/>
        <line class="cls-2" x1="2940.86" y1="1090.3" x2="3116.75" y2="1095.49"/>
        <line class="cls-2" x1="2858.97" y1="982.64" x2="3338.04" y2="998.9"/>
        <line class="cls-2" x1="2848.16" y1="1189.74" x2="3357.06" y2="1210.93"/>
        <polyline class="cls-2" points="2517.31 1689.04 2596 1676.59 2628.6 1676.59 2721.48 1673.57 2742.32 926.43"/>
        <path class="cls-2" d="m2278.73,1754.85c.52-11.16,1.3-28.54,1.73-50.15.43-23.78.09-29.75,1.73-38.91,1.38-7.35,7.7-33.64,29.4-54.48,3.37-3.2,13.75-9.94,34.59-23.35,24.21-15.57,26.89-16.26,35.45-23.35,7.87-6.49,19.28-16,29.4-32,4.15-6.49,14.96-24.9,18.16-51.02,1.12-9.08.95-15.91.86-18.16-1.12-42.98,2.94-85.87,3.46-128.85.69-56.81,3.2-113.54,2.59-170.35-.26-29.75,2.42-59.41,3.46-89.07.17-4.93.61-16.34,3.46-31.13,2.77-14.18,6.66-25.51,9.51-32.86"/>
        <path class="cls-2" d="m2021.04,1174.61c196.81,54.48,328.43,90.11,342.44,91.66,1.56.17,9.6.86,11.24,5.19,1.47,3.89-3.11,8.91-5.19,11.24-8.82,9.77-20.32,22.83-34.59,38.91l-18.33,64.94-22.31,79.21"/>
        <path class="cls-2" d="m2114.43,1025.88c-.43,9.86-1.56,18.07-2.59,24.21-3.2,18.94-6.75,22.48-9.51,24.21-3.55,2.16-7.26,2.08-11.24,1.73-8.47-.69-21.79-2.59-38.91-8.65"/>
        <line class="cls-2" x1="2734.97" y1="1189.74" x2="2436.2" y2="1180.75"/>
        <path class="cls-2" d="m2737.91,1084.16c-131.96-.61-228.64-1.73-235.21-2.94-4.5-.78-8.65-3.46-8.65-3.46l-3.46-3.46c.35-5.97.61-12.02.86-18.16.43-9.94.69-19.8.86-29.4"/>
        <line class="cls-2" x1="2599.12" y1="982.64" x2="2740.76" y2="982.64"/>
        <line class="cls-2" x1="2858.97" y1="930.84" x2="2858.97" y2="1037.12"/>
        <line class="cls-2" x1="2440.78" y1="1058.13" x2="2084.51" y2="957.04"/>
        <polyline class="cls-2" points="2112.79 1043.78 2160.26 1095.06 2234.28 1114.08 2436.2 1174.61"/>
        <line class="cls-2" x1="2057.01" y1="1051.04" x2="1904.99" y2="900.49"/>
        <polyline class="cls-2" points="1971.66 1118.4 1493.63 646 1533.93 602.5"/>
        <polyline class="cls-2" points="1717 1012.99 1502.71 1228.66 1376.64 1358.97"/>
        <path class="cls-2" d="m1580.71,1137c2.08,2.16,4.15,4.32,6.23,6.49-11.5-12.11-23-24.21-34.59-36.32l10.46-10.64-39-37.79c39.52-40.04,79.12-80.07,118.64-120.11"/>
        <polyline class="cls-2" points="1513 1734.1 2006.34 1223.9 2101.11 900.49 2110.97 846.01"/>
        <polyline class="cls-2" points="822.77 1776.47 1388.4 1193.64 1429.13 1232.2"/>
        <line class="cls-2" x1="701.97" y1="1734.1" x2="1227.12" y2="1208.34"/>
        <polyline class="cls-2" points="1362.45 1090.04 1328.3 1128.87 1355.28 1153.86"/>
        <polyline class="cls-2" points="954.64 1185.77 1134.68 1005.12 1164 1005.12"/>
        <polyline class="cls-2" points="1188.12 1029.51 1164 1005.12 -.72 -170.92"/>
        <path class="cls-2" d="m-6.77-93.1C369.13,277.62,744.94,648.25,1120.85,1018.96"/>
        <line class="cls-2" x1="995.63" y1="1056.75" x2="-11.96" y2="59.36"/>
        <polyline class="cls-2" points="236.56 1195.8 995.63 429.29 1092.31 332.36"/>
        <path class="cls-2" d="m-19.74,1236.01C306.26,903.34,632.27,570.76,958.28,238.1c7.7,7.61,19.11,18.33,33.72,30.27,42.03,34.5,80.94,55.08,123.66,75.23,83.45,39.35,163.26,68.05,212.73,84.74"/>
        <path class="cls-2" d="m-6.77,1005.12C252.65,742.85,512.07,480.49,771.49,218.21"/>
        <line class="cls-2" x1="125.01" y1="270.27" x2="329.61" y2="59.36"/>
        <line class="cls-2" x1="593.7" y1="1463.26" x2="-126.97" y2="755.21"/>
        <line class="cls-2" x1="487.94" y1="1276.05" x2="-152.91" y2="648.85"/>
        <line class="cls-2" x1="527.64" y1="1236.01" x2="-134.75" y2="583.13"/>
        <line class="cls-2" x1="567.5" y1="1195.8" x2="-79.41" y2="569.64"/>
        <line class="cls-2" x1="641.35" y1="1121.43" x2="-100.08" y2="386.83"/>
        <line class="cls-2" x1="439.43" y1="990.94" x2="-40.5" y2="527.35"/>
        <line class="cls-2" x1="831.76" y1="1222.52" x2="-73.36" y2="322.84"/>
        <line class="cls-2" x1="874.48" y1="1179.28" x2="-40.5" y2="270.27"/>
        <polyline class="cls-2" points="199.81 428.77 848.45 1079.49 869.21 1075.25"/>
        <path class="cls-2" d="m1026.59,244.15c-.86,1.12-3.29,4.15-3.46,8.65-.17,6.23,4.15,11.41,8.65,13.84,5.36,2.94,13.49,3.46,19.02-1.73,3.98-3.8,5.53-9.6,4.32-14.7-1.64-7-8.13-11.67-14.7-12.11-5.53-.43-10.72,2.16-13.84,6.05Z"/>
        <path class="cls-2" d="m263.89-107.19c38.91,41.33,77.83,82.58,116.74,123.92,2.42,1.99,7.78,5.88,15.57,6.92.78.09,11.41,1.38,18.16-3.46.61-.43,1.73-1.3,2.68-2.08,3.63-3.03,5.97-5.62,6.83-6.57,9.17-10.12,13.84-15.13,19.02-17.29,1.73-.69,5.45-2.16,10.38-1.73,6.66.61,11.24,4.41,12.97,6.05,11.76,10.9,23.52,22.14,35.45,33.72,14.61,14.27,28.8,28.36,42.37,42.37"/>
        <line class="cls-2" x1="620.08" y1="194.08" x2="1471.84" y2="575"/>
        <path class="cls-2" d="m765.44,213.89c1.9,2.51,4.41,3.63,6.05,4.32,5.79,2.51,14.61,2.77,19.89-2.59.78-.78,2.59-2.85,3.46-6.05,1.38-5.36-.61-11.07-4.32-14.7-5.02-4.93-11.59-4.41-12.97-4.32-1.64.09-8.13.61-12.11,6.05-3.72,5.19-3.55,12.54,0,17.29Z"/>
        <line class="cls-2" x1="675.07" y1="315.67" x2="1059.62" y2="699.61"/>
        <line class="cls-2" x1="973.58" y1="451.52" x2="1142.46" y2="616.16"/>
        <polyline class="cls-2" points="987.5 358.47 1013.79 285.23 1029.53 265.17"/>
        <polyline class="cls-2" points="1045.7 602.5 1088.42 563.41 1121.71 480.83"/>
        <polyline class="cls-2" points="1388.4 661.82 1432.15 705.92 1465.44 672.63"/>
        <polyline class="cls-2" points="2441.3 1002.53 2440.78 942.17 2084.51 839.61 1944.08 861.58"/>
        <polyline class="cls-2" points="1586.08 1751.48 1629.31 1708.16 1658.54 1734.1 1842.04 1538.67 2002.88 1382.15 2123.68 1259.62"/>
        <path class="cls-2" d="m688.48,1167.69c-53.61,52.58-107.23,105.24-160.84,157.81l44.97,40.21c52.75-52.49,105.41-104.89,158.16-157.38"/>
        <path class="cls-2" d="m956.55,126.72c18.25,18.85,38.39,38.22,60.53,57.76,34.68,30.61,68.57,56.64,100.31,78.69-11.59,21.36-23.18,42.8-34.76,64.16"/>
        <polyline class="cls-2" points="1119.64 345.41 1147.65 292.58 1112.46 272.34"/>
        <path class="cls-2" d="m1282.12,261.97l73.07,60.88c4.58,3.37,11.24,8.39,19.02,14.7s8.82,7.44,9.51,8.65c6.92,11.5-8.22,32.95-15.57,42.37"/>
        <line class="cls-2" x1="1740.6" y1="535.22" x2="1759.54" y2="586.76"/>
        <polyline class="cls-2" points="1698.06 513.35 1702.81 472.44 1950.13 324.57 2028.73 315.67 1715.27 522.25"/>
      </g>
    </g>
  </g>
  <g class="cls-6">
    <g>
      <g id="Layer_2-2" data-name="Layer 2">
        <path class="cls-3" d="m2907.7-172.26l82.15,67.45,111.55-96.85,26.12,48.43,137.32,69.18c-27.07,33.12-54.22,66.33-81.29,99.44,35.19,37.96,66.5,68.31,90.8,90.8,37.18,34.42,53.09,46,76.1,52.75,36.58,10.81,68.4,2.77,78.69,0,39-10.38,64.16-33.98,93.39-61.4,15.91-14.87,27.67-28.54,35.45-38.05,10.2,8.04,25.51,20.06,44.1,34.59,70.13,54.82,105.24,82.24,114.15,88.2,51.45,34.07,116.13,76.96,181.6,58.8,16-4.41,54.56-18.76,88.2-73.5,18.42,12.11,34.07,21.36,44.97,27.67,93.82,54.13,169.4,75.75,189.38,81.29,16.52,4.58,30.18,7.61,38.91,9.51-9.69,19.72-20.84,40.64-33.72,62.26-11.5,19.37-23.18,37.27-34.59,53.61.17,5.27,1.21,13.66,6.92,20.75,10.81,13.49,30.78,12.63,42.37,12.11,41.25-1.82,72.55-31.3,84.74-44.1,55.95-35.71,111.81-71.51,167.76-107.23,62.52-2.59,116.22-7.26,159.11-12.11,61.48-6.92,92.27-10.38,117.6-16.43,20.58-4.93,41.85-11.16,43.24-7.78,1.9,4.67-34.5,23.87-44.97,29.4-55.95,29.57-181.85,98.32-402.1,219.64-2.85,7.18-5.79,14.44-8.65,21.62,41.25,26.2,82.41,52.49,123.66,78.69,27.67-13.23,55.34-26.55,83.01-39.78l3.46,4.32,20.75-8.65,2.59,3.46,27.67-15.57,6.05,10.38-25.08,18.16,3.46,4.32,25.08-11.24h12.97l17.29-10.38,6.92,11.24-38.91,37.18,3.46,5.19,22.48-8.65,5.19,6.05-48.43,35.45,4.32,6.92-6.92,7.78c2.68,1.9,6.75,4.41,12.11,6.05,10.46,3.11,20.67,1.21,32.86-3.46,19.02-7.26,31.39-16.78,37.18-20.75,26.63-18.42,56.99-19.28,78.69-19.89,40.47-1.12,72.98,12.71,91.66,20.75,17.12,7.35,35.45,17.47,60.53,25.08,5.02,1.56,13.49,3.89,30.27,8.65,12.19,3.46,16.86,4.67,23.35,6.05,15.57,3.29,24.39,3.46,26.81,3.46,11.85.17,18.33.09,23.35-4.32,4.76-4.15,2.94-7.52,8.65-13.84,1.82-1.99,7.35-7.87,16.43-9.51,12.28-2.16,21.53,5.27,22.48,6.05,7.26,6.05,9.08,14.1,10.38,19.89,1.82,8.22.17,10.55,0,25.08-.17,14.01-.26,21.45,2.59,29.4,4.5,12.54,13.84,19.89,17.29,22.48,8.47,6.4,25.6,8.73,59.67,12.97,11.07,1.38,17.64,1.99,25.94,0,7-1.64,9.86-3.89,21.62-8.65,0,0,8.82-3.55,22.48-7.78,47.3-14.7,89.07-6.05,89.07-6.05,5.88,1.21,13.49,3.2,19.89-.86,7.87-5.02,9.77-16.34,10.12-25.25-.17-.26-.35-.43-.61-.69-3.8-4.06-10.29-3.89-13.84-3.46.86-7.18,1.73-14.35,2.59-21.62,5.36-46.7,8.99-92.27,11.24-136.63l25.94-.86v13.4c9.6,4.15,17.64,6.66,23.35,8.22,8.13,2.16,11.76,2.51,16.43,6.05,6.66,5.02,9.34,12.02,10.38,14.7,2.51,6.66,1.38,9.43,2.59,16.43,1.64,9.43,4.84,10.72,10.38,23.35,4.76,10.9,6.75,19.8,9.51,32,.86,3.72.69,3.55,4.32,23.35,2.68,14.61,3.98,21.96,4.32,23.35,2.33,10.46,9.34,25.25,31.13,42.37,1.99.26,4.06.61,6.05.86-2.85-33.98-5.79-68.05-8.65-102.04,37.44-3.72,74.97-7.52,112.42-11.24-1.99-4.76-5.36-11.76-11.24-19.02-7.96-9.77-12.19-10.03-20.75-19.89-7.35-8.47-5.36-9.77-15.57-24.21-5.53-7.78-10.55-14.96-18.16-21.62-10.12-8.82-20.06-12.71-25.08-14.7-77.05-30.35-133.69-59.75-166.03-69.18-1.56-.43-6.49-1.82-12.11-5.19,0,0-10.12-5.97-17.29-16.43-10.46-15.31-7.44-38.31-5.19-63.99,1.73-19.8,1.64-39.86,3.46-59.67,2.08-22.14,5.02-55.6,8.65-98.58-2.85-3.46-5.79-6.92-8.65-10.38,3.46-8.65,6.92-17.29,10.38-25.94,9.51,4.32,19.02,8.65,28.54,12.97,187.13,84.66,374.09,160.84,560.35,229.16"/>
        <path class="cls-3" d="m2650.87-183.5c1271.77,1259.41,1780.15,1761.39,1813.79,1792.43,33.55,30.96,72.21,54.65,72.21,54.65,10.72,6.57,28.36,17.29,51.02,26.81,23.69,9.94,62.95,22.83,115.87,24.21"/>
        <path class="cls-3" d="m2988.9,151.24l848.39,382.13,108.96,47.56c9.77,8.65,19.63,17.29,29.4,25.94,18.16-17.9,36.32-35.71,54.48-53.61,15.31,5.45,30.53,10.98,45.83,16.43l528.36,517.98,386.54,119.33c309.32,8.65,618.55,17.29,927.86,25.94"/>
        <path class="cls-3" d="m2562.67,1741.4L3925.5,367.33h42.11l211.26,88.2,306.98,157.38,358.09,160.84,201.4,85.61c73.76,2.33,147.61,4.58,221.37,6.92-1.47-6.83-3.03-18.68,0-32.86,2.42-11.41,6.92-19.46,8.65-22.48,3.03-5.1,10.38-17.73,24.21-25.08,18.94-10.12,43.76-7.09,61.4,5.19,2.77,1.99,23,16.43,25.08,39.78,1.38,15.65-5.79,30.01-12.11,42.37-5.19,10.29-8.65,13.32-12.11,23.35-4.5,13.06-4.32,23.95-4.32,29.4.17,21.27-.43,65.2-.86,123.66l-14.7,542.19-5.19,274.12"/>
        <line class="cls-3" x1="2528.94" y1="-63.31" x2="3669.53" y2="1079.01"/>
        <line class="cls-3" x1="3043.55" y1="1714.6" x2="4200.83" y2="550.14"/>
        <path class="cls-3" d="m2866.19,1730.16c425.19-430.03,850.3-860.16,1275.49-1290.19"/>
        <line class="cls-3" x1="2543.64" y1="930.19" x2="3488.37" y2="1865.93"/>
        <line class="cls-3" x1="2548.83" y1="145.96" x2="2893.95" y2="-201.66"/>
      </g>
      <g id="Layer_3-2" data-name="Layer 3">
        <path class="cls-2" d="m2548.83,118.72c2.16,2.16,797.89,799.97,797.89,800.06,13.84,13.92,20.75,20.84,20.75,20.84,7,7,7.35,7.26,8.82,8.91,1.56,1.64,12.97,13.84,20.75,26.81,6.74,11.24,8.99,19.98,12.97,33.72,4.06,13.84,12.54,43.06,19.89,60.53,5.88,14.01,16.34,33.21,36.32,53.61"/>
        <path class="cls-2" d="m2528.94,642.32c388.27-399.68,544.18-560.18,556.55-572.98,4.58-4.67,9.17-9.34,13.75-14.1,7-7.35,16.26-17.21,27.24-27.76,0,0,2.68-2.59,7.78-6.92,8.82-7.52,11.67-8.82,13.84-9.51.26-.09,5.36-1.73,10.38-.86,4.41.78,7.35,3.29,8.65,4.32,0,0,59.06,48.51,71.77,71.77,2.33,4.32,2.59,8.65,2.59,8.65.09,1.21.26,6.49-5.19,15.57-3.72,6.23-7.61,10.2-7.78,10.38-4.41,4.5-12.11,12.37-22.57,23-12.02,12.28-29.4,29.92-71.77,72.81-27.41,27.67-186.01,187.04-599.18,602.03"/>
        <path class="cls-2" d="m3069.23,1524.79l-513.48-504.57v81.72l471.54,465.32-41.33,41.85-442.31-440.84,19.02,97.46,383.77,383.25-41.68,42.11-357.66-361.29,3.46,90.8,322.46,302.66-56.99,59.67-201.48-147.87-99.44-160.84c80.42-85.61,160.84-171.22,241.26-256.83"/>
        <polyline class="cls-2" points="3743.73 1010.01 3719.6 985.62 2554.88 -190.42"/>
        <path class="cls-2" d="m2548.83-112.6c375.9,370.71,751.72,741.34,1127.62,1112.05"/>
        <line class="cls-2" x1="3551.24" y1="1037.25" x2="2543.64" y2="39.86"/>
        <polyline class="cls-2" points="2792.17 1176.3 3551.24 409.79 3647.91 312.86"/>
        <path class="cls-2" d="m2535.86,1216.51c326.01-332.66,652.01-665.24,978.02-997.91,7.7,7.61,19.11,18.33,33.72,30.27,42.03,34.5,80.94,55.08,123.66,75.23,83.45,39.35,163.26,68.05,212.73,84.74"/>
        <path class="cls-2" d="m2548.83,985.62c259.42-262.28,518.84-524.64,778.26-786.91"/>
        <line class="cls-2" x1="2680.62" y1="250.77" x2="2885.21" y2="39.86"/>
        <line class="cls-2" x1="3149.31" y1="1443.76" x2="2428.63" y2="735.71"/>
        <line class="cls-2" x1="3043.55" y1="1256.55" x2="2402.69" y2="629.35"/>
        <line class="cls-2" x1="3083.24" y1="1216.51" x2="2420.85" y2="563.63"/>
        <line class="cls-2" x1="3123.1" y1="1176.3" x2="2476.19" y2="550.14"/>
        <line class="cls-2" x1="3196.95" y1="1101.93" x2="2455.53" y2="367.33"/>
        <line class="cls-2" x1="2995.04" y1="971.44" x2="2515.11" y2="507.85"/>
        <line class="cls-2" x1="3387.37" y1="1203.02" x2="2482.25" y2="303.34"/>
        <line class="cls-2" x1="3430.09" y1="1159.78" x2="2515.11" y2="250.77"/>
        <polyline class="cls-2" points="2755.42 409.27 3404.06 1059.99 3424.81 1055.75"/>
        <path class="cls-2" d="m2819.49-126.69c38.91,41.33,77.83,82.58,116.74,123.92,2.42,1.99,7.78,5.88,15.57,6.92.78.09,11.41,1.38,18.16-3.46.61-.43,1.73-1.3,2.68-2.08,3.63-3.03,5.97-5.62,6.83-6.57,9.17-10.12,13.84-15.13,19.02-17.29,1.73-.69,5.45-2.16,10.38-1.73,6.66.61,11.24,4.41,12.97,6.05,11.76,10.9,23.52,22.14,35.45,33.72,14.61,14.27,28.8,28.36,42.37,42.37"/>
      </g>
    </g>
  </g>
</svg>