<?xml version="1.0" encoding="UTF-8"?>
<svg id="Layer_1" data-name="Layer 1" xmlns="http://www.w3.org/2000/svg" xmlns:xlink="http://www.w3.org/1999/xlink" viewBox="0 0 1280 1280">
  <defs>
    <style>
      .cls-1 {
        clip-path: url(#clippath);
      }

      .cls-2, .cls-3, .cls-4 {
        fill: none;
      }

      .cls-2, .cls-5 {
        stroke-width: 0px;
      }

      .cls-6 {
        clip-path: url(#clippath-1);
      }

      .cls-3 {
        stroke-width: 2px;
      }

      .cls-3, .cls-4 {
        stroke: #f2f1ed;
        stroke-miterlimit: 10;
      }

      .cls-4 {
        stroke-width: 4px;
      }

      .cls-5 {
        fill: #1d1c1d;
      }
    </style>
    <clipPath id="clippath">
      <rect class="cls-2" x="-3186.23" y="19.5" width="3060.1" height="1260.5"/>
    </clipPath>
    <clipPath id="clippath-1">
      <rect class="cls-2" width="1280" height="1280"/>
    </clipPath>
  </defs>
  <g class="cls-1">
    <g>
      <g id="Layer_2" data-name="Layer 2">
        <path class="cls-4" d="m-2834.14-133.26l82.15,67.45,111.55-96.85,26.12,48.43,137.32,69.18c-27.07,33.12-54.22,66.33-81.29,99.44,35.19,37.96,66.5,68.31,90.8,90.8,37.18,34.42,53.09,46,76.1,52.75,36.58,10.81,68.4,2.77,78.69,0,39-10.38,64.16-33.98,93.39-61.4,15.91-14.87,27.67-28.54,35.45-38.05,10.2,8.04,25.51,20.06,44.1,34.59,70.13,54.82,105.24,82.24,114.15,88.2,51.45,34.07,116.13,76.96,181.6,58.8,16-4.41,54.56-18.76,88.2-73.5,18.42,12.11,34.07,21.36,44.97,27.67,93.82,54.13,169.4,75.75,189.38,81.29,16.52,4.58,30.18,7.61,38.91,9.51-9.69,19.72-20.84,40.64-33.72,62.26-11.5,19.37-23.18,37.27-34.59,53.61.17,5.27,1.21,13.66,6.92,20.75,10.81,13.49,30.78,12.63,42.37,12.11,41.25-1.82,72.55-31.3,84.74-44.1,55.95-35.71,111.81-71.51,167.76-107.23,62.52-2.59,116.22-7.26,159.11-12.11,61.48-6.92,92.27-10.38,117.6-16.43,20.58-4.93,41.85-11.16,43.24-7.78,1.9,4.67-34.5,23.87-44.97,29.4-55.95,29.57-181.85,98.32-402.1,219.64-2.85,7.18-5.79,14.44-8.65,21.62,41.25,26.2,82.41,52.49,123.66,78.69,27.67-13.23,55.34-26.55,83.01-39.78l3.46,4.32,20.75-8.65,2.59,3.46,27.67-15.57,6.05,10.38-25.08,18.16,3.46,4.32,25.08-11.24h12.97l17.29-10.38,6.92,11.24-38.91,37.18,3.46,5.19,22.48-8.65,5.19,6.05-48.43,35.45,4.32,6.92-6.92,7.78c2.68,1.9,6.75,4.41,12.11,6.05,10.46,3.11,20.67,1.21,32.86-3.46,19.02-7.26,31.39-16.78,37.18-20.75,26.63-18.42,56.99-19.28,78.69-19.89,40.47-1.12,72.98,12.71,91.66,20.75,17.12,7.35,35.45,17.47,60.53,25.08,5.02,1.56,13.49,3.89,30.27,8.65,12.19,3.46,16.86,4.67,23.35,6.05,15.57,3.29,24.39,3.46,26.81,3.46,11.85.17,18.33.09,23.35-4.32,4.76-4.15,2.94-7.52,8.65-13.84,1.82-1.99,7.35-7.87,16.43-9.51,12.28-2.16,21.53,5.27,22.48,6.05,7.26,6.05,9.08,14.1,10.38,19.89,1.82,8.22.17,10.55,0,25.08-.17,14.01-.26,21.45,2.59,29.4,4.5,12.54,13.84,19.89,17.29,22.48,8.47,6.4,25.6,8.73,59.67,12.97,11.07,1.38,17.64,1.99,25.94,0,7-1.64,9.86-3.89,21.62-8.65,0,0,8.82-3.55,22.48-7.78,47.3-14.7,89.07-6.05,89.07-6.05,5.88,1.21,13.49,3.2,19.89-.86,7.87-5.02,9.77-16.34,10.12-25.25-.17-.26-.35-.43-.61-.69-3.8-4.06-10.29-3.89-13.84-3.46.86-7.18,1.73-14.35,2.59-21.62,5.36-46.7,8.99-92.27,11.24-136.63l25.94-.86v13.4c9.6,4.15,17.64,6.66,23.35,8.22,8.13,2.16,11.76,2.51,16.43,6.05,6.66,5.02,9.34,12.02,10.38,14.7,2.51,6.66,1.38,9.43,2.59,16.43,1.64,9.43,4.84,10.72,10.38,23.35,4.76,10.9,6.75,19.8,9.51,32,.86,3.72.69,3.55,4.32,23.35,2.68,14.61,3.98,21.96,4.32,23.35,2.33,10.46,9.34,25.25,31.13,42.37,1.99.26,4.06.61,6.05.86-2.85-33.98-5.79-68.05-8.65-102.04,37.44-3.72,74.97-7.52,112.42-11.24-1.99-4.76-5.36-11.76-11.24-19.02-7.96-9.77-12.19-10.03-20.75-19.89-7.35-8.47-5.36-9.77-15.57-24.21-5.53-7.78-10.55-14.96-18.16-21.62-10.12-8.82-20.06-12.71-25.08-14.7-77.05-30.35-133.69-59.75-166.03-69.18-1.56-.43-6.49-1.82-12.11-5.19,0,0-10.12-5.97-17.29-16.43-10.46-15.31-7.44-38.31-5.19-63.99,1.73-19.8,1.64-39.86,3.46-59.67,2.08-22.14,5.02-55.6,8.65-98.58-2.85-3.46-5.79-6.92-8.65-10.38,3.46-8.65,6.92-17.29,10.38-25.94,9.51,4.32,19.02,8.65,28.54,12.97C-206.72,333.61-19.76,409.79,166.51,478.11"/>
        <path class="cls-4" d="m-2752.94,190.24l848.39,382.13,108.96,47.56c9.77,8.65,19.63,17.29,29.4,25.94,18.16-17.9,36.32-35.71,54.48-53.61,15.31,5.45,30.53,10.98,45.83,16.43l528.36,517.98,386.54,119.33c309.32,8.65,618.55,17.29,927.86,25.94"/>
        <path class="cls-4" d="m170.83,1162.12c-303.26-7.78-606.44-15.57-909.7-23.35-184.79-51.97-317.96-89.33-332.92-93.39-1.47-.35-5.02-1.56-9.51-3.46-21.45-9.17-33.9-24.3-39.78-31.13-15.13-17.81-40.73-45.05-73.5-80.42l-298.51-304.13-63.82-50.41-148.91-64.16-152.11-63.47"/>
        <polyline class="cls-4" points="-1242.15 881.08 -744.93 1022.03 -714.66 1045.38 205.51 1072.01"/>
      </g>
      <g id="Layer_3" data-name="Layer 3">
        <path class="cls-3" d="m176.88,525.67c-365.87-148.13-510.28-206.85-522.13-211.86-5.19-2.25-8.47-3.55-14.87-6.05,0,0-8.56-3.37-25.08-8.65-10.38-3.29-12.88-3.8-15.57-2.59-5.36,2.42-7.09,9.69-7.78,12.97-8.65,40.38-12.02,116.13-12.97,132.3-.09,1.21-.52,11.5.86,25.08.95,8.91,1.47,13.49,3.46,18.16,5.1,11.93,16.86,17.73,23.35,20.75,19.46,9.17,77.74,34.07,157.38,65.72,130.58,54.22,261.15,108.35,391.73,162.57"/>
        <line class="cls-3" x1="176.88" y1="575.65" x2="-412.87" y2="335.17"/>
        <line class="cls-3" x1="152.67" y1="609.55" x2="-417.37" y2="377.63"/>
        <line class="cls-3" x1="161.32" y1="652.35" x2="-419.87" y2="413.25"/>
        <line class="cls-3" x1="152.67" y1="687.98" x2="-421.69" y2="451.65"/>
        <path class="cls-3" d="m-185.44,1777.81c-27.07-302.05-54.22-604.19-81.29-906.25,10.98-4.58,25.68-10.55,43.24-17.29,16.78-6.4,42.98-16.43,76.1-26.81,17.9-5.62,36.84-11.59,57.94-16.43,26.12-6.05,63.82-12.28,111.55-12.11"/>
        <polyline class="cls-3" points="62.74 1783.86 77.26 1162.12 90.15 868.28"/>
        <polyline class="cls-3" points="-723.57 1038.54 -712.93 1021.16 -537.39 971.87 -449.19 945.93 173.42 968.41"/>
        <path class="cls-3" d="m151.81,891.45c-16.17-7.61-39.35-17.21-68.31-25.08-21.88-5.97-57.25-15.22-99.44-13.84-28.02.95-48.77,6.31-94.26,20.75-39.09,12.45-90.62,29.75-151.33,52.75"/>
        <line class="cls-3" x1="-327.26" y1="1002.14" x2="151.81" y2="1018.4"/>
        <line class="cls-3" x1="-62.82" y1="907.45" x2="88.25" y2="912.03"/>
        <line class="cls-3" x1="79.17" y1="1119.48" x2="176.88" y2="1124.76"/>
        <line class="cls-3" x1="-338.07" y1="1209.24" x2="170.83" y2="1230.43"/>
      </g>
    </g>
  </g>
  <rect class="cls-5" width="1280" height="1280"/>
  <g class="cls-6">
    <g>
      <g id="Layer_2-2" data-name="Layer 2">
        <path class="cls-4" d="m-278.53-152.76l82.15,67.45,111.55-96.85,26.12,48.43L78.6-64.56C51.54-31.44,24.39,1.77-2.68,34.89c35.19,37.96,66.5,68.31,90.8,90.8,37.18,34.42,53.09,46,76.1,52.75,36.58,10.81,68.4,2.77,78.69,0,39-10.38,64.16-33.98,93.39-61.4,15.91-14.87,27.67-28.54,35.45-38.05,10.2,8.04,25.51,20.06,44.1,34.59,70.13,54.82,105.24,82.24,114.15,88.2,51.45,34.07,116.13,76.96,181.6,58.8,16-4.41,54.56-18.76,88.2-73.5,18.42,12.11,34.07,21.36,44.97,27.67,93.82,54.13,169.4,75.75,189.38,81.29,16.52,4.58,30.18,7.61,38.91,9.51-9.69,19.72-20.84,40.64-33.72,62.26-11.5,19.37-23.18,37.27-34.59,53.61.17,5.27,1.21,13.66,6.92,20.75,10.81,13.49,30.78,12.63,42.37,12.11,41.25-1.82,72.55-31.3,84.74-44.1,55.95-35.71,111.81-71.51,167.76-107.23,62.52-2.59,116.22-7.26,159.11-12.11,61.48-6.92,92.27-10.38,117.6-16.43,20.58-4.93,41.85-11.16,43.24-7.78,1.9,4.67-34.5,23.87-44.97,29.4-55.95,29.57-181.85,98.32-402.1,219.64-2.85,7.18-5.79,14.44-8.65,21.62,41.25,26.2,82.41,52.49,123.66,78.69,27.67-13.23,55.34-26.55,83.01-39.78l3.46,4.32,20.75-8.65,2.59,3.46,27.67-15.57,6.05,10.38-25.08,18.16,3.46,4.32,25.08-11.24h12.97l17.29-10.38,6.92,11.24-38.91,37.18,3.46,5.19,22.48-8.65,5.19,6.05-48.43,35.45,4.32,6.92-6.92,7.78c2.68,1.9,6.75,4.41,12.11,6.05,10.46,3.11,20.67,1.21,32.86-3.46,19.02-7.26,31.39-16.78,37.18-20.75,26.63-18.42,56.99-19.28,78.69-19.89,40.47-1.12,72.98,12.71,91.66,20.75,17.12,7.35,35.45,17.47,60.53,25.08,5.02,1.56,13.49,3.89,30.27,8.65,12.19,3.46,16.86,4.67,23.35,6.05,15.57,3.29,24.39,3.46,26.81,3.46,11.85.17,18.33.09,23.35-4.32,4.76-4.15,2.94-7.52,8.65-13.84,1.82-1.99,7.35-7.87,16.43-9.51,12.28-2.16,21.53,5.27,22.48,6.05,7.26,6.05,9.08,14.1,10.38,19.89,1.82,8.22.17,10.55,0,25.08-.17,14.01-.26,21.45,2.59,29.4,4.5,12.54,13.84,19.89,17.29,22.48,8.47,6.4,25.6,8.73,59.67,12.97,11.07,1.38,17.64,1.99,25.94,0,7-1.64,9.86-3.89,21.62-8.65,0,0,8.82-3.55,22.48-7.78,47.3-14.7,89.07-6.05,89.07-6.05,5.88,1.21,13.49,3.2,19.89-.86,7.87-5.02,9.77-16.34,10.12-25.25-.17-.26-.35-.43-.61-.69-3.8-4.06-10.29-3.89-13.84-3.46.86-7.18,1.73-14.35,2.59-21.62,5.36-46.7,8.99-92.27,11.24-136.63l25.94-.86v13.4c9.6,4.15,17.64,6.66,23.35,8.22,8.13,2.16,11.76,2.51,16.43,6.05,6.66,5.02,9.34,12.02,10.38,14.7,2.51,6.66,1.38,9.43,2.59,16.43,1.64,9.43,4.84,10.72,10.38,23.35,4.76,10.9,6.75,19.8,9.51,32,.86,3.72.69,3.55,4.32,23.35,2.68,14.61,3.98,21.96,4.32,23.35,2.33,10.46,9.34,25.25,31.13,42.37,1.99.26,4.06.61,6.05.86-2.85-33.98-5.79-68.05-8.65-102.04,37.44-3.72,74.97-7.52,112.42-11.24-1.99-4.76-5.36-11.76-11.24-19.02-7.96-9.77-12.19-10.03-20.75-19.89-7.35-8.47-5.36-9.77-15.57-24.21-5.53-7.78-10.55-14.96-18.16-21.62-10.12-8.82-20.06-12.71-25.08-14.7-77.05-30.35-133.69-59.75-166.03-69.18-1.56-.43-6.49-1.82-12.11-5.19,0,0-10.12-5.97-17.29-16.43-10.46-15.31-7.44-38.31-5.19-63.99,1.73-19.8,1.64-39.86,3.46-59.67,2.08-22.14,5.02-55.6,8.65-98.58-2.85-3.46-5.79-6.92-8.65-10.38,3.46-8.65,6.92-17.29,10.38-25.94,9.51,4.32,19.02,8.65,28.54,12.97,187.13,84.66,374.09,160.84,560.35,229.16"/>
        <path class="cls-4" d="m-535.36-164C736.41,1095.4,1244.79,1597.38,1278.43,1628.43c33.55,30.96,72.21,54.65,72.21,54.65,10.72,6.57,28.36,17.29,51.02,26.81,23.69,9.94,62.95,22.83,115.87,24.21"/>
        <path class="cls-4" d="m-197.33,170.74l848.39,382.13,108.96,47.56c9.77,8.65,19.63,17.29,29.4,25.94,18.16-17.9,36.32-35.71,54.48-53.61,15.31,5.45,30.53,10.98,45.83,16.43l528.36,517.98,386.54,119.33c309.32,8.65,618.55,17.29,927.86,25.94"/>
        <path class="cls-4" d="m124.44,315.67c95.38,94.08,190.76,188.08,286.23,282.16,20.32,21.1,35.54,38.65,45.83,51.02,11.16,13.4,18.25,22.66,32,32,2.85,1.9,12.19,8.04,36.32,16.43,31.74,10.98,37.96,8.13,68.31,18.16,15.91,5.27,29.75,9.94,45.83,19.89,17.99,11.16,28.88,22.92,39.78,34.59,84.57,90.88,50.24,51.97,62.26,66.58,87.34,106.19,626.5,610.07,712.46,705.71,4.15,4.58,18.59,20.84,40.73,39.69,5.71,4.84,30.7,25.77,71.77,49.29,7.87,4.5,52.4,29.75,103.77,46.7,58.28,19.28,111.9,23.52,214.46,23.35,68.14-.09,155.83-2.16,258.56-9.51.26,32.6.61,65.11.86,97.72"/>
        <path class="cls-4" d="m-16.52,1749.66L1014.6,711.54c46.87-51.19,93.74-102.39,140.61-153.49"/>
        <polyline class="cls-4" points="277.49 1760.9 1165.67 859.67 1238.05 785.05"/>
        <path class="cls-4" d="m-623.56,1760.9L739.26,386.83h42.11l211.26,88.2,306.98,157.38,358.09,160.84,201.4,85.61c73.76,2.33,147.61,4.58,221.37,6.92-1.47-6.83-3.03-18.68,0-32.86,2.42-11.41,6.92-19.46,8.65-22.48,3.03-5.1,10.38-17.73,24.21-25.08,18.94-10.12,43.76-7.09,61.4,5.19,2.77,1.99,23,16.43,25.08,39.78,1.38,15.65-5.79,30.01-12.11,42.37-5.19,10.29-8.65,13.32-12.11,23.35-4.5,13.06-4.32,23.95-4.32,29.4.17,21.27-.43,65.2-.86,123.66l-14.7,542.19-5.19,274.12"/>
        <line class="cls-4" x1="-657.29" y1="-43.81" x2="483.3" y2="1098.51"/>
        <line class="cls-4" x1="-142.68" y1="1734.1" x2="1014.6" y2="569.64"/>
        <line class="cls-4" x1="1163.76" y1="711.54" x2="82.06" y2="1807.6"/>
        <path class="cls-4" d="m381,1789.44c310.79-309.32,621.66-618.55,932.45-927.86"/>
        <path class="cls-4" d="m982,1337.27c134.12-133.52,268.24-266.94,402.36-400.46"/>
        <path class="cls-4" d="m-320.04,1749.66C105.15,1319.63,530.26,889.51,955.45,459.47"/>
        <path class="cls-4" d="m2726.43,1142.62c-303.26-7.78-606.44-15.57-909.7-23.35-184.79-51.97-317.96-89.33-332.92-93.39-1.47-.35-5.02-1.56-9.51-3.46-21.45-9.17-33.9-24.3-39.78-31.13-15.13-17.81-40.73-45.05-73.5-80.42l-298.51-304.13-63.82-50.41-148.91-64.16-152.11-63.47"/>
        <polyline class="cls-4" points="2162.45 1360.96 1802.03 1350.15 1375.71 1223.9 789.42 626.37"/>
        <line class="cls-4" x1="10.72" y1="1121.43" x2="757.77" y2="1847.72"/>
        <line class="cls-4" x1="280.09" y1="1142.62" x2="1098.13" y2="1945.96"/>
        <line class="cls-4" x1="-642.59" y1="949.69" x2="302.14" y2="1885.43"/>
      </g>
      <g id="Layer_3-2" data-name="Layer 3">
        <path class="cls-3" d="m-637.4,138.22c2.16,2.16,797.89,799.97,797.89,800.06,13.84,13.92,20.75,20.84,20.75,20.84,7,7,7.35,7.26,8.82,8.91,1.56,1.64,12.97,13.84,20.75,26.81,6.74,11.24,8.99,19.98,12.97,33.72,4.06,13.84,12.54,43.06,19.89,60.53,5.88,14.01,16.34,33.21,36.32,53.61"/>
        <path class="cls-3" d="m-657.29,661.82C-269.02,262.14-113.11,101.64-100.74,88.85c4.58-4.67,9.17-9.34,13.75-14.1,7-7.35,16.26-17.21,27.24-27.76,0,0,2.68-2.59,7.78-6.92,8.82-7.52,11.67-8.82,13.84-9.51.26-.09,5.36-1.73,10.38-.86,4.41.78,7.35,3.29,8.65,4.32,0,0,59.06,48.51,71.77,71.77,2.33,4.32,2.59,8.65,2.59,8.65.09,1.21.26,6.49-5.19,15.57-3.72,6.23-7.61,10.2-7.78,10.38-4.41,4.5-12.11,12.37-22.57,23-12.02,12.28-29.4,29.92-71.77,72.81-27.41,27.67-186.01,187.04-599.18,602.03"/>
        <line class="cls-3" x1="558.79" y1="1170.37" x2="1072.19" y2="1687.4"/>
        <polyline class="cls-3" points="1384.36 1074.13 809.57 1662.58 799.1 1687.4 712.46 1776.47"/>
        <line class="cls-3" x1="514.95" y1="1734.1" x2="1158.66" y2="1085.54"/>
        <polyline class="cls-3" points="1267.62 1193.64 1002.15 929.03 829.02 756.34 744.71 672.63"/>
        <line class="cls-3" x1="607.82" y1="1037.98" x2="863.01" y2="793.26"/>
        <line class="cls-3" x1="648.47" y1="1080.18" x2="578.51" y2="1008.41"/>
        <line class="cls-3" x1="1426.39" y1="1051.04" x2="1274.37" y2="900.49"/>
        <polyline class="cls-3" points="1341.04 1118.4 863.01 646 903.31 602.5"/>
        <polyline class="cls-3" points="1086.37 1012.99 872.09 1228.66 746.01 1358.97"/>
        <path class="cls-3" d="m950.09,1137c2.08,2.16,4.15,4.32,6.23,6.49-11.5-12.11-23-24.21-34.59-36.32l10.46-10.64-39-37.79c39.52-40.04,79.12-80.07,118.64-120.11"/>
        <polyline class="cls-3" points="882.38 1734.1 1375.71 1223.9 1470.49 900.49 1480.35 846.01"/>
        <polyline class="cls-3" points="192.14 1776.47 757.77 1193.64 798.5 1232.2"/>
        <line class="cls-3" x1="71.34" y1="1734.1" x2="596.5" y2="1208.34"/>
        <polyline class="cls-3" points="731.83 1090.04 697.67 1128.87 724.65 1153.86"/>
        <polyline class="cls-3" points="324.02 1185.77 504.06 1005.12 533.37 1005.12"/>
        <polyline class="cls-3" points="557.5 1029.51 533.37 1005.12 -631.35 -170.92"/>
        <path class="cls-3" d="m-637.4-93.1C-261.5,277.62,114.32,648.25,490.22,1018.96"/>
        <line class="cls-3" x1="365.01" y1="1056.75" x2="-642.59" y2="59.36"/>
        <polyline class="cls-3" points="-394.06 1195.8 365.01 429.29 461.68 332.36"/>
        <path class="cls-3" d="m-650.37,1236.01C-324.36,903.34,1.64,570.76,327.65,238.1c7.7,7.61,19.11,18.33,33.72,30.27,42.03,34.5,80.94,55.08,123.66,75.23,83.45,39.35,163.26,68.05,212.73,84.74"/>
        <path class="cls-3" d="m-637.4,1005.12C-377.98,742.85-118.56,480.49,140.87,218.21"/>
        <line class="cls-3" x1="10.72" y1="1121.43" x2="-730.7" y2="386.83"/>
        <line class="cls-3" x1="201.14" y1="1222.52" x2="-703.98" y2="322.84"/>
        <line class="cls-3" x1="243.86" y1="1179.28" x2="-671.12" y2="270.27"/>
        <polyline class="cls-3" points="-430.81 428.77 217.83 1079.49 238.58 1075.25"/>
        <path class="cls-3" d="m395.96,244.15c-.86,1.12-3.29,4.15-3.46,8.65-.17,6.23,4.15,11.41,8.65,13.84,5.36,2.94,13.49,3.46,19.02-1.73,3.98-3.8,5.53-9.6,4.32-14.7-1.64-7-8.13-11.67-14.7-12.11-5.53-.43-10.72,2.16-13.84,6.05Z"/>
        <line class="cls-3" x1="-10.55" y1="194.08" x2="841.22" y2="575"/>
        <path class="cls-3" d="m134.81,213.89c1.9,2.51,4.41,3.63,6.05,4.32,5.79,2.51,14.61,2.77,19.89-2.59.78-.78,2.59-2.85,3.46-6.05,1.38-5.36-.61-11.07-4.32-14.7-5.02-4.93-11.59-4.41-12.97-4.32-1.64.09-8.13.61-12.11,6.05-3.72,5.19-3.55,12.54,0,17.29Z"/>
        <line class="cls-3" x1="44.45" y1="315.67" x2="429" y2="699.61"/>
        <line class="cls-3" x1="342.96" y1="451.52" x2="511.84" y2="616.16"/>
        <polyline class="cls-3" points="356.88 358.47 383.17 285.23 398.9 265.17"/>
        <polyline class="cls-3" points="415.07 602.5 457.79 563.41 491.08 480.83"/>
        <polyline class="cls-3" points="757.77 661.82 801.53 705.92 834.82 672.63"/>
        <polyline class="cls-3" points="955.45 1751.48 998.69 1708.16 1027.91 1734.1 1211.41 1538.67 1372.25 1382.15 1493.06 1259.62"/>
        <path class="cls-3" d="m57.85,1167.69c-53.61,52.58-107.23,105.24-160.84,157.81l44.97,40.21c52.75-52.49,105.41-104.89,158.16-157.38"/>
        <path class="cls-3" d="m325.92,126.72c18.25,18.85,38.39,38.22,60.53,57.76,34.68,30.61,68.57,56.64,100.31,78.69-11.59,21.36-23.18,42.8-34.76,64.16"/>
        <polyline class="cls-3" points="489.01 345.41 517.03 292.58 481.83 272.34"/>
        <path class="cls-3" d="m651.49,261.97l73.07,60.88c4.58,3.37,11.24,8.39,19.02,14.7s8.82,7.44,9.51,8.65c6.92,11.5-8.22,32.95-15.57,42.37"/>
        <line class="cls-3" x1="1109.98" y1="535.22" x2="1128.92" y2="586.76"/>
        <polyline class="cls-3" points="1067.43 513.35 1072.19 472.44 1319.5 324.57 1398.11 315.67 1084.64 522.25"/>
      </g>
    </g>
  </g>
</svg>