<?xml version="1.0" encoding="utf-8"?>
<!-- Generator: Adobe Illustrator 27.8.0, SVG Export Plug-In . SVG Version: 6.00 Build 0)  -->
<svg version="1.1" xmlns="http://www.w3.org/2000/svg" xmlns:xlink="http://www.w3.org/1999/xlink" x="0px" y="0px"
	 viewBox="0 0 3840 2160" style="enable-background:new 0 0 3840 2160;" xml:space="preserve">
<style type="text/css">
	.st0{fill:#1D1C1D;}
	.st1{display:none;}
	.st2{fill:none;stroke:#F2F1ED;stroke-width:4;stroke-miterlimit:10;}
	.st3{fill:none;stroke:#F2F1ED;stroke-width:2;stroke-miterlimit:10;}
</style>
<g id="Layer_5">
	<rect x="-256" y="-162" class="st0" width="4379" height="2642"/>
</g>
<g id="Layer_1" class="st1">
</g>
<g id="Layer_2">
	<path class="st2" d="M399-14l95,78L623-48l30.2,56L812,88c-31.3,38.3-62.7,76.7-94,115c40.7,43.9,76.9,79,105,105
		c43,39.8,61.4,53.2,88,61c42.3,12.5,79.1,3.2,91,0c45.1-12,74.2-39.3,108-71c18.4-17.2,32-33,41-44c11.8,9.3,29.5,23.2,51,40
		c81.1,63.4,121.7,95.1,132,102c59.5,39.4,134.3,89,210,68c18.5-5.1,63.1-21.7,102-85c21.3,14,39.4,24.7,52,32
		c108.5,62.6,195.9,87.6,219,94c19.1,5.3,34.9,8.8,45,11c-11.2,22.8-24.1,47-39,72c-13.3,22.4-26.8,43.1-40,62
		c0.2,6.1,1.4,15.8,8,24c12.5,15.6,35.6,14.6,49,14c47.7-2.1,83.9-36.2,98-51c64.7-41.3,129.3-82.7,194-124c72.3-3,134.4-8.4,184-14
		c71.1-8,106.7-12,136-19c23.8-5.7,48.4-12.9,50-9c2.2,5.4-39.9,27.6-52,34c-64.7,34.2-210.3,113.7-465,254c-3.3,8.3-6.7,16.7-10,25
		c47.7,30.3,95.3,60.7,143,91c32-15.3,64-30.7,96-46l4,5l24-10l3,4l32-18l7,12l-29,21l4,5l29-13h15l20-12l8,13l-45,43l4,6l26-10l6,7
		l-56,41l5,8l-8,9c3.1,2.2,7.8,5.1,14,7c12.1,3.6,23.9,1.4,38-4c22-8.4,36.3-19.4,43-24c30.8-21.3,65.9-22.3,91-23
		c46.8-1.3,84.4,14.7,106,24c19.8,8.5,41,20.2,70,29c5.8,1.8,15.6,4.5,35,10c14.1,4,19.5,5.4,27,7c18,3.8,28.2,4,31,4
		c13.7,0.2,21.2,0.1,27-5c5.5-4.8,3.4-8.7,10-16c2.1-2.3,8.5-9.1,19-11c14.2-2.5,24.9,6.1,26,7c8.4,7,10.5,16.3,12,23
		c2.1,9.5,0.2,12.2,0,29c-0.2,16.2-0.3,24.8,3,34c5.2,14.5,16,23,20,26c9.8,7.4,29.6,10.1,69,15c12.8,1.6,20.4,2.3,30,0
		c8.1-1.9,11.4-4.5,25-10c0,0,10.2-4.1,26-9c54.7-17,103-7,103-7c6.8,1.4,15.6,3.7,23-1c9.1-5.8,11.3-18.9,11.7-29.2
		c-0.2-0.3-0.4-0.5-0.7-0.8c-4.4-4.7-11.9-4.5-16-4c1-8.3,2-16.6,3-25c6.2-54,10.4-106.7,13-158l30-1v15.5c11.1,4.8,20.4,7.7,27,9.5
		c9.4,2.5,13.6,2.9,19,7c7.7,5.8,10.8,13.9,12,17c2.9,7.7,1.6,10.9,3,19c1.9,10.9,5.6,12.4,12,27c5.5,12.6,7.8,22.9,11,37
		c1,4.3,0.8,4.1,5,27c3.1,16.9,4.6,25.4,5,27c2.7,12.1,10.8,29.2,36,49c2.3,0.3,4.7,0.7,7,1c-3.3-39.3-6.7-78.7-10-118
		c43.3-4.3,86.7-8.7,130-13c-2.3-5.5-6.2-13.6-13-22c-9.2-11.3-14.1-11.6-24-23c-8.5-9.8-6.2-11.3-18-28c-6.4-9-12.2-17.3-21-25
		c-11.7-10.2-23.2-14.7-29-17c-89.1-35.1-154.6-69.1-192-80c-1.8-0.5-7.5-2.1-14-6c0,0-11.7-6.9-20-19c-12.1-17.7-8.6-44.3-6-74
		c2-22.9,1.9-46.1,4-69c2.4-25.6,5.8-64.3,10-114c-3.3-4-6.7-8-10-12c4-10,8-20,12-30c11,5,22,10,33,15
		c216.4,97.9,432.6,186,648,265"/>
	<path class="st2" d="M102-27c1470.7,1456.4,2058.6,2036.9,2097.5,2072.8c38.8,35.8,83.5,63.2,83.5,63.2c12.4,7.6,32.8,20,59,31
		c27.4,11.5,72.8,26.4,134,28"/>
	<path class="st2" d="M492.9,360.1L1474,802l126,55c11.3,10,22.7,20,34,30c21-20.7,42-41.3,63-62c17.7,6.3,35.3,12.7,53,19l611,599
		l447,138c357.7,10,715.3,20,1073,30"/>
	<path class="st2" d="M865,527.7c110.3,108.8,220.6,217.5,331,326.3c23.5,24.4,41.1,44.7,53,59c12.9,15.5,21.1,26.2,37,37
		c3.3,2.2,14.1,9.3,42,19c36.7,12.7,43.9,9.4,79,21c18.4,6.1,34.4,11.5,53,23c20.8,12.9,33.4,26.5,46,40c97.8,105.1,58.1,60.1,72,77
		c101,122.8,724.5,705.5,823.9,816.1c4.8,5.3,21.5,24.1,47.1,45.9c6.6,5.6,35.5,29.8,83,57c9.1,5.2,60.6,34.4,120,54
		c67.4,22.3,129.4,27.2,248,27c78.8-0.1,180.2-2.5,299-11c0.3,37.7,0.7,75.3,1,113"/>
	<path class="st2" d="M702,2186L1894.4,985.5c54.2-59.2,108.4-118.4,162.6-177.5"/>
	<polyline class="st2" points="1042,2199 2069.1,1156.8 2152.8,1070.5 	"/>
	<path class="st2" d="M0,2199L1576,610h48.7L1869,712l355,182l414.1,186l232.9,99c85.3,2.7,170.7,5.3,256,8c-1.7-7.9-3.5-21.6,0-38
		c2.8-13.2,8-22.5,10-26c3.5-5.9,12-20.5,28-29c21.9-11.7,50.6-8.2,71,6c3.2,2.3,26.6,19,29,46c1.6,18.1-6.7,34.7-14,49
		c-6,11.9-10,15.4-14,27c-5.2,15.1-5,27.7-5,34c0.2,24.6-0.5,75.4-1,143l-17,627l-6,317"/>
	<path class="st2" d="M1971,2237c5.4-22.3,16.2-53.6,39-85c11.3-15.6,39.3-53.1,91-75c13.2-5.6,32.9-14.2,59-15c4.4-0.1,7.3,0,34,2
		c51.2,3.8,50,4,53,4c14.2-0.1,28.2-4.3,81-43c62.8-46,64.7-56.2,96-68c37.7-14.2,63.6-10,73-8c16.2,3.5,28.7,10.2,32,12
		c16.4,9.1,25.8,19.6,32,26c36.8,37.8,83.7,54.3,97,59c16.9,6,27.9,7.5,48,11c15.1,2.6,107.4,19.1,151,35c27.8,10.1,87,38.8,140,131
		"/>
	<line class="st2" x1="-39" y1="112" x2="1280" y2="1433"/>
	<path class="st2" d="M1197,1567"/>
	<line class="st2" x1="556.1" y1="2168" x2="1894.4" y2="821.4"/>
	<line class="st2" x1="2066.9" y1="985.5" x2="816" y2="2253"/>
	<path class="st2" d="M1161.7,2232c359.4-357.7,718.9-715.3,1078.3-1073"/>
	<path class="st2" d="M1856.7,1709.1c155.1-154.4,310.2-308.7,465.3-463.1"/>
	<path class="st2" d="M351,2186c491.7-497.3,983.3-994.7,1475-1492"/>
	<path class="st2" d="M3874,1484c-350.7-9-701.3-18-1052-27c-213.7-60.1-367.7-103.3-385-108c-1.7-0.4-5.8-1.8-11-4
		c-24.8-10.6-39.2-28.1-46-36c-17.5-20.6-47.1-52.1-85-93l-345.2-351.7L1876,806l-172.2-74.2l-175.9-73.4"/>
	<polyline class="st2" points="3221.8,1736.5 2805,1724 2312,1578 1634,887 	"/>
	<line class="st2" x1="733.5" y1="1459.5" x2="1597.4" y2="2299.4"/>
	<line class="st2" x1="1045" y1="1484" x2="1991" y2="2413"/>
	<line class="st2" x1="-22" y1="1260.9" x2="1070.5" y2="2343"/>
	<polyline class="st2" points="2240,1159 2815,1322 2850,1349 3914.1,1379.8 	"/>
	<line class="st2" x1="-16" y1="354" x2="383.1" y2="-48"/>
	<path class="st2" d="M324-68"/>
</g>
<g id="Layer_3">
	<path class="st3" d="M-16,322.5c2.5,2.5,922.7,925.1,922.7,925.2c16,16.1,24,24.1,24,24.1c8.1,8.1,8.5,8.4,10.2,10.3
		c1.8,1.9,15,16,24,31c7.8,13,10.4,23.1,15,39c4.7,16,14.5,49.8,23,70c6.8,16.2,18.9,38.4,42,62"/>
	<path class="st3" d="M-39,928c449-462.2,629.3-647.8,643.6-662.6c5.3-5.4,10.6-10.8,15.9-16.3c8.1-8.5,18.8-19.9,31.5-32.1
		c0,0,3.1-3,9-8c10.2-8.7,13.5-10.2,16-11c0.3-0.1,6.2-2,12-1c5.1,0.9,8.5,3.8,10,5c0,0,68.3,56.1,83,83c2.7,5,3,10,3,10
		c0.1,1.4,0.3,7.5-6,18c-4.3,7.2-8.8,11.8-9,12c-5.1,5.2-14,14.3-26.1,26.6c-13.9,14.2-34,34.6-83,84.2
		C629.2,467.8,445.8,652.1-32,1132"/>
	<path class="st3" d="M585.8,1948.5L-8,1365v94.5l545.3,538.1l-47.8,48.4L-22,1536.2l22,112.7l443.8,443.2l-48.2,48.7L-18,1723
		l4,105l372.9,350l-65.9,69L60,2076l-115-186c93-99,186-198,279-297"/>
	<line class="st3" x1="489.5" y1="2045.9" x2="849" y2="2405"/>
	<line class="st3" x1="1367.3" y1="1516.1" x2="1961" y2="2114"/>
	<polyline class="st3" points="2645,1204 2522.4,1640.3 2519.1,2168 	"/>
	<polyline class="st3" points="2322,1404.8 1657.3,2085.3 1645.2,2114 1545,2217 	"/>
	<line class="st3" x1="1390" y1="2177" x2="1856.7" y2="1709.1"/>
	<line class="st3" x1="1316.6" y1="2168" x2="2061" y2="1418"/>
	<polyline class="st3" points="2187,1543 1880,1237 1679.8,1037.3 1582.3,940.5 	"/>
	<line class="st3" x1="1424" y1="1363" x2="1719.1" y2="1080"/>
	<line class="st3" x1="1471" y1="1411.8" x2="1390.1" y2="1328.8"/>
	<line class="st3" x1="1280" y1="2265" x2="768.2" y2="1763.9"/>
	<line class="st3" x1="539.6" y1="2096" x2="820.4" y2="1815.1"/>
	<polyline class="st3" points="627.3,2177 904.8,1897.6 985.5,1817.4 992,1811 1034.1,1851.7 	"/>
	<path class="st3" d="M3881,748c-423.1-171.3-590.1-239.2-603.8-245c-6-2.6-9.8-4.1-17.2-7c0,0-9.9-3.9-29-10c-12-3.8-14.9-4.4-18-3
		c-6.2,2.8-8.2,11.2-9,15c-10,46.7-13.9,134.3-15,153c-0.1,1.4-0.6,13.3,1,29c1.1,10.3,1.7,15.6,4,21c5.9,13.8,19.5,20.5,27,24
		c22.5,10.6,89.9,39.4,182,76c151,62.7,302,125.3,453,188"/>
	<line class="st3" x1="3881" y1="805.8" x2="3199" y2="527.7"/>
	<line class="st3" x1="3853" y1="845" x2="3193.8" y2="576.8"/>
	<line class="st3" x1="3863" y1="894.5" x2="3190.9" y2="618"/>
	<line class="st3" x1="3853" y1="935.7" x2="3188.8" y2="662.4"/>
	<path class="st3" d="M3949,606"/>
	<path class="st3" d="M3462,2196c-31.3-349.3-62.7-698.7-94-1048c12.7-5.3,29.7-12.2,50-20c19.4-7.4,49.7-19,88-31
		c20.7-6.5,42.6-13.4,67-19c30.2-7,73.8-14.2,129-14"/>
	<line class="st3" x1="3212.6" y1="2101.5" x2="3873" y2="2112"/>
	<path class="st3" d="M3881,1865.2l-701-9.2c-21.2-2.1-45.3-2.7-71.6,0c-32.4,3.3-53.4,5.4-78.4,17c-12.4,5.8-21.4,11.9-39,16
		c-18.2,4.3-32.6,3.4-39,3c-67.7-3.7-98,6-171-3c-30.7-3.8-44.2-7.8-123-28c-44.6-11.4-110.4-28.1-192-48"/>
	<path class="st3" d="M2452,1791c-5.9-0.9-12.1,1.4-16,6c-3.9,4.5-5.9,11.7-3,18c3.4,7.4,12.1,10.2,19,9c7-1.2,14.3-6.8,15-15
		C2467.8,1800,2460.2,1792.3,2452,1791z"/>
	<line class="st3" x1="3221.8" y1="1736.5" x2="3894" y2="1756"/>
	<polyline class="st3" points="3265.2,2102.3 3278.9,1674.6 3285.5,1468.9 	"/>
	<polyline class="st3" points="3859,1689 3415.4,1676.2 3278.9,1674.6 	"/>
	<polyline class="st3" points="3607.6,1071.2 3594.6,1476.5 3589.2,1747.2 3587.8,1809.1 3579.4,2160 	"/>
	<polyline class="st3" points="3749,2203 3765.8,1484 3780.7,1144.2 	"/>
	<line class="st3" x1="3275" y1="1796.2" x2="3426.6" y2="1801.4"/>
	<line class="st3" x1="3271" y1="1921.4" x2="3437.4" y2="1921.4"/>
	<line class="st3" x1="3443.3" y1="1987.2" x2="3003" y2="1967"/>
	<line class="st3" x1="3448.3" y1="2042.9" x2="3267.2" y2="2038.6"/>
	<path class="st3" d="M2997,2155.8c2.5-106.8,4.2-184.7,6-216.3c0.6-10.5,2-29.3-4-52.5c-3.4-13.3-6.5-17.2-10-30
		c-3.4-12.5-6.5-30.9-4-55c0.9-44.3,1.9-88.7,3-133c3.2-130,7.2-260,12-390"/>
	<polyline class="st3" points="2839.7,1341.1 2852,1321 3055,1264 3157,1234 3877,1260 	"/>
	<path class="st3" d="M3852,1171c-18.7-8.8-45.5-19.9-79-29c-25.3-6.9-66.2-17.6-115-16c-32.4,1.1-56.4,7.3-109,24
		c-45.2,14.4-104.8,34.4-175,61"/>
	<line class="st3" x1="3392.7" y1="1423.5" x2="3596.1" y2="1429.5"/>
	<line class="st3" x1="3298" y1="1299" x2="3852" y2="1317.8"/>
	<line class="st3" x1="3603.8" y1="1189.5" x2="3778.5" y2="1194.8"/>
	<line class="st3" x1="3768" y1="1434.7" x2="3881" y2="1440.8"/>
	<line class="st3" x1="3285.5" y1="1538.5" x2="3874" y2="1563"/>
	<line class="st3" x1="3755.3" y1="1933.7" x2="3859" y2="1933.7"/>
	<line class="st3" x1="3754" y1="1987.2" x2="3863" y2="1994"/>
	<line class="st3" x1="3752.4" y1="2055.9" x2="3890.9" y2="2055.9"/>
	<path class="st3" d="M3894,2029.7"/>
	<line class="st3" x1="3758.1" y1="1813" x2="3587.8" y2="1809.1"/>
	<polyline class="st3" points="3582.8,2017.4 3526.3,2017.4 3526.3,1860.5 	"/>
	<path class="st3" d="M3444.8,2004.4c9.1,0,18.3,0,27.4,0c3.3,8,7.4,16.3,12.8,24.6c28.4,44.5,72.9,63.3,96,71"/>
	<polyline class="st3" points="3754,1958.1 3584.3,1955 3583.5,1990.6 3755.3,1994 	"/>
	<polyline class="st3" points="2902.9,2115.9 2993.9,2101.5 3031.6,2101.5 3139,2098 3163.1,1234 	"/>
	<path class="st3" d="M2627,2192c0.6-12.9,1.5-33,2-58c0.5-27.5,0.1-34.4,2-45c1.6-8.5,8.9-38.9,34-63c3.9-3.7,15.9-11.5,40-27
		c28-18,31.1-18.8,41-27c9.1-7.5,22.3-18.5,34-37c4.8-7.5,17.3-28.8,21-59c1.3-10.5,1.1-18.4,1-21c-1.3-49.7,3.4-99.3,4-149
		c0.8-65.7,3.7-131.3,3-197c-0.3-34.4,2.8-68.7,4-103c0.2-5.7,0.7-18.9,4-36c3.2-16.4,7.7-29.5,11-38"/>
	<path class="st3" d="M2329,1521c227.6,63,379.8,104.2,396,106c1.8,0.2,11.1,1,13,6c1.7,4.5-3.6,10.3-6,13
		c-10.2,11.3-23.5,26.4-40,45l-21.2,75.1l-25.8,91.6"/>
	<path class="st3" d="M2437,1349c-0.5,11.4-1.8,20.9-3,28c-3.7,21.9-7.8,26-11,28c-4.1,2.5-8.4,2.4-13,2c-9.8-0.8-25.2-3-45-10"/>
	<line class="st3" x1="3154.6" y1="1538.5" x2="2809.1" y2="1528.1"/>
	<path class="st3" d="M3158,1416.4c-152.6-0.7-264.4-2-272-3.4c-5.2-0.9-10-4-10-4c-1.3-1.3-2.7-2.7-4-4c0.4-6.9,0.7-13.9,1-21
		c0.5-11.5,0.8-22.9,1-34"/>
	<line class="st3" x1="2997.5" y1="1299" x2="3161.3" y2="1299"/>
	<line class="st3" x1="3298" y1="1239.1" x2="3298" y2="1362"/>
	<polyline class="st3" points="2754.6,1709.1 2732.6,1790.8 2670.8,1766.1 	"/>
	<line class="st3" x1="2814.4" y1="1386.3" x2="2402.4" y2="1269.4"/>
	<polyline class="st3" points="2435.1,1369.7 2490,1429 2575.6,1451 2809.1,1521 	"/>
	<line class="st3" x1="2370.6" y1="1378.1" x2="2194.8" y2="1204"/>
	<polyline class="st3" points="2271.9,1456 1719.1,909.7 1765.7,859.4 	"/>
	<polyline class="st3" points="1977.4,1334.1 1729.6,1583.5 1583.8,1734.2 	"/>
	<path class="st3" d="M1819.8,1477.5c2.4,2.5,4.8,5,7.2,7.5c-13.3-14-26.6-28-40-42l12.1-12.3L1754,1387
		c45.7-46.3,91.5-92.6,137.2-138.9"/>
	<line class="st3" x1="1156.4" y1="2168" x2="1441.4" y2="1873.3"/>
	<polyline class="st3" points="1505.3,2061.4 1555,2109 1755.4,1907 	"/>
	<line class="st3" x1="1700.8" y1="2128.1" x2="1836.4" y2="1988.5"/>
	<polyline class="st3" points="1741.5,2168 2312,1578 2421.6,1204 2433,1141 	"/>
	<line class="st3" x1="1924.6" y1="2152.2" x2="1836.4" y2="2069.9"/>
	<polyline class="st3" points="1920.5,2069.9 2032.5,1953.5 2074.2,1992.9 	"/>
	<line class="st3" x1="2232.9" y1="1659.8" x2="2322" y2="1746.8"/>
	<line class="st3" x1="2269.3" y1="1622.1" x2="2359.2" y2="1709.1"/>
	<polyline class="st3" points="943.3,2217 1597.4,1543 1644.5,1587.6 	"/>
	<line class="st3" x1="803.6" y1="2168" x2="1410.9" y2="1560"/>
	<polyline class="st3" points="1567.4,1423.2 1527.9,1468.1 1559.1,1497 	"/>
	<line class="st3" x1="948.5" y1="1773.2" x2="956.5" y2="1846.2"/>
	<polyline class="st3" points="816,1715.6 872.8,1773.2 965.3,1684.9 	"/>
	<polyline class="st3" points="1095.8,1533.9 1304,1325 1337.9,1325 	"/>
	<polyline class="st3" points="1365.8,1353.2 1337.9,1325 -9,-35 	"/>
	<path class="st3" d="M-16,55c434.7,428.7,869.3,857.3,1304,1286"/>
	<line class="st3" x1="1143.2" y1="1384.7" x2="-22" y2="231.3"/>
	<polyline class="st3" points="265.4,1545.5 1143.2,659.1 1255,547 	"/>
	<path class="st3" d="M-31,1592c377-384.7,754-769.3,1131-1154c8.9,8.8,22.1,21.2,39,35c48.6,39.9,93.6,63.7,143,87
		c96.5,45.5,188.8,78.7,246,98"/>
	<path class="st3" d="M-16,1325c300-303.3,600-606.7,900-910"/>
	<line class="st3" x1="136.4" y1="475.2" x2="373" y2="231.3"/>
	<path class="st3" d="M-39,95.7"/>
	<line class="st3" x1="-22" y1="95.7" x2="117.8" y2="-48"/>
	<line class="st3" x1="678.4" y1="1854.8" x2="-155" y2="1036"/>
	<line class="st3" x1="556.1" y1="1638.3" x2="-185" y2="913"/>
	<line class="st3" x1="602" y1="1592" x2="-164" y2="837"/>
	<line class="st3" x1="648.1" y1="1545.5" x2="-100" y2="821.4"/>
	<line class="st3" x1="733.5" y1="1459.5" x2="-123.9" y2="610"/>
	<line class="st3" x1="500" y1="1308.6" x2="-55" y2="772.5"/>
	<line class="st3" x1="953.7" y1="1576.4" x2="-93" y2="536"/>
	<line class="st3" x1="1003.1" y1="1526.4" x2="-55" y2="475.2"/>
	<polyline class="st3" points="222.9,658.5 973,1411 997,1406.1 	"/>
	<path class="st3" d="M1179,445c-1,1.3-3.8,4.8-4,10c-0.2,7.2,4.8,13.2,10,16c6.2,3.4,15.6,4,22-2c4.6-4.4,6.4-11.1,5-17
		c-1.9-8.1-9.4-13.5-17-14C1188.6,437.5,1182.6,440.5,1179,445z"/>
	<path class="st3" d="M297,38.7c45,47.8,90,95.5,135,143.3c2.8,2.3,9,6.8,18,8c0.9,0.1,13.2,1.6,21-4c0.7-0.5,2-1.5,3.1-2.4
		c4.2-3.5,6.9-6.5,7.9-7.6c10.6-11.7,16-17.5,22-20c2-0.8,6.3-2.5,12-2c7.7,0.7,13,5.1,15,7c13.6,12.6,27.2,25.6,41,39
		c16.9,16.5,33.3,32.8,49,49"/>
	<line class="st3" x1="708.9" y1="387.1" x2="1693.9" y2="827.6"/>
	<path class="st3" d="M877,410c2.2,2.9,5.1,4.2,7,5c6.7,2.9,16.9,3.2,23-3c0.9-0.9,3-3.3,4-7c1.6-6.2-0.7-12.8-5-17
		c-5.8-5.7-13.4-5.1-15-5c-1.9,0.1-9.4,0.7-14,7C872.7,396,872.9,404.5,877,410z"/>
	<line class="st3" x1="772.5" y1="527.7" x2="1217.2" y2="971.7"/>
	<line class="st3" x1="1117.7" y1="684.8" x2="1313" y2="875.2"/>
	<polyline class="st3" points="1133.8,577.2 1164.2,492.5 1182.4,469.3 	"/>
	<polyline class="st3" points="1201.1,859.4 1250.5,814.2 1289,718.7 	"/>
	<polyline class="st3" points="1597.4,928 1648,979 1686.5,940.5 	"/>
	<polyline class="st3" points="2815,1322 2814.4,1252.2 2402.4,1133.6 2240,1159 	"/>
	<polyline class="st3" points="2159.3,2006.9 2314.3,1856.6 2449.3,1686 2471.2,1703.3 2522.1,1703.3 	"/>
	<polyline class="st3" points="1826,2188.1 1876,2138 1909.8,2168 2122,1942 2308,1761 2447.7,1619.3 	"/>
	<path class="st3" d="M788,1513c-62,60.8-124,121.7-186,182.5l52,46.5c61-60.7,121.9-121.3,182.9-182"/>
	<path class="st3" d="M2340.7,1204"/>
	<line class="st3" x1="494" y1="64" x2="511.2" y2="154.1"/>
	<path class="st3" d="M1098,309.2c21.1,21.8,44.4,44.2,70,66.8c40.1,35.4,79.3,65.5,116,91c-13.4,24.7-26.8,49.5-40.2,74.2"/>
	<polyline class="st3" points="1286.6,562.1 1319,501 1278.3,477.6 	"/>
	<path class="st3" d="M1474.5,465.6L1559,536c5.3,3.9,13,9.7,22,17c9,7.3,10.2,8.6,11,10c8,13.3-9.5,38.1-18,49"/>
	<line class="st3" x1="2004.7" y1="781.6" x2="2026.6" y2="841.2"/>
	<polyline class="st3" points="1955.5,756.3 1961,709 2247,538 2337.9,527.7 1975.4,766.6 	"/>
</g>
<g id="Layer_4">
</g>
</svg>
